<?xml version="1.0" encoding="UTF-8" standalone="no"?>
<!DOCTYPE svg PUBLIC "-//W3C//DTD SVG 1.1//EN"
 "http://www.w3.org/Graphics/SVG/1.1/DTD/svg11.dtd">
<!-- Generated by graphviz version 2.48.0 (0)
 -->
<!-- Pages: 1 -->
<svg width="3536pt" height="521pt"
 viewBox="0.00 0.00 3535.70 521.00" xmlns="http://www.w3.org/2000/svg" xmlns:xlink="http://www.w3.org/1999/xlink">
<g id="graph0" class="graph" transform="scale(1 1) rotate(0) translate(4 517)">
<polygon fill="white" stroke="transparent" points="-4,4 -4,-517 3531.7,-517 3531.7,4 -4,4"/>
<!-- arokettu/composer&#45;viz -->
<g id="node1" class="node">
<title>arokettu/composer&#45;viz</title>
<path fill="#eeffee" stroke="#000000" d="M692.2,-513C692.2,-513 452.2,-513 452.2,-513 446.2,-513 440.2,-507 440.2,-501 440.2,-501 440.2,-489 440.2,-489 440.2,-483 446.2,-477 452.2,-477 452.2,-477 692.2,-477 692.2,-477 698.2,-477 704.2,-483 704.2,-489 704.2,-489 704.2,-501 704.2,-501 704.2,-507 698.2,-513 692.2,-513"/>
<text text-anchor="middle" x="572.2" y="-491.3" font-family="Times,serif" font-size="14.00" fill="#000000">arokettu/composer&#45;viz: dev&#45;master</text>
</g>
<!-- php -->
<g id="node2" class="node">
<title>php</title>
<path fill="#eeeeff" stroke="#000000" d="M1241.2,-36C1241.2,-36 1211.2,-36 1211.2,-36 1205.2,-36 1199.2,-30 1199.2,-24 1199.2,-24 1199.2,-12 1199.2,-12 1199.2,-6 1205.2,0 1211.2,0 1211.2,0 1241.2,0 1241.2,0 1247.2,0 1253.2,-6 1253.2,-12 1253.2,-12 1253.2,-24 1253.2,-24 1253.2,-30 1247.2,-36 1241.2,-36"/>
<text text-anchor="middle" x="1226.2" y="-14.3" font-family="Times,serif" font-size="14.00" fill="#000000">php</text>
</g>
<!-- arokettu/composer&#45;viz&#45;&gt;php -->
<g id="edge1" class="edge">
<title>arokettu/composer&#45;viz&#45;&gt;php</title>
<path fill="none" stroke="#000000" d="M439.97,-483.27C297.84,-469.93 91.39,-444.49 86.2,-409"/>
<path fill="none" stroke="#000000" d="M86.2,-407C-18.32,-295.08 -39.85,-140.05 92.2,-62.5"/>
<path fill="none" stroke="#000000" d="M92.2,-60.5C140.84,-32.74 998.22,-21.55 1188.85,-19.4"/>
<polygon fill="#000000" stroke="#000000" points="1188.97,-22.9 1198.93,-19.29 1188.89,-15.9 1188.97,-22.9"/>
<text text-anchor="middle" x="50.7" y="-263.3" font-family="Times,serif" font-size="14.00" fill="#000000">&gt;= 5.5 &lt; 9</text>
</g>
<!-- composer&#45;plugin&#45;api -->
<g id="node3" class="node">
<title>composer&#45;plugin&#45;api</title>
<path fill="#eeeeff" stroke="#000000" d="M987.7,-339C987.7,-339 850.7,-339 850.7,-339 844.7,-339 838.7,-333 838.7,-327 838.7,-327 838.7,-315 838.7,-315 838.7,-309 844.7,-303 850.7,-303 850.7,-303 987.7,-303 987.7,-303 993.7,-303 999.7,-309 999.7,-315 999.7,-315 999.7,-327 999.7,-327 999.7,-333 993.7,-339 987.7,-339"/>
<text text-anchor="middle" x="919.2" y="-317.3" font-family="Times,serif" font-size="14.00" fill="#000000">composer&#45;plugin&#45;api</text>
</g>
<!-- arokettu/composer&#45;viz&#45;&gt;composer&#45;plugin&#45;api -->
<g id="edge2" class="edge">
<title>arokettu/composer&#45;viz&#45;&gt;composer&#45;plugin&#45;api</title>
<path fill="none" stroke="#000000" d="M704.47,-481.99C783.91,-471.97 874.76,-454.59 902.2,-426 921.53,-405.85 923.85,-372.76 922.58,-349.32"/>
<polygon fill="#000000" stroke="#000000" points="926.06,-349.01 921.79,-339.31 919.09,-349.56 926.06,-349.01"/>
<text text-anchor="middle" x="960.2" y="-404.3" font-family="Times,serif" font-size="14.00" fill="#000000">^1.1 | ^2.0</text>
</g>
<!-- graphp/graphviz -->
<g id="node4" class="node">
<title>graphp/graphviz</title>
<path fill="#ffffff" stroke="#000000" d="M251.7,-231C251.7,-231 86.7,-231 86.7,-231 80.7,-231 74.7,-225 74.7,-219 74.7,-219 74.7,-207 74.7,-207 74.7,-201 80.7,-195 86.7,-195 86.7,-195 251.7,-195 251.7,-195 257.7,-195 263.7,-201 263.7,-207 263.7,-207 263.7,-219 263.7,-219 263.7,-225 257.7,-231 251.7,-231"/>
<text text-anchor="middle" x="169.2" y="-209.3" font-family="Times,serif" font-size="14.00" fill="#000000">graphp/graphviz: v0.2.2</text>
</g>
<!-- arokettu/composer&#45;viz&#45;&gt;graphp/graphviz -->
<g id="edge3" class="edge">
<title>arokettu/composer&#45;viz&#45;&gt;graphp/graphviz</title>
<path fill="none" stroke="#000000" d="M86.2,-407C79.64,-373.15 128.04,-284.04 153.79,-239.75"/>
<polygon fill="#000000" stroke="#000000" points="156.88,-241.41 158.92,-231.01 150.84,-237.87 156.88,-241.41"/>
<text text-anchor="middle" x="119.7" y="-360.8" font-family="Times,serif" font-size="14.00" fill="#000000">~0.2.0</text>
</g>
<!-- composer/composer -->
<g id="node5" class="node">
<title>composer/composer</title>
<path fill="#eeeeee" stroke="#777777" d="M2321.2,-426C2321.2,-426 2139.2,-426 2139.2,-426 2133.2,-426 2127.2,-420 2127.2,-414 2127.2,-414 2127.2,-402 2127.2,-402 2127.2,-396 2133.2,-390 2139.2,-390 2139.2,-390 2321.2,-390 2321.2,-390 2327.2,-390 2333.2,-396 2333.2,-402 2333.2,-402 2333.2,-414 2333.2,-414 2333.2,-420 2327.2,-426 2321.2,-426"/>
<text text-anchor="middle" x="2230.2" y="-404.3" font-family="Times,serif" font-size="14.00" fill="#777777">composer/composer: 2.1.9</text>
</g>
<!-- arokettu/composer&#45;viz&#45;&gt;composer/composer -->
<g id="edge4" class="edge">
<title>arokettu/composer&#45;viz&#45;&gt;composer/composer</title>
<path fill="none" stroke="#777777" d="M704.38,-487.22C1021.21,-470.98 1819.63,-430.05 2116.61,-414.82"/>
<polygon fill="#777777" stroke="#777777" points="2117.15,-418.3 2126.96,-414.29 2116.79,-411.31 2117.15,-418.3"/>
<text text-anchor="middle" x="1517.7" y="-447.8" font-family="Times,serif" font-size="14.00" fill="#777777">^2.0</text>
</g>
<!-- dealerdirect/phpcodesniffer&#45;composer&#45;installer -->
<g id="node6" class="node">
<title>dealerdirect/phpcodesniffer&#45;composer&#45;installer</title>
<path fill="#eeeeee" stroke="#777777" d="M507.7,-426C507.7,-426 126.7,-426 126.7,-426 120.7,-426 114.7,-420 114.7,-414 114.7,-414 114.7,-402 114.7,-402 114.7,-396 120.7,-390 126.7,-390 126.7,-390 507.7,-390 507.7,-390 513.7,-390 519.7,-396 519.7,-402 519.7,-402 519.7,-414 519.7,-414 519.7,-420 513.7,-426 507.7,-426"/>
<text text-anchor="middle" x="317.2" y="-404.3" font-family="Times,serif" font-size="14.00" fill="#777777">dealerdirect/phpcodesniffer&#45;composer&#45;installer: v0.7.1</text>
</g>
<!-- arokettu/composer&#45;viz&#45;&gt;dealerdirect/phpcodesniffer&#45;composer&#45;installer -->
<g id="edge5" class="edge">
<title>arokettu/composer&#45;viz&#45;&gt;dealerdirect/phpcodesniffer&#45;composer&#45;installer</title>
<path fill="none" stroke="#777777" d="M520.9,-476.9C479.66,-463.15 421.62,-443.81 378.04,-429.28"/>
<polygon fill="#777777" stroke="#777777" points="379.01,-425.91 368.41,-426.07 376.79,-432.55 379.01,-425.91"/>
<text text-anchor="middle" x="462.7" y="-447.8" font-family="Times,serif" font-size="14.00" fill="#777777">*</text>
</g>
<!-- phpcompatibility/php&#45;compatibility -->
<g id="node7" class="node">
<title>phpcompatibility/php&#45;compatibility</title>
<path fill="#eeeeee" stroke="#777777" d="M880.7,-426C880.7,-426 593.7,-426 593.7,-426 587.7,-426 581.7,-420 581.7,-414 581.7,-414 581.7,-402 581.7,-402 581.7,-396 587.7,-390 593.7,-390 593.7,-390 880.7,-390 880.7,-390 886.7,-390 892.7,-396 892.7,-402 892.7,-402 892.7,-414 892.7,-414 892.7,-420 886.7,-426 880.7,-426"/>
<text text-anchor="middle" x="737.2" y="-404.3" font-family="Times,serif" font-size="14.00" fill="#777777">phpcompatibility/php&#45;compatibility: 9.3.5</text>
</g>
<!-- arokettu/composer&#45;viz&#45;&gt;phpcompatibility/php&#45;compatibility -->
<g id="edge6" class="edge">
<title>arokettu/composer&#45;viz&#45;&gt;phpcompatibility/php&#45;compatibility</title>
<path fill="none" stroke="#777777" d="M605.59,-476.8C631.39,-463.51 667.27,-445.02 695.05,-430.71"/>
<polygon fill="#777777" stroke="#777777" points="696.85,-433.72 704.14,-426.03 693.65,-427.5 696.85,-433.72"/>
<text text-anchor="middle" x="667.7" y="-447.8" font-family="Times,serif" font-size="14.00" fill="#777777">*</text>
</g>
<!-- squizlabs/php_codesniffer -->
<g id="node8" class="node">
<title>squizlabs/php_codesniffer</title>
<path fill="#eeeeee" stroke="#777777" d="M668.2,-339C668.2,-339 444.2,-339 444.2,-339 438.2,-339 432.2,-333 432.2,-327 432.2,-327 432.2,-315 432.2,-315 432.2,-309 438.2,-303 444.2,-303 444.2,-303 668.2,-303 668.2,-303 674.2,-303 680.2,-309 680.2,-315 680.2,-315 680.2,-327 680.2,-327 680.2,-333 674.2,-339 668.2,-339"/>
<text text-anchor="middle" x="556.2" y="-317.3" font-family="Times,serif" font-size="14.00" fill="#777777">squizlabs/php_codesniffer: 3.6.0</text>
</g>
<!-- arokettu/composer&#45;viz&#45;&gt;squizlabs/php_codesniffer -->
<g id="edge7" class="edge">
<title>arokettu/composer&#45;viz&#45;&gt;squizlabs/php_codesniffer</title>
<path fill="none" stroke="#777777" d="M570.61,-476.88C567.83,-447 562.07,-385.11 558.73,-349.27"/>
<polygon fill="#777777" stroke="#777777" points="562.2,-348.68 557.78,-339.05 555.23,-349.33 562.2,-348.68"/>
<text text-anchor="middle" x="568.7" y="-404.3" font-family="Times,serif" font-size="14.00" fill="#777777">*</text>
</g>
<!-- graphp/graphviz&#45;&gt;php -->
<g id="edge10" class="edge">
<title>graphp/graphviz&#45;&gt;php</title>
<path fill="none" stroke="#000000" d="M149.12,-195C112.84,-162.6 44.38,-92.57 92.2,-62.5"/>
<text text-anchor="middle" x="114.7" y="-101.3" font-family="Times,serif" font-size="14.00" fill="#000000">&gt;=5.3.0</text>
</g>
<!-- clue/graph -->
<g id="node9" class="node">
<title>clue/graph</title>
<path fill="#ffffff" stroke="#000000" d="M490.7,-123C490.7,-123 367.7,-123 367.7,-123 361.7,-123 355.7,-117 355.7,-111 355.7,-111 355.7,-99 355.7,-99 355.7,-93 361.7,-87 367.7,-87 367.7,-87 490.7,-87 490.7,-87 496.7,-87 502.7,-93 502.7,-99 502.7,-99 502.7,-111 502.7,-111 502.7,-117 496.7,-123 490.7,-123"/>
<text text-anchor="middle" x="429.2" y="-101.3" font-family="Times,serif" font-size="14.00" fill="#000000">clue/graph: v0.9.2</text>
</g>
<!-- graphp/graphviz&#45;&gt;clue/graph -->
<g id="edge9" class="edge">
<title>graphp/graphviz&#45;&gt;clue/graph</title>
<path fill="none" stroke="#000000" d="M210.97,-194.97C256.32,-176.48 328.8,-146.93 377.66,-127.01"/>
<polygon fill="#000000" stroke="#000000" points="379.16,-130.18 387.1,-123.16 376.52,-123.7 379.16,-130.18"/>
<text text-anchor="middle" x="388.2" y="-155.3" font-family="Times,serif" font-size="14.00" fill="#000000">~0.9.0|~0.8.0</text>
</g>
<!-- composer/composer&#45;&gt;php -->
<g id="edge20" class="edge">
<title>composer/composer&#45;&gt;php</title>
<path fill="none" stroke="#777777" d="M1656.2,-320C1659.62,-288.02 1666.11,-270.51 1642.2,-249 1608.86,-219 1471.46,-264.09 1441.2,-231 1430.4,-219.19 1432.23,-208.25 1441.2,-195 1506.15,-99.07 1578.98,-149.88 1686.2,-106"/>
<path fill="none" stroke="#777777" d="M1686.2,-104C1709.64,-94.85 2146.1,-86.04 2137.2,-62.5"/>
<path fill="none" stroke="#777777" d="M2137.2,-60.5C2121.49,-18.95 1433.12,-18.36 1263.61,-18.84"/>
<polygon fill="#777777" stroke="#777777" points="1263.42,-15.34 1253.43,-18.87 1263.45,-22.34 1263.42,-15.34"/>
<text text-anchor="middle" x="1515.2" y="-209.3" font-family="Times,serif" font-size="14.00" fill="#777777">^5.3.2 || ^7.0 || ^8.0</text>
</g>
<!-- composer/ca&#45;bundle -->
<g id="node10" class="node">
<title>composer/ca&#45;bundle</title>
<path fill="#eeeeee" stroke="#777777" d="M1889.7,-339C1889.7,-339 1698.7,-339 1698.7,-339 1692.7,-339 1686.7,-333 1686.7,-327 1686.7,-327 1686.7,-315 1686.7,-315 1686.7,-309 1692.7,-303 1698.7,-303 1698.7,-303 1889.7,-303 1889.7,-303 1895.7,-303 1901.7,-309 1901.7,-315 1901.7,-315 1901.7,-327 1901.7,-327 1901.7,-333 1895.7,-339 1889.7,-339"/>
<text text-anchor="middle" x="1794.2" y="-317.3" font-family="Times,serif" font-size="14.00" fill="#777777">composer/ca&#45;bundle: 1.2.11</text>
</g>
<!-- composer/composer&#45;&gt;composer/ca&#45;bundle -->
<g id="edge14" class="edge">
<title>composer/composer&#45;&gt;composer/ca&#45;bundle</title>
<path fill="none" stroke="#777777" d="M2127.05,-399.51C2072.02,-394.24 2003.42,-385.63 1943.2,-372 1910.58,-364.62 1875.05,-352.85 1846.86,-342.58"/>
<polygon fill="#777777" stroke="#777777" points="1847.81,-339.2 1837.22,-339.02 1845.39,-345.76 1847.81,-339.2"/>
<text text-anchor="middle" x="1960.7" y="-360.8" font-family="Times,serif" font-size="14.00" fill="#777777">^1.0</text>
</g>
<!-- composer/metadata&#45;minifier -->
<g id="node13" class="node">
<title>composer/metadata&#45;minifier</title>
<path fill="#eeeeee" stroke="#777777" d="M2071.7,-285C2071.7,-285 1832.7,-285 1832.7,-285 1826.7,-285 1820.7,-279 1820.7,-273 1820.7,-273 1820.7,-261 1820.7,-261 1820.7,-255 1826.7,-249 1832.7,-249 1832.7,-249 2071.7,-249 2071.7,-249 2077.7,-249 2083.7,-255 2083.7,-261 2083.7,-261 2083.7,-273 2083.7,-273 2083.7,-279 2077.7,-285 2071.7,-285"/>
<text text-anchor="middle" x="1952.2" y="-263.3" font-family="Times,serif" font-size="14.00" fill="#777777">composer/metadata&#45;minifier: 1.0.0</text>
</g>
<!-- composer/composer&#45;&gt;composer/metadata&#45;minifier -->
<g id="edge15" class="edge">
<title>composer/composer&#45;&gt;composer/metadata&#45;minifier</title>
<path fill="none" stroke="#777777" d="M2126.87,-398.21C2100.72,-393.01 2073.48,-384.83 2050.2,-372 2015.75,-353.02 1986.39,-317.67 1969.02,-293.49"/>
<polygon fill="#777777" stroke="#777777" points="1971.78,-291.33 1963.18,-285.15 1966.04,-295.35 1971.78,-291.33"/>
<text text-anchor="middle" x="2067.7" y="-360.8" font-family="Times,serif" font-size="14.00" fill="#777777">^1.0</text>
</g>
<!-- composer/semver -->
<g id="node14" class="node">
<title>composer/semver</title>
<path fill="#eeeeee" stroke="#777777" d="M2101.7,-177C2101.7,-177 1936.7,-177 1936.7,-177 1930.7,-177 1924.7,-171 1924.7,-165 1924.7,-165 1924.7,-153 1924.7,-153 1924.7,-147 1930.7,-141 1936.7,-141 1936.7,-141 2101.7,-141 2101.7,-141 2107.7,-141 2113.7,-147 2113.7,-153 2113.7,-153 2113.7,-165 2113.7,-165 2113.7,-171 2107.7,-177 2101.7,-177"/>
<text text-anchor="middle" x="2019.2" y="-155.3" font-family="Times,serif" font-size="14.00" fill="#777777">composer/semver: 3.2.5</text>
</g>
<!-- composer/composer&#45;&gt;composer/semver -->
<g id="edge16" class="edge">
<title>composer/composer&#45;&gt;composer/semver</title>
<path fill="none" stroke="#777777" d="M2212.46,-389.84C2188.92,-366.77 2146.46,-324.13 2113.2,-285 2105.37,-275.8 2063.02,-219.01 2037.91,-185.22"/>
<polygon fill="#777777" stroke="#777777" points="2040.71,-183.11 2031.93,-177.17 2035.09,-187.29 2040.71,-183.11"/>
<text text-anchor="middle" x="2178.7" y="-317.3" font-family="Times,serif" font-size="14.00" fill="#777777">^3.0</text>
</g>
<!-- composer/spdx&#45;licenses -->
<g id="node15" class="node">
<title>composer/spdx&#45;licenses</title>
<path fill="#eeeeee" stroke="#777777" d="M2334.2,-285C2334.2,-285 2126.2,-285 2126.2,-285 2120.2,-285 2114.2,-279 2114.2,-273 2114.2,-273 2114.2,-261 2114.2,-261 2114.2,-255 2120.2,-249 2126.2,-249 2126.2,-249 2334.2,-249 2334.2,-249 2340.2,-249 2346.2,-255 2346.2,-261 2346.2,-261 2346.2,-273 2346.2,-273 2346.2,-279 2340.2,-285 2334.2,-285"/>
<text text-anchor="middle" x="2230.2" y="-263.3" font-family="Times,serif" font-size="14.00" fill="#777777">composer/spdx&#45;licenses: 1.5.5</text>
</g>
<!-- composer/composer&#45;&gt;composer/spdx&#45;licenses -->
<g id="edge17" class="edge">
<title>composer/composer&#45;&gt;composer/spdx&#45;licenses</title>
<path fill="none" stroke="#777777" d="M2230.2,-389.96C2230.2,-366.4 2230.2,-323.64 2230.2,-295.53"/>
<polygon fill="#777777" stroke="#777777" points="2233.7,-295.18 2230.2,-285.18 2226.7,-295.18 2233.7,-295.18"/>
<text text-anchor="middle" x="2247.7" y="-360.8" font-family="Times,serif" font-size="14.00" fill="#777777">^1.2</text>
</g>
<!-- composer/xdebug&#45;handler -->
<g id="node16" class="node">
<title>composer/xdebug&#45;handler</title>
<path fill="#eeeeee" stroke="#777777" d="M2653.2,-231C2653.2,-231 2429.2,-231 2429.2,-231 2423.2,-231 2417.2,-225 2417.2,-219 2417.2,-219 2417.2,-207 2417.2,-207 2417.2,-201 2423.2,-195 2429.2,-195 2429.2,-195 2653.2,-195 2653.2,-195 2659.2,-195 2665.2,-201 2665.2,-207 2665.2,-207 2665.2,-219 2665.2,-219 2665.2,-225 2659.2,-231 2653.2,-231"/>
<text text-anchor="middle" x="2541.2" y="-209.3" font-family="Times,serif" font-size="14.00" fill="#777777">composer/xdebug&#45;handler: 2.0.2</text>
</g>
<!-- composer/composer&#45;&gt;composer/xdebug&#45;handler -->
<g id="edge18" class="edge">
<title>composer/composer&#45;&gt;composer/xdebug&#45;handler</title>
<path fill="none" stroke="#777777" d="M2533.2,-363.5C2544.28,-343.14 2543.8,-278.56 2542.49,-241.28"/>
<polygon fill="#777777" stroke="#777777" points="2545.98,-240.95 2542.09,-231.1 2538.99,-241.23 2545.98,-240.95"/>
<text text-anchor="middle" x="2559.7" y="-317.3" font-family="Times,serif" font-size="14.00" fill="#777777">^2.0</text>
</g>
<!-- justinrainbow/json&#45;schema -->
<g id="node17" class="node">
<title>justinrainbow/json&#45;schema</title>
<path fill="#eeeeee" stroke="#777777" d="M2540.2,-177C2540.2,-177 2302.2,-177 2302.2,-177 2296.2,-177 2290.2,-171 2290.2,-165 2290.2,-165 2290.2,-153 2290.2,-153 2290.2,-147 2296.2,-141 2302.2,-141 2302.2,-141 2540.2,-141 2540.2,-141 2546.2,-141 2552.2,-147 2552.2,-153 2552.2,-153 2552.2,-165 2552.2,-165 2552.2,-171 2546.2,-177 2540.2,-177"/>
<text text-anchor="middle" x="2421.2" y="-155.3" font-family="Times,serif" font-size="14.00" fill="#777777">justinrainbow/json&#45;schema: 5.2.11</text>
</g>
<!-- composer/composer&#45;&gt;justinrainbow/json&#45;schema -->
<g id="edge19" class="edge">
<title>composer/composer&#45;&gt;justinrainbow/json&#45;schema</title>
<path fill="none" stroke="#777777" d="M2333.32,-400.74C2417.08,-394.4 2522.99,-383.02 2533.2,-365.5"/>
<path fill="none" stroke="#777777" d="M2533.2,-363.5C2546.88,-340.03 2497.85,-356.65 2477.2,-339 2433.9,-301.99 2424.17,-285.67 2408.2,-231 2403.71,-215.64 2405.37,-210.75 2408.2,-195 2408.69,-192.28 2409.37,-189.5 2410.18,-186.75"/>
<polygon fill="#777777" stroke="#777777" points="2413.55,-187.7 2413.46,-177.1 2406.92,-185.44 2413.55,-187.7"/>
<text text-anchor="middle" x="2506.2" y="-317.3" font-family="Times,serif" font-size="14.00" fill="#777777">^5.2.11</text>
</g>
<!-- psr/log -->
<g id="node18" class="node">
<title>psr/log</title>
<path fill="#eeeeee" stroke="#777777" d="M2725.7,-123C2725.7,-123 2636.7,-123 2636.7,-123 2630.7,-123 2624.7,-117 2624.7,-111 2624.7,-111 2624.7,-99 2624.7,-99 2624.7,-93 2630.7,-87 2636.7,-87 2636.7,-87 2725.7,-87 2725.7,-87 2731.7,-87 2737.7,-93 2737.7,-99 2737.7,-99 2737.7,-111 2737.7,-111 2737.7,-117 2731.7,-123 2725.7,-123"/>
<text text-anchor="middle" x="2681.2" y="-101.3" font-family="Times,serif" font-size="14.00" fill="#777777">psr/log: 1.1.4</text>
</g>
<!-- composer/composer&#45;&gt;psr/log -->
<g id="edge21" class="edge">
<title>composer/composer&#45;&gt;psr/log</title>
<path fill="none" stroke="#777777" d="M2533.2,-363.5C2549.96,-346.39 2562.36,-353.8 2581.2,-339 2631.01,-299.87 2641.58,-285.3 2674.2,-231 2695.35,-195.79 2702.97,-181.33 2695.2,-141 2694.67,-138.26 2693.93,-135.47 2693.07,-132.71"/>
<polygon fill="#777777" stroke="#777777" points="2696.25,-131.24 2689.52,-123.05 2689.68,-133.65 2696.25,-131.24"/>
<text text-anchor="middle" x="2679.7" y="-263.3" font-family="Times,serif" font-size="14.00" fill="#777777">^1.0</text>
</g>
<!-- react/promise -->
<g id="node19" class="node">
<title>react/promise</title>
<path fill="#eeeeee" stroke="#777777" d="M3247.2,-285C3247.2,-285 3101.2,-285 3101.2,-285 3095.2,-285 3089.2,-279 3089.2,-273 3089.2,-273 3089.2,-261 3089.2,-261 3089.2,-255 3095.2,-249 3101.2,-249 3101.2,-249 3247.2,-249 3247.2,-249 3253.2,-249 3259.2,-255 3259.2,-261 3259.2,-261 3259.2,-273 3259.2,-273 3259.2,-279 3253.2,-285 3247.2,-285"/>
<text text-anchor="middle" x="3174.2" y="-263.3" font-family="Times,serif" font-size="14.00" fill="#777777">react/promise: v2.8.0</text>
</g>
<!-- composer/composer&#45;&gt;react/promise -->
<g id="edge22" class="edge">
<title>composer/composer&#45;&gt;react/promise</title>
<path fill="none" stroke="#777777" d="M2333.22,-406.23C2499.15,-404.26 2818.13,-397.2 2928.2,-372 3004.47,-354.54 3087.08,-314.91 3134.53,-289.92"/>
<polygon fill="#777777" stroke="#777777" points="3136.35,-292.92 3143.54,-285.13 3133.07,-286.74 3136.35,-292.92"/>
<text text-anchor="middle" x="3020.7" y="-360.8" font-family="Times,serif" font-size="14.00" fill="#777777">^1.2 || ^2.7</text>
</g>
<!-- seld/jsonlint -->
<g id="node20" class="node">
<title>seld/jsonlint</title>
<path fill="#eeeeee" stroke="#777777" d="M3435.7,-177C3435.7,-177 3310.7,-177 3310.7,-177 3304.7,-177 3298.7,-171 3298.7,-165 3298.7,-165 3298.7,-153 3298.7,-153 3298.7,-147 3304.7,-141 3310.7,-141 3310.7,-141 3435.7,-141 3435.7,-141 3441.7,-141 3447.7,-147 3447.7,-153 3447.7,-153 3447.7,-165 3447.7,-165 3447.7,-171 3441.7,-177 3435.7,-177"/>
<text text-anchor="middle" x="3373.2" y="-155.3" font-family="Times,serif" font-size="14.00" fill="#777777">seld/jsonlint: 1.8.3</text>
</g>
<!-- composer/composer&#45;&gt;seld/jsonlint -->
<g id="edge23" class="edge">
<title>composer/composer&#45;&gt;seld/jsonlint</title>
<path fill="none" stroke="#777777" d="M2333.21,-407.38C2525.19,-407.3 2930.57,-403.29 3067.2,-372 3162.08,-350.27 3190.14,-343.16 3268.2,-285 3305.73,-257.04 3338.53,-213.14 3357.09,-185.5"/>
<polygon fill="#777777" stroke="#777777" points="3360.02,-187.41 3362.6,-177.14 3354.17,-183.56 3360.02,-187.41"/>
<text text-anchor="middle" x="3259.7" y="-317.3" font-family="Times,serif" font-size="14.00" fill="#777777">^1.4</text>
</g>
<!-- seld/phar&#45;utils -->
<g id="node21" class="node">
<title>seld/phar&#45;utils</title>
<path fill="#eeeeee" stroke="#777777" d="M3515.7,-285C3515.7,-285 3374.7,-285 3374.7,-285 3368.7,-285 3362.7,-279 3362.7,-273 3362.7,-273 3362.7,-261 3362.7,-261 3362.7,-255 3368.7,-249 3374.7,-249 3374.7,-249 3515.7,-249 3515.7,-249 3521.7,-249 3527.7,-255 3527.7,-261 3527.7,-261 3527.7,-273 3527.7,-273 3527.7,-279 3521.7,-285 3515.7,-285"/>
<text text-anchor="middle" x="3445.2" y="-263.3" font-family="Times,serif" font-size="14.00" fill="#777777">seld/phar&#45;utils: 1.1.2</text>
</g>
<!-- composer/composer&#45;&gt;seld/phar&#45;utils -->
<g id="edge24" class="edge">
<title>composer/composer&#45;&gt;seld/phar&#45;utils</title>
<path fill="none" stroke="#777777" d="M2333.34,-407.28C2585.83,-407.44 3220.95,-404.55 3311.2,-372 3356.39,-355.7 3398.39,-317.95 3422.93,-292.7"/>
<polygon fill="#777777" stroke="#777777" points="3425.61,-294.96 3429.96,-285.3 3420.54,-290.13 3425.61,-294.96"/>
<text text-anchor="middle" x="3357.7" y="-360.8" font-family="Times,serif" font-size="14.00" fill="#777777">^1.0</text>
</g>
<!-- symfony/console -->
<g id="node22" class="node">
<title>symfony/console</title>
<path fill="#eeeeee" stroke="#777777" d="M2964.2,-339C2964.2,-339 2790.2,-339 2790.2,-339 2784.2,-339 2778.2,-333 2778.2,-327 2778.2,-327 2778.2,-315 2778.2,-315 2778.2,-309 2784.2,-303 2790.2,-303 2790.2,-303 2964.2,-303 2964.2,-303 2970.2,-303 2976.2,-309 2976.2,-315 2976.2,-315 2976.2,-327 2976.2,-327 2976.2,-333 2970.2,-339 2964.2,-339"/>
<text text-anchor="middle" x="2877.2" y="-317.3" font-family="Times,serif" font-size="14.00" fill="#777777">symfony/console: v3.4.47</text>
</g>
<!-- composer/composer&#45;&gt;symfony/console -->
<g id="edge25" class="edge">
<title>composer/composer&#45;&gt;symfony/console</title>
<path fill="none" stroke="#777777" d="M2333.47,-396.66C2395.51,-390.19 2475.96,-381.33 2547.2,-372 2620.96,-362.34 2703.73,-349.8 2767.93,-339.69"/>
<polygon fill="#777777" stroke="#777777" points="2768.74,-343.11 2778.07,-338.09 2767.64,-336.19 2768.74,-343.11"/>
<text text-anchor="middle" x="2785.2" y="-360.8" font-family="Times,serif" font-size="14.00" fill="#777777">^2.8.52 || ^3.4.35 || ^4.4 || ^5.0 || ^6.0</text>
</g>
<!-- symfony/filesystem -->
<g id="node23" class="node">
<title>symfony/filesystem</title>
<path fill="#eeeeee" stroke="#777777" d="M1133.2,-231C1133.2,-231 939.2,-231 939.2,-231 933.2,-231 927.2,-225 927.2,-219 927.2,-219 927.2,-207 927.2,-207 927.2,-201 933.2,-195 939.2,-195 939.2,-195 1133.2,-195 1133.2,-195 1139.2,-195 1145.2,-201 1145.2,-207 1145.2,-207 1145.2,-219 1145.2,-219 1145.2,-225 1139.2,-231 1133.2,-231"/>
<text text-anchor="middle" x="1036.2" y="-209.3" font-family="Times,serif" font-size="14.00" fill="#777777">symfony/filesystem: v3.4.47</text>
</g>
<!-- composer/composer&#45;&gt;symfony/filesystem -->
<g id="edge26" class="edge">
<title>composer/composer&#45;&gt;symfony/filesystem</title>
<path fill="none" stroke="#777777" d="M2127.05,-405.78C1900.51,-402.61 1377.43,-392.41 1350.2,-365.5"/>
<path fill="none" stroke="#777777" d="M1350.2,-363.5C1302.62,-316.48 1098.2,-385.58 1050.2,-339 1024.49,-314.05 1025.98,-269.75 1030.37,-241.14"/>
<polygon fill="#777777" stroke="#777777" points="1033.86,-241.47 1032.14,-231.02 1026.97,-240.27 1033.86,-241.47"/>
<text text-anchor="middle" x="1189.2" y="-317.3" font-family="Times,serif" font-size="14.00" fill="#777777">^2.8.52 || ^3.4.35 || ^4.4 || ^5.0 || ^6.0</text>
</g>
<!-- symfony/finder -->
<g id="node24" class="node">
<title>symfony/finder</title>
<path fill="#eeeeee" stroke="#777777" d="M1317.2,-177C1317.2,-177 1153.2,-177 1153.2,-177 1147.2,-177 1141.2,-171 1141.2,-165 1141.2,-165 1141.2,-153 1141.2,-153 1141.2,-147 1147.2,-141 1153.2,-141 1153.2,-141 1317.2,-141 1317.2,-141 1323.2,-141 1329.2,-147 1329.2,-153 1329.2,-153 1329.2,-165 1329.2,-165 1329.2,-171 1323.2,-177 1317.2,-177"/>
<text text-anchor="middle" x="1235.2" y="-155.3" font-family="Times,serif" font-size="14.00" fill="#777777">symfony/finder: v3.4.47</text>
</g>
<!-- composer/composer&#45;&gt;symfony/finder -->
<g id="edge27" class="edge">
<title>composer/composer&#45;&gt;symfony/finder</title>
<path fill="none" stroke="#777777" d="M1350.2,-363.5C1330.95,-342.33 1340.97,-328.6 1328.2,-303 1306.61,-259.72 1274.71,-213.46 1254.45,-185.64"/>
<polygon fill="#777777" stroke="#777777" points="1257.05,-183.26 1248.31,-177.28 1251.41,-187.41 1257.05,-183.26"/>
<text text-anchor="middle" x="1476.2" y="-317.3" font-family="Times,serif" font-size="14.00" fill="#777777">^2.8.52 || ^3.4.35 || ^4.4 || ^5.0 || ^6.0</text>
</g>
<!-- symfony/process -->
<g id="node25" class="node">
<title>symfony/process</title>
<path fill="#eeeeee" stroke="#777777" d="M1542.2,-123C1542.2,-123 1366.2,-123 1366.2,-123 1360.2,-123 1354.2,-117 1354.2,-111 1354.2,-111 1354.2,-99 1354.2,-99 1354.2,-93 1360.2,-87 1366.2,-87 1366.2,-87 1542.2,-87 1542.2,-87 1548.2,-87 1554.2,-93 1554.2,-99 1554.2,-99 1554.2,-111 1554.2,-111 1554.2,-117 1548.2,-123 1542.2,-123"/>
<text text-anchor="middle" x="1454.2" y="-101.3" font-family="Times,serif" font-size="14.00" fill="#777777">symfony/process: v3.4.47</text>
</g>
<!-- composer/composer&#45;&gt;symfony/process -->
<g id="edge28" class="edge">
<title>composer/composer&#45;&gt;symfony/process</title>
<path fill="none" stroke="#777777" d="M1350.2,-363.5C1301.57,-315.08 1648.94,-390.24 1656.2,-322"/>
<path fill="none" stroke="#777777" d="M1656.2,-320C1663.11,-255.01 1408.75,-332.81 1364.2,-285 1320.76,-238.38 1385.58,-166.82 1425.96,-129.89"/>
<polygon fill="#777777" stroke="#777777" points="1428.32,-132.47 1433.43,-123.19 1423.64,-127.26 1428.32,-132.47"/>
<text text-anchor="middle" x="1503.2" y="-263.3" font-family="Times,serif" font-size="14.00" fill="#777777">^2.8.52 || ^3.4.35 || ^4.4 || ^5.0 || ^6.0</text>
</g>
<!-- dealerdirect/phpcodesniffer&#45;composer&#45;installer&#45;&gt;php -->
<g id="edge35" class="edge">
<title>dealerdirect/phpcodesniffer&#45;composer&#45;installer&#45;&gt;php</title>
<path fill="none" stroke="#777777" d="M309.62,-389.86C293.36,-350.14 260.36,-250.89 309.2,-195 328.82,-172.54 412.85,-182.31 442.2,-177 582.13,-151.66 636.04,-185.14 754.2,-106"/>
<path fill="none" stroke="#777777" d="M754.2,-104C783.1,-81 793.92,-80.46 826.2,-62.5"/>
<path fill="none" stroke="#777777" d="M826.2,-60.5C887.91,-26.16 1101.9,-20.18 1188.94,-19.18"/>
<polygon fill="#777777" stroke="#777777" points="1189.18,-22.68 1199.15,-19.08 1189.12,-15.68 1189.18,-22.68"/>
<text text-anchor="middle" x="332.2" y="-209.3" font-family="Times,serif" font-size="14.00" fill="#777777">&gt;=5.3</text>
</g>
<!-- dealerdirect/phpcodesniffer&#45;composer&#45;installer&#45;&gt;composer&#45;plugin&#45;api -->
<g id="edge34" class="edge">
<title>dealerdirect/phpcodesniffer&#45;composer&#45;installer&#45;&gt;composer&#45;plugin&#45;api</title>
<path fill="none" stroke="#777777" d="M459.23,-389.98C488.23,-385.19 518.37,-379.26 546.2,-372 564.57,-367.21 567.72,-361.36 586.2,-357 630.67,-346.51 746.08,-335.7 828.54,-328.93"/>
<polygon fill="#777777" stroke="#777777" points="829,-332.4 838.68,-328.1 828.43,-325.42 829,-332.4"/>
<text text-anchor="middle" x="628.7" y="-360.8" font-family="Times,serif" font-size="14.00" fill="#777777">^1.0 || ^2.0</text>
</g>
<!-- dealerdirect/phpcodesniffer&#45;composer&#45;installer&#45;&gt;squizlabs/php_codesniffer -->
<g id="edge36" class="edge">
<title>dealerdirect/phpcodesniffer&#45;composer&#45;installer&#45;&gt;squizlabs/php_codesniffer</title>
<path fill="none" stroke="#777777" d="M343.75,-389.91C361.42,-379.17 385.49,-365.74 408.2,-357 423.5,-351.11 440.09,-346.02 456.44,-341.68"/>
<polygon fill="#777777" stroke="#777777" points="457.76,-344.96 466.58,-339.08 456.02,-338.18 457.76,-344.96"/>
<text text-anchor="middle" x="475.2" y="-360.8" font-family="Times,serif" font-size="14.00" fill="#777777">^2.0 || ^3.0 || ^4.0</text>
</g>
<!-- phpcompatibility/php&#45;compatibility&#45;&gt;php -->
<g id="edge38" class="edge">
<title>phpcompatibility/php&#45;compatibility&#45;&gt;php</title>
<path fill="none" stroke="#777777" d="M778.75,-389.84C785.71,-385.1 792.02,-379.21 796.2,-372 839.67,-297.01 798.53,-263.67 799.2,-177 799.32,-161 806.23,-155.37 799.2,-141 788.07,-118.24 733.36,-120.41 754.2,-106"/>
<text text-anchor="middle" x="826.2" y="-209.3" font-family="Times,serif" font-size="14.00" fill="#777777">&gt;=5.3</text>
</g>
<!-- phpcompatibility/php&#45;compatibility&#45;&gt;squizlabs/php_codesniffer -->
<g id="edge39" class="edge">
<title>phpcompatibility/php&#45;compatibility&#45;&gt;squizlabs/php_codesniffer</title>
<path fill="none" stroke="#777777" d="M717.65,-389.83C703.05,-377.29 684.14,-361.68 675.2,-357 664.28,-351.29 652.31,-346.38 640.28,-342.2"/>
<polygon fill="#777777" stroke="#777777" points="641.24,-338.83 630.65,-339.01 639.04,-345.48 641.24,-338.83"/>
<text text-anchor="middle" x="744.2" y="-360.8" font-family="Times,serif" font-size="14.00" fill="#777777">^2.3 || ^3.0.2</text>
</g>
<!-- squizlabs/php_codesniffer&#45;&gt;php -->
<g id="edge47" class="edge">
<title>squizlabs/php_codesniffer&#45;&gt;php</title>
<path fill="none" stroke="#777777" d="M643.31,-303C682.92,-290.33 725.85,-268.47 748.2,-231 756.39,-217.26 751.52,-210.65 748.2,-195 746.38,-186.44 742.02,-185.56 740.2,-177 736.88,-161.35 737.17,-156.71 740.2,-141 743.37,-124.55 740.41,-115.51 754.2,-106"/>
<text text-anchor="middle" x="769.7" y="-155.3" font-family="Times,serif" font-size="14.00" fill="#777777">&gt;=5.4.0</text>
</g>
<!-- ext&#45;simplexml -->
<g id="node26" class="node">
<title>ext&#45;simplexml</title>
<path fill="#eeeeff" stroke="#777777" d="M468.2,-231C468.2,-231 376.2,-231 376.2,-231 370.2,-231 364.2,-225 364.2,-219 364.2,-219 364.2,-207 364.2,-207 364.2,-201 370.2,-195 376.2,-195 376.2,-195 468.2,-195 468.2,-195 474.2,-195 480.2,-201 480.2,-207 480.2,-207 480.2,-219 480.2,-219 480.2,-225 474.2,-231 468.2,-231"/>
<text text-anchor="middle" x="422.2" y="-209.3" font-family="Times,serif" font-size="14.00" fill="#777777">ext&#45;simplexml</text>
</g>
<!-- squizlabs/php_codesniffer&#45;&gt;ext&#45;simplexml -->
<g id="edge44" class="edge">
<title>squizlabs/php_codesniffer&#45;&gt;ext&#45;simplexml</title>
<path fill="none" stroke="#777777" d="M534.67,-302.97C512.34,-285.3 477.24,-257.54 452.19,-237.73"/>
<polygon fill="#777777" stroke="#777777" points="454.13,-234.8 444.12,-231.34 449.79,-240.29 454.13,-234.8"/>
<text text-anchor="middle" x="511.7" y="-263.3" font-family="Times,serif" font-size="14.00" fill="#777777">*</text>
</g>
<!-- ext&#45;tokenizer -->
<g id="node27" class="node">
<title>ext&#45;tokenizer</title>
<path fill="#eeeeff" stroke="#777777" d="M595.7,-231C595.7,-231 510.7,-231 510.7,-231 504.7,-231 498.7,-225 498.7,-219 498.7,-219 498.7,-207 498.7,-207 498.7,-201 504.7,-195 510.7,-195 510.7,-195 595.7,-195 595.7,-195 601.7,-195 607.7,-201 607.7,-207 607.7,-207 607.7,-219 607.7,-219 607.7,-225 601.7,-231 595.7,-231"/>
<text text-anchor="middle" x="553.2" y="-209.3" font-family="Times,serif" font-size="14.00" fill="#777777">ext&#45;tokenizer</text>
</g>
<!-- squizlabs/php_codesniffer&#45;&gt;ext&#45;tokenizer -->
<g id="edge45" class="edge">
<title>squizlabs/php_codesniffer&#45;&gt;ext&#45;tokenizer</title>
<path fill="none" stroke="#777777" d="M555.72,-302.97C555.25,-286.38 554.52,-260.88 553.97,-241.43"/>
<polygon fill="#777777" stroke="#777777" points="557.47,-241.24 553.69,-231.34 550.47,-241.44 557.47,-241.24"/>
<text text-anchor="middle" x="557.7" y="-263.3" font-family="Times,serif" font-size="14.00" fill="#777777">*</text>
</g>
<!-- ext&#45;xmlwriter -->
<g id="node28" class="node">
<title>ext&#45;xmlwriter</title>
<path fill="#eeeeff" stroke="#777777" d="M726.7,-231C726.7,-231 637.7,-231 637.7,-231 631.7,-231 625.7,-225 625.7,-219 625.7,-219 625.7,-207 625.7,-207 625.7,-201 631.7,-195 637.7,-195 637.7,-195 726.7,-195 726.7,-195 732.7,-195 738.7,-201 738.7,-207 738.7,-207 738.7,-219 738.7,-219 738.7,-225 732.7,-231 726.7,-231"/>
<text text-anchor="middle" x="682.2" y="-209.3" font-family="Times,serif" font-size="14.00" fill="#777777">ext&#45;xmlwriter</text>
</g>
<!-- squizlabs/php_codesniffer&#45;&gt;ext&#45;xmlwriter -->
<g id="edge46" class="edge">
<title>squizlabs/php_codesniffer&#45;&gt;ext&#45;xmlwriter</title>
<path fill="none" stroke="#777777" d="M576.44,-302.97C597.35,-285.38 630.16,-257.78 653.68,-237.99"/>
<polygon fill="#777777" stroke="#777777" points="656.19,-240.46 661.59,-231.34 651.68,-235.1 656.19,-240.46"/>
<text text-anchor="middle" x="640.7" y="-263.3" font-family="Times,serif" font-size="14.00" fill="#777777">*</text>
</g>
<!-- clue/graph&#45;&gt;php -->
<g id="edge8" class="edge">
<title>clue/graph&#45;&gt;php</title>
<path fill="none" stroke="#000000" d="M502.96,-91.51C571.1,-80.34 675.24,-64.2 766.2,-54 922.8,-36.45 1110.39,-25.2 1188.84,-20.94"/>
<polygon fill="#000000" stroke="#000000" points="1189.38,-24.41 1199.17,-20.38 1189,-17.42 1189.38,-24.41"/>
<text text-anchor="middle" x="789.2" y="-57.8" font-family="Times,serif" font-size="14.00" fill="#000000">&gt;=5.3</text>
</g>
<!-- composer/ca&#45;bundle&#45;&gt;php -->
<g id="edge13" class="edge">
<title>composer/ca&#45;bundle&#45;&gt;php</title>
<path fill="none" stroke="#777777" d="M1800.98,-302.9C1810.32,-276.16 1823.13,-224.48 1796.2,-195 1766.25,-162.22 1627.15,-209.78 1597.2,-177 1536.51,-110.57 1658.53,-117.44 1686.2,-106"/>
<text text-anchor="middle" x="1671.2" y="-155.3" font-family="Times,serif" font-size="14.00" fill="#777777">^5.3.2 || ^7.0 || ^8.0</text>
</g>
<!-- ext&#45;openssl -->
<g id="node11" class="node">
<title>ext&#45;openssl</title>
<path fill="#eeeeff" stroke="#777777" d="M1682.7,-231C1682.7,-231 1609.7,-231 1609.7,-231 1603.7,-231 1597.7,-225 1597.7,-219 1597.7,-219 1597.7,-207 1597.7,-207 1597.7,-201 1603.7,-195 1609.7,-195 1609.7,-195 1682.7,-195 1682.7,-195 1688.7,-195 1694.7,-201 1694.7,-207 1694.7,-207 1694.7,-219 1694.7,-219 1694.7,-225 1688.7,-231 1682.7,-231"/>
<text text-anchor="middle" x="1646.2" y="-209.3" font-family="Times,serif" font-size="14.00" fill="#777777">ext&#45;openssl</text>
</g>
<!-- composer/ca&#45;bundle&#45;&gt;ext&#45;openssl -->
<g id="edge11" class="edge">
<title>composer/ca&#45;bundle&#45;&gt;ext&#45;openssl</title>
<path fill="none" stroke="#777777" d="M1770.42,-302.97C1745.54,-285.15 1706.31,-257.06 1678.61,-237.21"/>
<polygon fill="#777777" stroke="#777777" points="1680.58,-234.32 1670.41,-231.34 1676.5,-240.01 1680.58,-234.32"/>
<text text-anchor="middle" x="1744.7" y="-263.3" font-family="Times,serif" font-size="14.00" fill="#777777">*</text>
</g>
<!-- ext&#45;pcre -->
<g id="node12" class="node">
<title>ext&#45;pcre</title>
<path fill="#eeeeff" stroke="#777777" d="M1775.2,-231C1775.2,-231 1725.2,-231 1725.2,-231 1719.2,-231 1713.2,-225 1713.2,-219 1713.2,-219 1713.2,-207 1713.2,-207 1713.2,-201 1719.2,-195 1725.2,-195 1725.2,-195 1775.2,-195 1775.2,-195 1781.2,-195 1787.2,-201 1787.2,-207 1787.2,-207 1787.2,-219 1787.2,-219 1787.2,-225 1781.2,-231 1775.2,-231"/>
<text text-anchor="middle" x="1750.2" y="-209.3" font-family="Times,serif" font-size="14.00" fill="#777777">ext&#45;pcre</text>
</g>
<!-- composer/ca&#45;bundle&#45;&gt;ext&#45;pcre -->
<g id="edge12" class="edge">
<title>composer/ca&#45;bundle&#45;&gt;ext&#45;pcre</title>
<path fill="none" stroke="#777777" d="M1787.13,-302.97C1780.15,-286.15 1769.36,-260.17 1761.25,-240.62"/>
<polygon fill="#777777" stroke="#777777" points="1764.46,-239.23 1757.4,-231.34 1758,-241.92 1764.46,-239.23"/>
<text text-anchor="middle" x="1781.7" y="-263.3" font-family="Times,serif" font-size="14.00" fill="#777777">*</text>
</g>
<!-- composer/metadata&#45;minifier&#45;&gt;php -->
<g id="edge29" class="edge">
<title>composer/metadata&#45;minifier&#45;&gt;php</title>
<path fill="none" stroke="#777777" d="M1926.74,-248.9C1902.49,-233.21 1864.55,-210.16 1829.2,-195 1803.22,-183.86 1790.07,-194.91 1768.2,-177 1754.2,-165.54 1761.85,-153.93 1749.2,-141 1726.79,-118.11 1656.65,-118.35 1686.2,-106"/>
<text text-anchor="middle" x="1842.2" y="-155.3" font-family="Times,serif" font-size="14.00" fill="#777777">^5.3.2 || ^7.0 || ^8.0</text>
</g>
<!-- composer/semver&#45;&gt;php -->
<g id="edge30" class="edge">
<title>composer/semver&#45;&gt;php</title>
<path fill="none" stroke="#777777" d="M1989.76,-140.71C1983.88,-135.79 1978.51,-129.86 1975.2,-123 1968.25,-108.59 1964.76,-99.13 1975.2,-87 1998.94,-59.4 2144.63,-98.14 2137.2,-62.5"/>
<text text-anchor="middle" x="2049.2" y="-101.3" font-family="Times,serif" font-size="14.00" fill="#777777">^5.3.2 || ^7.0 || ^8.0</text>
</g>
<!-- composer/spdx&#45;licenses&#45;&gt;php -->
<g id="edge31" class="edge">
<title>composer/spdx&#45;licenses&#45;&gt;php</title>
<path fill="none" stroke="#777777" d="M2200.71,-248.69C2177.51,-233.21 2146.9,-208.17 2133.2,-177 2112.71,-130.39 2155.21,-110.13 2137.2,-62.5"/>
<text text-anchor="middle" x="2207.2" y="-155.3" font-family="Times,serif" font-size="14.00" fill="#777777">^5.3.2 || ^7.0 || ^8.0</text>
</g>
<!-- composer/xdebug&#45;handler&#45;&gt;php -->
<g id="edge32" class="edge">
<title>composer/xdebug&#45;handler&#45;&gt;php</title>
<path fill="none" stroke="#777777" d="M2550.98,-194.82C2558.5,-179.06 2565.69,-155.97 2553.2,-141 2547.83,-134.56 2264.46,-88.46 2256.2,-87 2229.61,-82.3 2143.06,-88.85 2137.2,-62.5"/>
<text text-anchor="middle" x="2540.2" y="-101.3" font-family="Times,serif" font-size="14.00" fill="#777777">^5.3.2 || ^7.0 || ^8.0</text>
</g>
<!-- composer/xdebug&#45;handler&#45;&gt;psr/log -->
<g id="edge33" class="edge">
<title>composer/xdebug&#45;handler&#45;&gt;psr/log</title>
<path fill="none" stroke="#777777" d="M2561.3,-194.67C2567.05,-189.28 2573.13,-183.13 2578.2,-177 2590.3,-162.37 2586.77,-153.34 2601.2,-141 2607.11,-135.94 2613.87,-131.51 2620.9,-127.65"/>
<polygon fill="#777777" stroke="#777777" points="2622.58,-130.72 2629.9,-123.06 2619.4,-124.48 2622.58,-130.72"/>
<text text-anchor="middle" x="2648.2" y="-155.3" font-family="Times,serif" font-size="14.00" fill="#777777">^1 || ^2 || ^3</text>
</g>
<!-- justinrainbow/json&#45;schema&#45;&gt;php -->
<g id="edge37" class="edge">
<title>justinrainbow/json&#45;schema&#45;&gt;php</title>
<path fill="none" stroke="#777777" d="M2290.48,-140.96C2246.68,-134.59 2206.51,-127.76 2197.2,-123 2180.34,-114.39 2141.19,-81.01 2137.2,-62.5"/>
<text text-anchor="middle" x="2226.7" y="-101.3" font-family="Times,serif" font-size="14.00" fill="#777777">&gt;=5.3.3</text>
</g>
<!-- psr/log&#45;&gt;php -->
<g id="edge40" class="edge">
<title>psr/log&#45;&gt;php</title>
<path fill="none" stroke="#777777" d="M2624.42,-97.59C2527.51,-86.88 2323.88,-65.4 2151.2,-54 1806.85,-31.26 1389.33,-22.04 1263.7,-19.66"/>
<polygon fill="#777777" stroke="#777777" points="1263.53,-16.16 1253.47,-19.47 1263.4,-23.16 1263.53,-16.16"/>
<text text-anchor="middle" x="2355.7" y="-57.8" font-family="Times,serif" font-size="14.00" fill="#777777">&gt;=5.3.0</text>
</g>
<!-- react/promise&#45;&gt;php -->
<g id="edge41" class="edge">
<title>react/promise&#45;&gt;php</title>
<path fill="none" stroke="#777777" d="M3187.71,-248.81C3205.65,-223.72 3232.81,-176.24 3212.2,-141 3203.96,-126.91 3192.56,-133.65 3180.2,-123 3164.84,-109.77 3166.36,-101.5 3152.2,-87 3140.17,-74.68 3135.72,-73.16 3122.2,-62.5"/>
<text text-anchor="middle" x="3248.7" y="-155.3" font-family="Times,serif" font-size="14.00" fill="#777777">&gt;=5.4.0</text>
</g>
<!-- seld/jsonlint&#45;&gt;php -->
<g id="edge42" class="edge">
<title>seld/jsonlint&#45;&gt;php</title>
<path fill="none" stroke="#777777" d="M3298.41,-141.66C3265.76,-134.25 3233.26,-126.4 3226.2,-123 3202.81,-111.73 3202.57,-100.17 3180.2,-87 3156.08,-72.81 3140.7,-83.49 3122.2,-62.5"/>
<text text-anchor="middle" x="3293.2" y="-101.3" font-family="Times,serif" font-size="14.00" fill="#777777">^5.3 || ^7.0 || ^8.0</text>
</g>
<!-- seld/phar&#45;utils&#45;&gt;php -->
<g id="edge43" class="edge">
<title>seld/phar&#45;utils&#45;&gt;php</title>
<path fill="none" stroke="#777777" d="M3450.99,-248.92C3458.49,-223.55 3468.48,-175.25 3449.2,-141 3426.5,-100.68 3404.06,-101.73 3360.2,-87 3309.8,-70.07 3163.95,-95.42 3122.2,-62.5"/>
<text text-anchor="middle" x="3482.2" y="-155.3" font-family="Times,serif" font-size="14.00" fill="#777777">&gt;=5.3</text>
</g>
<!-- symfony/console&#45;&gt;php -->
<g id="edge48" class="edge">
<title>symfony/console&#45;&gt;php</title>
<path fill="none" stroke="#777777" d="M2909.75,-302.79C2915.97,-297.91 2921.65,-291.99 2925.2,-285 2931.61,-272.39 2921.72,-196.68 2920.2,-195 2892.58,-164.39 2855.37,-208.86 2829.2,-177 2819.04,-164.64 2818.43,-152.84 2829.2,-141 2857.74,-109.63 2979.01,-136.54 3019.2,-123 3047.95,-113.31 3050.98,-102.26 3077.2,-87 3096.88,-75.55 3140.66,-75.84 3122.2,-62.5"/>
<text text-anchor="middle" x="2884.2" y="-155.3" font-family="Times,serif" font-size="14.00" fill="#777777">^5.5.9|&gt;=7.0.8</text>
</g>
<!-- symfony/debug -->
<g id="node29" class="node">
<title>symfony/debug</title>
<path fill="#eeeeee" stroke="#777777" d="M2898.7,-231C2898.7,-231 2733.7,-231 2733.7,-231 2727.7,-231 2721.7,-225 2721.7,-219 2721.7,-219 2721.7,-207 2721.7,-207 2721.7,-201 2727.7,-195 2733.7,-195 2733.7,-195 2898.7,-195 2898.7,-195 2904.7,-195 2910.7,-201 2910.7,-207 2910.7,-207 2910.7,-219 2910.7,-219 2910.7,-225 2904.7,-231 2898.7,-231"/>
<text text-anchor="middle" x="2816.2" y="-209.3" font-family="Times,serif" font-size="14.00" fill="#777777">symfony/debug: v3.4.47</text>
</g>
<!-- symfony/console&#45;&gt;symfony/debug -->
<g id="edge49" class="edge">
<title>symfony/console&#45;&gt;symfony/debug</title>
<path fill="none" stroke="#777777" d="M2832.85,-302.84C2825.8,-298.13 2819.44,-292.26 2815.2,-285 2807.57,-271.94 2807.49,-255.08 2809.46,-241.07"/>
<polygon fill="#777777" stroke="#777777" points="2812.95,-241.49 2811.29,-231.02 2806.06,-240.24 2812.95,-241.49"/>
<text text-anchor="middle" x="2870.2" y="-263.3" font-family="Times,serif" font-size="14.00" fill="#777777">~2.8|~3.0|~4.0</text>
</g>
<!-- symfony/polyfill&#45;mbstring -->
<g id="node30" class="node">
<title>symfony/polyfill&#45;mbstring</title>
<path fill="#eeeeee" stroke="#777777" d="M3198.7,-177C3198.7,-177 2959.7,-177 2959.7,-177 2953.7,-177 2947.7,-171 2947.7,-165 2947.7,-165 2947.7,-153 2947.7,-153 2947.7,-147 2953.7,-141 2959.7,-141 2959.7,-141 3198.7,-141 3198.7,-141 3204.7,-141 3210.7,-147 3210.7,-153 3210.7,-153 3210.7,-165 3210.7,-165 3210.7,-171 3204.7,-177 3198.7,-177"/>
<text text-anchor="middle" x="3079.2" y="-155.3" font-family="Times,serif" font-size="14.00" fill="#777777">symfony/polyfill&#45;mbstring: v1.19.0</text>
</g>
<!-- symfony/console&#45;&gt;symfony/polyfill&#45;mbstring -->
<g id="edge50" class="edge">
<title>symfony/console&#45;&gt;symfony/polyfill&#45;mbstring</title>
<path fill="none" stroke="#777777" d="M2921.24,-302.88C2932.1,-297.82 2943.41,-291.79 2953.2,-285 2994.96,-256.03 3035.21,-212.5 3058.56,-185.2"/>
<polygon fill="#777777" stroke="#777777" points="3061.47,-187.18 3065.25,-177.28 3056.12,-182.66 3061.47,-187.18"/>
<text text-anchor="middle" x="3013.7" y="-263.3" font-family="Times,serif" font-size="14.00" fill="#777777">~1.0</text>
</g>
<!-- symfony/filesystem&#45;&gt;php -->
<g id="edge53" class="edge">
<title>symfony/filesystem&#45;&gt;php</title>
<path fill="none" stroke="#777777" d="M985.6,-195C902.07,-165.14 751.62,-102.65 826.2,-62.5"/>
<text text-anchor="middle" x="885.2" y="-101.3" font-family="Times,serif" font-size="14.00" fill="#777777">^5.5.9|&gt;=7.0.8</text>
</g>
<!-- symfony/polyfill&#45;ctype -->
<g id="node31" class="node">
<title>symfony/polyfill&#45;ctype</title>
<path fill="#eeeeee" stroke="#777777" d="M1178.2,-123C1178.2,-123 966.2,-123 966.2,-123 960.2,-123 954.2,-117 954.2,-111 954.2,-111 954.2,-99 954.2,-99 954.2,-93 960.2,-87 966.2,-87 966.2,-87 1178.2,-87 1178.2,-87 1184.2,-87 1190.2,-93 1190.2,-99 1190.2,-99 1190.2,-111 1190.2,-111 1190.2,-117 1184.2,-123 1178.2,-123"/>
<text text-anchor="middle" x="1072.2" y="-101.3" font-family="Times,serif" font-size="14.00" fill="#777777">symfony/polyfill&#45;ctype: v1.19.0</text>
</g>
<!-- symfony/filesystem&#45;&gt;symfony/polyfill&#45;ctype -->
<g id="edge54" class="edge">
<title>symfony/filesystem&#45;&gt;symfony/polyfill&#45;ctype</title>
<path fill="none" stroke="#777777" d="M1041.98,-194.97C1047.67,-178.22 1056.44,-152.41 1063.06,-132.89"/>
<polygon fill="#777777" stroke="#777777" points="1066.41,-133.93 1066.31,-123.34 1059.78,-131.68 1066.41,-133.93"/>
<text text-anchor="middle" x="1076.7" y="-155.3" font-family="Times,serif" font-size="14.00" fill="#777777">~1.8</text>
</g>
<!-- symfony/finder&#45;&gt;php -->
<g id="edge55" class="edge">
<title>symfony/finder&#45;&gt;php</title>
<path fill="none" stroke="#777777" d="M1234.09,-140.96C1232.57,-117.4 1229.8,-74.64 1227.98,-46.53"/>
<polygon fill="#777777" stroke="#777777" points="1231.45,-45.94 1227.31,-36.18 1224.46,-46.39 1231.45,-45.94"/>
<text text-anchor="middle" x="1287.2" y="-101.3" font-family="Times,serif" font-size="14.00" fill="#777777">^5.5.9|&gt;=7.0.8</text>
</g>
<!-- symfony/process&#45;&gt;php -->
<g id="edge58" class="edge">
<title>symfony/process&#45;&gt;php</title>
<path fill="none" stroke="#777777" d="M1408.33,-86.9C1365.54,-70.95 1302.5,-47.45 1262.93,-32.69"/>
<polygon fill="#777777" stroke="#777777" points="1264,-29.36 1253.4,-29.14 1261.55,-35.92 1264,-29.36"/>
<text text-anchor="middle" x="1408.2" y="-57.8" font-family="Times,serif" font-size="14.00" fill="#777777">^5.5.9|&gt;=7.0.8</text>
</g>
<!-- symfony/debug&#45;&gt;php -->
<g id="edge51" class="edge">
<title>symfony/debug&#45;&gt;php</title>
<path fill="none" stroke="#777777" d="M2810.58,-194.98C2806.64,-179.76 2803.61,-157.4 2813.2,-141 2837.91,-98.74 2862.63,-102.09 2909.2,-87 2954.52,-72.31 3154.64,-97.39 3122.2,-62.5"/>
<path fill="none" stroke="#777777" d="M3122.2,-60.5C3084.32,-30.64 1526.57,-20.67 1263.68,-19.2"/>
<polygon fill="#777777" stroke="#777777" points="1263.53,-15.7 1253.51,-19.14 1263.49,-22.7 1263.53,-15.7"/>
<text text-anchor="middle" x="2964.2" y="-101.3" font-family="Times,serif" font-size="14.00" fill="#777777">^5.5.9|&gt;=7.0.8</text>
</g>
<!-- symfony/debug&#45;&gt;psr/log -->
<g id="edge52" class="edge">
<title>symfony/debug&#45;&gt;psr/log</title>
<path fill="none" stroke="#777777" d="M2777.03,-194.87C2767.72,-189.84 2758.18,-183.83 2750.2,-177 2735,-164 2736.97,-155.5 2723.2,-141 2719.61,-137.23 2715.64,-133.46 2711.6,-129.88"/>
<polygon fill="#777777" stroke="#777777" points="2713.73,-127.09 2703.85,-123.25 2709.18,-132.41 2713.73,-127.09"/>
<text text-anchor="middle" x="2767.7" y="-155.3" font-family="Times,serif" font-size="14.00" fill="#777777">~1.0</text>
</g>
<!-- symfony/polyfill&#45;mbstring&#45;&gt;php -->
<g id="edge57" class="edge">
<title>symfony/polyfill&#45;mbstring&#45;&gt;php</title>
<path fill="none" stroke="#777777" d="M3079.44,-140.81C3080.35,-125.69 3083.45,-103.57 3093.2,-87 3101.76,-72.46 3133.02,-75.45 3122.2,-62.5"/>
<text text-anchor="middle" x="3122.7" y="-101.3" font-family="Times,serif" font-size="14.00" fill="#777777">&gt;=5.3.3</text>
</g>
<!-- symfony/polyfill&#45;ctype&#45;&gt;php -->
<g id="edge56" class="edge">
<title>symfony/polyfill&#45;ctype&#45;&gt;php</title>
<path fill="none" stroke="#777777" d="M1098.41,-86.84C1114.07,-76.84 1134.49,-64.22 1153.2,-54 1164.97,-47.57 1178.12,-41.06 1189.98,-35.44"/>
<polygon fill="#777777" stroke="#777777" points="1191.59,-38.55 1199.16,-31.13 1188.62,-32.21 1191.59,-38.55"/>
<text text-anchor="middle" x="1182.7" y="-57.8" font-family="Times,serif" font-size="14.00" fill="#777777">&gt;=5.3.3</text>
</g>
</g>
</svg>
