<svg xmlns="http://www.w3.org/2000/svg" xmlns:xlink="http://www.w3.org/1999/xlink" width="4714.667" height="694.667"
viewBox="0 0 3535.7 521" xmlns:v="https://vecta.io/nano">
<style>
<![CDATA[.B{fill:#777}.C{text-anchor:middle}.D{font-family:Times,serif}.E{font-size:14px}.F{stroke:#777}.G{fill:none}.H{fill:#eee}.I{stroke:#000}.J{fill:#000}.K{fill:#eef}]]></style>
<g transform="matrix(1 0 0 1 4 517)">
<path fill="#fff" stroke="transparent" d="M-4 4v-521h3535.7V4H-4z"/>
<path fill="#efe" d="M692.2-513h-240c-6 0-12 6-12 12v12c0 6 6 12 12 12h240c6 0 12-6 12-12v-12c0-6-6-12-12-12"
class="I"/>
<text x="572.2" y="-491.3" class="C D E J">arokettu/composer-viz: dev-master</text>
<path d="M1241.2-36h-30c-6 0-12 6-12 12v12c0 6 6 12 12 12h30c6 0 12-6 12-12v-12c0-6-6-12-12-12" class="I K"/>
<text x="1226.2" y="-14.3" class="C D E J">php</text>
<g class="I">
<path d="M439.97-483.27C297.84-469.93 91.39-444.49 86.2-409m0 2c-104.52 111.92-126.05 266.95 6 344.5m0 2c48.64 27.76 906.02 38.95 1096.65 41.1"
class="G"/>
<path d="M1188.97-22.9l9.96 3.61-10.04 3.39.08-7z"/>
</g>
<text x="50.7" y="-263.3" class="C D E J">&gt;= 5.5 &lt; 9</text>
<path d="M987.7-339h-137c-6 0-12 6-12 12v12c0 6 6 12 12 12h137c6 0 12-6 12-12v-12c0-6-6-12-12-12" class="I K"/>
<text x="919.2" y="-317.3" class="C D E J">composer-plugin-api</text>
<g class="I">
<path d="M704.47-481.99c79.44 10.02 170.29 27.4 197.73 55.99 19.33 20.15 21.65 53.24 20.38 76.68"
class="G"/>
<path d="M926.06-349.01l-4.27 9.7-2.7-10.25 6.97.55z"/>
</g>
<text x="960.2" y="-404.3" class="C D E J">^1.1 | ^2.0</text>
<use xlink:href="#B" fill="#fff" class="I"/>
<text x="169.2" y="-209.3" class="C D E J">graphp/graphviz: v0.2.2</text>
<g class="I">
<path d="M86.2-407c-6.56 33.85 41.84 122.96 67.59 167.25" class="G"/>
<path d="M156.88-241.41l2.04 10.4-8.08-6.86 6.04-3.54z"/>
</g>
<text x="119.7" y="-360.8" class="C D E J">~0.2.0</text>
<path d="M2321.2-426h-182c-6 0-12 6-12 12v12c0 6 6 12 12 12h182c6 0 12-6 12-12v-12c0-6-6-12-12-12" class="F H"/>
<text x="2230.2" y="-404.3" class="B C D E">composer/composer: 2.1.9</text>
<g class="F">
<path d="M704.38-487.22l1412.23 72.4" class="G"/>
<path d="M2117.15-418.3l9.81 4.01-10.17 2.98.36-6.99z" class="B"/>
</g>
<text x="1517.7" y="-447.8" class="B C D E">^2.0</text>
<path d="M507.7-426h-381c-6 0-12 6-12 12v12c0 6 6 12 12 12h381c6 0 12-6 12-12v-12c0-6-6-12-12-12" class="F H"/>
<text x="317.2" y="-404.3" class="B C D E">dealerdirect/phpcodesniffer-composer-installer: v0.7.1</text>
<g class="F">
<path d="M520.9-476.9l-142.86 47.62" class="G"/>
<path d="M379.01-425.91l-10.6-.16 8.38-6.48 2.22 6.64z" class="B"/>
</g>
<text x="462.7" y="-447.8" class="B C D E">*</text>
<path d="M880.7-426h-287c-6 0-12 6-12 12v12c0 6 6 12 12 12h287c6 0 12-6 12-12v-12c0-6-6-12-12-12" class="F H"/>
<text x="737.2" y="-404.3" class="B C D E">phpcompatibility/php-compatibility: 9.3.5</text>
<g class="F">
<path d="M605.59-476.8l89.46 46.09" class="G"/>
<path d="M696.85-433.72l7.29 7.69-10.49-1.47 3.2-6.22z" class="B"/>
</g>
<text x="667.7" y="-447.8" class="B C D E">*</text>
<path d="M668.2-339h-224c-6 0-12 6-12 12v12c0 6 6 12 12 12h224c6 0 12-6 12-12v-12c0-6-6-12-12-12" class="F H"/>
<text x="556.2" y="-317.3" class="B C D E">squizlabs/php_codesniffer: 3.6.0</text>
<g class="F">
<path d="M570.61-476.88l-11.88 127.61" class="G"/>
<path d="M562.2-348.68l-4.42 9.63-2.55-10.28 6.97.65z" class="B"/>
</g>
<text x="568.7" y="-404.3" class="B C D E">*</text>
<path d="M149.12-195C112.84-162.6 44.38-92.57 92.2-62.5" class="G I"/>
<text x="114.7" y="-101.3" class="C D E J">&gt;=5.3.0</text>
<path fill="#fff" d="M490.7-123h-123c-6 0-12 6-12 12v12c0 6 6 12 12 12h123c6 0 12-6 12-12v-12c0-6-6-12-12-12"
class="I"/>
<text x="429.2" y="-101.3" class="C D E J">clue/graph: v0.9.2</text>
<g class="I">
<path d="M210.97-194.97l166.69 67.96" class="G"/>
<path d="M379.16-130.18l7.94 7.02-10.58-.54 2.64-6.48z"/>
</g>
<text x="388.2" y="-155.3" class="C D E J">~0.9.0|~0.8.0</text>
<path d="M1656.2-320c3.42 31.98 9.91 49.49-14 71-33.34 30-170.74-15.09-201 18-10.8 11.81-8.97 22.75 0 36 64.95 95.93 137.78 45.12 245 89m0 2c23.44 9.15 459.9 17.96 451 41.5m0 2c-15.71 41.55-704.08 42.14-873.59 41.66"
class="F G"/>
<path d="M1263.42-15.34l-9.99-3.53 10.02-3.47-.03 7z" class="B F"/>
<text x="1515.2" y="-209.3" class="B C D E">^5.3.2 || ^7.0 || ^8.0</text>
<path d="M1889.7-339h-191c-6 0-12 6-12 12v12c0 6 6 12 12 12h191c6 0 12-6 12-12v-12c0-6-6-12-12-12" class="F H"/>
<text x="1794.2" y="-317.3" class="B C D E">composer/ca-bundle: 1.2.11</text>
<g class="F">
<path d="M2127.05-399.51c-55.03 5.27-123.63 13.88-183.85 27.51-32.62 7.38-68.15 19.15-96.34 29.42"
class="G"/>
<path d="M1847.81-339.2l-10.59.18 8.17-6.74 2.42 6.56z" class="B"/>
</g>
<text x="1960.7" y="-360.8" class="B C D E">^1.0</text>
<path d="M2071.7-285h-239c-6 0-12 6-12 12v12c0 6 6 12 12 12h239c6 0 12-6 12-12v-12c0-6-6-12-12-12" class="F H"/>
<text x="1952.2" y="-263.3" class="B C D E">composer/metadata-minifier: 1.0.0</text>
<g class="F">
<path d="M2126.87-398.21c-26.15 5.2-53.39 13.38-76.67 26.21-34.45 18.98-63.81 54.33-81.18 78.51" class="G"/>
<path d="M1971.78-291.33l-8.6 6.18 2.86-10.2 5.74 4.02z" class="B"/>
</g>
<text x="2067.7" y="-360.8" class="B C D E">^1.0</text>
<use xlink:href="#B" x="1850" y="54" class="F H"/>
<text x="2019.2" y="-155.3" class="B C D E">composer/semver: 3.2.5</text>
<g class="F">
<path d="M2212.46-389.84c-23.54 23.07-66 65.71-99.26 104.84-7.83 9.2-50.18 65.99-75.29 99.78" class="G"/>
<path d="M2040.71-183.11l-8.78 5.94 3.16-10.12 5.62 4.18z" class="B"/>
</g>
<text x="2178.7" y="-317.3" class="B C D E">^3.0</text>
<path d="M2334.2-285h-208c-6 0-12 6-12 12v12c0 6 6 12 12 12h208c6 0 12-6 12-12v-12c0-6-6-12-12-12" class="F H"/>
<text x="2230.2" y="-263.3" class="B C D E">composer/spdx-licenses: 1.5.5</text>
<g class="F">
<path d="M2230.2-389.96v94.43" class="G"/>
<path d="M2233.7-295.18l-3.5 10-3.5-10h7z" class="B"/>
</g>
<text x="2247.7" y="-360.8" class="B C D E">^1.2</text>
<path d="M2653.2-231h-224c-6 0-12 6-12 12v12c0 6 6 12 12 12h224c6 0 12-6 12-12v-12c0-6-6-12-12-12" class="F H"/>
<text x="2541.2" y="-209.3" class="B C D E">composer/xdebug-handler: 2.0.2</text>
<g class="F">
<path d="M2533.2-363.5c11.08 20.36 10.6 84.94 9.29 122.22" class="G"/>
<path d="M2545.98-240.95l-3.89 9.85-3.1-10.13 6.99.28z" class="B"/>
</g>
<text x="2559.7" y="-317.3" class="B C D E">^2.0</text>
<path d="M2540.2-177h-238c-6 0-12 6-12 12v12c0 6 6 12 12 12h238c6 0 12-6 12-12v-12c0-6-6-12-12-12" class="F H"/>
<text x="2421.2" y="-155.3" class="B C D E">justinrainbow/json-schema: 5.2.11</text>
<path d="M2333.32-400.74c83.76 6.34 189.67 17.72 199.88 35.24m0 2c13.68 23.47-35.35 6.85-56 24.5-43.3 37.01-53.03 53.33-69 108-4.49 15.36-2.83 20.25 0 36 .49 2.72 1.17 5.5 1.98 8.25"
class="F G"/>
<path d="M2413.55-187.7l-.09 10.6-6.54-8.34 6.63-2.26z" class="B F"/>
<text x="2506.2" y="-317.3" class="B C D E">^5.2.11</text>
<path d="M2725.7-123h-89c-6 0-12 6-12 12v12c0 6 6 12 12 12h89c6 0 12-6 12-12v-12c0-6-6-12-12-12" class="F H"/>
<text x="2681.2" y="-101.3" class="B C D E">psr/log: 1.1.4</text>
<g class="F">
<path d="M2533.2-363.5c16.76 17.11 29.16 9.7 48 24.5 49.81 39.13 60.38 53.7 93 108 21.15 35.21 28.77 49.67 21 90-.53 2.74-1.27 5.53-2.13 8.29"
class="G"/>
<path d="M2696.25-131.24l-6.73 8.19.16-10.6 6.57 2.41z" class="B"/>
</g>
<text x="2679.7" y="-263.3" class="B C D E">^1.0</text>
<path d="M3247.2-285h-146c-6 0-12 6-12 12v12c0 6 6 12 12 12h146c6 0 12-6 12-12v-12c0-6-6-12-12-12" class="F H"/>
<text x="3174.2" y="-263.3" class="B C D E">react/promise: v2.8.0</text>
<g class="F">
<path d="M2333.22-406.23c165.93 1.97 484.91 9.03 594.98 34.23 76.27 17.46 158.88 57.09 206.33 82.08"
class="G"/>
<path d="M3136.35-292.92l7.19 7.79-10.47-1.61 3.28-6.18z" class="B"/>
</g>
<text x="3020.7" y="-360.8" class="B C D E">^1.2 || ^2.7</text>
<path d="M3435.7-177h-125c-6 0-12 6-12 12v12c0 6 6 12 12 12h125c6 0 12-6 12-12v-12c0-6-6-12-12-12" class="F H"/>
<text x="3373.2" y="-155.3" class="B C D E">seld/jsonlint: 1.8.3</text>
<g class="F">
<path d="M2333.21-407.38c191.98.08 597.36 4.09 733.99 35.38 94.88 21.73 122.94 28.84 201 87 37.53 27.96 70.33 71.86 88.89 99.5"
class="G"/>
<path d="M3360.02-187.41l2.58 10.27-8.43-6.42 5.85-3.85z" class="B"/>
</g>
<text x="3259.7" y="-317.3" class="B C D E">^1.4</text>
<path d="M3515.7-285h-141c-6 0-12 6-12 12v12c0 6 6 12 12 12h141c6 0 12-6 12-12v-12c0-6-6-12-12-12" class="F H"/>
<text x="3445.2" y="-263.3" class="B C D E">seld/phar-utils: 1.1.2</text>
<g class="F">
<path d="M2333.34-407.28c252.49-.16 887.61 2.73 977.86 35.28 45.19 16.3 87.19 54.05 111.73 79.3" class="G"/>
<path d="M3425.61-294.96l4.35 9.66-9.42-4.83 5.07-4.83z" class="B"/>
</g>
<text x="3357.7" y="-360.8" class="B C D E">^1.0</text>
<path d="M2964.2-339h-174c-6 0-12 6-12 12v12c0 6 6 12 12 12h174c6 0 12-6 12-12v-12c0-6-6-12-12-12" class="F H"/>
<text x="2877.2" y="-317.3" class="B C D E">symfony/console: v3.4.47</text>
<g class="F">
<path d="M2333.47-396.66L2547.2-372l220.73 32.31" class="G"/>
<path d="M2768.74-343.11l9.33 5.02-10.43 1.9 1.1-6.92z" class="B"/>
</g>
<text x="2785.2" y="-360.8" class="B C D E">^2.8.52 || ^3.4.35 || ^4.4 || ^5.0 || ^6.0</text>
<path d="M1133.2-231h-194c-6 0-12 6-12 12v12c0 6 6 12 12 12h194c6 0 12-6 12-12v-12c0-6-6-12-12-12" class="F H"/>
<text x="1036.2" y="-209.3" class="B C D E">symfony/filesystem: v3.4.47</text>
<path d="M2127.05-405.78c-226.54 3.17-749.62 13.37-776.85 40.28m0 2c-47.58 47.02-252-22.08-300 24.5-25.71 24.95-24.22 69.25-19.83 97.86"
class="F G"/>
<path d="M1033.86-241.47l-1.72 10.45-5.17-9.25 6.89-1.2z" class="B F"/>
<text x="1189.2" y="-317.3" class="B C D E">^2.8.52 || ^3.4.35 || ^4.4 || ^5.0 || ^6.0</text>
<path d="M1317.2-177h-164c-6 0-12 6-12 12v12c0 6 6 12 12 12h164c6 0 12-6 12-12v-12c0-6-6-12-12-12" class="F H"/>
<text x="1235.2" y="-155.3" class="B C D E">symfony/finder: v3.4.47</text>
<g class="F">
<path d="M1350.2-363.5c-19.25 21.17-9.23 34.9-22 60.5-21.59 43.28-53.49 89.54-73.75 117.36" class="G"/>
<path d="M1257.05-183.26l-8.74 5.98 3.1-10.13 5.64 4.15z" class="B"/>
</g>
<text x="1476.2" y="-317.3" class="B C D E">^2.8.52 || ^3.4.35 || ^4.4 || ^5.0 || ^6.0</text>
<path d="M1542.2-123h-176c-6 0-12 6-12 12v12c0 6 6 12 12 12h176c6 0 12-6 12-12v-12c0-6-6-12-12-12" class="F H"/>
<text x="1454.2" y="-101.3" class="B C D E">symfony/process: v3.4.47</text>
<path d="M1350.2-363.5c-48.63 48.42 298.74-26.74 306 41.5m0 2c6.91 64.99-247.45-12.81-292 35-43.44 46.62 21.38 118.18 61.76 155.11"
class="F G"/>
<path d="M1428.32-132.47l5.11 9.28-9.79-4.07 4.68-5.21z" class="B F"/>
<text x="1503.2" y="-263.3" class="B C D E">^2.8.52 || ^3.4.35 || ^4.4 || ^5.0 || ^6.0</text>
<path d="M309.62-389.86c-16.26 39.72-49.26 138.97-.42 194.86 19.62 22.46 103.65 12.69 133 18 139.93 25.34 193.84-8.14 312 71m0 2c28.9 23 39.72 23.54 72 41.5m0 2c61.71 34.34 275.7 40.32 362.74 41.32"
class="F G"/>
<path d="M1189.18-22.68l9.97 3.6-10.03 3.4.06-7z" class="B F"/>
<text x="332.2" y="-209.3" class="B C D E">&gt;=5.3</text>
<g class="F">
<path d="M459.23-389.98c29 4.79 59.14 10.72 86.97 17.98 18.37 4.79 21.52 10.64 40 15 44.47 10.49 159.88 21.3 242.34 28.07"
class="G"/>
<path d="M829-332.4l9.68 4.3-10.25 2.68.57-6.98z" class="B"/>
</g>
<text x="628.7" y="-360.8" class="B C D E">^1.0 || ^2.0</text>
<g class="F">
<path d="M343.75-389.91c17.67 10.74 41.74 24.17 64.45 32.91 15.3 5.89 31.89 10.98 48.24 15.32" class="G"/>
<path d="M457.76-344.96l8.82 5.88-10.56.9 1.74-6.78z" class="B"/>
</g>
<text x="475.2" y="-360.8" class="B C D E">^2.0 || ^3.0 || ^4.0</text>
<path d="M778.75-389.84c6.96 4.74 13.27 10.63 17.45 17.84 43.47 74.99 2.33 108.33 3 195 .12 16 7.03 21.63 0 36-11.13 22.76-65.84 20.59-45 35"
class="F G"/>
<text x="826.2" y="-209.3" class="B C D E">&gt;=5.3</text>
<g class="F">
<path d="M717.65-389.83c-14.6 12.54-33.51 28.15-42.45 32.83-10.92 5.71-22.89 10.62-34.92 14.8" class="G"/>
<path d="M641.24-338.83l-10.59-.18 8.39-6.47 2.2 6.65z" class="B"/>
</g>
<text x="744.2" y="-360.8" class="B C D E">^2.3 || ^3.0.2</text>
<path d="M643.31-303c39.61 12.67 82.54 34.53 104.89 72 8.19 13.74 3.32 20.35 0 36-1.82 8.56-6.18 9.44-8 18-3.32 15.65-3.03 20.29 0 36 3.17 16.45.21 25.49 14 35"
class="F G"/>
<text x="769.7" y="-155.3" class="B C D E">&gt;=5.4.0</text>
<path d="M468.2-231h-92c-6 0-12 6-12 12v12c0 6 6 12 12 12h92c6 0 12-6 12-12v-12c0-6-6-12-12-12" class="F K"/>
<text x="422.2" y="-209.3" class="B C D E">ext-simplexml</text>
<g class="F">
<path d="M534.67-302.97l-82.48 65.24" class="G"/>
<path d="M454.13-234.8l-10.01 3.46 5.67-8.95 4.34 5.49z" class="B"/>
</g>
<text x="511.7" y="-263.3" class="B C D E">*</text>
<path d="M595.7-231h-85c-6 0-12 6-12 12v12c0 6 6 12 12 12h85c6 0 12-6 12-12v-12c0-6-6-12-12-12" class="F K"/>
<text x="553.2" y="-209.3" class="B C D E">ext-tokenizer</text>
<g class="F">
<path d="M555.72-302.97l-1.75 61.54" class="G"/>
<path d="M557.47-241.24l-3.78 9.9-3.22-10.1 7 .2z" class="B"/>
</g>
<text x="557.7" y="-263.3" class="B C D E">*</text>
<path d="M726.7-231h-89c-6 0-12 6-12 12v12c0 6 6 12 12 12h89c6 0 12-6 12-12v-12c0-6-6-12-12-12" class="F K"/>
<text x="682.2" y="-209.3" class="B C D E">ext-xmlwriter</text>
<g class="F">
<path d="M576.44-302.97l77.24 64.98" class="G"/>
<path d="M656.19-240.46l5.4 9.12-9.91-3.76 4.51-5.36z" class="B"/>
</g>
<text x="640.7" y="-263.3" class="B C D E">*</text>
<g class="I">
<path d="M502.96-91.51C571.1-80.34 675.24-64.2 766.2-54c156.6 17.55 344.19 28.8 422.64 33.06" class="G"/>
<path d="M1189.38-24.41l9.79 4.03-10.17 2.96.38-6.99z"/>
</g>
<text x="789.2" y="-57.8" class="C D E J">&gt;=5.3</text>
<path d="M1800.98-302.9c9.34 26.74 22.15 78.42-4.78 107.9-29.95 32.78-169.05-14.78-199 18-60.69 66.43 61.33 59.56 89 71"
class="F G"/>
<text x="1671.2" y="-155.3" class="B C D E">^5.3.2 || ^7.0 || ^8.0</text>
<path d="M1682.7-231h-73c-6 0-12 6-12 12v12c0 6 6 12 12 12h73c6 0 12-6 12-12v-12c0-6-6-12-12-12" class="F K"/>
<text x="1646.2" y="-209.3" class="B C D E">ext-openssl</text>
<g class="F">
<path d="M1770.42-302.97l-91.81 65.76" class="G"/>
<path d="M1680.58-234.32l-10.17 2.98 6.09-8.67 4.08 5.69z" class="B"/>
</g>
<text x="1744.7" y="-263.3" class="B C D E">*</text>
<path d="M1775.2-231h-50c-6 0-12 6-12 12v12c0 6 6 12 12 12h50c6 0 12-6 12-12v-12c0-6-6-12-12-12" class="F K"/>
<text x="1750.2" y="-209.3" class="B C D E">ext-pcre</text>
<g class="F">
<path d="M1787.13-302.97l-25.88 62.35" class="G"/>
<path d="M1764.46-239.23l-7.06 7.89.6-10.58 6.46 2.69z" class="B"/>
</g>
<text x="1781.7" y="-263.3" class="B C D E">*</text>
<path d="M1926.74-248.9c-24.25 15.69-62.19 38.74-97.54 53.9-25.98 11.14-39.13.09-61 18-14 11.46-6.35 23.07-19 36-22.41 22.89-92.55 22.65-63 35"
class="F G"/>
<text x="1842.2" y="-155.3" class="B C D E">^5.3.2 || ^7.0 || ^8.0</text>
<path d="M1989.76-140.71c-5.88 4.92-11.25 10.85-14.56 17.71-6.95 14.41-10.44 23.87 0 36 23.74 27.6 169.43-11.14 162 24.5"
class="F G"/>
<text x="2049.2" y="-101.3" class="B C D E">^5.3.2 || ^7.0 || ^8.0</text>
<path d="M2200.71-248.69c-23.2 15.48-53.81 40.52-67.51 71.69-20.49 46.61 22.01 66.87 4 114.5" class="F G"/>
<text x="2207.2" y="-155.3" class="B C D E">^5.3.2 || ^7.0 || ^8.0</text>
<path d="M2550.98-194.82c7.52 15.76 14.71 38.85 2.22 53.82-5.37 6.44-288.74 52.54-297 54-26.59 4.7-113.14-1.85-119 24.5"
class="F G"/>
<text x="2540.2" y="-101.3" class="B C D E">^5.3.2 || ^7.0 || ^8.0</text>
<g class="F">
<path d="M2561.3-194.67c5.75 5.39 11.83 11.54 16.9 17.67 12.1 14.63 8.57 23.66 23 36 5.91 5.06 12.67 9.49 19.7 13.35"
class="G"/>
<path d="M2622.58-130.72l7.32 7.66-10.5-1.42 3.18-6.24z" class="B"/>
</g>
<text x="2648.2" y="-155.3" class="B C D E">^1 || ^2 || ^3</text>
<path d="M2290.48-140.96c-43.8 6.37-83.97 13.2-93.28 17.96-16.86 8.61-56.01 41.99-60 60.5" class="F G"/>
<text x="2226.7" y="-101.3" class="B C D E">&gt;=5.3.3</text>
<g class="F">
<path d="M2624.42-97.59C2527.51-86.88 2323.88-65.4 2151.2-54c-344.35 22.74-761.87 31.96-887.5 34.34"
class="G"/>
<path d="M1263.53-16.16l-10.06-3.31 9.93-3.69.13 7z" class="B"/>
</g>
<text x="2355.7" y="-57.8" class="B C D E">&gt;=5.3.0</text>
<path d="M3187.71-248.81c17.94 25.09 45.1 72.57 24.49 107.81-8.24 14.09-19.64 7.35-32 18-15.36 13.23-13.84 21.5-28 36-12.03 12.32-16.48 13.84-30 24.5"
class="F G"/>
<text x="3248.7" y="-155.3" class="B C D E">&gt;=5.4.0</text>
<path d="M3298.41-141.66c-32.65 7.41-65.15 15.26-72.21 18.66-23.39 11.27-23.63 22.83-46 36-24.12 14.19-39.5 3.51-58 24.5"
class="F G"/>
<text x="3293.2" y="-101.3" class="B C D E">^5.3 || ^7.0 || ^8.0</text>
<path d="M3450.99-248.92c7.5 25.37 17.49 73.67-1.79 107.92-22.7 40.32-45.14 39.27-89 54-50.4 16.93-196.25-8.42-238 24.5"
class="F G"/>
<text x="3482.2" y="-155.3" class="B C D E">&gt;=5.3</text>
<path d="M2909.75-302.79c6.22 4.88 11.9 10.8 15.45 17.79 6.41 12.61-3.48 88.32-5 90-27.62 30.61-64.83-13.86-91 18-10.16 12.36-10.77 24.16 0 36 28.54 31.37 149.81 4.46 190 18 28.75 9.69 31.78 20.74 58 36 19.68 11.45 63.46 11.16 45 24.5"
class="F G"/>
<text x="2884.2" y="-155.3" class="B C D E">^5.5.9|&gt;=7.0.8</text>
<use xlink:href="#B" x="2647" class="F H"/>
<text x="2816.2" y="-209.3" class="B C D E">symfony/debug: v3.4.47</text>
<g class="F">
<path d="M2832.85-302.84c-7.05 4.71-13.41 10.58-17.65 17.84-7.63 13.06-7.71 29.92-5.74 43.93" class="G"/>
<path d="M2812.95-241.49l-1.66 10.47-5.23-9.22 6.89-1.25z" class="B"/>
</g>
<text x="2870.2" y="-263.3" class="B C D E">~2.8|~3.0|~4.0</text>
<path d="M3198.7-177h-239c-6 0-12 6-12 12v12c0 6 6 12 12 12h239c6 0 12-6 12-12v-12c0-6-6-12-12-12" class="F H"/>
<text x="3079.2" y="-155.3" class="B C D E">symfony/polyfill-mbstring: v1.19.0</text>
<g class="F">
<path d="M2921.24-302.88c10.86 5.06 22.17 11.09 31.96 17.88 41.76 28.97 82.01 72.5 105.36 99.8" class="G"/>
<path d="M3061.47-187.18l3.78 9.9-9.13-5.38 5.35-4.52z" class="B"/>
</g>
<text x="3013.7" y="-263.3" class="B C D E">~1.0</text>
<path d="M985.6-195c-83.53 29.86-233.98 92.35-159.4 132.5" class="F G"/>
<text x="885.2" y="-101.3" class="B C D E">^5.5.9|&gt;=7.0.8</text>
<path d="M1178.2-123h-212c-6 0-12 6-12 12v12c0 6 6 12 12 12h212c6 0 12-6 12-12v-12c0-6-6-12-12-12" class="F H"/>
<text x="1072.2" y="-101.3" class="B C D E">symfony/polyfill-ctype: v1.19.0</text>
<g class="F">
<path d="M1041.98-194.97l21.08 62.08" class="G"/>
<path d="M1066.41-133.93l-.1 10.59-6.53-8.34 6.63-2.25z" class="B"/>
</g>
<text x="1076.7" y="-155.3" class="B C D E">~1.8</text>
<g class="F">
<path d="M1234.09-140.96l-6.11 94.43" class="G"/>
<path d="M1231.45-45.94l-4.14 9.76-2.85-10.21 6.99.45z" class="B"/>
</g>
<text x="1287.2" y="-101.3" class="B C D E">^5.5.9|&gt;=7.0.8</text>
<g class="F">
<path d="M1408.33-86.9l-145.4 54.21" class="G"/>
<path d="M1264-29.36l-10.6.22 8.15-6.78 2.45 6.56z" class="B"/>
</g>
<text x="1408.2" y="-57.8" class="B C D E">^5.5.9|&gt;=7.0.8</text>
<path d="M2810.58-194.98c-3.94 15.22-6.97 37.58 2.62 53.98 24.71 42.26 49.43 38.91 96 54 45.32 14.69 245.44-10.39 213 24.5m0 2c-37.88 29.86-1595.63 39.83-1858.52 41.3"
class="F G"/>
<path d="M1263.53-15.7l-10.02-3.44 9.98-3.56.04 7z" class="B F"/>
<text x="2964.2" y="-101.3" class="B C D E">^5.5.9|&gt;=7.0.8</text>
<g class="F">
<path d="M2777.03-194.87c-9.31 5.03-18.85 11.04-26.83 17.87-15.2 13-13.23 21.5-27 36-3.59 3.77-7.56 7.54-11.6 11.12"
class="G"/>
<path d="M2713.73-127.09l-9.88 3.84 5.33-9.16 4.55 5.32z" class="B"/>
</g>
<text x="2767.7" y="-155.3" class="B C D E">~1.0</text>
<path d="M3079.44-140.81c.91 15.12 4.01 37.24 13.76 53.81 8.56 14.54 39.82 11.55 29 24.5" class="F G"/>
<text x="3122.7" y="-101.3" class="B C D E">&gt;=5.3.3</text>
<g class="F">
<path d="M1098.41-86.84c15.66 10 36.08 22.62 54.79 32.84 11.77 6.43 24.92 12.94 36.78 18.56" class="G"/>
<path d="M1191.59-38.55l7.57 7.42-10.54-1.08 2.97-6.34z" class="B"/>
</g>
<text x="1182.7" y="-57.8" class="B C D E">&gt;=5.3.3</text>
</g>
<defs>
<path id="B" d="M251.7-231h-165c-6 0-12 6-12 12v12c0 6 6 12 12 12h165c6 0 12-6 12-12v-12c0-6-6-12-12-12"/>
</defs>
</svg>
