<?xml version="1.0" encoding="UTF-8" standalone="no"?>
<!DOCTYPE svg PUBLIC "-//W3C//DTD SVG 1.1//EN"
 "http://www.w3.org/Graphics/SVG/1.1/DTD/svg11.dtd">
<!-- Generated by graphviz version 2.44.0 (0)
 -->
<!-- Pages: 1 -->
<svg width="1723pt" height="608pt"
 viewBox="0.00 0.00 1723.00 608.00" xmlns="http://www.w3.org/2000/svg" xmlns:xlink="http://www.w3.org/1999/xlink">
<g id="graph0" class="graph" transform="scale(1 1) rotate(0) translate(4 604)">
<polygon fill="white" stroke="transparent" points="-4,4 -4,-604 1719,-604 1719,4 -4,4"/>
<!-- __root__ -->
<g id="node1" class="node">
<title>__root__</title>
<path fill="#eeffee" stroke="black" d="M638.5,-600C638.5,-600 513.5,-600 513.5,-600 507.5,-600 501.5,-594 501.5,-588 501.5,-588 501.5,-576 501.5,-576 501.5,-570 507.5,-564 513.5,-564 513.5,-564 638.5,-564 638.5,-564 644.5,-564 650.5,-570 650.5,-576 650.5,-576 650.5,-588 650.5,-588 650.5,-594 644.5,-600 638.5,-600"/>
<text text-anchor="middle" x="576" y="-578.3" font-family="Times-Roman" font-size="14.00">__root__: dev&#45;master</text>
</g>
<!-- php&#45;64bit -->
<g id="node2" class="node">
<title>php&#45;64bit</title>
<path fill="#eeeeff" stroke="black" d="M143,-459C143,-459 87,-459 87,-459 81,-459 75,-453 75,-447 75,-447 75,-435 75,-435 75,-429 81,-423 87,-423 87,-423 143,-423 143,-423 149,-423 155,-429 155,-435 155,-435 155,-447 155,-447 155,-453 149,-459 143,-459"/>
<text text-anchor="middle" x="115" y="-437.3" font-family="Times-Roman" font-size="14.00">php&#45;64bit</text>
</g>
<!-- __root__&#45;&gt;php&#45;64bit -->
<g id="edge1" class="edge">
<title>__root__&#45;&gt;php&#45;64bit</title>
<path fill="none" stroke="black" d="M501.3,-576.98C450.42,-572.71 382.02,-563.94 324,-546 259.92,-526.19 191.36,-488.53 150.88,-464.38"/>
<polygon fill="black" stroke="black" points="152.56,-461.31 142.19,-459.15 148.95,-467.3 152.56,-461.31"/>
<text text-anchor="middle" x="328" y="-534.8" font-family="Times-Roman" font-size="14.00">*</text>
</g>
<!-- ext&#45;json -->
<g id="node3" class="node">
<title>ext&#45;json</title>
<path fill="#eeeeff" stroke="black" d="M993.5,-513C993.5,-513 948.5,-513 948.5,-513 942.5,-513 936.5,-507 936.5,-501 936.5,-501 936.5,-489 936.5,-489 936.5,-483 942.5,-477 948.5,-477 948.5,-477 993.5,-477 993.5,-477 999.5,-477 1005.5,-483 1005.5,-489 1005.5,-489 1005.5,-501 1005.5,-501 1005.5,-507 999.5,-513 993.5,-513"/>
<text text-anchor="middle" x="971" y="-491.3" font-family="Times-Roman" font-size="14.00">ext&#45;json</text>
</g>
<!-- __root__&#45;&gt;ext&#45;json -->
<g id="edge2" class="edge">
<title>__root__&#45;&gt;ext&#45;json</title>
<path fill="none" stroke="black" d="M650.52,-570.49C719.96,-559.81 826.3,-541.19 926.45,-512.89"/>
<polygon fill="black" stroke="black" points="927.48,-516.23 936.13,-510.12 925.55,-509.5 927.48,-516.23"/>
<text text-anchor="middle" x="856" y="-534.8" font-family="Times-Roman" font-size="14.00">*</text>
</g>
<!-- psr/http&#45;factory&#45;implementation -->
<g id="node4" class="node">
<title>psr/http&#45;factory&#45;implementation</title>
<path fill="#ffeeee" stroke="black" d="M758.5,-459C758.5,-459 551.5,-459 551.5,-459 545.5,-459 539.5,-453 539.5,-447 539.5,-447 539.5,-435 539.5,-435 539.5,-429 545.5,-423 551.5,-423 551.5,-423 758.5,-423 758.5,-423 764.5,-423 770.5,-429 770.5,-435 770.5,-435 770.5,-447 770.5,-447 770.5,-453 764.5,-459 758.5,-459"/>
<text text-anchor="middle" x="655" y="-437.3" font-family="Times-Roman" font-size="14.00">psr/http&#45;factory&#45;implementation</text>
</g>
<!-- __root__&#45;&gt;psr/http&#45;factory&#45;implementation -->
<g id="edge3" class="edge">
<title>__root__&#45;&gt;psr/http&#45;factory&#45;implementation</title>
<path fill="none" stroke="black" d="M585.69,-563.96C599.31,-539.99 624.24,-496.12 640.2,-468.05"/>
<polygon fill="black" stroke="black" points="643.34,-469.61 645.23,-459.18 637.25,-466.15 643.34,-469.61"/>
<text text-anchor="middle" x="618.5" y="-534.8" font-family="Times-Roman" font-size="14.00">^1.0</text>
</g>
<!-- sandfoxme/composer&#45;viz -->
<g id="node5" class="node">
<title>sandfoxme/composer&#45;viz</title>
<path fill="#ffffff" stroke="black" d="M411.5,-297C411.5,-297 172.5,-297 172.5,-297 166.5,-297 160.5,-291 160.5,-285 160.5,-285 160.5,-273 160.5,-273 160.5,-267 166.5,-261 172.5,-261 172.5,-261 411.5,-261 411.5,-261 417.5,-261 423.5,-267 423.5,-273 423.5,-273 423.5,-285 423.5,-285 423.5,-291 417.5,-297 411.5,-297"/>
<text text-anchor="middle" x="292" y="-275.3" font-family="Times-Roman" font-size="14.00">sandfoxme/composer&#45;viz: dev&#45;master</text>
</g>
<!-- __root__&#45;&gt;sandfoxme/composer&#45;viz -->
<g id="edge4" class="edge">
<title>__root__&#45;&gt;sandfoxme/composer&#45;viz</title>
<path fill="none" stroke="black" d="M510.79,-563.91C498.94,-559.19 487.14,-553.29 477,-546 387.56,-481.66 326.68,-360.05 303.02,-306.48"/>
<polygon fill="black" stroke="black" points="306.1,-304.78 298.91,-297 299.68,-307.57 306.1,-304.78"/>
<text text-anchor="middle" x="408" y="-437.3" font-family="Times-Roman" font-size="14.00">@dev</text>
</g>
<!-- php&#45;ipv6 -->
<g id="node6" class="node">
<title>php&#45;ipv6</title>
<path fill="#eeeeff" stroke="black" d="M477,-351C477,-351 427,-351 427,-351 421,-351 415,-345 415,-339 415,-339 415,-327 415,-327 415,-321 421,-315 427,-315 427,-315 477,-315 477,-315 483,-315 489,-321 489,-327 489,-327 489,-339 489,-339 489,-345 483,-351 477,-351"/>
<text text-anchor="middle" x="452" y="-329.3" font-family="Times-Roman" font-size="14.00">php&#45;ipv6</text>
</g>
<!-- __root__&#45;&gt;php&#45;ipv6 -->
<g id="edge5" class="edge">
<title>__root__&#45;&gt;php&#45;ipv6</title>
<path fill="none" stroke="black" stroke-dasharray="5,2" d="M514.21,-563.88C505.48,-559.24 497.34,-553.39 491,-546 445.76,-493.26 445.63,-405.49 448.97,-361.26"/>
<polygon fill="black" stroke="black" points="452.46,-361.51 449.85,-351.25 445.49,-360.9 452.46,-361.51"/>
<text text-anchor="middle" x="473" y="-491.3" font-family="Times-Roman" font-size="14.00">*</text>
</g>
<!-- ext&#45;curl -->
<g id="node7" class="node">
<title>ext&#45;curl</title>
<path fill="#eeeeff" stroke="black" d="M1078.5,-513C1078.5,-513 1035.5,-513 1035.5,-513 1029.5,-513 1023.5,-507 1023.5,-501 1023.5,-501 1023.5,-489 1023.5,-489 1023.5,-483 1029.5,-477 1035.5,-477 1035.5,-477 1078.5,-477 1078.5,-477 1084.5,-477 1090.5,-483 1090.5,-489 1090.5,-489 1090.5,-501 1090.5,-501 1090.5,-507 1084.5,-513 1078.5,-513"/>
<text text-anchor="middle" x="1057" y="-491.3" font-family="Times-Roman" font-size="14.00">ext&#45;curl</text>
</g>
<!-- __root__&#45;&gt;ext&#45;curl -->
<g id="edge6" class="edge">
<title>__root__&#45;&gt;ext&#45;curl</title>
<path fill="none" stroke="black" stroke-dasharray="5,2" d="M650.67,-575.91C736.87,-568.59 882.48,-551.79 1013.57,-512.85"/>
<polygon fill="black" stroke="black" points="1014.82,-516.12 1023.38,-509.88 1012.79,-509.42 1014.82,-516.12"/>
<text text-anchor="middle" x="949" y="-534.8" font-family="Times-Roman" font-size="14.00">*</text>
</g>
<!-- laminas/laminas&#45;barcode -->
<g id="node8" class="node">
<title>laminas/laminas&#45;barcode</title>
<path fill="#eeeeee" stroke="black" d="M906.5,-513C906.5,-513 709.5,-513 709.5,-513 703.5,-513 697.5,-507 697.5,-501 697.5,-501 697.5,-489 697.5,-489 697.5,-483 703.5,-477 709.5,-477 709.5,-477 906.5,-477 906.5,-477 912.5,-477 918.5,-483 918.5,-489 918.5,-489 918.5,-501 918.5,-501 918.5,-507 912.5,-513 906.5,-513"/>
<text text-anchor="middle" x="808" y="-491.3" font-family="Times-Roman" font-size="14.00">laminas/laminas&#45;barcode: 2.5.2</text>
</g>
<!-- __root__&#45;&gt;laminas/laminas&#45;barcode -->
<g id="edge7" class="edge">
<title>__root__&#45;&gt;laminas/laminas&#45;barcode</title>
<path fill="none" stroke="black" stroke-dasharray="5,2" d="M622.67,-563.9C659.95,-550.24 712.33,-531.05 751.9,-516.56"/>
<polygon fill="black" stroke="black" points="753.22,-519.8 761.4,-513.07 750.81,-513.23 753.22,-519.8"/>
<text text-anchor="middle" x="720.5" y="-534.8" font-family="Times-Roman" font-size="14.00">^2.5</text>
</g>
<!-- laminas/laminas&#45;diactoros -->
<g id="node9" class="node">
<title>laminas/laminas&#45;diactoros</title>
<path fill="#eeeeee" stroke="black" d="M716,-297C716,-297 512,-297 512,-297 506,-297 500,-291 500,-285 500,-285 500,-273 500,-273 500,-267 506,-261 512,-261 512,-261 716,-261 716,-261 722,-261 728,-267 728,-273 728,-273 728,-285 728,-285 728,-291 722,-297 716,-297"/>
<text text-anchor="middle" x="614" y="-275.3" font-family="Times-Roman" font-size="14.00">laminas/laminas&#45;diactoros: 2.8.0</text>
</g>
<!-- __root__&#45;&gt;laminas/laminas&#45;diactoros -->
<g id="edge8" class="edge">
<title>__root__&#45;&gt;laminas/laminas&#45;diactoros</title>
<path fill="none" stroke="black" stroke-dasharray="5,2" d="M558.09,-563.99C530.46,-535.58 482.47,-476.35 501,-423 517.8,-374.64 558.5,-330.29 586.18,-304.2"/>
<polygon fill="black" stroke="black" points="588.64,-306.69 593.61,-297.33 583.89,-301.55 588.64,-306.69"/>
<text text-anchor="middle" x="515.5" y="-437.3" font-family="Times-Roman" font-size="14.00">^2.8</text>
</g>
<!-- php -->
<g id="node11" class="node">
<title>php</title>
<path fill="#eeeeff" stroke="black" d="M726,-36C726,-36 696,-36 696,-36 690,-36 684,-30 684,-24 684,-24 684,-12 684,-12 684,-6 690,0 696,0 696,0 726,0 726,0 732,0 738,-6 738,-12 738,-12 738,-24 738,-24 738,-30 732,-36 726,-36"/>
<text text-anchor="middle" x="711" y="-14.3" font-family="Times-Roman" font-size="14.00">php</text>
</g>
<!-- php&#45;64bit&#45;&gt;php -->
<g id="edge41" class="edge">
<title>php&#45;64bit&#45;&gt;php</title>
<path fill="none" stroke="black" stroke-dasharray="1,5" d="M74.78,-422.84C41.62,-405.68 0,-375.82 0,-334 0,-334 0,-334 0,-104 0,-35.48 527.4,-21.94 673.74,-19.5"/>
<polygon fill="black" stroke="black" points="674.05,-22.99 684,-19.33 673.94,-15.99 674.05,-22.99"/>
</g>
<!-- psr/http&#45;factory&#45;implementation&#45;&gt;laminas/laminas&#45;diactoros -->
<g id="edge43" class="edge">
<title>psr/http&#45;factory&#45;implementation&#45;&gt;laminas/laminas&#45;diactoros</title>
<path fill="none" stroke="black" stroke-dasharray="1,5" d="M650.61,-422.88C643.53,-395.23 629.51,-340.54 621.03,-307.42"/>
<polygon fill="black" stroke="black" points="624.35,-306.3 618.48,-297.48 617.57,-308.04 624.35,-306.3"/>
</g>
<!-- sandfoxme/composer&#45;viz&#45;&gt;php -->
<g id="edge20" class="edge">
<title>sandfoxme/composer&#45;viz&#45;&gt;php</title>
<path fill="none" stroke="black" d="M346.47,-260.91C354.96,-256.23 362.92,-250.36 369,-243 378.62,-231.37 375.21,-224.98 377,-210 378.9,-194.11 378.75,-189.9 377,-174 376.11,-165.85 373.89,-164.15 373,-156 372.27,-149.37 370.9,-147.33 373,-141 388.22,-95.2 396.31,-78.33 438,-54 477.19,-31.13 608.49,-22.93 673.66,-20.22"/>
<polygon fill="black" stroke="black" points="674.05,-23.71 683.9,-19.82 673.77,-16.71 674.05,-23.71"/>
<text text-anchor="middle" x="405.5" y="-144.8" font-family="Times-Roman" font-size="14.00">&gt;= 5.5 &lt; 9</text>
</g>
<!-- graphp/graphviz -->
<g id="node12" class="node">
<title>graphp/graphviz</title>
<path fill="#ffffff" stroke="black" d="M186,-210C186,-210 40,-210 40,-210 34,-210 28,-204 28,-198 28,-198 28,-186 28,-186 28,-180 34,-174 40,-174 40,-174 186,-174 186,-174 192,-174 198,-180 198,-186 198,-186 198,-198 198,-198 198,-204 192,-210 186,-210"/>
<text text-anchor="middle" x="113" y="-188.3" font-family="Times-Roman" font-size="14.00">graphp/graphviz: v0.2.2</text>
</g>
<!-- sandfoxme/composer&#45;viz&#45;&gt;graphp/graphviz -->
<g id="edge19" class="edge">
<title>sandfoxme/composer&#45;viz&#45;&gt;graphp/graphviz</title>
<path fill="none" stroke="black" d="M255.78,-260.8C227.54,-247.39 188.18,-228.7 157.93,-214.34"/>
<polygon fill="black" stroke="black" points="159.4,-211.16 148.86,-210.03 156.4,-217.48 159.4,-211.16"/>
<text text-anchor="middle" x="234.5" y="-231.8" font-family="Times-Roman" font-size="14.00">~0.2.0</text>
</g>
<!-- composer&#45;plugin&#45;api -->
<g id="node15" class="node">
<title>composer&#45;plugin&#45;api</title>
<path fill="#eeeeff" stroke="black" d="M356,-210C356,-210 228,-210 228,-210 222,-210 216,-204 216,-198 216,-198 216,-186 216,-186 216,-180 222,-174 228,-174 228,-174 356,-174 356,-174 362,-174 368,-180 368,-186 368,-186 368,-198 368,-198 368,-204 362,-210 356,-210"/>
<text text-anchor="middle" x="292" y="-188.3" font-family="Times-Roman" font-size="14.00">composer&#45;plugin&#45;api</text>
</g>
<!-- sandfoxme/composer&#45;viz&#45;&gt;composer&#45;plugin&#45;api -->
<g id="edge18" class="edge">
<title>sandfoxme/composer&#45;viz&#45;&gt;composer&#45;plugin&#45;api</title>
<path fill="none" stroke="black" d="M292,-260.8C292,-249.16 292,-233.55 292,-220.24"/>
<polygon fill="black" stroke="black" points="295.5,-220.18 292,-210.18 288.5,-220.18 295.5,-220.18"/>
<text text-anchor="middle" x="328.5" y="-231.8" font-family="Times-Roman" font-size="14.00">^1.1 | ^2.0</text>
</g>
<!-- php&#45;ipv6&#45;&gt;php -->
<g id="edge42" class="edge">
<title>php&#45;ipv6&#45;&gt;php</title>
<path fill="none" stroke="black" stroke-dasharray="1,5" d="M452,-314.75C452,-295.62 452,-263.86 452,-236.5 452,-236.5 452,-236.5 452,-104 452,-57.88 602.14,-32.71 673.8,-23.33"/>
<polygon fill="black" stroke="black" points="674.29,-26.8 683.77,-22.06 673.41,-19.85 674.29,-26.8"/>
</g>
<!-- laminas/laminas&#45;barcode&#45;&gt;php -->
<g id="edge26" class="edge">
<title>laminas/laminas&#45;barcode&#45;&gt;php</title>
<path fill="none" stroke="black" stroke-dasharray="5,2" d="M802.75,-476.93C796.82,-456.13 788,-419.84 788,-388 788,-388 788,-388 788,-234.5 788,-168.46 834.87,-146.4 806,-87 794.18,-62.69 768.92,-45.26 747.42,-34.14"/>
<polygon fill="black" stroke="black" points="748.69,-30.86 738.17,-29.61 745.62,-37.15 748.69,-30.86"/>
<text text-anchor="middle" x="806.5" y="-231.8" font-family="Times-Roman" font-size="14.00">&gt;=5.5</text>
</g>
<!-- laminas/laminas&#45;servicemanager -->
<g id="node18" class="node">
<title>laminas/laminas&#45;servicemanager</title>
<path fill="#eeeeee" stroke="black" d="M1152,-297C1152,-297 902,-297 902,-297 896,-297 890,-291 890,-285 890,-285 890,-273 890,-273 890,-267 896,-261 902,-261 902,-261 1152,-261 1152,-261 1158,-261 1164,-267 1164,-273 1164,-273 1164,-285 1164,-285 1164,-291 1158,-297 1152,-297"/>
<text text-anchor="middle" x="1027" y="-275.3" font-family="Times-Roman" font-size="14.00">laminas/laminas&#45;servicemanager: 2.6.0</text>
</g>
<!-- laminas/laminas&#45;barcode&#45;&gt;laminas/laminas&#45;servicemanager -->
<g id="edge22" class="edge">
<title>laminas/laminas&#45;barcode&#45;&gt;laminas/laminas&#45;servicemanager</title>
<path fill="none" stroke="black" stroke-dasharray="5,2" d="M825.55,-476.85C864.31,-438.97 957.33,-348.08 1002.1,-304.33"/>
<polygon fill="black" stroke="black" points="1004.66,-306.72 1009.36,-297.23 999.77,-301.72 1004.66,-306.72"/>
<text text-anchor="middle" x="950.5" y="-383.3" font-family="Times-Roman" font-size="14.00">~2.5</text>
</g>
<!-- laminas/laminas&#45;stdlib -->
<g id="node19" class="node">
<title>laminas/laminas&#45;stdlib</title>
<path fill="#eeeeee" stroke="black" d="M1508,-297C1508,-297 1328,-297 1328,-297 1322,-297 1316,-291 1316,-285 1316,-285 1316,-273 1316,-273 1316,-267 1322,-261 1328,-261 1328,-261 1508,-261 1508,-261 1514,-261 1520,-267 1520,-273 1520,-273 1520,-285 1520,-285 1520,-291 1514,-297 1508,-297"/>
<text text-anchor="middle" x="1418" y="-275.3" font-family="Times-Roman" font-size="14.00">laminas/laminas&#45;stdlib: 2.7.4</text>
</g>
<!-- laminas/laminas&#45;barcode&#45;&gt;laminas/laminas&#45;stdlib -->
<g id="edge23" class="edge">
<title>laminas/laminas&#45;barcode&#45;&gt;laminas/laminas&#45;stdlib</title>
<path fill="none" stroke="black" stroke-dasharray="5,2" d="M918.81,-477.87C921.57,-477.56 924.3,-477.27 927,-477 959.89,-473.66 1196.5,-477.35 1224,-459 1261.04,-434.29 1237.81,-401.73 1268,-369 1295.37,-339.32 1334.92,-316.41 1366.54,-301.28"/>
<polygon fill="black" stroke="black" points="1368.07,-304.42 1375.65,-297.02 1365.11,-298.08 1368.07,-304.42"/>
<text text-anchor="middle" x="1282.5" y="-383.3" font-family="Times-Roman" font-size="14.00">~2.5</text>
</g>
<!-- laminas/laminas&#45;validator -->
<g id="node20" class="node">
<title>laminas/laminas&#45;validator</title>
<path fill="#eeeeee" stroke="black" d="M1518.5,-405C1518.5,-405 1317.5,-405 1317.5,-405 1311.5,-405 1305.5,-399 1305.5,-393 1305.5,-393 1305.5,-381 1305.5,-381 1305.5,-375 1311.5,-369 1317.5,-369 1317.5,-369 1518.5,-369 1518.5,-369 1524.5,-369 1530.5,-375 1530.5,-381 1530.5,-381 1530.5,-393 1530.5,-393 1530.5,-399 1524.5,-405 1518.5,-405"/>
<text text-anchor="middle" x="1418" y="-383.3" font-family="Times-Roman" font-size="14.00">laminas/laminas&#45;validator: 2.5.3</text>
</g>
<!-- laminas/laminas&#45;barcode&#45;&gt;laminas/laminas&#45;validator -->
<g id="edge24" class="edge">
<title>laminas/laminas&#45;barcode&#45;&gt;laminas/laminas&#45;validator</title>
<path fill="none" stroke="black" stroke-dasharray="5,2" d="M918.81,-477.84C921.57,-477.54 924.3,-477.26 927,-477 1002.97,-469.6 1196.04,-477.87 1270,-459 1310.36,-448.7 1352.89,-427.01 1381.94,-410.3"/>
<polygon fill="black" stroke="black" points="1384.02,-413.14 1390.88,-405.07 1380.49,-407.1 1384.02,-413.14"/>
<text text-anchor="middle" x="1370.5" y="-437.3" font-family="Times-Roman" font-size="14.00">~2.5</text>
</g>
<!-- laminas/laminas&#45;zendframework&#45;bridge -->
<g id="node21" class="node">
<title>laminas/laminas&#45;zendframework&#45;bridge</title>
<path fill="#eeeeee" stroke="black" d="M1437,-123C1437,-123 1143,-123 1143,-123 1137,-123 1131,-117 1131,-111 1131,-111 1131,-99 1131,-99 1131,-93 1137,-87 1143,-87 1143,-87 1437,-87 1437,-87 1443,-87 1449,-93 1449,-99 1449,-99 1449,-111 1449,-111 1449,-117 1443,-123 1437,-123"/>
<text text-anchor="middle" x="1290" y="-101.3" font-family="Times-Roman" font-size="14.00">laminas/laminas&#45;zendframework&#45;bridge: 1.4.0</text>
</g>
<!-- laminas/laminas&#45;barcode&#45;&gt;laminas/laminas&#45;zendframework&#45;bridge -->
<g id="edge25" class="edge">
<title>laminas/laminas&#45;barcode&#45;&gt;laminas/laminas&#45;zendframework&#45;bridge</title>
<path fill="none" stroke="black" stroke-dasharray="5,2" d="M857.39,-476.95C932.7,-449 1077.57,-387.35 1173,-297 1224.41,-248.32 1261.88,-172.27 1279.23,-132.41"/>
<polygon fill="black" stroke="black" points="1282.5,-133.66 1283.2,-123.09 1276.06,-130.92 1282.5,-133.66"/>
<text text-anchor="middle" x="1219.5" y="-275.3" font-family="Times-Roman" font-size="14.00">^1.0</text>
</g>
<!-- laminas/laminas&#45;diactoros&#45;&gt;php -->
<g id="edge12" class="edge">
<title>laminas/laminas&#45;diactoros&#45;&gt;php</title>
<path fill="none" stroke="black" d="M574.47,-260.81C527.66,-237.69 458.78,-193.39 482,-141 505.34,-88.36 527.38,-81.44 578,-54 608.06,-37.7 646.11,-28.69 673.8,-23.91"/>
<polygon fill="black" stroke="black" points="674.56,-27.33 683.87,-22.27 673.44,-20.42 674.56,-27.33"/>
<text text-anchor="middle" x="559.5" y="-144.8" font-family="Times-Roman" font-size="14.00">^7.3 || ~8.0.0 || ~8.1.0</text>
</g>
<!-- psr/http&#45;factory -->
<g id="node13" class="node">
<title>psr/http&#45;factory</title>
<path fill="#ffffff" stroke="black" d="M682.5,-210C682.5,-210 545.5,-210 545.5,-210 539.5,-210 533.5,-204 533.5,-198 533.5,-198 533.5,-186 533.5,-186 533.5,-180 539.5,-174 545.5,-174 545.5,-174 682.5,-174 682.5,-174 688.5,-174 694.5,-180 694.5,-186 694.5,-186 694.5,-198 694.5,-198 694.5,-204 688.5,-210 682.5,-210"/>
<text text-anchor="middle" x="614" y="-188.3" font-family="Times-Roman" font-size="14.00">psr/http&#45;factory: 1.0.1</text>
</g>
<!-- laminas/laminas&#45;diactoros&#45;&gt;psr/http&#45;factory -->
<g id="edge13" class="edge">
<title>laminas/laminas&#45;diactoros&#45;&gt;psr/http&#45;factory</title>
<path fill="none" stroke="black" d="M614,-260.8C614,-249.16 614,-233.55 614,-220.24"/>
<polygon fill="black" stroke="black" points="617.5,-220.18 614,-210.18 610.5,-220.18 617.5,-220.18"/>
<text text-anchor="middle" x="628.5" y="-231.8" font-family="Times-Roman" font-size="14.00">^1.0</text>
</g>
<!-- psr/http&#45;message -->
<g id="node14" class="node">
<title>psr/http&#45;message</title>
<path fill="#ffffff" stroke="black" d="M785.5,-123C785.5,-123 636.5,-123 636.5,-123 630.5,-123 624.5,-117 624.5,-111 624.5,-111 624.5,-99 624.5,-99 624.5,-93 630.5,-87 636.5,-87 636.5,-87 785.5,-87 785.5,-87 791.5,-87 797.5,-93 797.5,-99 797.5,-99 797.5,-111 797.5,-111 797.5,-117 791.5,-123 785.5,-123"/>
<text text-anchor="middle" x="711" y="-101.3" font-family="Times-Roman" font-size="14.00">psr/http&#45;message: 1.0.1</text>
</g>
<!-- laminas/laminas&#45;diactoros&#45;&gt;psr/http&#45;message -->
<g id="edge14" class="edge">
<title>laminas/laminas&#45;diactoros&#45;&gt;psr/http&#45;message</title>
<path fill="none" stroke="black" d="M646.82,-260.9C666.14,-249.15 689.37,-231.75 703,-210 717.29,-187.18 717.68,-155.79 715.5,-133.48"/>
<polygon fill="black" stroke="black" points="718.95,-132.84 714.27,-123.34 712,-133.68 718.95,-132.84"/>
<text text-anchor="middle" x="729.5" y="-188.3" font-family="Times-Roman" font-size="14.00">^1.0</text>
</g>
<!-- clue/graph -->
<g id="node10" class="node">
<title>clue/graph</title>
<path fill="#ffffff" stroke="black" d="M188,-123C188,-123 78,-123 78,-123 72,-123 66,-117 66,-111 66,-111 66,-99 66,-99 66,-93 72,-87 78,-87 78,-87 188,-87 188,-87 194,-87 200,-93 200,-99 200,-99 200,-111 200,-111 200,-117 194,-123 188,-123"/>
<text text-anchor="middle" x="133" y="-101.3" font-family="Times-Roman" font-size="14.00">clue/graph: v0.9.2</text>
</g>
<!-- clue/graph&#45;&gt;php -->
<g id="edge9" class="edge">
<title>clue/graph&#45;&gt;php</title>
<path fill="none" stroke="black" d="M157.21,-86.91C174.85,-75.43 199.8,-61.15 224,-54 308.22,-29.13 575.14,-21.59 673.84,-19.62"/>
<polygon fill="black" stroke="black" points="674.01,-23.12 683.94,-19.43 673.88,-16.12 674.01,-23.12"/>
<text text-anchor="middle" x="242.5" y="-57.8" font-family="Times-Roman" font-size="14.00">&gt;=5.3</text>
</g>
<!-- graphp/graphviz&#45;&gt;clue/graph -->
<g id="edge10" class="edge">
<title>graphp/graphviz&#45;&gt;clue/graph</title>
<path fill="none" stroke="black" d="M117.05,-173.8C119.79,-162.16 123.46,-146.55 126.59,-133.24"/>
<polygon fill="black" stroke="black" points="130.08,-133.71 128.96,-123.18 123.26,-132.11 130.08,-133.71"/>
<text text-anchor="middle" x="169.5" y="-144.8" font-family="Times-Roman" font-size="14.00">~0.9.0|~0.8.0</text>
</g>
<!-- graphp/graphviz&#45;&gt;php -->
<g id="edge11" class="edge">
<title>graphp/graphviz&#45;&gt;php</title>
<path fill="none" stroke="black" d="M175.47,-173.91C189.82,-168.97 204.74,-162.99 218,-156 286.1,-120.09 285.57,-80.09 358,-54 415.27,-33.37 594.62,-23.73 673.33,-20.41"/>
<polygon fill="black" stroke="black" points="673.9,-23.89 683.74,-19.98 673.61,-16.89 673.9,-23.89"/>
<text text-anchor="middle" x="325.5" y="-101.3" font-family="Times-Roman" font-size="14.00">&gt;=5.3.0</text>
</g>
<!-- psr/http&#45;factory&#45;&gt;php -->
<g id="edge15" class="edge">
<title>psr/http&#45;factory&#45;&gt;php</title>
<path fill="none" stroke="black" d="M632.95,-173.91C641.85,-163.81 648.94,-151.07 641,-141 619.78,-114.08 587.22,-149.92 566,-123 556.09,-110.44 557.42,-100.5 566,-87 589.52,-50 639.08,-32.78 673.68,-25.01"/>
<polygon fill="black" stroke="black" points="674.81,-28.35 683.89,-22.89 673.38,-21.5 674.81,-28.35"/>
<text text-anchor="middle" x="590.5" y="-101.3" font-family="Times-Roman" font-size="14.00">&gt;=7.0.0</text>
</g>
<!-- psr/http&#45;factory&#45;&gt;psr/http&#45;message -->
<g id="edge16" class="edge">
<title>psr/http&#45;factory&#45;&gt;psr/http&#45;message</title>
<path fill="none" stroke="black" d="M642.18,-173.86C650.18,-168.52 658.69,-162.35 666,-156 674.69,-148.46 683.35,-139.31 690.72,-130.92"/>
<polygon fill="black" stroke="black" points="693.51,-133.05 697.36,-123.18 688.19,-128.5 693.51,-133.05"/>
<text text-anchor="middle" x="695.5" y="-144.8" font-family="Times-Roman" font-size="14.00">^1.0</text>
</g>
<!-- psr/http&#45;message&#45;&gt;php -->
<g id="edge17" class="edge">
<title>psr/http&#45;message&#45;&gt;php</title>
<path fill="none" stroke="black" d="M711,-86.8C711,-75.16 711,-59.55 711,-46.24"/>
<polygon fill="black" stroke="black" points="714.5,-46.18 711,-36.18 707.5,-46.18 714.5,-46.18"/>
<text text-anchor="middle" x="735.5" y="-57.8" font-family="Times-Roman" font-size="14.00">&gt;=5.3.0</text>
</g>
<!-- container&#45;interop/container&#45;interop -->
<g id="node16" class="node">
<title>container&#45;interop/container&#45;interop</title>
<path fill="#eeeeee" stroke="black" d="M1098,-210C1098,-210 828,-210 828,-210 822,-210 816,-204 816,-198 816,-198 816,-186 816,-186 816,-180 822,-174 828,-174 828,-174 1098,-174 1098,-174 1104,-174 1110,-180 1110,-186 1110,-186 1110,-198 1110,-198 1110,-204 1104,-210 1098,-210"/>
<text text-anchor="middle" x="963" y="-188.3" font-family="Times-Roman" font-size="14.00">container&#45;interop/container&#45;interop: 1.2.0</text>
</g>
<!-- psr/container -->
<g id="node17" class="node">
<title>psr/container</title>
<path fill="#eeeeee" stroke="black" d="M997,-123C997,-123 875,-123 875,-123 869,-123 863,-117 863,-111 863,-111 863,-99 863,-99 863,-93 869,-87 875,-87 875,-87 997,-87 997,-87 1003,-87 1009,-93 1009,-99 1009,-99 1009,-111 1009,-111 1009,-117 1003,-123 997,-123"/>
<text text-anchor="middle" x="936" y="-101.3" font-family="Times-Roman" font-size="14.00">psr/container: 1.1.1</text>
</g>
<!-- container&#45;interop/container&#45;interop&#45;&gt;psr/container -->
<g id="edge21" class="edge">
<title>container&#45;interop/container&#45;interop&#45;&gt;psr/container</title>
<path fill="none" stroke="black" stroke-dasharray="5,2" d="M957.54,-173.8C953.8,-162.05 948.78,-146.24 944.53,-132.84"/>
<polygon fill="black" stroke="black" points="947.82,-131.65 941.46,-123.18 941.15,-133.77 947.82,-131.65"/>
<text text-anchor="middle" x="966.5" y="-144.8" font-family="Times-Roman" font-size="14.00">^1.0</text>
</g>
<!-- psr/container&#45;&gt;php -->
<g id="edge40" class="edge">
<title>psr/container&#45;&gt;php</title>
<path fill="none" stroke="black" stroke-dasharray="5,2" d="M906.93,-86.76C888.28,-76.24 863.28,-63.1 840,-54 809.85,-42.22 774.26,-32.88 748.11,-26.83"/>
<polygon fill="black" stroke="black" points="748.75,-23.39 738.23,-24.59 747.21,-30.21 748.75,-23.39"/>
<text text-anchor="middle" x="897.5" y="-57.8" font-family="Times-Roman" font-size="14.00">&gt;=7.2.0</text>
</g>
<!-- laminas/laminas&#45;servicemanager&#45;&gt;php -->
<g id="edge32" class="edge">
<title>laminas/laminas&#45;servicemanager&#45;&gt;php</title>
<path fill="none" stroke="black" stroke-dasharray="5,2" d="M1064.89,-260.76C1084.91,-249.43 1107.64,-232.52 1119,-210 1126.21,-195.71 1125.67,-188.54 1119,-174 1054.97,-34.34 836.43,-18.68 748.29,-18.2"/>
<polygon fill="black" stroke="black" points="748.21,-14.7 738.21,-18.21 748.22,-21.7 748.21,-14.7"/>
<text text-anchor="middle" x="1126.5" y="-144.8" font-family="Times-Roman" font-size="14.00">&gt;=5.5</text>
</g>
<!-- laminas/laminas&#45;servicemanager&#45;&gt;container&#45;interop/container&#45;interop -->
<g id="edge30" class="edge">
<title>laminas/laminas&#45;servicemanager&#45;&gt;container&#45;interop/container&#45;interop</title>
<path fill="none" stroke="black" stroke-dasharray="5,2" d="M1014.05,-260.8C1004.85,-248.59 992.36,-231.99 982.03,-218.28"/>
<polygon fill="black" stroke="black" points="984.74,-216.06 975.93,-210.18 979.15,-220.27 984.74,-216.06"/>
<text text-anchor="middle" x="1013.5" y="-231.8" font-family="Times-Roman" font-size="14.00">~1.0</text>
</g>
<!-- laminas/laminas&#45;servicemanager&#45;&gt;laminas/laminas&#45;zendframework&#45;bridge -->
<g id="edge31" class="edge">
<title>laminas/laminas&#45;servicemanager&#45;&gt;laminas/laminas&#45;zendframework&#45;bridge</title>
<path fill="none" stroke="black" stroke-dasharray="5,2" d="M1117.65,-260.99C1129.85,-256.36 1141.7,-250.48 1152,-243 1181.83,-221.35 1175.56,-203.24 1198,-174 1209.89,-158.51 1211.8,-153.25 1227,-141 1232.69,-136.41 1239.07,-132.09 1245.52,-128.16"/>
<polygon fill="black" stroke="black" points="1247.42,-131.11 1254.31,-123.05 1243.9,-125.05 1247.42,-131.11"/>
<text text-anchor="middle" x="1212.5" y="-188.3" font-family="Times-Roman" font-size="14.00">^1.0</text>
</g>
<!-- laminas/laminas&#45;stdlib&#45;&gt;php -->
<g id="edge35" class="edge">
<title>laminas/laminas&#45;stdlib&#45;&gt;php</title>
<path fill="none" stroke="black" stroke-dasharray="5,2" d="M1520.18,-264.95C1553.39,-255.31 1586.85,-238.67 1607,-210 1650.79,-147.7 1540.83,-99.65 1519,-87 1471.51,-59.49 1454.18,-62.78 1400,-54 1272.77,-33.38 872.47,-22.69 748.18,-19.81"/>
<polygon fill="black" stroke="black" points="748.11,-16.31 738.03,-19.58 747.95,-23.31 748.11,-16.31"/>
<text text-anchor="middle" x="1628.5" y="-144.8" font-family="Times-Roman" font-size="14.00">&gt;=5.5</text>
</g>
<!-- laminas/laminas&#45;stdlib&#45;&gt;laminas/laminas&#45;zendframework&#45;bridge -->
<g id="edge34" class="edge">
<title>laminas/laminas&#45;stdlib&#45;&gt;laminas/laminas&#45;zendframework&#45;bridge</title>
<path fill="none" stroke="black" stroke-dasharray="5,2" d="M1390.83,-260.79C1373.06,-248.41 1350.37,-230.37 1335,-210 1317.3,-186.55 1304.94,-155.06 1297.71,-132.9"/>
<polygon fill="black" stroke="black" points="1300.98,-131.64 1294.66,-123.14 1294.3,-133.73 1300.98,-131.64"/>
<text text-anchor="middle" x="1349.5" y="-188.3" font-family="Times-Roman" font-size="14.00">^1.0</text>
</g>
<!-- laminas/laminas&#45;hydrator -->
<g id="node22" class="node">
<title>laminas/laminas&#45;hydrator</title>
<path fill="#eeeeee" stroke="black" d="M1585.5,-210C1585.5,-210 1384.5,-210 1384.5,-210 1378.5,-210 1372.5,-204 1372.5,-198 1372.5,-198 1372.5,-186 1372.5,-186 1372.5,-180 1378.5,-174 1384.5,-174 1384.5,-174 1585.5,-174 1585.5,-174 1591.5,-174 1597.5,-180 1597.5,-186 1597.5,-186 1597.5,-198 1597.5,-198 1597.5,-204 1591.5,-210 1585.5,-210"/>
<text text-anchor="middle" x="1485" y="-188.3" font-family="Times-Roman" font-size="14.00">laminas/laminas&#45;hydrator: 1.0.0</text>
</g>
<!-- laminas/laminas&#45;stdlib&#45;&gt;laminas/laminas&#45;hydrator -->
<g id="edge33" class="edge">
<title>laminas/laminas&#45;stdlib&#45;&gt;laminas/laminas&#45;hydrator</title>
<path fill="none" stroke="black" stroke-dasharray="5,2" d="M1443.59,-260.93C1450.16,-255.72 1456.82,-249.61 1462,-243 1467.45,-236.05 1471.96,-227.6 1475.5,-219.64"/>
<polygon fill="black" stroke="black" points="1478.77,-220.89 1479.34,-210.31 1472.3,-218.23 1478.77,-220.89"/>
<text text-anchor="middle" x="1484.5" y="-231.8" font-family="Times-Roman" font-size="14.00">~1.0</text>
</g>
<!-- laminas/laminas&#45;validator&#45;&gt;php -->
<g id="edge38" class="edge">
<title>laminas/laminas&#45;validator&#45;&gt;php</title>
<path fill="none" stroke="black" stroke-dasharray="5,2" d="M1499.91,-369C1576.12,-350.75 1678,-319.06 1678,-280 1678,-280 1678,-280 1678,-104 1678,-1.99 1555.1,-67.56 1454,-54 1185.21,-17.95 857.41,-17.49 748.3,-18.49"/>
<polygon fill="black" stroke="black" points="748.1,-14.99 738.14,-18.6 748.18,-21.99 748.1,-14.99"/>
<text text-anchor="middle" x="1696.5" y="-188.3" font-family="Times-Roman" font-size="14.00">&gt;=5.5</text>
</g>
<!-- laminas/laminas&#45;validator&#45;&gt;laminas/laminas&#45;stdlib -->
<g id="edge36" class="edge">
<title>laminas/laminas&#45;validator&#45;&gt;laminas/laminas&#45;stdlib</title>
<path fill="none" stroke="black" stroke-dasharray="5,2" d="M1418,-368.97C1418,-352.38 1418,-326.88 1418,-307.43"/>
<polygon fill="black" stroke="black" points="1421.5,-307.34 1418,-297.34 1414.5,-307.34 1421.5,-307.34"/>
<text text-anchor="middle" x="1432.5" y="-329.3" font-family="Times-Roman" font-size="14.00">~2.5</text>
</g>
<!-- laminas/laminas&#45;validator&#45;&gt;laminas/laminas&#45;zendframework&#45;bridge -->
<g id="edge37" class="edge">
<title>laminas/laminas&#45;validator&#45;&gt;laminas/laminas&#45;zendframework&#45;bridge</title>
<path fill="none" stroke="black" stroke-dasharray="5,2" d="M1384.36,-368.9C1358.43,-353.77 1324.21,-329.11 1307,-297 1278.83,-244.43 1281.76,-171.89 1286.06,-133.09"/>
<polygon fill="black" stroke="black" points="1289.55,-133.43 1287.29,-123.08 1282.6,-132.58 1289.55,-133.43"/>
<text text-anchor="middle" x="1302.5" y="-231.8" font-family="Times-Roman" font-size="14.00">^1.0</text>
</g>
<!-- laminas/laminas&#45;zendframework&#45;bridge&#45;&gt;php -->
<g id="edge39" class="edge">
<title>laminas/laminas&#45;zendframework&#45;bridge&#45;&gt;php</title>
<path fill="none" stroke="black" stroke-dasharray="5,2" d="M1240.65,-86.95C1206.38,-75.79 1159.42,-61.88 1117,-54 983.02,-29.11 820.82,-21.86 748.71,-19.8"/>
<polygon fill="black" stroke="black" points="748.42,-16.29 738.33,-19.52 748.23,-23.29 748.42,-16.29"/>
<text text-anchor="middle" x="1256.5" y="-57.8" font-family="Times-Roman" font-size="14.00">^7.3 || ~8.0.0 || ~8.1.0</text>
</g>
<!-- laminas/laminas&#45;hydrator&#45;&gt;php -->
<g id="edge29" class="edge">
<title>laminas/laminas&#45;hydrator&#45;&gt;php</title>
<path fill="none" stroke="black" stroke-dasharray="5,2" d="M1485.49,-173.73C1485.17,-150.77 1481.05,-110.38 1458,-87 1419.17,-47.61 1392.59,-62.93 1338,-54 1116.58,-17.8 845.99,-17.18 748.35,-18.33"/>
<polygon fill="black" stroke="black" points="748.06,-14.84 738.11,-18.47 748.16,-21.84 748.06,-14.84"/>
<text text-anchor="middle" x="1496.5" y="-101.3" font-family="Times-Roman" font-size="14.00">&gt;=5.5</text>
</g>
<!-- laminas/laminas&#45;hydrator&#45;&gt;laminas/laminas&#45;stdlib -->
<g id="edge27" class="edge">
<title>laminas/laminas&#45;hydrator&#45;&gt;laminas/laminas&#45;stdlib</title>
<path fill="none" stroke="black" stroke-dasharray="5,2" d="M1439.61,-210.14C1432.29,-214.85 1425.61,-220.73 1421,-228 1416.73,-234.74 1415.13,-243.07 1414.84,-250.99"/>
<polygon fill="black" stroke="black" points="1411.34,-251.09 1415.1,-260.99 1418.34,-250.91 1411.34,-251.09"/>
<text text-anchor="middle" x="1441.5" y="-231.8" font-family="Times-Roman" font-size="14.00">^2.5.1</text>
</g>
<!-- laminas/laminas&#45;hydrator&#45;&gt;laminas/laminas&#45;zendframework&#45;bridge -->
<g id="edge28" class="edge">
<title>laminas/laminas&#45;hydrator&#45;&gt;laminas/laminas&#45;zendframework&#45;bridge</title>
<path fill="none" stroke="black" stroke-dasharray="5,2" d="M1445.54,-173.8C1414.65,-160.33 1371.53,-141.54 1338.53,-127.15"/>
<polygon fill="black" stroke="black" points="1339.63,-123.82 1329.07,-123.03 1336.84,-130.23 1339.63,-123.82"/>
<text text-anchor="middle" x="1413.5" y="-144.8" font-family="Times-Roman" font-size="14.00">^1.0</text>
</g>
</g>
</svg>
