<?xml version="1.0" encoding="UTF-8" standalone="no"?>
<!DOCTYPE svg PUBLIC "-//W3C//DTD SVG 1.1//EN"
 "http://www.w3.org/Graphics/SVG/1.1/DTD/svg11.dtd">
<!-- Generated by graphviz version 2.48.0 (0)
 -->
<!-- Pages: 1 -->
<svg width="5298pt" height="542pt"
 viewBox="0.00 0.00 5297.51 542.00" xmlns="http://www.w3.org/2000/svg" xmlns:xlink="http://www.w3.org/1999/xlink">
<g id="graph0" class="graph" transform="scale(1 1) rotate(0) translate(4 538)">
<polygon fill="white" stroke="transparent" points="-4,4 -4,-538 5293.51,-538 5293.51,4 -4,4"/>
<!-- __root__ -->
<g id="node1" class="node">
<title>__root__</title>
<path fill="#eeffee" stroke="#000000" d="M3049.01,-534C3049.01,-534 2912.01,-534 2912.01,-534 2906.01,-534 2900.01,-528 2900.01,-522 2900.01,-522 2900.01,-510 2900.01,-510 2900.01,-504 2906.01,-498 2912.01,-498 2912.01,-498 3049.01,-498 3049.01,-498 3055.01,-498 3061.01,-504 3061.01,-510 3061.01,-510 3061.01,-522 3061.01,-522 3061.01,-528 3055.01,-534 3049.01,-534"/>
<text text-anchor="middle" x="2980.51" y="-512.3" font-family="Times,serif" font-size="14.00" fill="#000000">__root__: dev&#45;master</text>
</g>
<!-- php&#45;64bit -->
<g id="node2" class="node">
<title>php&#45;64bit</title>
<path fill="#eeeeff" stroke="#000000" d="M91.01,-393C91.01,-393 30.01,-393 30.01,-393 24.01,-393 18.01,-387 18.01,-381 18.01,-381 18.01,-369 18.01,-369 18.01,-363 24.01,-357 30.01,-357 30.01,-357 91.01,-357 91.01,-357 97.01,-357 103.01,-363 103.01,-369 103.01,-369 103.01,-381 103.01,-381 103.01,-387 97.01,-393 91.01,-393"/>
<text text-anchor="middle" x="60.51" y="-371.3" font-family="Times,serif" font-size="14.00" fill="#000000">php&#45;64bit</text>
</g>
<!-- __root__&#45;&gt;php&#45;64bit -->
<g id="edge1" class="edge">
<title>__root__&#45;&gt;php&#45;64bit</title>
<path fill="none" stroke="#000000" d="M2899.71,-515.27C2485.8,-516.47 612.58,-519.66 356.51,-480 263.65,-465.62 161.52,-423.39 104.79,-397.38"/>
<polygon fill="#000000" stroke="#000000" points="105.95,-394.06 95.41,-393.03 103.01,-400.41 105.95,-394.06"/>
<text text-anchor="middle" x="360.01" y="-468.8" font-family="Times,serif" font-size="14.00" fill="#000000">*</text>
</g>
<!-- ext&#45;curl -->
<g id="node3" class="node">
<title>ext&#45;curl</title>
<path fill="#eeeeff" stroke="#000000" d="M316.01,-447C316.01,-447 269.01,-447 269.01,-447 263.01,-447 257.01,-441 257.01,-435 257.01,-435 257.01,-423 257.01,-423 257.01,-417 263.01,-411 269.01,-411 269.01,-411 316.01,-411 316.01,-411 322.01,-411 328.01,-417 328.01,-423 328.01,-423 328.01,-435 328.01,-435 328.01,-441 322.01,-447 316.01,-447"/>
<text text-anchor="middle" x="292.51" y="-425.3" font-family="Times,serif" font-size="14.00" fill="#000000">ext&#45;curl</text>
</g>
<!-- __root__&#45;&gt;ext&#45;curl -->
<g id="edge2" class="edge">
<title>__root__&#45;&gt;ext&#45;curl</title>
<path fill="none" stroke="#000000" d="M2899.67,-514.73C2477.52,-513.23 540.9,-505.02 416.51,-480 388.11,-474.29 357.93,-462.26 334.45,-451.44"/>
<polygon fill="#000000" stroke="#000000" points="335.69,-448.15 325.16,-447.05 332.71,-454.48 335.69,-448.15"/>
<text text-anchor="middle" x="420.01" y="-468.8" font-family="Times,serif" font-size="14.00" fill="#000000">*</text>
</g>
<!-- lib&#45;curl -->
<g id="node4" class="node">
<title>lib&#45;curl</title>
<path fill="#eeeeff" stroke="#000000" d="M401.01,-447C401.01,-447 358.01,-447 358.01,-447 352.01,-447 346.01,-441 346.01,-435 346.01,-435 346.01,-423 346.01,-423 346.01,-417 352.01,-411 358.01,-411 358.01,-411 401.01,-411 401.01,-411 407.01,-411 413.01,-417 413.01,-423 413.01,-423 413.01,-435 413.01,-435 413.01,-441 407.01,-447 401.01,-447"/>
<text text-anchor="middle" x="379.51" y="-425.3" font-family="Times,serif" font-size="14.00" fill="#000000">lib&#45;curl</text>
</g>
<!-- __root__&#45;&gt;lib&#45;curl -->
<g id="edge3" class="edge">
<title>__root__&#45;&gt;lib&#45;curl</title>
<path fill="none" stroke="#000000" d="M2899.9,-515.1C2482.25,-515.47 579.09,-515.19 459.51,-480 440.86,-474.51 422.31,-463.36 407.77,-452.98"/>
<polygon fill="#000000" stroke="#000000" points="409.82,-450.15 399.7,-447.01 405.65,-455.77 409.82,-450.15"/>
<text text-anchor="middle" x="481.51" y="-468.8" font-family="Times,serif" font-size="14.00" fill="#000000">^7.76</text>
</g>
<!-- arokettu/composer&#45;viz -->
<g id="node5" class="node">
<title>arokettu/composer&#45;viz</title>
<path fill="#ffffff" stroke="#000000" d="M447.51,-339C447.51,-339 207.51,-339 207.51,-339 201.51,-339 195.51,-333 195.51,-327 195.51,-327 195.51,-315 195.51,-315 195.51,-309 201.51,-303 207.51,-303 207.51,-303 447.51,-303 447.51,-303 453.51,-303 459.51,-309 459.51,-315 459.51,-315 459.51,-327 459.51,-327 459.51,-333 453.51,-339 447.51,-339"/>
<text text-anchor="middle" x="327.51" y="-317.3" font-family="Times,serif" font-size="14.00" fill="#000000">arokettu/composer&#45;viz: dev&#45;master</text>
</g>
<!-- __root__&#45;&gt;arokettu/composer&#45;viz -->
<g id="edge4" class="edge">
<title>__root__&#45;&gt;arokettu/composer&#45;viz</title>
<path fill="none" stroke="#000000" d="M2899.83,-514.59C2481.03,-512.35 572.02,-500.68 517.51,-473.5"/>
<path fill="none" stroke="#000000" d="M517.51,-471.5C511.37,-468.44 509.75,-467.85 503.51,-465 485.78,-456.9 479.79,-457.73 463.51,-447 451.47,-439.06 389.2,-380.55 353.23,-346.47"/>
<polygon fill="#000000" stroke="#000000" points="355.22,-343.53 345.56,-339.19 350.4,-348.61 355.22,-343.53"/>
<text text-anchor="middle" x="483.51" y="-425.3" font-family="Times,serif" font-size="14.00" fill="#000000">@dev</text>
</g>
<!-- psr/http&#45;factory&#45;implementation -->
<g id="node6" class="node">
<title>psr/http&#45;factory&#45;implementation</title>
<path fill="#ffeeee" stroke="#000000" d="M3607.51,-447C3607.51,-447 3387.51,-447 3387.51,-447 3381.51,-447 3375.51,-441 3375.51,-435 3375.51,-435 3375.51,-423 3375.51,-423 3375.51,-417 3381.51,-411 3387.51,-411 3387.51,-411 3607.51,-411 3607.51,-411 3613.51,-411 3619.51,-417 3619.51,-423 3619.51,-423 3619.51,-435 3619.51,-435 3619.51,-441 3613.51,-447 3607.51,-447"/>
<text text-anchor="middle" x="3497.51" y="-425.3" font-family="Times,serif" font-size="14.00" fill="#000000">psr/http&#45;factory&#45;implementation</text>
</g>
<!-- __root__&#45;&gt;psr/http&#45;factory&#45;implementation -->
<g id="edge5" class="edge">
<title>__root__&#45;&gt;psr/http&#45;factory&#45;implementation</title>
<path fill="none" stroke="#000000" d="M3061.29,-501.72C3147.92,-487.48 3286.15,-464.75 3383.76,-448.7"/>
<polygon fill="#000000" stroke="#000000" points="3384.37,-452.15 3393.67,-447.07 3383.23,-445.24 3384.37,-452.15"/>
<text text-anchor="middle" x="3288.01" y="-468.8" font-family="Times,serif" font-size="14.00" fill="#000000">^1.0</text>
</g>
<!-- symfony/polyfill -->
<g id="node7" class="node">
<title>symfony/polyfill</title>
<path fill="#ffffff" stroke="#000000" d="M973.51,-123C973.51,-123 803.51,-123 803.51,-123 797.51,-123 791.51,-117 791.51,-111 791.51,-111 791.51,-99 791.51,-99 791.51,-93 797.51,-87 803.51,-87 803.51,-87 973.51,-87 973.51,-87 979.51,-87 985.51,-93 985.51,-99 985.51,-99 985.51,-111 985.51,-111 985.51,-117 979.51,-123 973.51,-123"/>
<text text-anchor="middle" x="888.51" y="-101.3" font-family="Times,serif" font-size="14.00" fill="#000000">symfony/polyfill: v1.23.1</text>
</g>
<!-- __root__&#45;&gt;symfony/polyfill -->
<g id="edge6" class="edge">
<title>__root__&#45;&gt;symfony/polyfill</title>
<path fill="none" stroke="#000000" d="M517.51,-471.5C485.51,-453.33 513.93,-167.46 539.51,-141 556.2,-123.75 684.72,-114.47 780.98,-109.89"/>
<polygon fill="#000000" stroke="#000000" points="781.25,-113.38 791.08,-109.42 780.92,-106.39 781.25,-113.38"/>
<text text-anchor="middle" x="529.51" y="-317.3" font-family="Times,serif" font-size="14.00" fill="#000000">^1.23</text>
</g>
<!-- symfony/symfony -->
<g id="node8" class="node">
<title>symfony/symfony</title>
<path fill="#ffffff" stroke="#000000" d="M2153.51,-447C2153.51,-447 1981.51,-447 1981.51,-447 1975.51,-447 1969.51,-441 1969.51,-435 1969.51,-435 1969.51,-423 1969.51,-423 1969.51,-417 1975.51,-411 1981.51,-411 1981.51,-411 2153.51,-411 2153.51,-411 2159.51,-411 2165.51,-417 2165.51,-423 2165.51,-423 2165.51,-435 2165.51,-435 2165.51,-441 2159.51,-447 2153.51,-447"/>
<text text-anchor="middle" x="2067.51" y="-425.3" font-family="Times,serif" font-size="14.00" fill="#000000">symfony/symfony: v5.3.9</text>
</g>
<!-- __root__&#45;&gt;symfony/symfony -->
<g id="edge7" class="edge">
<title>__root__&#45;&gt;symfony/symfony</title>
<path fill="none" stroke="#000000" d="M2899.89,-507.49C2735.47,-492.19 2361.34,-457.36 2175.88,-440.09"/>
<polygon fill="#000000" stroke="#000000" points="2176.12,-436.6 2165.84,-439.15 2175.47,-443.57 2176.12,-436.6"/>
<text text-anchor="middle" x="2597.01" y="-468.8" font-family="Times,serif" font-size="14.00" fill="#000000">^5.3</text>
</g>
<!-- php&#45;ipv6 -->
<g id="node9" class="node">
<title>php&#45;ipv6</title>
<path fill="#eeeeff" stroke="#777777" d="M4128.01,-285C4128.01,-285 4073.01,-285 4073.01,-285 4067.01,-285 4061.01,-279 4061.01,-273 4061.01,-273 4061.01,-261 4061.01,-261 4061.01,-255 4067.01,-249 4073.01,-249 4073.01,-249 4128.01,-249 4128.01,-249 4134.01,-249 4140.01,-255 4140.01,-261 4140.01,-261 4140.01,-273 4140.01,-273 4140.01,-279 4134.01,-285 4128.01,-285"/>
<text text-anchor="middle" x="4100.51" y="-263.3" font-family="Times,serif" font-size="14.00" fill="#777777">php&#45;ipv6</text>
</g>
<!-- __root__&#45;&gt;php&#45;ipv6 -->
<g id="edge8" class="edge">
<title>__root__&#45;&gt;php&#45;ipv6</title>
<path fill="none" stroke="#777777" d="M3061.28,-513.73C3277.62,-510.08 3859.55,-498.64 3944.51,-480 3981.68,-471.85 3996.46,-473.76 4023.51,-447 4066.59,-404.37 4087.09,-333.74 4095.51,-295.18"/>
<polygon fill="#777777" stroke="#777777" points="4098.97,-295.71 4097.57,-285.2 4092.12,-294.29 4098.97,-295.71"/>
<text text-anchor="middle" x="4054.01" y="-425.3" font-family="Times,serif" font-size="14.00" fill="#777777">*</text>
</g>
<!-- ext&#45;json -->
<g id="node10" class="node">
<title>ext&#45;json</title>
<path fill="#eeeeff" stroke="#777777" d="M4002.51,-447C4002.51,-447 3954.51,-447 3954.51,-447 3948.51,-447 3942.51,-441 3942.51,-435 3942.51,-435 3942.51,-423 3942.51,-423 3942.51,-417 3948.51,-411 3954.51,-411 3954.51,-411 4002.51,-411 4002.51,-411 4008.51,-411 4014.51,-417 4014.51,-423 4014.51,-423 4014.51,-435 4014.51,-435 4014.51,-441 4008.51,-447 4002.51,-447"/>
<text text-anchor="middle" x="3978.51" y="-425.3" font-family="Times,serif" font-size="14.00" fill="#777777">ext&#45;json</text>
</g>
<!-- __root__&#45;&gt;ext&#45;json -->
<g id="edge9" class="edge">
<title>__root__&#45;&gt;ext&#45;json</title>
<path fill="none" stroke="#777777" d="M3061.09,-514.45C3271.15,-512.65 3824.65,-505.52 3903.51,-480 3920.9,-474.37 3938.03,-463.48 3951.52,-453.29"/>
<polygon fill="#777777" stroke="#777777" points="3953.71,-456.02 3959.41,-447.09 3949.39,-450.51 3953.71,-456.02"/>
<text text-anchor="middle" x="3937.01" y="-468.8" font-family="Times,serif" font-size="14.00" fill="#777777">*</text>
</g>
<!-- laminas/laminas&#45;barcode -->
<g id="node11" class="node">
<title>laminas/laminas&#45;barcode</title>
<path fill="#eeeeee" stroke="#777777" d="M4650.51,-447C4650.51,-447 4434.51,-447 4434.51,-447 4428.51,-447 4422.51,-441 4422.51,-435 4422.51,-435 4422.51,-423 4422.51,-423 4422.51,-417 4428.51,-411 4434.51,-411 4434.51,-411 4650.51,-411 4650.51,-411 4656.51,-411 4662.51,-417 4662.51,-423 4662.51,-423 4662.51,-435 4662.51,-435 4662.51,-441 4656.51,-447 4650.51,-447"/>
<text text-anchor="middle" x="4542.51" y="-425.3" font-family="Times,serif" font-size="14.00" fill="#777777">laminas/laminas&#45;barcode: 2.9.0</text>
</g>
<!-- __root__&#45;&gt;laminas/laminas&#45;barcode -->
<g id="edge10" class="edge">
<title>__root__&#45;&gt;laminas/laminas&#45;barcode</title>
<path fill="none" stroke="#777777" d="M3061.2,-514.51C3243.01,-512.95 3698.47,-506.5 4078.51,-480 4191.39,-472.13 4319.21,-457.97 4412.07,-446.72"/>
<polygon fill="#777777" stroke="#777777" points="4412.57,-450.18 4422.07,-445.5 4411.72,-443.23 4412.57,-450.18"/>
<text text-anchor="middle" x="4262.01" y="-468.8" font-family="Times,serif" font-size="14.00" fill="#777777">^2.5</text>
</g>
<!-- laminas/laminas&#45;diactoros -->
<g id="node12" class="node">
<title>laminas/laminas&#45;diactoros</title>
<path fill="#eeeeee" stroke="#777777" d="M3947.51,-339C3947.51,-339 3723.51,-339 3723.51,-339 3717.51,-339 3711.51,-333 3711.51,-327 3711.51,-327 3711.51,-315 3711.51,-315 3711.51,-309 3717.51,-303 3723.51,-303 3723.51,-303 3947.51,-303 3947.51,-303 3953.51,-303 3959.51,-309 3959.51,-315 3959.51,-315 3959.51,-327 3959.51,-327 3959.51,-333 3953.51,-339 3947.51,-339"/>
<text text-anchor="middle" x="3835.51" y="-317.3" font-family="Times,serif" font-size="14.00" fill="#777777">laminas/laminas&#45;diactoros: 2.8.0</text>
</g>
<!-- __root__&#45;&gt;laminas/laminas&#45;diactoros -->
<g id="edge11" class="edge">
<title>__root__&#45;&gt;laminas/laminas&#45;diactoros</title>
<path fill="none" stroke="#777777" d="M3061.05,-514.71C3185.08,-512.44 3429.34,-500.77 3628.51,-447 3684.97,-431.76 3698.76,-423.75 3748.51,-393 3770.6,-379.35 3793.26,-360.68 3809.91,-345.91"/>
<polygon fill="#777777" stroke="#777777" points="3812.48,-348.31 3817.57,-339.01 3807.8,-343.1 3812.48,-348.31"/>
<text text-anchor="middle" x="3737.01" y="-425.3" font-family="Times,serif" font-size="14.00" fill="#777777">^2.8</text>
</g>
<!-- php -->
<g id="node15" class="node">
<title>php</title>
<path fill="#eeeeff" stroke="#000000" d="M2975.51,-36C2975.51,-36 2945.51,-36 2945.51,-36 2939.51,-36 2933.51,-30 2933.51,-24 2933.51,-24 2933.51,-12 2933.51,-12 2933.51,-6 2939.51,0 2945.51,0 2945.51,0 2975.51,0 2975.51,0 2981.51,0 2987.51,-6 2987.51,-12 2987.51,-12 2987.51,-24 2987.51,-24 2987.51,-30 2981.51,-36 2975.51,-36"/>
<text text-anchor="middle" x="2960.51" y="-14.3" font-family="Times,serif" font-size="14.00" fill="#000000">php</text>
</g>
<!-- php&#45;64bit&#45;&gt;php -->
<g id="edge94" class="edge">
<title>php&#45;64bit&#45;&gt;php</title>
<path fill="none" stroke="#cc7777" d="M51.98,-356.95C25.32,-301.14 -48.91,-124.03 49.51,-62.5"/>
<path fill="none" stroke="#cc7777" d="M49.51,-60.5C111.24,-17.21 2587.85,-18.57 2923.1,-18.95"/>
<polygon fill="#cc7777" stroke="#cc7777" points="2923.25,-22.45 2933.25,-18.96 2923.26,-15.45 2923.25,-22.45"/>
</g>
<!-- composer&#45;plugin&#45;api -->
<g id="node13" class="node">
<title>composer&#45;plugin&#45;api</title>
<path fill="#eeeeff" stroke="#000000" d="M181.01,-231C181.01,-231 44.01,-231 44.01,-231 38.01,-231 32.01,-225 32.01,-219 32.01,-219 32.01,-207 32.01,-207 32.01,-201 38.01,-195 44.01,-195 44.01,-195 181.01,-195 181.01,-195 187.01,-195 193.01,-201 193.01,-207 193.01,-207 193.01,-219 193.01,-219 193.01,-225 187.01,-231 181.01,-231"/>
<text text-anchor="middle" x="112.51" y="-209.3" font-family="Times,serif" font-size="14.00" fill="#000000">composer&#45;plugin&#45;api</text>
</g>
<!-- arokettu/composer&#45;viz&#45;&gt;composer&#45;plugin&#45;api -->
<g id="edge12" class="edge">
<title>arokettu/composer&#45;viz&#45;&gt;composer&#45;plugin&#45;api</title>
<path fill="none" stroke="#000000" d="M271.89,-302.93C257.2,-297.78 241.54,-291.69 227.51,-285 198.53,-271.18 167.67,-251.85 145.23,-236.85"/>
<polygon fill="#000000" stroke="#000000" points="147,-233.82 136.76,-231.13 143.08,-239.62 147,-233.82"/>
<text text-anchor="middle" x="268.51" y="-263.3" font-family="Times,serif" font-size="14.00" fill="#000000">^1.1 | ^2.0</text>
</g>
<!-- graphp/graphviz -->
<g id="node14" class="node">
<title>graphp/graphviz</title>
<path fill="#ffffff" stroke="#000000" d="M388.01,-231C388.01,-231 223.01,-231 223.01,-231 217.01,-231 211.01,-225 211.01,-219 211.01,-219 211.01,-207 211.01,-207 211.01,-201 217.01,-195 223.01,-195 223.01,-195 388.01,-195 388.01,-195 394.01,-195 400.01,-201 400.01,-207 400.01,-207 400.01,-219 400.01,-219 400.01,-225 394.01,-231 388.01,-231"/>
<text text-anchor="middle" x="305.51" y="-209.3" font-family="Times,serif" font-size="14.00" fill="#000000">graphp/graphviz: v0.2.2</text>
</g>
<!-- arokettu/composer&#45;viz&#45;&gt;graphp/graphviz -->
<g id="edge13" class="edge">
<title>arokettu/composer&#45;viz&#45;&gt;graphp/graphviz</title>
<path fill="none" stroke="#000000" d="M323.98,-302.97C320.52,-286.3 315.19,-260.65 311.15,-241.16"/>
<polygon fill="#000000" stroke="#000000" points="314.57,-240.42 309.11,-231.34 307.72,-241.84 314.57,-240.42"/>
<text text-anchor="middle" x="345.01" y="-263.3" font-family="Times,serif" font-size="14.00" fill="#000000">~0.2.0</text>
</g>
<!-- arokettu/composer&#45;viz&#45;&gt;php -->
<g id="edge14" class="edge">
<title>arokettu/composer&#45;viz&#45;&gt;php</title>
<path fill="none" stroke="#000000" d="M353.18,-302.93C360.19,-297.63 367.51,-291.48 373.51,-285 392.96,-264.03 397.32,-257.32 408.51,-231 424.59,-193.2 401.08,-170.64 429.51,-141 469.74,-99.05 530.33,-158.38 555.51,-106"/>
<path fill="none" stroke="#000000" d="M555.51,-104C582.21,-48.19 2619.82,-22.87 2922.97,-19.41"/>
<polygon fill="#000000" stroke="#000000" points="2923.45,-22.91 2933.41,-19.3 2923.37,-15.91 2923.45,-22.91"/>
<text text-anchor="middle" x="469.01" y="-155.3" font-family="Times,serif" font-size="14.00" fill="#000000">&gt;= 5.5 &lt; 9</text>
</g>
<!-- psr/http&#45;factory&#45;implementation&#45;&gt;laminas/laminas&#45;diactoros -->
<g id="edge96" class="edge">
<title>psr/http&#45;factory&#45;implementation&#45;&gt;laminas/laminas&#45;diactoros</title>
<path fill="none" stroke="#cc7777" d="M3552.2,-410.93C3570.43,-405.23 3590.85,-398.85 3609.51,-393 3664.17,-375.87 3726.25,-356.37 3771.5,-342.14"/>
<polygon fill="#cc7777" stroke="#cc7777" points="3772.69,-345.43 3781.18,-339.09 3770.59,-338.76 3772.69,-345.43"/>
<text text-anchor="middle" x="3733.01" y="-371.3" font-family="Times,serif" font-size="14.00" fill="#cc7777">1.0</text>
</g>
<!-- symfony/polyfill&#45;&gt;php -->
<g id="edge53" class="edge">
<title>symfony/polyfill&#45;&gt;php</title>
<path fill="none" stroke="#000000" d="M985.67,-100.01C1357.79,-84.75 2683.47,-30.37 2923.2,-20.53"/>
<polygon fill="#000000" stroke="#000000" points="2923.63,-24.02 2933.48,-20.11 2923.35,-17.02 2923.63,-24.02"/>
<text text-anchor="middle" x="2072.51" y="-57.8" font-family="Times,serif" font-size="14.00" fill="#000000">&gt;=7.1</text>
</g>
<!-- symfony/symfony&#45;&gt;php -->
<g id="edge58" class="edge">
<title>symfony/symfony&#45;&gt;php</title>
<path fill="none" stroke="#000000" d="M2165.58,-419.64C2232.89,-408.51 2307.43,-382.54 2291.51,-322"/>
<path fill="none" stroke="#000000" d="M2291.51,-320C2290.49,-308.38 2280.63,-310.28 2271.51,-303 2261.09,-294.68 2257.52,-293.81 2247.51,-285 2230.76,-270.26 2232.74,-258.42 2212.51,-249 2162.22,-225.58 2001.3,-271.62 1963.51,-231 1924.37,-188.93 1955.19,-145.92 1996.51,-106"/>
<path fill="none" stroke="#000000" d="M1996.51,-104C2004.89,-96.37 2005.28,-91.86 2015.51,-87 2078.51,-57.08 2102.79,-79.16 2170.51,-62.5"/>
<path fill="none" stroke="#000000" d="M2170.51,-60.5C2315.78,-24.76 2785.9,-19.8 2922.79,-19.11"/>
<polygon fill="#000000" stroke="#000000" points="2923.18,-22.61 2933.16,-19.06 2923.15,-15.61 2923.18,-22.61"/>
<text text-anchor="middle" x="1993.01" y="-209.3" font-family="Times,serif" font-size="14.00" fill="#000000">&gt;=7.2.5</text>
</g>
<!-- psr/cache -->
<g id="node20" class="node">
<title>psr/cache</title>
<path fill="#ffffff" stroke="#000000" d="M2646.01,-123C2646.01,-123 2539.01,-123 2539.01,-123 2533.01,-123 2527.01,-117 2527.01,-111 2527.01,-111 2527.01,-99 2527.01,-99 2527.01,-93 2533.01,-87 2539.01,-87 2539.01,-87 2646.01,-87 2646.01,-87 2652.01,-87 2658.01,-93 2658.01,-99 2658.01,-99 2658.01,-111 2658.01,-111 2658.01,-117 2652.01,-123 2646.01,-123"/>
<text text-anchor="middle" x="2592.51" y="-101.3" font-family="Times,serif" font-size="14.00" fill="#000000">psr/cache: 2.0.0</text>
</g>
<!-- symfony/symfony&#45;&gt;psr/cache -->
<g id="edge59" class="edge">
<title>symfony/symfony&#45;&gt;psr/cache</title>
<path fill="none" stroke="#000000" d="M2291.51,-320C2287.7,-304.86 2289.18,-300.6 2288.51,-285 2287.83,-269.01 2282.6,-263.87 2288.51,-249 2292.58,-238.77 2300.95,-241.01 2305.51,-231 2318.66,-202.15 2300.09,-189.17 2312.51,-160"/>
<path fill="none" stroke="#000000" d="M2312.51,-158C2316.84,-149.22 2317.9,-145.65 2326.51,-141 2359.36,-123.28 2456.54,-128.16 2493.51,-123 2501.1,-121.94 2509,-120.74 2516.89,-119.49"/>
<polygon fill="#000000" stroke="#000000" points="2517.52,-122.93 2526.83,-117.87 2516.4,-116.02 2517.52,-122.93"/>
<text text-anchor="middle" x="2325.01" y="-263.3" font-family="Times,serif" font-size="14.00" fill="#000000">^1.0|^2.0</text>
</g>
<!-- doctrine/event&#45;manager -->
<g id="node24" class="node">
<title>doctrine/event&#45;manager</title>
<path fill="#ffffff" stroke="#000000" d="M2878.01,-231C2878.01,-231 2669.01,-231 2669.01,-231 2663.01,-231 2657.01,-225 2657.01,-219 2657.01,-219 2657.01,-207 2657.01,-207 2657.01,-201 2663.01,-195 2669.01,-195 2669.01,-195 2878.01,-195 2878.01,-195 2884.01,-195 2890.01,-201 2890.01,-207 2890.01,-207 2890.01,-219 2890.01,-219 2890.01,-225 2884.01,-231 2878.01,-231"/>
<text text-anchor="middle" x="2773.51" y="-209.3" font-family="Times,serif" font-size="14.00" fill="#000000">doctrine/event&#45;manager: 1.1.1</text>
</g>
<!-- symfony/symfony&#45;&gt;doctrine/event&#45;manager -->
<g id="edge54" class="edge">
<title>symfony/symfony&#45;&gt;doctrine/event&#45;manager</title>
<path fill="none" stroke="#000000" d="M2165.54,-423.4C2237.02,-418.81 2335.93,-409.9 2421.51,-393 2585.39,-360.63 2681.8,-419.02 2781.51,-285 2790.75,-272.59 2789.08,-255.42 2784.95,-241.07"/>
<polygon fill="#000000" stroke="#000000" points="2788.14,-239.58 2781.62,-231.23 2781.51,-241.83 2788.14,-239.58"/>
<text text-anchor="middle" x="2783.01" y="-317.3" font-family="Times,serif" font-size="14.00" fill="#000000">~1.0</text>
</g>
<!-- doctrine/persistence -->
<g id="node25" class="node">
<title>doctrine/persistence</title>
<path fill="#ffffff" stroke="#000000" d="M2559.51,-339C2559.51,-339 2375.51,-339 2375.51,-339 2369.51,-339 2363.51,-333 2363.51,-327 2363.51,-327 2363.51,-315 2363.51,-315 2363.51,-309 2369.51,-303 2375.51,-303 2375.51,-303 2559.51,-303 2559.51,-303 2565.51,-303 2571.51,-309 2571.51,-315 2571.51,-315 2571.51,-327 2571.51,-327 2571.51,-333 2565.51,-339 2559.51,-339"/>
<text text-anchor="middle" x="2467.51" y="-317.3" font-family="Times,serif" font-size="14.00" fill="#000000">doctrine/persistence: 2.2.2</text>
</g>
<!-- symfony/symfony&#45;&gt;doctrine/persistence -->
<g id="edge55" class="edge">
<title>symfony/symfony&#45;&gt;doctrine/persistence</title>
<path fill="none" stroke="#000000" d="M2165.74,-419.52C2209.15,-414.26 2260.45,-405.93 2305.51,-393 2348.22,-380.74 2394.41,-359.65 2426.5,-343.64"/>
<polygon fill="#000000" stroke="#000000" points="2428.23,-346.69 2435.57,-339.05 2425.07,-340.44 2428.23,-346.69"/>
<text text-anchor="middle" x="2406.51" y="-371.3" font-family="Times,serif" font-size="14.00" fill="#000000">^2</text>
</g>
<!-- friendsofphp/proxy&#45;manager&#45;lts -->
<g id="node26" class="node">
<title>friendsofphp/proxy&#45;manager&#45;lts</title>
<path fill="#ffffff" stroke="#000000" d="M3261.51,-339C3261.51,-339 2989.51,-339 2989.51,-339 2983.51,-339 2977.51,-333 2977.51,-327 2977.51,-327 2977.51,-315 2977.51,-315 2977.51,-309 2983.51,-303 2989.51,-303 2989.51,-303 3261.51,-303 3261.51,-303 3267.51,-303 3273.51,-309 3273.51,-315 3273.51,-315 3273.51,-327 3273.51,-327 3273.51,-333 3267.51,-339 3261.51,-339"/>
<text text-anchor="middle" x="3125.51" y="-317.3" font-family="Times,serif" font-size="14.00" fill="#000000">friendsofphp/proxy&#45;manager&#45;lts: v1.0.5</text>
</g>
<!-- symfony/symfony&#45;&gt;friendsofphp/proxy&#45;manager&#45;lts -->
<g id="edge57" class="edge">
<title>symfony/symfony&#45;&gt;friendsofphp/proxy&#45;manager&#45;lts</title>
<path fill="none" stroke="#000000" d="M2165.6,-426.79C2351.58,-423.99 2749.01,-415.51 2884.51,-393 2949.72,-382.16 3022.19,-359.27 3070.47,-342.4"/>
<polygon fill="#000000" stroke="#000000" points="3071.82,-345.63 3080.09,-339 3069.49,-339.03 3071.82,-345.63"/>
<text text-anchor="middle" x="3048.01" y="-371.3" font-family="Times,serif" font-size="14.00" fill="#000000">^1.0.2</text>
</g>
<!-- psr/container -->
<g id="node31" class="node">
<title>psr/container</title>
<path fill="#ffffff" stroke="#000000" d="M4259.51,-123C4259.51,-123 4125.51,-123 4125.51,-123 4119.51,-123 4113.51,-117 4113.51,-111 4113.51,-111 4113.51,-99 4113.51,-99 4113.51,-93 4119.51,-87 4125.51,-87 4125.51,-87 4259.51,-87 4259.51,-87 4265.51,-87 4271.51,-93 4271.51,-99 4271.51,-99 4271.51,-111 4271.51,-111 4271.51,-117 4265.51,-123 4259.51,-123"/>
<text text-anchor="middle" x="4192.51" y="-101.3" font-family="Times,serif" font-size="14.00" fill="#000000">psr/container: 1.1.1</text>
</g>
<!-- symfony/symfony&#45;&gt;psr/container -->
<g id="edge60" class="edge">
<title>symfony/symfony&#45;&gt;psr/container</title>
<path fill="none" stroke="#000000" d="M2165.78,-427.21C2501.68,-424.35 3592.14,-413.56 3748.51,-393 3848.33,-379.87 3888.76,-400.45 3968.51,-339 4004.59,-311.2 3984.41,-280.29 4017.51,-249 4031.09,-236.16 4039.32,-240.33 4055.51,-231 4058.52,-229.26 4156.56,-162.87 4158.51,-160"/>
<path fill="none" stroke="#000000" d="M4158.51,-158C4164.05,-149.51 4170.11,-140.24 4175.55,-131.91"/>
<polygon fill="#000000" stroke="#000000" points="4178.63,-133.61 4181.17,-123.33 4172.77,-129.78 4178.63,-133.61"/>
<text text-anchor="middle" x="4035.01" y="-263.3" font-family="Times,serif" font-size="14.00" fill="#000000">^1.0</text>
</g>
<!-- psr/event&#45;dispatcher -->
<g id="node32" class="node">
<title>psr/event&#45;dispatcher</title>
<path fill="#ffffff" stroke="#000000" d="M3746.01,-123C3746.01,-123 3561.01,-123 3561.01,-123 3555.01,-123 3549.01,-117 3549.01,-111 3549.01,-111 3549.01,-99 3549.01,-99 3549.01,-93 3555.01,-87 3561.01,-87 3561.01,-87 3746.01,-87 3746.01,-87 3752.01,-87 3758.01,-93 3758.01,-99 3758.01,-99 3758.01,-111 3758.01,-111 3758.01,-117 3752.01,-123 3746.01,-123"/>
<text text-anchor="middle" x="3653.51" y="-101.3" font-family="Times,serif" font-size="14.00" fill="#000000">psr/event&#45;dispatcher: 1.0.0</text>
</g>
<!-- symfony/symfony&#45;&gt;psr/event&#45;dispatcher -->
<g id="edge61" class="edge">
<title>symfony/symfony&#45;&gt;psr/event&#45;dispatcher</title>
<path fill="none" stroke="#000000" d="M3595.51,-374C3603.09,-367.81 3601.89,-363.14 3609.51,-357 3623.13,-346.02 3631.5,-350.69 3644.51,-339 3687.24,-300.6 3694.56,-284.49 3715.51,-231 3724.39,-208.35 3722.5,-201.25 3724.51,-177 3725.83,-161.05 3732.96,-154.59 3724.51,-141 3721.72,-136.52 3718.18,-132.6 3714.16,-129.16"/>
<polygon fill="#000000" stroke="#000000" points="3716.07,-126.22 3705.93,-123.15 3711.94,-131.88 3716.07,-126.22"/>
<text text-anchor="middle" x="3726.01" y="-263.3" font-family="Times,serif" font-size="14.00" fill="#000000">^1.0</text>
</g>
<!-- psr/link -->
<g id="node33" class="node">
<title>psr/link</title>
<path fill="#ffffff" stroke="#000000" d="M3456.01,-285C3456.01,-285 3363.01,-285 3363.01,-285 3357.01,-285 3351.01,-279 3351.01,-273 3351.01,-273 3351.01,-261 3351.01,-261 3351.01,-255 3357.01,-249 3363.01,-249 3363.01,-249 3456.01,-249 3456.01,-249 3462.01,-249 3468.01,-255 3468.01,-261 3468.01,-261 3468.01,-273 3468.01,-273 3468.01,-279 3462.01,-285 3456.01,-285"/>
<text text-anchor="middle" x="3409.51" y="-263.3" font-family="Times,serif" font-size="14.00" fill="#000000">psr/link: 1.1.1</text>
</g>
<!-- symfony/symfony&#45;&gt;psr/link -->
<g id="edge62" class="edge">
<title>symfony/symfony&#45;&gt;psr/link</title>
<path fill="none" stroke="#000000" d="M2165.52,-427.36C2383.5,-425.5 2902.87,-418.45 3076.51,-393 3170.16,-379.28 3194.72,-374.38 3282.51,-339 3315.06,-325.88 3349.69,-306.09 3374.55,-290.73"/>
<polygon fill="#000000" stroke="#000000" points="3376.62,-293.56 3383.25,-285.3 3372.91,-287.63 3376.62,-293.56"/>
<text text-anchor="middle" x="3251.01" y="-371.3" font-family="Times,serif" font-size="14.00" fill="#000000">^1.0</text>
</g>
<!-- psr/log -->
<g id="node34" class="node">
<title>psr/log</title>
<path fill="#ffffff" stroke="#000000" d="M3570.01,-177C3570.01,-177 3481.01,-177 3481.01,-177 3475.01,-177 3469.01,-171 3469.01,-165 3469.01,-165 3469.01,-153 3469.01,-153 3469.01,-147 3475.01,-141 3481.01,-141 3481.01,-141 3570.01,-141 3570.01,-141 3576.01,-141 3582.01,-147 3582.01,-153 3582.01,-153 3582.01,-165 3582.01,-165 3582.01,-171 3576.01,-177 3570.01,-177"/>
<text text-anchor="middle" x="3525.51" y="-155.3" font-family="Times,serif" font-size="14.00" fill="#000000">psr/log: 2.0.0</text>
</g>
<!-- symfony/symfony&#45;&gt;psr/log -->
<g id="edge63" class="edge">
<title>symfony/symfony&#45;&gt;psr/log</title>
<path fill="none" stroke="#000000" d="M2165.68,-428.49C2495.76,-429.65 3547.58,-429.14 3595.51,-376"/>
<path fill="none" stroke="#000000" d="M3595.51,-374C3610.89,-356.95 3571.78,-356.99 3557.51,-339 3523.26,-295.8 3510.53,-284.32 3496.51,-231 3492.44,-215.53 3491.09,-210.05 3496.51,-195 3497.7,-191.71 3499.34,-188.51 3501.25,-185.46"/>
<polygon fill="#000000" stroke="#000000" points="3504.1,-187.5 3507.18,-177.36 3498.45,-183.37 3504.1,-187.5"/>
<text text-anchor="middle" x="3580.51" y="-317.3" font-family="Times,serif" font-size="14.00" fill="#000000">^1|^2</text>
</g>
<!-- symfony/contracts -->
<g id="node35" class="node">
<title>symfony/contracts</title>
<path fill="#ffffff" stroke="#000000" d="M3695.01,-231C3695.01,-231 3518.01,-231 3518.01,-231 3512.01,-231 3506.01,-225 3506.01,-219 3506.01,-219 3506.01,-207 3506.01,-207 3506.01,-201 3512.01,-195 3518.01,-195 3518.01,-195 3695.01,-195 3695.01,-195 3701.01,-195 3707.01,-201 3707.01,-207 3707.01,-207 3707.01,-219 3707.01,-219 3707.01,-225 3701.01,-231 3695.01,-231"/>
<text text-anchor="middle" x="3606.51" y="-209.3" font-family="Times,serif" font-size="14.00" fill="#000000">symfony/contracts: v2.4.0</text>
</g>
<!-- symfony/symfony&#45;&gt;symfony/contracts -->
<g id="edge64" class="edge">
<title>symfony/symfony&#45;&gt;symfony/contracts</title>
<path fill="none" stroke="#000000" d="M3595.51,-374C3611.69,-354.45 3610.4,-281.62 3608.32,-241.29"/>
<polygon fill="#000000" stroke="#000000" points="3611.81,-240.87 3607.74,-231.09 3604.82,-241.27 3611.81,-240.87"/>
<text text-anchor="middle" x="3627.01" y="-317.3" font-family="Times,serif" font-size="14.00" fill="#000000">^2.1</text>
</g>
<!-- ext&#45;xml -->
<g id="node36" class="node">
<title>ext&#45;xml</title>
<path fill="#eeeeff" stroke="#000000" d="M708.01,-339C708.01,-339 663.01,-339 663.01,-339 657.01,-339 651.01,-333 651.01,-327 651.01,-327 651.01,-315 651.01,-315 651.01,-309 657.01,-303 663.01,-303 663.01,-303 708.01,-303 708.01,-303 714.01,-303 720.01,-309 720.01,-315 720.01,-315 720.01,-327 720.01,-327 720.01,-333 714.01,-339 708.01,-339"/>
<text text-anchor="middle" x="685.51" y="-317.3" font-family="Times,serif" font-size="14.00" fill="#000000">ext&#45;xml</text>
</g>
<!-- symfony/symfony&#45;&gt;ext&#45;xml -->
<g id="edge56" class="edge">
<title>symfony/symfony&#45;&gt;ext&#45;xml</title>
<path fill="none" stroke="#000000" d="M1969.41,-426.91C1678.83,-423.47 839.32,-411.94 783.51,-393 755.31,-383.43 728.29,-362.69 709.79,-346.08"/>
<polygon fill="#000000" stroke="#000000" points="712.13,-343.48 702.41,-339.26 707.38,-348.62 712.13,-343.48"/>
<text text-anchor="middle" x="787.01" y="-371.3" font-family="Times,serif" font-size="14.00" fill="#000000">*</text>
</g>
<!-- symfony/polyfill&#45;ctype -->
<g id="node37" class="node">
<title>symfony/polyfill&#45;ctype</title>
<path fill="#ffeeee" stroke="#000000" d="M963.51,-231C963.51,-231 813.51,-231 813.51,-231 807.51,-231 801.51,-225 801.51,-219 801.51,-219 801.51,-207 801.51,-207 801.51,-201 807.51,-195 813.51,-195 813.51,-195 963.51,-195 963.51,-195 969.51,-195 975.51,-201 975.51,-207 975.51,-207 975.51,-219 975.51,-219 975.51,-225 969.51,-231 963.51,-231"/>
<text text-anchor="middle" x="888.51" y="-209.3" font-family="Times,serif" font-size="14.00" fill="#000000">symfony/polyfill&#45;ctype</text>
</g>
<!-- symfony/symfony&#45;&gt;symfony/polyfill&#45;ctype -->
<g id="edge65" class="edge">
<title>symfony/symfony&#45;&gt;symfony/polyfill&#45;ctype</title>
<path fill="none" stroke="#000000" d="M1969.21,-426.98C1763.4,-424.39 1293.11,-416.09 1134.51,-393 1039.15,-379.11 1009.72,-384.02 924.51,-339 903.07,-327.67 905.46,-313.31 883.51,-303 837.48,-281.37 803.52,-323.69 770.51,-285 760.13,-272.83 760.94,-261.82 770.51,-249 774.61,-243.51 784.07,-238.57 795.93,-234.25"/>
<polygon fill="#000000" stroke="#000000" points="797.06,-237.57 805.43,-231.08 794.84,-230.93 797.06,-237.57"/>
<text text-anchor="middle" x="942.01" y="-317.3" font-family="Times,serif" font-size="14.00" fill="#000000">~1.8</text>
</g>
<!-- symfony/polyfill&#45;intl&#45;grapheme -->
<g id="node38" class="node">
<title>symfony/polyfill&#45;intl&#45;grapheme</title>
<path fill="#ffeeee" stroke="#000000" d="M1990.51,-285C1990.51,-285 1778.51,-285 1778.51,-285 1772.51,-285 1766.51,-279 1766.51,-273 1766.51,-273 1766.51,-261 1766.51,-261 1766.51,-255 1772.51,-249 1778.51,-249 1778.51,-249 1990.51,-249 1990.51,-249 1996.51,-249 2002.51,-255 2002.51,-261 2002.51,-261 2002.51,-273 2002.51,-273 2002.51,-279 1996.51,-285 1990.51,-285"/>
<text text-anchor="middle" x="1884.51" y="-263.3" font-family="Times,serif" font-size="14.00" fill="#000000">symfony/polyfill&#45;intl&#45;grapheme</text>
</g>
<!-- symfony/symfony&#45;&gt;symfony/polyfill&#45;intl&#45;grapheme -->
<g id="edge66" class="edge">
<title>symfony/symfony&#45;&gt;symfony/polyfill&#45;intl&#45;grapheme</title>
<path fill="none" stroke="#000000" d="M2047.44,-410.97C2040.76,-405.28 2033.3,-398.89 2026.51,-393 1986.13,-358 1939.72,-317 1911.26,-291.76"/>
<polygon fill="#000000" stroke="#000000" points="1913.53,-289.09 1903.72,-285.08 1908.88,-294.33 1913.53,-289.09"/>
<text text-anchor="middle" x="2044.01" y="-371.3" font-family="Times,serif" font-size="14.00" fill="#000000">~1.0</text>
</g>
<!-- symfony/polyfill&#45;intl&#45;icu -->
<g id="node39" class="node">
<title>symfony/polyfill&#45;intl&#45;icu</title>
<path fill="#ffeeee" stroke="#000000" d="M1749.01,-285C1749.01,-285 1588.01,-285 1588.01,-285 1582.01,-285 1576.01,-279 1576.01,-273 1576.01,-273 1576.01,-261 1576.01,-261 1576.01,-255 1582.01,-249 1588.01,-249 1588.01,-249 1749.01,-249 1749.01,-249 1755.01,-249 1761.01,-255 1761.01,-261 1761.01,-261 1761.01,-273 1761.01,-273 1761.01,-279 1755.01,-285 1749.01,-285"/>
<text text-anchor="middle" x="1668.51" y="-263.3" font-family="Times,serif" font-size="14.00" fill="#000000">symfony/polyfill&#45;intl&#45;icu</text>
</g>
<!-- symfony/symfony&#45;&gt;symfony/polyfill&#45;intl&#45;icu -->
<g id="edge67" class="edge">
<title>symfony/symfony&#45;&gt;symfony/polyfill&#45;intl&#45;icu</title>
<path fill="none" stroke="#000000" d="M2003.69,-410.94C1985.69,-405.66 1966.19,-399.51 1948.51,-393 1862.8,-361.43 1766.21,-316.03 1711.82,-289.52"/>
<polygon fill="#000000" stroke="#000000" points="1713.33,-286.36 1702.81,-285.11 1710.26,-292.65 1713.33,-286.36"/>
<text text-anchor="middle" x="1966.01" y="-371.3" font-family="Times,serif" font-size="14.00" fill="#000000">~1.0</text>
</g>
<!-- symfony/polyfill&#45;intl&#45;idn -->
<g id="node40" class="node">
<title>symfony/polyfill&#45;intl&#45;idn</title>
<path fill="#ffeeee" stroke="#000000" d="M2181.51,-285C2181.51,-285 2019.51,-285 2019.51,-285 2013.51,-285 2007.51,-279 2007.51,-273 2007.51,-273 2007.51,-261 2007.51,-261 2007.51,-255 2013.51,-249 2019.51,-249 2019.51,-249 2181.51,-249 2181.51,-249 2187.51,-249 2193.51,-255 2193.51,-261 2193.51,-261 2193.51,-273 2193.51,-273 2193.51,-279 2187.51,-285 2181.51,-285"/>
<text text-anchor="middle" x="2100.51" y="-263.3" font-family="Times,serif" font-size="14.00" fill="#000000">symfony/polyfill&#45;intl&#45;idn</text>
</g>
<!-- symfony/symfony&#45;&gt;symfony/polyfill&#45;intl&#45;idn -->
<g id="edge68" class="edge">
<title>symfony/symfony&#45;&gt;symfony/polyfill&#45;intl&#45;idn</title>
<path fill="none" stroke="#000000" d="M2065.91,-410.94C2064.93,-396.47 2064.4,-375.23 2067.51,-357 2071.79,-331.92 2077.56,-326.82 2086.51,-303 2087.55,-300.24 2088.65,-297.37 2089.77,-294.52"/>
<polygon fill="#000000" stroke="#000000" points="2093.1,-295.62 2093.53,-285.03 2086.59,-293.04 2093.1,-295.62"/>
<text text-anchor="middle" x="2089.51" y="-371.3" font-family="Times,serif" font-size="14.00" fill="#000000">^1.10</text>
</g>
<!-- symfony/polyfill&#45;intl&#45;normalizer -->
<g id="node41" class="node">
<title>symfony/polyfill&#45;intl&#45;normalizer</title>
<path fill="#ffeeee" stroke="#000000" d="M1187.01,-285C1187.01,-285 970.01,-285 970.01,-285 964.01,-285 958.01,-279 958.01,-273 958.01,-273 958.01,-261 958.01,-261 958.01,-255 964.01,-249 970.01,-249 970.01,-249 1187.01,-249 1187.01,-249 1193.01,-249 1199.01,-255 1199.01,-261 1199.01,-261 1199.01,-273 1199.01,-273 1199.01,-279 1193.01,-285 1187.01,-285"/>
<text text-anchor="middle" x="1078.51" y="-263.3" font-family="Times,serif" font-size="14.00" fill="#000000">symfony/polyfill&#45;intl&#45;normalizer</text>
</g>
<!-- symfony/symfony&#45;&gt;symfony/polyfill&#45;intl&#45;normalizer -->
<g id="edge69" class="edge">
<title>symfony/symfony&#45;&gt;symfony/polyfill&#45;intl&#45;normalizer</title>
<path fill="none" stroke="#000000" d="M1969.38,-424.94C1828.15,-420.06 1574.68,-409.34 1484.51,-393 1354.55,-369.44 1207.73,-317.67 1131.24,-288.69"/>
<polygon fill="#000000" stroke="#000000" points="1132.41,-285.39 1121.81,-285.1 1129.91,-291.93 1132.41,-285.39"/>
<text text-anchor="middle" x="1502.01" y="-371.3" font-family="Times,serif" font-size="14.00" fill="#000000">~1.0</text>
</g>
<!-- symfony/polyfill&#45;mbstring -->
<g id="node42" class="node">
<title>symfony/polyfill&#45;mbstring</title>
<path fill="#ffeeee" stroke="#000000" d="M771.51,-231C771.51,-231 595.51,-231 595.51,-231 589.51,-231 583.51,-225 583.51,-219 583.51,-219 583.51,-207 583.51,-207 583.51,-201 589.51,-195 595.51,-195 595.51,-195 771.51,-195 771.51,-195 777.51,-195 783.51,-201 783.51,-207 783.51,-207 783.51,-219 783.51,-219 783.51,-225 777.51,-231 771.51,-231"/>
<text text-anchor="middle" x="683.51" y="-209.3" font-family="Times,serif" font-size="14.00" fill="#000000">symfony/polyfill&#45;mbstring</text>
</g>
<!-- symfony/symfony&#45;&gt;symfony/polyfill&#45;mbstring -->
<g id="edge70" class="edge">
<title>symfony/symfony&#45;&gt;symfony/polyfill&#45;mbstring</title>
<path fill="none" stroke="#000000" d="M1969.26,-427.77C1679.57,-426.77 841.61,-421.44 721.51,-393 666.57,-379.99 636.79,-386.66 606.51,-339 584.18,-303.84 621.73,-262.64 651.81,-237.43"/>
<polygon fill="#000000" stroke="#000000" points="654.09,-240.09 659.65,-231.08 649.68,-234.66 654.09,-240.09"/>
<text text-anchor="middle" x="624.01" y="-317.3" font-family="Times,serif" font-size="14.00" fill="#000000">~1.0</text>
</g>
<!-- symfony/polyfill&#45;php73 -->
<g id="node43" class="node">
<title>symfony/polyfill&#45;php73</title>
<path fill="#ffeeee" stroke="#000000" d="M941.01,-285C941.01,-285 784.01,-285 784.01,-285 778.01,-285 772.01,-279 772.01,-273 772.01,-273 772.01,-261 772.01,-261 772.01,-255 778.01,-249 784.01,-249 784.01,-249 941.01,-249 941.01,-249 947.01,-249 953.01,-255 953.01,-261 953.01,-261 953.01,-273 953.01,-273 953.01,-279 947.01,-285 941.01,-285"/>
<text text-anchor="middle" x="862.51" y="-263.3" font-family="Times,serif" font-size="14.00" fill="#000000">symfony/polyfill&#45;php73</text>
</g>
<!-- symfony/symfony&#45;&gt;symfony/polyfill&#45;php73 -->
<g id="edge71" class="edge">
<title>symfony/symfony&#45;&gt;symfony/polyfill&#45;php73</title>
<path fill="none" stroke="#000000" d="M1969.16,-426.48C1790.42,-423.24 1418.98,-414.13 1291.51,-393 1153.8,-370.17 997.74,-317.68 917.15,-288.5"/>
<polygon fill="#000000" stroke="#000000" points="918.3,-285.19 907.71,-285.06 915.91,-291.77 918.3,-285.19"/>
<text text-anchor="middle" x="1313.51" y="-371.3" font-family="Times,serif" font-size="14.00" fill="#000000">^1.11</text>
</g>
<!-- symfony/polyfill&#45;php80 -->
<g id="node44" class="node">
<title>symfony/polyfill&#45;php80</title>
<path fill="#ffeeee" stroke="#000000" d="M1373.01,-285C1373.01,-285 1216.01,-285 1216.01,-285 1210.01,-285 1204.01,-279 1204.01,-273 1204.01,-273 1204.01,-261 1204.01,-261 1204.01,-255 1210.01,-249 1216.01,-249 1216.01,-249 1373.01,-249 1373.01,-249 1379.01,-249 1385.01,-255 1385.01,-261 1385.01,-261 1385.01,-273 1385.01,-273 1385.01,-279 1379.01,-285 1373.01,-285"/>
<text text-anchor="middle" x="1294.51" y="-263.3" font-family="Times,serif" font-size="14.00" fill="#000000">symfony/polyfill&#45;php80</text>
</g>
<!-- symfony/symfony&#45;&gt;symfony/polyfill&#45;php80 -->
<g id="edge72" class="edge">
<title>symfony/symfony&#45;&gt;symfony/polyfill&#45;php80</title>
<path fill="none" stroke="#000000" d="M1969.41,-426.71C1884.46,-423.95 1758.72,-415.89 1651.51,-393 1537.51,-368.66 1409.95,-317.97 1342.45,-289.18"/>
<polygon fill="#000000" stroke="#000000" points="1343.51,-285.82 1332.94,-285.09 1340.75,-292.25 1343.51,-285.82"/>
<text text-anchor="middle" x="1673.51" y="-371.3" font-family="Times,serif" font-size="14.00" fill="#000000">^1.16</text>
</g>
<!-- symfony/polyfill&#45;php81 -->
<g id="node45" class="node">
<title>symfony/polyfill&#45;php81</title>
<path fill="#ffeeee" stroke="#000000" d="M1559.01,-285C1559.01,-285 1402.01,-285 1402.01,-285 1396.01,-285 1390.01,-279 1390.01,-273 1390.01,-273 1390.01,-261 1390.01,-261 1390.01,-255 1396.01,-249 1402.01,-249 1402.01,-249 1559.01,-249 1559.01,-249 1565.01,-249 1571.01,-255 1571.01,-261 1571.01,-261 1571.01,-273 1571.01,-273 1571.01,-279 1565.01,-285 1559.01,-285"/>
<text text-anchor="middle" x="1480.51" y="-263.3" font-family="Times,serif" font-size="14.00" fill="#000000">symfony/polyfill&#45;php81</text>
</g>
<!-- symfony/symfony&#45;&gt;symfony/polyfill&#45;php81 -->
<g id="edge73" class="edge">
<title>symfony/symfony&#45;&gt;symfony/polyfill&#45;php81</title>
<path fill="none" stroke="#000000" d="M1969.27,-419.8C1921.22,-414.47 1862.82,-406.02 1811.51,-393 1706.74,-366.42 1589.61,-317.32 1526.62,-289.22"/>
<polygon fill="#000000" stroke="#000000" points="1527.91,-285.96 1517.35,-285.06 1525.04,-292.35 1527.91,-285.96"/>
<text text-anchor="middle" x="1833.51" y="-371.3" font-family="Times,serif" font-size="14.00" fill="#000000">^1.22</text>
</g>
<!-- symfony/polyfill&#45;uuid -->
<g id="node46" class="node">
<title>symfony/polyfill&#45;uuid</title>
<path fill="#ffeeee" stroke="#000000" d="M2251.01,-339C2251.01,-339 2108.01,-339 2108.01,-339 2102.01,-339 2096.01,-333 2096.01,-327 2096.01,-327 2096.01,-315 2096.01,-315 2096.01,-309 2102.01,-303 2108.01,-303 2108.01,-303 2251.01,-303 2251.01,-303 2257.01,-303 2263.01,-309 2263.01,-315 2263.01,-315 2263.01,-327 2263.01,-327 2263.01,-333 2257.01,-339 2251.01,-339"/>
<text text-anchor="middle" x="2179.51" y="-317.3" font-family="Times,serif" font-size="14.00" fill="#000000">symfony/polyfill&#45;uuid</text>
</g>
<!-- symfony/symfony&#45;&gt;symfony/polyfill&#45;uuid -->
<g id="edge74" class="edge">
<title>symfony/symfony&#45;&gt;symfony/polyfill&#45;uuid</title>
<path fill="none" stroke="#000000" d="M2093.19,-410.78C2100.64,-405.39 2108.62,-399.21 2115.51,-393 2131.17,-378.88 2147.05,-361.29 2159.08,-347.15"/>
<polygon fill="#000000" stroke="#000000" points="2161.94,-349.18 2165.68,-339.27 2156.57,-344.68 2161.94,-349.18"/>
<text text-anchor="middle" x="2172.51" y="-371.3" font-family="Times,serif" font-size="14.00" fill="#000000">^1.15</text>
</g>
<!-- twig/twig -->
<g id="node47" class="node">
<title>twig/twig</title>
<path fill="#ffffff" stroke="#000000" d="M863.01,-339C863.01,-339 750.01,-339 750.01,-339 744.01,-339 738.01,-333 738.01,-327 738.01,-327 738.01,-315 738.01,-315 738.01,-309 744.01,-303 750.01,-303 750.01,-303 863.01,-303 863.01,-303 869.01,-303 875.01,-309 875.01,-315 875.01,-315 875.01,-327 875.01,-327 875.01,-333 869.01,-339 863.01,-339"/>
<text text-anchor="middle" x="806.51" y="-317.3" font-family="Times,serif" font-size="14.00" fill="#000000">twig/twig: v3.3.3</text>
</g>
<!-- symfony/symfony&#45;&gt;twig/twig -->
<g id="edge75" class="edge">
<title>symfony/symfony&#45;&gt;twig/twig</title>
<path fill="none" stroke="#000000" d="M1969.27,-427.1C1675.5,-424.16 822.79,-413.85 802.51,-393 791.46,-381.64 792.5,-363.82 796.28,-348.87"/>
<polygon fill="#000000" stroke="#000000" points="799.69,-349.69 799.22,-339.1 792.99,-347.67 799.69,-349.69"/>
<text text-anchor="middle" x="850.01" y="-371.3" font-family="Times,serif" font-size="14.00" fill="#000000">^2.13|^3.0.4</text>
</g>
<!-- php&#45;ipv6&#45;&gt;php -->
<g id="edge95" class="edge">
<title>php&#45;ipv6&#45;&gt;php</title>
<path fill="none" stroke="#cc7777" d="M4105.75,-249C4111.89,-232.2 4123.83,-207.28 4143.51,-195 4181.56,-171.26 4302.67,-193.14 4344.51,-177 4393.36,-158.16 4394.86,-134.91 4438.51,-106"/>
<path fill="none" stroke="#cc7777" d="M4438.51,-104C4483.72,-74.71 4505.14,-94.28 4558.51,-87 4579.27,-84.17 4754.02,-81.65 4745.51,-62.5"/>
<path fill="none" stroke="#cc7777" d="M4745.51,-60.5C4727.11,-19.09 3252.34,-18.71 2997.74,-18.95"/>
<polygon fill="#cc7777" stroke="#cc7777" points="2997.53,-15.45 2987.53,-18.96 2997.54,-22.45 2997.53,-15.45"/>
</g>
<!-- laminas/laminas&#45;barcode&#45;&gt;php -->
<g id="edge84" class="edge">
<title>laminas/laminas&#45;barcode&#45;&gt;php</title>
<path fill="none" stroke="#777777" d="M5000.51,-374C5015.36,-351.74 5030.24,-357.57 5049.51,-339 5124.45,-266.78 5238.19,-223.32 5174.51,-141 5116.07,-65.45 5060.44,-104.31 4966.51,-87 4942.21,-82.52 4755.4,-85.14 4745.51,-62.5"/>
<text text-anchor="middle" x="5240.51" y="-209.3" font-family="Times,serif" font-size="14.00" fill="#777777">^7.3 || ~8.0.0</text>
</g>
<!-- laminas/laminas&#45;servicemanager -->
<g id="node49" class="node">
<title>laminas/laminas&#45;servicemanager</title>
<path fill="#eeeeee" stroke="#777777" d="M4544.51,-339C4544.51,-339 4262.51,-339 4262.51,-339 4256.51,-339 4250.51,-333 4250.51,-327 4250.51,-327 4250.51,-315 4250.51,-315 4250.51,-309 4256.51,-303 4262.51,-303 4262.51,-303 4544.51,-303 4544.51,-303 4550.51,-303 4556.51,-309 4556.51,-315 4556.51,-315 4556.51,-327 4556.51,-327 4556.51,-333 4550.51,-339 4544.51,-339"/>
<text text-anchor="middle" x="4403.51" y="-317.3" font-family="Times,serif" font-size="14.00" fill="#777777">laminas/laminas&#45;servicemanager: 3.10.0</text>
</g>
<!-- laminas/laminas&#45;barcode&#45;&gt;laminas/laminas&#45;servicemanager -->
<g id="edge80" class="edge">
<title>laminas/laminas&#45;barcode&#45;&gt;laminas/laminas&#45;servicemanager</title>
<path fill="none" stroke="#777777" d="M4520.18,-410.97C4496.91,-393.23 4460.29,-365.3 4434.29,-345.47"/>
<polygon fill="#777777" stroke="#777777" points="4436.32,-342.62 4426.25,-339.34 4432.08,-348.19 4436.32,-342.62"/>
<text text-anchor="middle" x="4518.01" y="-371.3" font-family="Times,serif" font-size="14.00" fill="#777777">^3.6.0</text>
</g>
<!-- laminas/laminas&#45;stdlib -->
<g id="node50" class="node">
<title>laminas/laminas&#45;stdlib</title>
<path fill="#eeeeee" stroke="#777777" d="M4791.01,-231C4791.01,-231 4592.01,-231 4592.01,-231 4586.01,-231 4580.01,-225 4580.01,-219 4580.01,-219 4580.01,-207 4580.01,-207 4580.01,-201 4586.01,-195 4592.01,-195 4592.01,-195 4791.01,-195 4791.01,-195 4797.01,-195 4803.01,-201 4803.01,-207 4803.01,-207 4803.01,-219 4803.01,-219 4803.01,-225 4797.01,-231 4791.01,-231"/>
<text text-anchor="middle" x="4691.51" y="-209.3" font-family="Times,serif" font-size="14.00" fill="#777777">laminas/laminas&#45;stdlib: 3.6.0</text>
</g>
<!-- laminas/laminas&#45;barcode&#45;&gt;laminas/laminas&#45;stdlib -->
<g id="edge81" class="edge">
<title>laminas/laminas&#45;barcode&#45;&gt;laminas/laminas&#45;stdlib</title>
<path fill="none" stroke="#777777" d="M4662.61,-424.09C4792.64,-418.39 4983.84,-405.1 5000.51,-376"/>
<path fill="none" stroke="#777777" d="M5000.51,-374C5028.12,-325.79 4929.21,-365.74 4880.51,-339 4859.26,-327.33 4859.09,-317.31 4839.51,-303 4804.96,-277.75 4762.93,-252.99 4732.5,-236.02"/>
<polygon fill="#777777" stroke="#777777" points="4733.89,-232.8 4723.45,-231.02 4730.5,-238.92 4733.89,-232.8"/>
<text text-anchor="middle" x="4929.51" y="-317.3" font-family="Times,serif" font-size="14.00" fill="#777777">^2.7.7 || ^3.1</text>
</g>
<!-- laminas/laminas&#45;validator -->
<g id="node51" class="node">
<title>laminas/laminas&#45;validator</title>
<path fill="#eeeeee" stroke="#777777" d="M4818.01,-339C4818.01,-339 4587.01,-339 4587.01,-339 4581.01,-339 4575.01,-333 4575.01,-327 4575.01,-327 4575.01,-315 4575.01,-315 4575.01,-309 4581.01,-303 4587.01,-303 4587.01,-303 4818.01,-303 4818.01,-303 4824.01,-303 4830.01,-309 4830.01,-315 4830.01,-315 4830.01,-327 4830.01,-327 4830.01,-333 4824.01,-339 4818.01,-339"/>
<text text-anchor="middle" x="4702.51" y="-317.3" font-family="Times,serif" font-size="14.00" fill="#777777">laminas/laminas&#45;validator: 2.15.0</text>
</g>
<!-- laminas/laminas&#45;barcode&#45;&gt;laminas/laminas&#45;validator -->
<g id="edge82" class="edge">
<title>laminas/laminas&#45;barcode&#45;&gt;laminas/laminas&#45;validator</title>
<path fill="none" stroke="#777777" d="M4568.22,-410.97C4595.31,-393.02 4638.14,-364.65 4668.13,-344.78"/>
<polygon fill="#777777" stroke="#777777" points="4670.2,-347.6 4676.6,-339.16 4666.33,-341.77 4670.2,-347.6"/>
<text text-anchor="middle" x="4674.51" y="-371.3" font-family="Times,serif" font-size="14.00" fill="#777777">^2.10.1</text>
</g>
<!-- laminas/laminas&#45;zendframework&#45;bridge -->
<g id="node52" class="node">
<title>laminas/laminas&#45;zendframework&#45;bridge</title>
<path fill="#eeeeee" stroke="#777777" d="M5161.01,-177C5161.01,-177 4840.01,-177 4840.01,-177 4834.01,-177 4828.01,-171 4828.01,-165 4828.01,-165 4828.01,-153 4828.01,-153 4828.01,-147 4834.01,-141 4840.01,-141 4840.01,-141 5161.01,-141 5161.01,-141 5167.01,-141 5173.01,-147 5173.01,-153 5173.01,-153 5173.01,-165 5173.01,-165 5173.01,-171 5167.01,-177 5161.01,-177"/>
<text text-anchor="middle" x="5000.51" y="-155.3" font-family="Times,serif" font-size="14.00" fill="#777777">laminas/laminas&#45;zendframework&#45;bridge: 1.4.0</text>
</g>
<!-- laminas/laminas&#45;barcode&#45;&gt;laminas/laminas&#45;zendframework&#45;bridge -->
<g id="edge83" class="edge">
<title>laminas/laminas&#45;barcode&#45;&gt;laminas/laminas&#45;zendframework&#45;bridge</title>
<path fill="none" stroke="#777777" d="M5000.51,-374C5019.42,-343.67 5009.91,-238.07 5004.01,-187.46"/>
<polygon fill="#777777" stroke="#777777" points="5007.46,-186.77 5002.79,-177.26 5000.51,-187.6 5007.46,-186.77"/>
<text text-anchor="middle" x="5029.01" y="-317.3" font-family="Times,serif" font-size="14.00" fill="#777777">^1.0</text>
</g>
<!-- laminas/laminas&#45;diactoros&#45;&gt;php -->
<g id="edge38" class="edge">
<title>laminas/laminas&#45;diactoros&#45;&gt;php</title>
<path fill="none" stroke="#000000" d="M3830.23,-302.65C3827.14,-292.53 3823.14,-279.53 3819.51,-268"/>
<path fill="none" stroke="#000000" d="M3819.51,-266C3805.96,-222.93 3782.48,-220.54 3770.51,-177 3767.86,-167.35 3774.34,-94.31 3767.51,-87 3714.36,-30.14 3149.36,-20.77 2997.77,-19.27"/>
<polygon fill="#000000" stroke="#000000" points="2997.61,-15.77 2987.58,-19.18 2997.54,-22.77 2997.61,-15.77"/>
<text text-anchor="middle" x="3851.01" y="-155.3" font-family="Times,serif" font-size="14.00" fill="#000000">^7.3 || ~8.0.0 || ~8.1.0</text>
</g>
<!-- psr/http&#45;factory -->
<g id="node29" class="node">
<title>psr/http&#45;factory</title>
<path fill="#ffffff" stroke="#000000" d="M4034.01,-231C4034.01,-231 3885.01,-231 3885.01,-231 3879.01,-231 3873.01,-225 3873.01,-219 3873.01,-219 3873.01,-207 3873.01,-207 3873.01,-201 3879.01,-195 3885.01,-195 3885.01,-195 4034.01,-195 4034.01,-195 4040.01,-195 4046.01,-201 4046.01,-207 4046.01,-207 4046.01,-219 4046.01,-219 4046.01,-225 4040.01,-231 4034.01,-231"/>
<text text-anchor="middle" x="3959.51" y="-209.3" font-family="Times,serif" font-size="14.00" fill="#000000">psr/http&#45;factory: 1.0.1</text>
</g>
<!-- laminas/laminas&#45;diactoros&#45;&gt;psr/http&#45;factory -->
<g id="edge39" class="edge">
<title>laminas/laminas&#45;diactoros&#45;&gt;psr/http&#45;factory</title>
<path fill="none" stroke="#000000" d="M3855.43,-302.97C3876.01,-285.38 3908.3,-257.78 3931.45,-237.99"/>
<polygon fill="#000000" stroke="#000000" points="3933.9,-240.5 3939.23,-231.34 3929.35,-235.18 3933.9,-240.5"/>
<text text-anchor="middle" x="3933.01" y="-263.3" font-family="Times,serif" font-size="14.00" fill="#000000">^1.0</text>
</g>
<!-- psr/http&#45;message -->
<g id="node30" class="node">
<title>psr/http&#45;message</title>
<path fill="#ffffff" stroke="#000000" d="M3988.51,-123C3988.51,-123 3826.51,-123 3826.51,-123 3820.51,-123 3814.51,-117 3814.51,-111 3814.51,-111 3814.51,-99 3814.51,-99 3814.51,-93 3820.51,-87 3826.51,-87 3826.51,-87 3988.51,-87 3988.51,-87 3994.51,-87 4000.51,-93 4000.51,-99 4000.51,-99 4000.51,-111 4000.51,-111 4000.51,-117 3994.51,-123 3988.51,-123"/>
<text text-anchor="middle" x="3907.51" y="-101.3" font-family="Times,serif" font-size="14.00" fill="#000000">psr/http&#45;message: 1.0.1</text>
</g>
<!-- laminas/laminas&#45;diactoros&#45;&gt;psr/http&#45;message -->
<g id="edge40" class="edge">
<title>laminas/laminas&#45;diactoros&#45;&gt;psr/http&#45;message</title>
<path fill="none" stroke="#000000" d="M3819.51,-266C3808.72,-236.01 3807.3,-217.85 3829.51,-195 3862.82,-160.74 3904.68,-213.51 3935.51,-177 3945.83,-164.78 3940.81,-156.1 3935.51,-141 3934.34,-137.67 3932.71,-134.42 3930.81,-131.32"/>
<polygon fill="#000000" stroke="#000000" points="3933.59,-129.19 3924.93,-123.09 3927.89,-133.26 3933.59,-129.19"/>
<text text-anchor="middle" x="3847.01" y="-209.3" font-family="Times,serif" font-size="14.00" fill="#000000">^1.0</text>
</g>
<!-- graphp/graphviz&#45;&gt;php -->
<g id="edge36" class="edge">
<title>graphp/graphviz&#45;&gt;php</title>
<path fill="none" stroke="#000000" d="M236.99,-194.92C136.34,-167.56 -31.24,-111.97 49.51,-62.5"/>
<text text-anchor="middle" x="81.01" y="-101.3" font-family="Times,serif" font-size="14.00" fill="#000000">&gt;=5.3.0</text>
</g>
<!-- clue/graph -->
<g id="node16" class="node">
<title>clue/graph</title>
<path fill="#ffffff" stroke="#000000" d="M441.01,-123C441.01,-123 318.01,-123 318.01,-123 312.01,-123 306.01,-117 306.01,-111 306.01,-111 306.01,-99 306.01,-99 306.01,-93 312.01,-87 318.01,-87 318.01,-87 441.01,-87 441.01,-87 447.01,-87 453.01,-93 453.01,-99 453.01,-99 453.01,-111 453.01,-111 453.01,-117 447.01,-123 441.01,-123"/>
<text text-anchor="middle" x="379.51" y="-101.3" font-family="Times,serif" font-size="14.00" fill="#000000">clue/graph: v0.9.2</text>
</g>
<!-- graphp/graphviz&#45;&gt;clue/graph -->
<g id="edge35" class="edge">
<title>graphp/graphviz&#45;&gt;clue/graph</title>
<path fill="none" stroke="#000000" d="M300.99,-194.79C298,-179.44 296.28,-156.99 306.51,-141 309.37,-136.53 312.98,-132.61 317.05,-129.19"/>
<polygon fill="#000000" stroke="#000000" points="319.3,-131.87 325.37,-123.19 315.21,-126.2 319.3,-131.87"/>
<text text-anchor="middle" x="356.51" y="-155.3" font-family="Times,serif" font-size="14.00" fill="#000000">~0.9.0|~0.8.0</text>
</g>
<!-- clue/graph&#45;&gt;php -->
<g id="edge15" class="edge">
<title>clue/graph&#45;&gt;php</title>
<path fill="none" stroke="#000000" d="M409.92,-86.96C432.7,-75.18 465.06,-60.51 495.51,-54 619.41,-27.52 2623.61,-20.08 2923.17,-19.11"/>
<polygon fill="#000000" stroke="#000000" points="2923.5,-22.61 2933.49,-19.08 2923.48,-15.61 2923.5,-22.61"/>
<text text-anchor="middle" x="518.51" y="-57.8" font-family="Times,serif" font-size="14.00" fill="#000000">&gt;=5.3</text>
</g>
<!-- doctrine/annotations -->
<g id="node17" class="node">
<title>doctrine/annotations</title>
<path fill="#ffffff" stroke="#000000" d="M2284.51,-231C2284.51,-231 2090.51,-231 2090.51,-231 2084.51,-231 2078.51,-225 2078.51,-219 2078.51,-219 2078.51,-207 2078.51,-207 2078.51,-201 2084.51,-195 2090.51,-195 2090.51,-195 2284.51,-195 2284.51,-195 2290.51,-195 2296.51,-201 2296.51,-207 2296.51,-207 2296.51,-219 2296.51,-219 2296.51,-225 2290.51,-231 2284.51,-231"/>
<text text-anchor="middle" x="2187.51" y="-209.3" font-family="Times,serif" font-size="14.00" fill="#000000">doctrine/annotations: 1.13.2</text>
</g>
<!-- doctrine/annotations&#45;&gt;php -->
<g id="edge18" class="edge">
<title>doctrine/annotations&#45;&gt;php</title>
<path fill="none" stroke="#000000" d="M2164.45,-194.97C2159.22,-189.83 2154.36,-183.74 2151.51,-177 2141.47,-153.24 2145.58,-69.11 2170.51,-62.5"/>
<text text-anchor="middle" x="2196.01" y="-101.3" font-family="Times,serif" font-size="14.00" fill="#000000">^7.1 || ^8.0</text>
</g>
<!-- doctrine/lexer -->
<g id="node18" class="node">
<title>doctrine/lexer</title>
<path fill="#ffffff" stroke="#000000" d="M2472.51,-123C2472.51,-123 2334.51,-123 2334.51,-123 2328.51,-123 2322.51,-117 2322.51,-111 2322.51,-111 2322.51,-99 2322.51,-99 2322.51,-93 2328.51,-87 2334.51,-87 2334.51,-87 2472.51,-87 2472.51,-87 2478.51,-87 2484.51,-93 2484.51,-99 2484.51,-99 2484.51,-111 2484.51,-111 2484.51,-117 2478.51,-123 2472.51,-123"/>
<text text-anchor="middle" x="2403.51" y="-101.3" font-family="Times,serif" font-size="14.00" fill="#000000">doctrine/lexer: 1.2.1</text>
</g>
<!-- doctrine/annotations&#45;&gt;doctrine/lexer -->
<g id="edge16" class="edge">
<title>doctrine/annotations&#45;&gt;doctrine/lexer</title>
<path fill="none" stroke="#000000" d="M2171.97,-194.78C2159.85,-179.22 2147.13,-156.45 2160.51,-141 2163.1,-138.01 2244.33,-126.73 2312.16,-117.77"/>
<polygon fill="#000000" stroke="#000000" points="2313.03,-121.19 2322.49,-116.41 2312.12,-114.25 2313.03,-121.19"/>
<text text-anchor="middle" x="2171.01" y="-155.3" font-family="Times,serif" font-size="14.00" fill="#000000">1.*</text>
</g>
<!-- ext&#45;tokenizer -->
<g id="node19" class="node">
<title>ext&#45;tokenizer</title>
<path fill="#eeeeff" stroke="#000000" d="M2122.01,-123C2122.01,-123 2037.01,-123 2037.01,-123 2031.01,-123 2025.01,-117 2025.01,-111 2025.01,-111 2025.01,-99 2025.01,-99 2025.01,-93 2031.01,-87 2037.01,-87 2037.01,-87 2122.01,-87 2122.01,-87 2128.01,-87 2134.01,-93 2134.01,-99 2134.01,-99 2134.01,-111 2134.01,-111 2134.01,-117 2128.01,-123 2122.01,-123"/>
<text text-anchor="middle" x="2079.51" y="-101.3" font-family="Times,serif" font-size="14.00" fill="#000000">ext&#45;tokenizer</text>
</g>
<!-- doctrine/annotations&#45;&gt;ext&#45;tokenizer -->
<g id="edge17" class="edge">
<title>doctrine/annotations&#45;&gt;ext&#45;tokenizer</title>
<path fill="none" stroke="#000000" d="M2132.61,-194.9C2123.4,-190.2 2114.56,-184.31 2107.51,-177 2095.97,-165.02 2089.01,-147.72 2084.92,-133.2"/>
<polygon fill="#000000" stroke="#000000" points="2088.25,-132.07 2082.42,-123.22 2081.46,-133.78 2088.25,-132.07"/>
<text text-anchor="middle" x="2111.01" y="-155.3" font-family="Times,serif" font-size="14.00" fill="#000000">*</text>
</g>
<!-- doctrine/annotations&#45;&gt;psr/cache -->
<g id="edge19" class="edge">
<title>doctrine/annotations&#45;&gt;psr/cache</title>
<path fill="none" stroke="#000000" d="M2186.34,-194.73C2186.26,-178.22 2189.08,-153.97 2204.51,-141 2229.14,-120.3 2461.55,-126.73 2493.51,-123 2501.12,-122.11 2509.04,-121.03 2516.93,-119.84"/>
<polygon fill="#000000" stroke="#000000" points="2517.55,-123.29 2526.89,-118.29 2516.47,-116.37 2517.55,-123.29"/>
<text text-anchor="middle" x="2251.51" y="-155.3" font-family="Times,serif" font-size="14.00" fill="#000000">^1 || ^2 || ^3</text>
</g>
<!-- doctrine/lexer&#45;&gt;php -->
<g id="edge24" class="edge">
<title>doctrine/lexer&#45;&gt;php</title>
<path fill="none" stroke="#000000" d="M2484.69,-86.98C2536.31,-76.53 2604.65,-63.41 2665.51,-54 2757.69,-39.75 2866.85,-28.17 2923,-22.6"/>
<polygon fill="#000000" stroke="#000000" points="2923.57,-26.06 2933.17,-21.59 2922.88,-19.09 2923.57,-26.06"/>
<text text-anchor="middle" x="2708.01" y="-57.8" font-family="Times,serif" font-size="14.00" fill="#000000">^7.2 || ^8.0</text>
</g>
<!-- psr/cache&#45;&gt;php -->
<g id="edge41" class="edge">
<title>psr/cache&#45;&gt;php</title>
<path fill="none" stroke="#000000" d="M2658.3,-88.8C2735.66,-70.94 2861.35,-41.9 2923.42,-27.57"/>
<polygon fill="#000000" stroke="#000000" points="2924.22,-30.98 2933.17,-25.31 2922.64,-24.15 2924.22,-30.98"/>
<text text-anchor="middle" x="2829.01" y="-57.8" font-family="Times,serif" font-size="14.00" fill="#000000">&gt;=8.0.0</text>
</g>
<!-- doctrine/cache -->
<g id="node21" class="node">
<title>doctrine/cache</title>
<path fill="#ffffff" stroke="#000000" d="M2921.01,-177C2921.01,-177 2778.01,-177 2778.01,-177 2772.01,-177 2766.01,-171 2766.01,-165 2766.01,-165 2766.01,-153 2766.01,-153 2766.01,-147 2772.01,-141 2778.01,-141 2778.01,-141 2921.01,-141 2921.01,-141 2927.01,-141 2933.01,-147 2933.01,-153 2933.01,-153 2933.01,-165 2933.01,-165 2933.01,-171 2927.01,-177 2921.01,-177"/>
<text text-anchor="middle" x="2849.51" y="-155.3" font-family="Times,serif" font-size="14.00" fill="#000000">doctrine/cache: 2.1.1</text>
</g>
<!-- doctrine/cache&#45;&gt;php -->
<g id="edge20" class="edge">
<title>doctrine/cache&#45;&gt;php</title>
<path fill="none" stroke="#000000" d="M2894.67,-140.91C2906.62,-135.74 2919.32,-129.65 2930.51,-123 2952.83,-109.74 2952.65,-97.23 2976.51,-87 3010.99,-72.23 3160.5,-95.94 3143.51,-62.5"/>
<text text-anchor="middle" x="3019.01" y="-101.3" font-family="Times,serif" font-size="14.00" fill="#000000">~7.1 || ^8.0</text>
</g>
<!-- doctrine/collections -->
<g id="node22" class="node">
<title>doctrine/collections</title>
<path fill="#ffffff" stroke="#000000" d="M2517.01,-177C2517.01,-177 2340.01,-177 2340.01,-177 2334.01,-177 2328.01,-171 2328.01,-165 2328.01,-165 2328.01,-153 2328.01,-153 2328.01,-147 2334.01,-141 2340.01,-141 2340.01,-141 2517.01,-141 2517.01,-141 2523.01,-141 2529.01,-147 2529.01,-153 2529.01,-153 2529.01,-165 2529.01,-165 2529.01,-171 2523.01,-177 2517.01,-177"/>
<text text-anchor="middle" x="2428.51" y="-155.3" font-family="Times,serif" font-size="14.00" fill="#000000">doctrine/collections: 1.6.8</text>
</g>
<!-- doctrine/collections&#45;&gt;php -->
<g id="edge21" class="edge">
<title>doctrine/collections&#45;&gt;php</title>
<path fill="none" stroke="#000000" d="M2529.24,-141.49C2530.33,-141.33 2531.43,-141.16 2532.51,-141 2591.95,-132.15 2610.38,-144.45 2666.51,-123 2693.11,-112.83 2692.55,-96.15 2719.51,-87 2764.2,-71.83 3164.33,-104.85 3143.51,-62.5"/>
<path fill="none" stroke="#000000" d="M3143.51,-60.5C3130.73,-34.5 3047.39,-24.6 2997.69,-20.97"/>
<polygon fill="#000000" stroke="#000000" points="2997.85,-17.48 2987.63,-20.29 2997.37,-24.46 2997.85,-17.48"/>
<text text-anchor="middle" x="2768.51" y="-101.3" font-family="Times,serif" font-size="14.00" fill="#000000">^7.1.3 || ^8.0</text>
</g>
<!-- doctrine/deprecations -->
<g id="node23" class="node">
<title>doctrine/deprecations</title>
<path fill="#ffffff" stroke="#000000" d="M2748.51,-177C2748.51,-177 2546.51,-177 2546.51,-177 2540.51,-177 2534.51,-171 2534.51,-165 2534.51,-165 2534.51,-153 2534.51,-153 2534.51,-147 2540.51,-141 2546.51,-141 2546.51,-141 2748.51,-141 2748.51,-141 2754.51,-141 2760.51,-147 2760.51,-153 2760.51,-153 2760.51,-165 2760.51,-165 2760.51,-171 2754.51,-177 2748.51,-177"/>
<text text-anchor="middle" x="2647.51" y="-155.3" font-family="Times,serif" font-size="14.00" fill="#000000">doctrine/deprecations: v0.5.3</text>
</g>
<!-- doctrine/deprecations&#45;&gt;php -->
<g id="edge22" class="edge">
<title>doctrine/deprecations&#45;&gt;php</title>
<path fill="none" stroke="#000000" d="M2760.59,-140.93C2786.61,-135.71 2810.02,-129.6 2821.51,-123 2840.07,-112.34 2834.37,-96.58 2853.51,-87 2882.43,-72.52 3157.77,-91.52 3143.51,-62.5"/>
<text text-anchor="middle" x="2890.01" y="-101.3" font-family="Times,serif" font-size="14.00" fill="#000000">^7.1|^8.0</text>
</g>
<!-- doctrine/event&#45;manager&#45;&gt;php -->
<g id="edge23" class="edge">
<title>doctrine/event&#45;manager&#45;&gt;php</title>
<path fill="none" stroke="#000000" d="M2890.37,-196.79C2905.9,-191.89 2921.08,-185.46 2934.51,-177 2951.66,-166.2 2945.18,-151.5 2962.51,-141 3000.76,-117.82 3024.63,-148.29 3061.51,-123 3076.98,-112.4 3069.23,-99.15 3083.51,-87 3105.45,-68.33 3156.65,-88.13 3143.51,-62.5"/>
<text text-anchor="middle" x="3126.01" y="-101.3" font-family="Times,serif" font-size="14.00" fill="#000000">^7.1 || ^8.0</text>
</g>
<!-- doctrine/persistence&#45;&gt;php -->
<g id="edge30" class="edge">
<title>doctrine/persistence&#45;&gt;php</title>
<path fill="none" stroke="#000000" d="M2363.28,-308.07C2325.6,-302.34 2288.41,-294.61 2272.51,-285 2255.16,-274.51 2262.24,-258.83 2244.51,-249 2176.13,-211.1 2141.53,-261.43 2069.51,-231 2046.55,-221.3 2046.59,-209.77 2026.51,-195 2014.59,-186.23 2005.78,-189.88 1998.51,-177 1983,-149.51 1973.62,-127.74 1996.51,-106"/>
<text text-anchor="middle" x="2041.01" y="-155.3" font-family="Times,serif" font-size="14.00" fill="#000000">^7.1 || ^8.0</text>
</g>
<!-- doctrine/persistence&#45;&gt;doctrine/annotations -->
<g id="edge25" class="edge">
<title>doctrine/persistence&#45;&gt;doctrine/annotations</title>
<path fill="none" stroke="#000000" d="M2416.85,-302.85C2406.81,-298.05 2396.82,-292.14 2388.51,-285 2374.11,-272.63 2381.2,-259.69 2365.51,-249 2354.72,-241.65 2332.25,-235.39 2306.8,-230.28"/>
<polygon fill="#000000" stroke="#000000" points="2307.4,-226.83 2296.92,-228.38 2306.07,-233.71 2307.4,-226.83"/>
<text text-anchor="middle" x="2406.01" y="-263.3" font-family="Times,serif" font-size="14.00" fill="#000000">^1.0</text>
</g>
<!-- doctrine/persistence&#45;&gt;psr/cache -->
<g id="edge31" class="edge">
<title>doctrine/persistence&#45;&gt;psr/cache</title>
<path fill="none" stroke="#000000" d="M2460.86,-302.71C2453.84,-286.66 2441.33,-263.17 2423.51,-249 2404.04,-233.52 2390.95,-245.18 2370.51,-231 2368.42,-229.55 2311.51,-162.34 2312.51,-160"/>
<text text-anchor="middle" x="2425.51" y="-209.3" font-family="Times,serif" font-size="14.00" fill="#000000">^1.0|^2.0|^3.0</text>
</g>
<!-- doctrine/persistence&#45;&gt;doctrine/cache -->
<g id="edge26" class="edge">
<title>doctrine/persistence&#45;&gt;doctrine/cache</title>
<path fill="none" stroke="#000000" d="M2571.64,-304.95C2584.26,-300.02 2596.29,-293.53 2606.51,-285 2640.27,-256.85 2612.52,-221.6 2647.51,-195 2685.71,-165.96 2707.99,-183.26 2755.49,-177.75"/>
<polygon fill="#000000" stroke="#000000" points="2756.29,-181.17 2765.68,-176.26 2755.28,-174.24 2756.29,-181.17"/>
<text text-anchor="middle" x="2672.51" y="-263.3" font-family="Times,serif" font-size="14.00" fill="#000000">^1.11 || ^2.0</text>
</g>
<!-- doctrine/persistence&#45;&gt;doctrine/collections -->
<g id="edge27" class="edge">
<title>doctrine/persistence&#45;&gt;doctrine/collections</title>
<path fill="none" stroke="#000000" d="M2476.17,-302.61C2487.45,-277.27 2503.62,-229.48 2484.51,-195 2482.14,-190.71 2478.99,-186.88 2475.4,-183.47"/>
<polygon fill="#000000" stroke="#000000" points="2477.48,-180.65 2467.51,-177.06 2473.07,-186.09 2477.48,-180.65"/>
<text text-anchor="middle" x="2510.01" y="-263.3" font-family="Times,serif" font-size="14.00" fill="#000000">^1.0</text>
</g>
<!-- doctrine/persistence&#45;&gt;doctrine/deprecations -->
<g id="edge28" class="edge">
<title>doctrine/persistence&#45;&gt;doctrine/deprecations</title>
<path fill="none" stroke="#000000" d="M2505.23,-302.99C2514.36,-297.93 2523.72,-291.87 2531.51,-285 2546.31,-271.94 2544.67,-263.99 2557.51,-249 2577.4,-225.78 2602.25,-201.51 2620.8,-184.19"/>
<polygon fill="#000000" stroke="#000000" points="2623.37,-186.58 2628.33,-177.22 2618.61,-181.45 2623.37,-186.58"/>
<text text-anchor="middle" x="2582.01" y="-263.3" font-family="Times,serif" font-size="14.00" fill="#000000">^0.5.3</text>
</g>
<!-- doctrine/persistence&#45;&gt;doctrine/event&#45;manager -->
<g id="edge29" class="edge">
<title>doctrine/persistence&#45;&gt;doctrine/event&#45;manager</title>
<path fill="none" stroke="#000000" d="M2571.62,-314.58C2631.03,-309.79 2698.52,-300.98 2723.51,-285 2739.51,-274.77 2735.59,-264.53 2746.51,-249 2748.72,-245.86 2751.09,-242.62 2753.48,-239.43"/>
<polygon fill="#000000" stroke="#000000" points="2756.46,-241.29 2759.74,-231.22 2750.89,-237.05 2756.46,-241.29"/>
<text text-anchor="middle" x="2764.01" y="-263.3" font-family="Times,serif" font-size="14.00" fill="#000000">^1.0</text>
</g>
<!-- friendsofphp/proxy&#45;manager&#45;lts&#45;&gt;php -->
<g id="edge33" class="edge">
<title>friendsofphp/proxy&#45;manager&#45;lts&#45;&gt;php</title>
<path fill="none" stroke="#000000" d="M3174.42,-302.83C3185.74,-297.87 3197.41,-291.9 3207.51,-285 3263.06,-247.08 3280.94,-235.84 3313.51,-177 3321.37,-162.81 3343.82,-115.28 3330.51,-106"/>
<path fill="none" stroke="#000000" d="M3330.51,-104C3311.87,-90.44 3303.82,-92.81 3281.51,-87 3251.37,-79.15 3158.03,-90.06 3143.51,-62.5"/>
<text text-anchor="middle" x="3352.51" y="-155.3" font-family="Times,serif" font-size="14.00" fill="#000000">&gt;=7.1</text>
</g>
<!-- laminas/laminas&#45;code -->
<g id="node27" class="node">
<title>laminas/laminas&#45;code</title>
<path fill="#ffffff" stroke="#000000" d="M3167.51,-177C3167.51,-177 2975.51,-177 2975.51,-177 2969.51,-177 2963.51,-171 2963.51,-165 2963.51,-165 2963.51,-153 2963.51,-153 2963.51,-147 2969.51,-141 2975.51,-141 2975.51,-141 3167.51,-141 3167.51,-141 3173.51,-141 3179.51,-147 3179.51,-153 3179.51,-153 3179.51,-165 3179.51,-165 3179.51,-171 3173.51,-177 3167.51,-177"/>
<text text-anchor="middle" x="3071.51" y="-155.3" font-family="Times,serif" font-size="14.00" fill="#000000">laminas/laminas&#45;code: 4.4.3</text>
</g>
<!-- friendsofphp/proxy&#45;manager&#45;lts&#45;&gt;laminas/laminas&#45;code -->
<g id="edge32" class="edge">
<title>friendsofphp/proxy&#45;manager&#45;lts&#45;&gt;laminas/laminas&#45;code</title>
<path fill="none" stroke="#000000" d="M3121.52,-302.91C3117.99,-288.43 3112.5,-267.18 3106.51,-249 3099.52,-227.78 3090.21,-204.27 3082.95,-186.75"/>
<polygon fill="#000000" stroke="#000000" points="3086.03,-185.05 3078.94,-177.18 3079.58,-187.76 3086.03,-185.05"/>
<text text-anchor="middle" x="3160.51" y="-263.3" font-family="Times,serif" font-size="14.00" fill="#000000">~3.4.1|^4.0</text>
</g>
<!-- symfony/filesystem -->
<g id="node28" class="node">
<title>symfony/filesystem</title>
<path fill="#ffeeee" stroke="#000000" d="M3051.01,-231C3051.01,-231 2920.01,-231 2920.01,-231 2914.01,-231 2908.01,-225 2908.01,-219 2908.01,-219 2908.01,-207 2908.01,-207 2908.01,-201 2914.01,-195 2920.01,-195 2920.01,-195 3051.01,-195 3051.01,-195 3057.01,-195 3063.01,-201 3063.01,-207 3063.01,-207 3063.01,-219 3063.01,-219 3063.01,-225 3057.01,-231 3051.01,-231"/>
<text text-anchor="middle" x="2985.51" y="-209.3" font-family="Times,serif" font-size="14.00" fill="#000000">symfony/filesystem</text>
</g>
<!-- friendsofphp/proxy&#45;manager&#45;lts&#45;&gt;symfony/filesystem -->
<g id="edge34" class="edge">
<title>friendsofphp/proxy&#45;manager&#45;lts&#45;&gt;symfony/filesystem</title>
<path fill="none" stroke="#000000" d="M3010,-302.96C2993.05,-298.22 2979.33,-292.31 2973.51,-285 2963.64,-272.6 2966.49,-255.08 2971.88,-240.54"/>
<polygon fill="#000000" stroke="#000000" points="2975.22,-241.63 2975.89,-231.05 2968.77,-238.9 2975.22,-241.63"/>
<text text-anchor="middle" x="3040.01" y="-263.3" font-family="Times,serif" font-size="14.00" fill="#000000">^4.4.17|^5.0|^6.0</text>
</g>
<!-- laminas/laminas&#45;code&#45;&gt;php -->
<g id="edge37" class="edge">
<title>laminas/laminas&#45;code&#45;&gt;php</title>
<path fill="none" stroke="#000000" d="M3152.48,-140.89C3160.28,-136.26 3167.24,-130.41 3172.51,-123 3181.79,-109.96 3179.25,-101.51 3172.51,-87 3165.41,-71.7 3151.41,-77.41 3143.51,-62.5"/>
<text text-anchor="middle" x="3228.51" y="-101.3" font-family="Times,serif" font-size="14.00" fill="#000000">^7.4 || ~8.0.0</text>
</g>
<!-- symfony/filesystem&#45;&gt;symfony/symfony -->
<g id="edge107" class="edge">
<title>symfony/filesystem&#45;&gt;symfony/symfony</title>
<path fill="none" stroke="#cc7777" d="M2966.11,-231.12C2934.5,-258.11 2868.92,-310.43 2804.51,-339 2708.53,-381.58 2678.34,-377.33 2574.51,-393 2437.94,-413.61 2278.82,-422.1 2175.79,-425.59"/>
<polygon fill="#cc7777" stroke="#cc7777" points="2175.57,-422.09 2165.69,-425.92 2175.8,-429.09 2175.57,-422.09"/>
<text text-anchor="middle" x="2911.01" y="-317.3" font-family="Times,serif" font-size="14.00" fill="#cc7777">self.version</text>
</g>
<!-- psr/http&#45;factory&#45;&gt;php -->
<g id="edge44" class="edge">
<title>psr/http&#45;factory&#45;&gt;php</title>
<path fill="none" stroke="#000000" d="M3989.89,-194.75C3996.05,-189.82 4001.78,-183.88 4005.51,-177 4024.61,-141.81 4033.16,-119.31 4009.51,-87 3980.87,-47.87 3953.29,-62.31 3905.51,-54 3726.43,-22.86 3150.11,-19.41 2997.75,-19.04"/>
<polygon fill="#000000" stroke="#000000" points="2997.53,-15.54 2987.52,-19.02 2997.51,-22.54 2997.53,-15.54"/>
<text text-anchor="middle" x="4053.01" y="-101.3" font-family="Times,serif" font-size="14.00" fill="#000000">&gt;=7.0.0</text>
</g>
<!-- psr/http&#45;factory&#45;&gt;psr/http&#45;message -->
<g id="edge45" class="edge">
<title>psr/http&#45;factory&#45;&gt;psr/http&#45;message</title>
<path fill="none" stroke="#000000" d="M3964.21,-194.83C3967.34,-179.73 3969.45,-157.61 3960.51,-141 3958.22,-136.73 3955.15,-132.9 3951.64,-129.48"/>
<polygon fill="#000000" stroke="#000000" points="3953.84,-126.76 3943.92,-123.02 3949.35,-132.12 3953.84,-126.76"/>
<text text-anchor="middle" x="3984.01" y="-155.3" font-family="Times,serif" font-size="14.00" fill="#000000">^1.0</text>
</g>
<!-- psr/http&#45;message&#45;&gt;php -->
<g id="edge46" class="edge">
<title>psr/http&#45;message&#45;&gt;php</title>
<path fill="none" stroke="#000000" d="M3879.14,-86.95C3858.2,-75.33 3828.6,-60.86 3800.51,-54 3645.21,-16.1 3140.69,-17.43 2998.26,-18.61"/>
<polygon fill="#000000" stroke="#000000" points="2997.85,-15.11 2987.88,-18.7 2997.91,-22.11 2997.85,-15.11"/>
<text text-anchor="middle" x="3872.01" y="-57.8" font-family="Times,serif" font-size="14.00" fill="#000000">&gt;=5.3.0</text>
</g>
<!-- psr/container&#45;&gt;php -->
<g id="edge42" class="edge">
<title>psr/container&#45;&gt;php</title>
<path fill="none" stroke="#000000" d="M4154.22,-86.91C4126.13,-75.27 4086.73,-60.79 4050.51,-54 3842.24,-14.95 3164.87,-17.43 2997.94,-18.67"/>
<polygon fill="#000000" stroke="#000000" points="2997.67,-15.17 2987.7,-18.75 2997.72,-22.17 2997.67,-15.17"/>
<text text-anchor="middle" x="4135.01" y="-57.8" font-family="Times,serif" font-size="14.00" fill="#000000">&gt;=7.2.0</text>
</g>
<!-- psr/event&#45;dispatcher&#45;&gt;php -->
<g id="edge43" class="edge">
<title>psr/event&#45;dispatcher&#45;&gt;php</title>
<path fill="none" stroke="#000000" d="M3548.73,-88.89C3543.92,-88.24 3539.17,-87.61 3534.51,-87 3332.31,-60.58 3089.45,-33.26 2997.88,-23.11"/>
<polygon fill="#000000" stroke="#000000" points="2998.05,-19.61 2987.73,-21.99 2997.28,-26.57 2998.05,-19.61"/>
<text text-anchor="middle" x="3407.01" y="-57.8" font-family="Times,serif" font-size="14.00" fill="#000000">&gt;=7.2.0</text>
</g>
<!-- psr/link&#45;&gt;php -->
<g id="edge47" class="edge">
<title>psr/link&#45;&gt;php</title>
<path fill="none" stroke="#000000" d="M3407.67,-248.65C3404.14,-218.38 3395.62,-157.52 3382.51,-141 3370.9,-126.36 3359.25,-134.49 3344.51,-123 3336.79,-116.98 3338.68,-111.4 3330.51,-106"/>
<text text-anchor="middle" x="3426.01" y="-155.3" font-family="Times,serif" font-size="14.00" fill="#000000">&gt;=8.0.0</text>
</g>
<!-- psr/log&#45;&gt;php -->
<g id="edge48" class="edge">
<title>psr/log&#45;&gt;php</title>
<path fill="none" stroke="#000000" d="M3468.71,-142.1C3467.29,-141.73 3465.89,-141.36 3464.51,-141 3431.76,-132.46 3420.97,-137.76 3390.51,-123 3367.15,-111.68 3368.5,-96.93 3344.51,-87 3302.94,-69.78 3163.36,-102.88 3143.51,-62.5"/>
<text text-anchor="middle" x="3420.01" y="-101.3" font-family="Times,serif" font-size="14.00" fill="#000000">&gt;=8.0.0</text>
</g>
<!-- symfony/contracts&#45;&gt;php -->
<g id="edge49" class="edge">
<title>symfony/contracts&#45;&gt;php</title>
<path fill="none" stroke="#000000" d="M3605.81,-194.96C3604.17,-178.63 3599.06,-154.51 3583.51,-141 3548.43,-110.52 3520.92,-145.95 3480.51,-123 3462.15,-112.57 3468.34,-96.56 3449.51,-87 3419.1,-71.56 3159.07,-92.85 3143.51,-62.5"/>
<text text-anchor="middle" x="3510.01" y="-101.3" font-family="Times,serif" font-size="14.00" fill="#000000">&gt;=7.2.5</text>
</g>
<!-- symfony/contracts&#45;&gt;psr/cache -->
<g id="edge50" class="edge">
<title>symfony/contracts&#45;&gt;psr/cache</title>
<path fill="none" stroke="#000000" d="M3505.83,-207.88C3394.91,-202.61 3228.78,-192.3 3203.51,-177 3187.27,-167.17 3196.99,-150.43 3180.51,-141 3133.9,-114.33 2750.95,-128.3 2697.51,-123 2688.03,-122.06 2678.11,-120.81 2668.31,-119.41"/>
<polygon fill="#000000" stroke="#000000" points="2668.57,-115.91 2658.16,-117.9 2667.54,-122.83 2668.57,-115.91"/>
<text text-anchor="middle" x="3258.51" y="-155.3" font-family="Times,serif" font-size="14.00" fill="#000000">^1.0|^2.0|^3.0</text>
</g>
<!-- symfony/contracts&#45;&gt;psr/container -->
<g id="edge51" class="edge">
<title>symfony/contracts&#45;&gt;psr/container</title>
<path fill="none" stroke="#000000" d="M3637.07,-194.93C3646.62,-189.4 3657.11,-183.11 3666.51,-177 3689.48,-162.08 3690.65,-150.02 3716.51,-141 3796.97,-112.95 4014.86,-132.68 4099.51,-123 4100.8,-122.85 4102.09,-122.7 4103.39,-122.54"/>
<polygon fill="#000000" stroke="#000000" points="4104.02,-125.99 4113.47,-121.19 4103.1,-119.05 4104.02,-125.99"/>
<text text-anchor="middle" x="3734.01" y="-155.3" font-family="Times,serif" font-size="14.00" fill="#000000">^1.1</text>
</g>
<!-- symfony/contracts&#45;&gt;psr/event&#45;dispatcher -->
<g id="edge52" class="edge">
<title>symfony/contracts&#45;&gt;psr/event&#45;dispatcher</title>
<path fill="none" stroke="#000000" d="M3611.35,-194.93C3615.77,-180.28 3622.93,-158.77 3631.51,-141 3632.98,-137.96 3634.65,-134.86 3636.4,-131.82"/>
<polygon fill="#000000" stroke="#000000" points="3639.55,-133.37 3641.76,-123.01 3633.57,-129.73 3639.55,-133.37"/>
<text text-anchor="middle" x="3649.01" y="-155.3" font-family="Times,serif" font-size="14.00" fill="#000000">^1.0</text>
</g>
<!-- symfony/polyfill&#45;ctype&#45;&gt;symfony/polyfill -->
<g id="edge97" class="edge">
<title>symfony/polyfill&#45;ctype&#45;&gt;symfony/polyfill</title>
<path fill="none" stroke="#cc7777" d="M888.51,-194.97C888.51,-178.38 888.51,-152.88 888.51,-133.43"/>
<polygon fill="#cc7777" stroke="#cc7777" points="892.01,-133.34 888.51,-123.34 885.01,-133.34 892.01,-133.34"/>
<text text-anchor="middle" x="930.01" y="-155.3" font-family="Times,serif" font-size="14.00" fill="#cc7777">self.version</text>
</g>
<!-- symfony/polyfill&#45;intl&#45;grapheme&#45;&gt;symfony/polyfill -->
<g id="edge98" class="edge">
<title>symfony/polyfill&#45;intl&#45;grapheme&#45;&gt;symfony/polyfill</title>
<path fill="none" stroke="#cc7777" d="M1766.35,-249.51C1765.06,-249.34 1763.78,-249.17 1762.51,-249 1699.45,-240.61 1677.63,-259 1620.51,-231 1600.19,-221.04 1604.34,-205.9 1584.51,-195 1521.85,-160.58 1479.8,-208.76 1427.51,-160"/>
<text text-anchor="middle" x="1662.01" y="-209.3" font-family="Times,serif" font-size="14.00" fill="#cc7777">self.version</text>
</g>
<!-- symfony/polyfill&#45;intl&#45;icu&#45;&gt;symfony/polyfill -->
<g id="edge99" class="edge">
<title>symfony/polyfill&#45;intl&#45;icu&#45;&gt;symfony/polyfill</title>
<path fill="none" stroke="#cc7777" d="M1576.36,-248.98C1541.68,-242.14 1508.81,-234.95 1501.51,-231 1481.61,-220.23 1481.84,-210.67 1465.51,-195 1448.95,-179.1 1444.05,-175.92 1427.51,-160"/>
<text text-anchor="middle" x="1543.01" y="-209.3" font-family="Times,serif" font-size="14.00" fill="#cc7777">self.version</text>
</g>
<!-- symfony/polyfill&#45;intl&#45;idn&#45;&gt;symfony/polyfill -->
<g id="edge100" class="edge">
<title>symfony/polyfill&#45;intl&#45;idn&#45;&gt;symfony/polyfill</title>
<path fill="none" stroke="#cc7777" d="M2007.35,-249.48C2006.07,-249.31 2004.78,-249.15 2003.51,-249 1945.14,-241.91 1793.04,-255.34 1739.51,-231 1718.91,-221.63 1723.83,-204.96 1703.51,-195 1592.48,-140.58 1519.25,-242.9 1427.51,-160"/>
<text text-anchor="middle" x="1781.01" y="-209.3" font-family="Times,serif" font-size="14.00" fill="#cc7777">self.version</text>
</g>
<!-- symfony/polyfill&#45;intl&#45;normalizer&#45;&gt;symfony/polyfill -->
<g id="edge101" class="edge">
<title>symfony/polyfill&#45;intl&#45;normalizer&#45;&gt;symfony/polyfill</title>
<path fill="none" stroke="#cc7777" d="M1093.39,-248.8C1110.81,-228.85 1138.1,-198.27 1144.51,-195 1200.94,-166.16 1471,-206.09 1427.51,-160"/>
<text text-anchor="middle" x="1186.01" y="-209.3" font-family="Times,serif" font-size="14.00" fill="#cc7777">self.version</text>
</g>
<!-- symfony/polyfill&#45;mbstring&#45;&gt;symfony/polyfill -->
<g id="edge102" class="edge">
<title>symfony/polyfill&#45;mbstring&#45;&gt;symfony/polyfill</title>
<path fill="none" stroke="#cc7777" d="M709.09,-194.99C732.55,-179.77 768.55,-157.41 801.51,-141 811.44,-136.05 822.25,-131.26 832.76,-126.89"/>
<polygon fill="#cc7777" stroke="#cc7777" points="834.36,-130.02 842.3,-123 831.72,-123.54 834.36,-130.02"/>
<text text-anchor="middle" x="843.01" y="-155.3" font-family="Times,serif" font-size="14.00" fill="#cc7777">self.version</text>
</g>
<!-- symfony/polyfill&#45;php73&#45;&gt;symfony/polyfill -->
<g id="edge103" class="edge">
<title>symfony/polyfill&#45;php73&#45;&gt;symfony/polyfill</title>
<path fill="none" stroke="#cc7777" d="M941.34,-248.92C956.15,-244.19 971.17,-238.29 984.51,-231 1005.79,-219.37 1003.21,-204.53 1025.51,-195 1107.97,-159.78 1487.98,-226.21 1427.51,-160"/>
<path fill="none" stroke="#cc7777" d="M1427.51,-158C1398.52,-127.27 1144.52,-114.06 995.78,-108.91"/>
<polygon fill="#cc7777" stroke="#cc7777" points="995.81,-105.41 985.69,-108.57 995.57,-112.41 995.81,-105.41"/>
<text text-anchor="middle" x="1067.01" y="-209.3" font-family="Times,serif" font-size="14.00" fill="#cc7777">self.version</text>
</g>
<!-- symfony/polyfill&#45;php80&#45;&gt;symfony/polyfill -->
<g id="edge104" class="edge">
<title>symfony/polyfill&#45;php80&#45;&gt;symfony/polyfill</title>
<path fill="none" stroke="#cc7777" d="M1274.93,-248.83C1270.3,-243.62 1265.99,-237.53 1263.51,-231 1257.84,-216.04 1253.45,-207.44 1263.51,-195 1310.39,-137.06 1479.52,-213.38 1427.51,-160"/>
<text text-anchor="middle" x="1305.01" y="-209.3" font-family="Times,serif" font-size="14.00" fill="#cc7777">self.version</text>
</g>
<!-- symfony/polyfill&#45;php81&#45;&gt;symfony/polyfill -->
<g id="edge105" class="edge">
<title>symfony/polyfill&#45;php81&#45;&gt;symfony/polyfill</title>
<path fill="none" stroke="#cc7777" d="M1402.37,-248.83C1394.62,-244.22 1387.71,-238.38 1382.51,-231 1373.29,-217.92 1375.48,-209.37 1382.51,-195 1393.64,-172.24 1445.48,-177.86 1427.51,-160"/>
<text text-anchor="middle" x="1424.01" y="-209.3" font-family="Times,serif" font-size="14.00" fill="#cc7777">self.version</text>
</g>
<!-- symfony/polyfill&#45;uuid&#45;&gt;symfony/polyfill -->
<g id="edge106" class="edge">
<title>symfony/polyfill&#45;uuid&#45;&gt;symfony/polyfill</title>
<path fill="none" stroke="#cc7777" d="M2190.61,-302.8C2199.39,-286.81 2208.12,-263.36 2194.51,-249 2168.79,-221.87 1892.66,-246.23 1858.51,-231 1837.85,-221.78 1843.01,-204.57 1822.51,-195 1742.67,-157.71 1493.8,-218.07 1427.51,-160"/>
<text text-anchor="middle" x="1900.01" y="-209.3" font-family="Times,serif" font-size="14.00" fill="#cc7777">self.version</text>
</g>
<!-- twig/twig&#45;&gt;php -->
<g id="edge76" class="edge">
<title>twig/twig&#45;&gt;php</title>
<path fill="none" stroke="#000000" d="M737.79,-304.99C698.71,-296.35 656.71,-286.85 652.51,-285 613.92,-268.02 596.84,-266.77 574.51,-231 544.75,-183.33 531.93,-157.01 555.51,-106"/>
<text text-anchor="middle" x="577.01" y="-155.3" font-family="Times,serif" font-size="14.00" fill="#000000">&gt;=7.2.5</text>
</g>
<!-- twig/twig&#45;&gt;symfony/polyfill&#45;ctype -->
<g id="edge77" class="edge">
<title>twig/twig&#45;&gt;symfony/polyfill&#45;ctype</title>
<path fill="none" stroke="#000000" d="M740.29,-302.94C725.14,-297.66 712.12,-291.51 707.51,-285 698.27,-271.94 697.33,-261.34 707.51,-249 709.05,-247.14 749.31,-239.26 791.47,-231.45"/>
<polygon fill="#000000" stroke="#000000" points="792.14,-234.89 801.33,-229.63 790.87,-228.01 792.14,-234.89"/>
<text text-anchor="middle" x="725.01" y="-263.3" font-family="Times,serif" font-size="14.00" fill="#000000">^1.8</text>
</g>
<!-- twig/twig&#45;&gt;symfony/polyfill&#45;mbstring -->
<g id="edge78" class="edge">
<title>twig/twig&#45;&gt;symfony/polyfill&#45;mbstring</title>
<path fill="none" stroke="#000000" d="M737.92,-304.4C701.05,-295.86 662.83,-286.67 661.51,-285 651.26,-271.99 656.82,-254.17 664.92,-239.64"/>
<polygon fill="#000000" stroke="#000000" points="667.91,-241.45 670.16,-231.1 661.95,-237.79 667.91,-241.45"/>
<text text-anchor="middle" x="679.01" y="-263.3" font-family="Times,serif" font-size="14.00" fill="#000000">^1.3</text>
</g>
<!-- container&#45;interop/container&#45;interop -->
<g id="node48" class="node">
<title>container&#45;interop/container&#45;interop</title>
<path fill="#eeeeee" stroke="#777777" d="M4511.51,-231C4511.51,-231 4223.51,-231 4223.51,-231 4217.51,-231 4211.51,-225 4211.51,-219 4211.51,-219 4211.51,-207 4211.51,-207 4211.51,-201 4217.51,-195 4223.51,-195 4223.51,-195 4511.51,-195 4511.51,-195 4517.51,-195 4523.51,-201 4523.51,-207 4523.51,-207 4523.51,-219 4523.51,-219 4523.51,-225 4517.51,-231 4511.51,-231"/>
<text text-anchor="middle" x="4367.51" y="-209.3" font-family="Times,serif" font-size="14.00" fill="#777777">container&#45;interop/container&#45;interop: 1.2.0</text>
</g>
<!-- container&#45;interop/container&#45;interop&#45;&gt;psr/container -->
<g id="edge79" class="edge">
<title>container&#45;interop/container&#45;interop&#45;&gt;psr/container</title>
<path fill="none" stroke="#777777" d="M4339.39,-194.97C4309.63,-176.94 4262.52,-148.4 4229.7,-128.53"/>
<polygon fill="#777777" stroke="#777777" points="4231.21,-125.35 4220.85,-123.16 4227.59,-131.34 4231.21,-125.35"/>
<text text-anchor="middle" x="4323.01" y="-155.3" font-family="Times,serif" font-size="14.00" fill="#777777">^1.0</text>
</g>
<!-- laminas/laminas&#45;servicemanager&#45;&gt;php -->
<g id="edge87" class="edge">
<title>laminas/laminas&#45;servicemanager&#45;&gt;php</title>
<path fill="none" stroke="#777777" d="M4447.1,-302.97C4477.09,-288.68 4514.62,-265.09 4532.51,-231 4539.95,-216.83 4542.74,-207.3 4532.51,-195 4504.48,-161.29 4463.55,-210.71 4435.51,-177 4415.32,-152.71 4412,-123.17 4438.51,-106"/>
<text text-anchor="middle" x="4523.01" y="-155.3" font-family="Times,serif" font-size="14.00" fill="#777777">~7.4.0 || ~8.0.0 || ~8.1.0</text>
</g>
<!-- laminas/laminas&#45;servicemanager&#45;&gt;psr/container -->
<g id="edge88" class="edge">
<title>laminas/laminas&#45;servicemanager&#45;&gt;psr/container</title>
<path fill="none" stroke="#777777" d="M4326.26,-302.94C4236.93,-279.46 4108.2,-231.75 4158.51,-160"/>
<text text-anchor="middle" x="4181.01" y="-209.3" font-family="Times,serif" font-size="14.00" fill="#777777">^1.0</text>
</g>
<!-- laminas/laminas&#45;servicemanager&#45;&gt;container&#45;interop/container&#45;interop -->
<g id="edge85" class="edge">
<title>laminas/laminas&#45;servicemanager&#45;&gt;container&#45;interop/container&#45;interop</title>
<path fill="none" stroke="#777777" d="M4397.73,-302.97C4392.04,-286.22 4383.27,-260.41 4376.64,-240.89"/>
<polygon fill="#777777" stroke="#777777" points="4379.93,-239.68 4373.4,-231.34 4373.3,-241.93 4379.93,-239.68"/>
<text text-anchor="middle" x="4408.01" y="-263.3" font-family="Times,serif" font-size="14.00" fill="#777777">^1.2</text>
</g>
<!-- laminas/laminas&#45;servicemanager&#45;&gt;laminas/laminas&#45;stdlib -->
<g id="edge86" class="edge">
<title>laminas/laminas&#45;servicemanager&#45;&gt;laminas/laminas&#45;stdlib</title>
<path fill="none" stroke="#777777" d="M4527.84,-302.86C4540.15,-298.21 4551.97,-292.36 4562.51,-285 4578.08,-274.13 4570.52,-260.65 4585.51,-249 4592.46,-243.6 4600.28,-239.01 4608.44,-235.12"/>
<polygon fill="#777777" stroke="#777777" points="4610.03,-238.25 4617.77,-231.02 4607.21,-231.84 4610.03,-238.25"/>
<text text-anchor="middle" x="4610.01" y="-263.3" font-family="Times,serif" font-size="14.00" fill="#777777">^3.2.1</text>
</g>
<!-- laminas/laminas&#45;stdlib&#45;&gt;php -->
<g id="edge89" class="edge">
<title>laminas/laminas&#45;stdlib&#45;&gt;php</title>
<path fill="none" stroke="#777777" d="M4664.73,-194.98C4657.19,-189.64 4649.22,-183.44 4642.51,-177 4627.89,-162.96 4630.66,-153.25 4614.51,-141 4597.68,-128.23 4582.29,-140.54 4570.51,-123 4561.59,-109.72 4560.01,-99.07 4570.51,-87 4596.28,-57.37 4760.81,-98.67 4745.51,-62.5"/>
<text text-anchor="middle" x="4651.01" y="-101.3" font-family="Times,serif" font-size="14.00" fill="#777777">^7.3 || ~8.0.0 || ~8.1.0</text>
</g>
<!-- laminas/laminas&#45;validator&#45;&gt;php -->
<g id="edge92" class="edge">
<title>laminas/laminas&#45;validator&#45;&gt;php</title>
<path fill="none" stroke="#777777" d="M4736.45,-302.96C4780.18,-278.86 4846.72,-233.44 4812.51,-195 4766.7,-143.52 4704.32,-228.48 4658.51,-177 4601.02,-112.4 4724.32,-130.3 4731.51,-123 4750.89,-103.34 4756.72,-87.72 4745.51,-62.5"/>
<text text-anchor="middle" x="4739.01" y="-155.3" font-family="Times,serif" font-size="14.00" fill="#777777">^7.3 || ~8.0.0 || ~8.1.0</text>
</g>
<!-- laminas/laminas&#45;validator&#45;&gt;container&#45;interop/container&#45;interop -->
<g id="edge90" class="edge">
<title>laminas/laminas&#45;validator&#45;&gt;container&#45;interop/container&#45;interop</title>
<path fill="none" stroke="#777777" d="M4675.57,-302.83C4668.56,-297.61 4661.34,-291.52 4655.51,-285 4643.17,-271.19 4649.94,-259.25 4634.51,-249 4624.81,-242.55 4582.22,-235.82 4533.8,-230.01"/>
<polygon fill="#777777" stroke="#777777" points="4534.07,-226.51 4523.72,-228.82 4533.25,-233.47 4534.07,-226.51"/>
<text text-anchor="middle" x="4673.01" y="-263.3" font-family="Times,serif" font-size="14.00" fill="#777777">^1.1</text>
</g>
<!-- laminas/laminas&#45;validator&#45;&gt;laminas/laminas&#45;stdlib -->
<g id="edge91" class="edge">
<title>laminas/laminas&#45;validator&#45;&gt;laminas/laminas&#45;stdlib</title>
<path fill="none" stroke="#777777" d="M4700.74,-302.97C4699.02,-286.38 4696.38,-260.88 4694.36,-241.43"/>
<polygon fill="#777777" stroke="#777777" points="4697.82,-240.93 4693.31,-231.34 4690.86,-241.65 4697.82,-240.93"/>
<text text-anchor="middle" x="4716.01" y="-263.3" font-family="Times,serif" font-size="14.00" fill="#777777">^3.6</text>
</g>
<!-- laminas/laminas&#45;zendframework&#45;bridge&#45;&gt;php -->
<g id="edge93" class="edge">
<title>laminas/laminas&#45;zendframework&#45;bridge&#45;&gt;php</title>
<path fill="none" stroke="#777777" d="M4850.92,-140.99C4835.12,-136.33 4819.67,-130.44 4805.51,-123 4788.75,-114.2 4752.59,-80.06 4745.51,-62.5"/>
<text text-anchor="middle" x="4886.01" y="-101.3" font-family="Times,serif" font-size="14.00" fill="#777777">^7.3 || ~8.0.0 || ~8.1.0</text>
</g>
</g>
</svg>
