<?xml version="1.0" encoding="UTF-8" standalone="no"?>
<!DOCTYPE svg PUBLIC "-//W3C//DTD SVG 1.1//EN"
 "http://www.w3.org/Graphics/SVG/1.1/DTD/svg11.dtd">
<!-- Generated by graphviz version 2.44.0 (0)
 -->
<!-- Pages: 1 -->
<svg width="3326pt" height="521pt"
 viewBox="0.00 0.00 3326.00 521.00" xmlns="http://www.w3.org/2000/svg" xmlns:xlink="http://www.w3.org/1999/xlink">
<g id="graph0" class="graph" transform="scale(1 1) rotate(0) translate(4 517)">
<polygon fill="white" stroke="transparent" points="-4,4 -4,-517 3322,-517 3322,4 -4,4"/>
<!-- sandfoxme/composer&#45;viz -->
<g id="node1" class="node">
<title>sandfoxme/composer&#45;viz</title>
<path fill="#eeffee" stroke="black" d="M639.5,-513C639.5,-513 400.5,-513 400.5,-513 394.5,-513 388.5,-507 388.5,-501 388.5,-501 388.5,-489 388.5,-489 388.5,-483 394.5,-477 400.5,-477 400.5,-477 639.5,-477 639.5,-477 645.5,-477 651.5,-483 651.5,-489 651.5,-489 651.5,-501 651.5,-501 651.5,-507 645.5,-513 639.5,-513"/>
<text text-anchor="middle" x="520" y="-491.3" font-family="Times-Roman" font-size="14.00">sandfoxme/composer&#45;viz: dev&#45;master</text>
</g>
<!-- php -->
<g id="node2" class="node">
<title>php</title>
<path fill="#eeeeff" stroke="black" d="M1611,-36C1611,-36 1581,-36 1581,-36 1575,-36 1569,-30 1569,-24 1569,-24 1569,-12 1569,-12 1569,-6 1575,0 1581,0 1581,0 1611,0 1611,0 1617,0 1623,-6 1623,-12 1623,-12 1623,-24 1623,-24 1623,-30 1617,-36 1611,-36"/>
<text text-anchor="middle" x="1596" y="-14.3" font-family="Times-Roman" font-size="14.00">php</text>
</g>
<!-- sandfoxme/composer&#45;viz&#45;&gt;php -->
<g id="edge1" class="edge">
<title>sandfoxme/composer&#45;viz&#45;&gt;php</title>
<path fill="none" stroke="black" d="M388.19,-492.61C309.39,-489.29 207.83,-480.59 120,-459 63.89,-445.21 0,-466.78 0,-409 0,-409 0,-409 0,-104 0,-63.57 37.4,-66.04 76,-54 148.9,-31.25 1332.44,-21.03 1558.76,-19.28"/>
<polygon fill="black" stroke="black" points="1558.83,-22.78 1568.8,-19.2 1558.78,-15.78 1558.83,-22.78"/>
<text text-anchor="middle" x="32.5" y="-263.3" font-family="Times-Roman" font-size="14.00">&gt;= 5.5 &lt; 9</text>
</g>
<!-- composer&#45;plugin&#45;api -->
<g id="node3" class="node">
<title>composer&#45;plugin&#45;api</title>
<path fill="#eeeeff" stroke="black" d="M931,-339C931,-339 803,-339 803,-339 797,-339 791,-333 791,-327 791,-327 791,-315 791,-315 791,-309 797,-303 803,-303 803,-303 931,-303 931,-303 937,-303 943,-309 943,-315 943,-315 943,-327 943,-327 943,-333 937,-339 931,-339"/>
<text text-anchor="middle" x="867" y="-317.3" font-family="Times-Roman" font-size="14.00">composer&#45;plugin&#45;api</text>
</g>
<!-- sandfoxme/composer&#45;viz&#45;&gt;composer&#45;plugin&#45;api -->
<g id="edge2" class="edge">
<title>sandfoxme/composer&#45;viz&#45;&gt;composer&#45;plugin&#45;api</title>
<path fill="none" stroke="black" d="M651.91,-480.65C728.7,-470.19 815.64,-452.84 843,-426 863.3,-406.08 867.89,-372.66 868.3,-349.09"/>
<polygon fill="black" stroke="black" points="871.8,-349.02 868.24,-339.04 864.8,-349.06 871.8,-349.02"/>
<text text-anchor="middle" x="898.5" y="-404.3" font-family="Times-Roman" font-size="14.00">^1.1 | ^2.0</text>
</g>
<!-- graphp/graphviz -->
<g id="node4" class="node">
<title>graphp/graphviz</title>
<path fill="#ffffff" stroke="black" d="M186,-231C186,-231 40,-231 40,-231 34,-231 28,-225 28,-219 28,-219 28,-207 28,-207 28,-201 34,-195 40,-195 40,-195 186,-195 186,-195 192,-195 198,-201 198,-207 198,-207 198,-219 198,-219 198,-225 192,-231 186,-231"/>
<text text-anchor="middle" x="113" y="-209.3" font-family="Times-Roman" font-size="14.00">graphp/graphviz: v0.2.2</text>
</g>
<!-- sandfoxme/composer&#45;viz&#45;&gt;graphp/graphviz -->
<g id="edge3" class="edge">
<title>sandfoxme/composer&#45;viz&#45;&gt;graphp/graphviz</title>
<path fill="none" stroke="black" d="M388.49,-490.79C279.16,-485.02 135.75,-469.16 99,-426 54.2,-373.39 82.47,-284.25 100.85,-240.22"/>
<polygon fill="black" stroke="black" points="104.06,-241.61 104.82,-231.04 97.64,-238.83 104.06,-241.61"/>
<text text-anchor="middle" x="97.5" y="-360.8" font-family="Times-Roman" font-size="14.00">~0.2.0</text>
</g>
<!-- composer/composer -->
<g id="node5" class="node">
<title>composer/composer</title>
<path fill="#eeeeee" stroke="black" d="M2107,-426C2107,-426 1939,-426 1939,-426 1933,-426 1927,-420 1927,-414 1927,-414 1927,-402 1927,-402 1927,-396 1933,-390 1939,-390 1939,-390 2107,-390 2107,-390 2113,-390 2119,-396 2119,-402 2119,-402 2119,-414 2119,-414 2119,-420 2113,-426 2107,-426"/>
<text text-anchor="middle" x="2023" y="-404.3" font-family="Times-Roman" font-size="14.00">composer/composer: 2.1.9</text>
</g>
<!-- sandfoxme/composer&#45;viz&#45;&gt;composer/composer -->
<g id="edge4" class="edge">
<title>sandfoxme/composer&#45;viz&#45;&gt;composer/composer</title>
<path fill="none" stroke="black" stroke-dasharray="5,2" d="M651.74,-486.55C945.37,-469.94 1648.76,-430.16 1916.8,-415.01"/>
<polygon fill="black" stroke="black" points="1917.14,-418.49 1926.92,-414.43 1916.74,-411.5 1917.14,-418.49"/>
<text text-anchor="middle" x="1375.5" y="-447.8" font-family="Times-Roman" font-size="14.00">^2.0</text>
</g>
<!-- dealerdirect/phpcodesniffer&#45;composer&#45;installer -->
<g id="node6" class="node">
<title>dealerdirect/phpcodesniffer&#45;composer&#45;installer</title>
<path fill="#eeeeee" stroke="black" d="M472,-426C472,-426 120,-426 120,-426 114,-426 108,-420 108,-414 108,-414 108,-402 108,-402 108,-396 114,-390 120,-390 120,-390 472,-390 472,-390 478,-390 484,-396 484,-402 484,-402 484,-414 484,-414 484,-420 478,-426 472,-426"/>
<text text-anchor="middle" x="296" y="-404.3" font-family="Times-Roman" font-size="14.00">dealerdirect/phpcodesniffer&#45;composer&#45;installer: v0.7.1</text>
</g>
<!-- sandfoxme/composer&#45;viz&#45;&gt;dealerdirect/phpcodesniffer&#45;composer&#45;installer -->
<g id="edge5" class="edge">
<title>sandfoxme/composer&#45;viz&#45;&gt;dealerdirect/phpcodesniffer&#45;composer&#45;installer</title>
<path fill="none" stroke="black" stroke-dasharray="5,2" d="M474.94,-476.9C439.02,-463.27 388.59,-444.13 350.41,-429.65"/>
<polygon fill="black" stroke="black" points="351.58,-426.35 340.99,-426.07 349.1,-432.89 351.58,-426.35"/>
<text text-anchor="middle" x="425" y="-447.8" font-family="Times-Roman" font-size="14.00">*</text>
</g>
<!-- phpcompatibility/php&#45;compatibility -->
<g id="node7" class="node">
<title>phpcompatibility/php&#45;compatibility</title>
<path fill="#eeeeee" stroke="black" d="M821.5,-426C821.5,-426 558.5,-426 558.5,-426 552.5,-426 546.5,-420 546.5,-414 546.5,-414 546.5,-402 546.5,-402 546.5,-396 552.5,-390 558.5,-390 558.5,-390 821.5,-390 821.5,-390 827.5,-390 833.5,-396 833.5,-402 833.5,-402 833.5,-414 833.5,-414 833.5,-420 827.5,-426 821.5,-426"/>
<text text-anchor="middle" x="690" y="-404.3" font-family="Times-Roman" font-size="14.00">phpcompatibility/php&#45;compatibility: 9.3.5</text>
</g>
<!-- sandfoxme/composer&#45;viz&#45;&gt;phpcompatibility/php&#45;compatibility -->
<g id="edge6" class="edge">
<title>sandfoxme/composer&#45;viz&#45;&gt;phpcompatibility/php&#45;compatibility</title>
<path fill="none" stroke="black" stroke-dasharray="5,2" d="M554.4,-476.8C581.1,-463.45 618.28,-444.86 646.95,-430.52"/>
<polygon fill="black" stroke="black" points="648.56,-433.63 655.94,-426.03 645.43,-427.37 648.56,-433.63"/>
<text text-anchor="middle" x="619" y="-447.8" font-family="Times-Roman" font-size="14.00">*</text>
</g>
<!-- squizlabs/php_codesniffer -->
<g id="node8" class="node">
<title>squizlabs/php_codesniffer</title>
<path fill="#eeeeee" stroke="black" d="M622.5,-339C622.5,-339 417.5,-339 417.5,-339 411.5,-339 405.5,-333 405.5,-327 405.5,-327 405.5,-315 405.5,-315 405.5,-309 411.5,-303 417.5,-303 417.5,-303 622.5,-303 622.5,-303 628.5,-303 634.5,-309 634.5,-315 634.5,-315 634.5,-327 634.5,-327 634.5,-333 628.5,-339 622.5,-339"/>
<text text-anchor="middle" x="520" y="-317.3" font-family="Times-Roman" font-size="14.00">squizlabs/php_codesniffer: 3.6.0</text>
</g>
<!-- sandfoxme/composer&#45;viz&#45;&gt;squizlabs/php_codesniffer -->
<g id="edge7" class="edge">
<title>sandfoxme/composer&#45;viz&#45;&gt;squizlabs/php_codesniffer</title>
<path fill="none" stroke="black" stroke-dasharray="5,2" d="M520,-476.88C520,-447 520,-385.11 520,-349.27"/>
<polygon fill="black" stroke="black" points="523.5,-349.05 520,-339.05 516.5,-349.05 523.5,-349.05"/>
<text text-anchor="middle" x="524" y="-404.3" font-family="Times-Roman" font-size="14.00">*</text>
</g>
<!-- graphp/graphviz&#45;&gt;php -->
<g id="edge10" class="edge">
<title>graphp/graphviz&#45;&gt;php</title>
<path fill="none" stroke="black" d="M95.38,-194.65C71.42,-168.95 34.42,-120.21 61,-87 102.84,-34.72 141.55,-62.22 208,-54 480.21,-20.34 1365.31,-18.87 1558.53,-18.95"/>
<polygon fill="black" stroke="black" points="1558.73,-22.45 1568.73,-18.96 1558.74,-15.45 1558.73,-22.45"/>
<text text-anchor="middle" x="85.5" y="-101.3" font-family="Times-Roman" font-size="14.00">&gt;=5.3.0</text>
</g>
<!-- clue/graph -->
<g id="node9" class="node">
<title>clue/graph</title>
<path fill="#ffffff" stroke="black" d="M241,-123C241,-123 131,-123 131,-123 125,-123 119,-117 119,-111 119,-111 119,-99 119,-99 119,-93 125,-87 131,-87 131,-87 241,-87 241,-87 247,-87 253,-93 253,-99 253,-99 253,-111 253,-111 253,-117 247,-123 241,-123"/>
<text text-anchor="middle" x="186" y="-101.3" font-family="Times-Roman" font-size="14.00">clue/graph: v0.9.2</text>
</g>
<!-- graphp/graphviz&#45;&gt;clue/graph -->
<g id="edge9" class="edge">
<title>graphp/graphviz&#45;&gt;clue/graph</title>
<path fill="none" stroke="black" d="M124.73,-194.97C136.47,-177.92 154.69,-151.46 168.22,-131.82"/>
<polygon fill="black" stroke="black" points="171.27,-133.56 174.06,-123.34 165.5,-129.59 171.27,-133.56"/>
<text text-anchor="middle" x="205.5" y="-155.3" font-family="Times-Roman" font-size="14.00">~0.9.0|~0.8.0</text>
</g>
<!-- composer/composer&#45;&gt;php -->
<g id="edge20" class="edge">
<title>composer/composer&#45;&gt;php</title>
<path fill="none" stroke="black" stroke-dasharray="5,2" d="M1926.8,-390.31C1894.16,-384.58 1857.48,-378.08 1824,-372 1745.7,-357.77 1708.75,-390.41 1648,-339 1615.48,-311.48 1648.9,-274.81 1615,-249 1576.15,-219.42 1429.08,-266.91 1396,-231 1385.16,-219.23 1388.94,-209.36 1396,-195 1413.33,-159.74 1432.96,-162.27 1466,-141 1480.38,-131.74 1486.47,-133.45 1500,-123 1517.18,-109.73 1518.29,-102.96 1533,-87 1546.28,-72.59 1561.17,-56.51 1573.15,-43.61"/>
<polygon fill="black" stroke="black" points="1575.94,-45.73 1580.18,-36.02 1570.81,-40.97 1575.94,-45.73"/>
<text text-anchor="middle" x="1467.5" y="-209.3" font-family="Times-Roman" font-size="14.00">^5.3.2 || ^7.0 || ^8.0</text>
</g>
<!-- composer/ca&#45;bundle -->
<g id="node10" class="node">
<title>composer/ca&#45;bundle</title>
<path fill="#eeeeee" stroke="black" d="M1845,-339C1845,-339 1669,-339 1669,-339 1663,-339 1657,-333 1657,-327 1657,-327 1657,-315 1657,-315 1657,-309 1663,-303 1669,-303 1669,-303 1845,-303 1845,-303 1851,-303 1857,-309 1857,-315 1857,-315 1857,-327 1857,-327 1857,-333 1851,-339 1845,-339"/>
<text text-anchor="middle" x="1757" y="-317.3" font-family="Times-Roman" font-size="14.00">composer/ca&#45;bundle: 1.2.11</text>
</g>
<!-- composer/composer&#45;&gt;composer/ca&#45;bundle -->
<g id="edge14" class="edge">
<title>composer/composer&#45;&gt;composer/ca&#45;bundle</title>
<path fill="none" stroke="black" stroke-dasharray="5,2" d="M1930.18,-389.94C1908.54,-385 1885.76,-379.01 1865,-372 1842.36,-364.35 1818.12,-353.4 1798.36,-343.7"/>
<polygon fill="black" stroke="black" points="1799.85,-340.53 1789.33,-339.21 1796.72,-346.8 1799.85,-340.53"/>
<text text-anchor="middle" x="1879.5" y="-360.8" font-family="Times-Roman" font-size="14.00">^1.0</text>
</g>
<!-- composer/metadata&#45;minifier -->
<g id="node13" class="node">
<title>composer/metadata&#45;minifier</title>
<path fill="#eeeeee" stroke="black" d="M1964.5,-285C1964.5,-285 1743.5,-285 1743.5,-285 1737.5,-285 1731.5,-279 1731.5,-273 1731.5,-273 1731.5,-261 1731.5,-261 1731.5,-255 1737.5,-249 1743.5,-249 1743.5,-249 1964.5,-249 1964.5,-249 1970.5,-249 1976.5,-255 1976.5,-261 1976.5,-261 1976.5,-273 1976.5,-273 1976.5,-279 1970.5,-285 1964.5,-285"/>
<text text-anchor="middle" x="1854" y="-263.3" font-family="Times-Roman" font-size="14.00">composer/metadata&#45;minifier: 1.0.0</text>
</g>
<!-- composer/composer&#45;&gt;composer/metadata&#45;minifier -->
<g id="edge15" class="edge">
<title>composer/composer&#45;&gt;composer/metadata&#45;minifier</title>
<path fill="none" stroke="black" stroke-dasharray="5,2" d="M1979.52,-389.88C1969.07,-384.85 1958.26,-378.84 1949,-372 1918.48,-349.45 1890.05,-316.03 1872.4,-293.2"/>
<polygon fill="black" stroke="black" points="1875.01,-290.85 1866.18,-285.01 1869.44,-295.09 1875.01,-290.85"/>
<text text-anchor="middle" x="1963.5" y="-360.8" font-family="Times-Roman" font-size="14.00">^1.0</text>
</g>
<!-- composer/semver -->
<g id="node14" class="node">
<title>composer/semver</title>
<path fill="#eeeeee" stroke="black" d="M1956,-177C1956,-177 1804,-177 1804,-177 1798,-177 1792,-171 1792,-165 1792,-165 1792,-153 1792,-153 1792,-147 1798,-141 1804,-141 1804,-141 1956,-141 1956,-141 1962,-141 1968,-147 1968,-153 1968,-153 1968,-165 1968,-165 1968,-171 1962,-177 1956,-177"/>
<text text-anchor="middle" x="1880" y="-155.3" font-family="Times-Roman" font-size="14.00">composer/semver: 3.2.5</text>
</g>
<!-- composer/composer&#45;&gt;composer/semver -->
<g id="edge16" class="edge">
<title>composer/composer&#45;&gt;composer/semver</title>
<path fill="none" stroke="black" stroke-dasharray="5,2" d="M2021.21,-389.61C2017.41,-359.09 2006.43,-294.8 1978,-249 1961.63,-222.62 1935.25,-199.31 1913.99,-183.16"/>
<polygon fill="black" stroke="black" points="1915.94,-180.25 1905.82,-177.12 1911.78,-185.88 1915.94,-180.25"/>
<text text-anchor="middle" x="2026.5" y="-317.3" font-family="Times-Roman" font-size="14.00">^3.0</text>
</g>
<!-- composer/spdx&#45;licenses -->
<g id="node15" class="node">
<title>composer/spdx&#45;licenses</title>
<path fill="#eeeeee" stroke="black" d="M2210.5,-285C2210.5,-285 2019.5,-285 2019.5,-285 2013.5,-285 2007.5,-279 2007.5,-273 2007.5,-273 2007.5,-261 2007.5,-261 2007.5,-255 2013.5,-249 2019.5,-249 2019.5,-249 2210.5,-249 2210.5,-249 2216.5,-249 2222.5,-255 2222.5,-261 2222.5,-261 2222.5,-273 2222.5,-273 2222.5,-279 2216.5,-285 2210.5,-285"/>
<text text-anchor="middle" x="2115" y="-263.3" font-family="Times-Roman" font-size="14.00">composer/spdx&#45;licenses: 1.5.5</text>
</g>
<!-- composer/composer&#45;&gt;composer/spdx&#45;licenses -->
<g id="edge17" class="edge">
<title>composer/composer&#45;&gt;composer/spdx&#45;licenses</title>
<path fill="none" stroke="black" stroke-dasharray="5,2" d="M2034.28,-389.96C2050.21,-365.88 2079.43,-321.74 2098,-293.68"/>
<polygon fill="black" stroke="black" points="2101.03,-295.45 2103.63,-285.18 2095.19,-291.59 2101.03,-295.45"/>
<text text-anchor="middle" x="2069.5" y="-360.8" font-family="Times-Roman" font-size="14.00">^1.2</text>
</g>
<!-- composer/xdebug&#45;handler -->
<g id="node16" class="node">
<title>composer/xdebug&#45;handler</title>
<path fill="#eeeeee" stroke="black" d="M2487.5,-231C2487.5,-231 2278.5,-231 2278.5,-231 2272.5,-231 2266.5,-225 2266.5,-219 2266.5,-219 2266.5,-207 2266.5,-207 2266.5,-201 2272.5,-195 2278.5,-195 2278.5,-195 2487.5,-195 2487.5,-195 2493.5,-195 2499.5,-201 2499.5,-207 2499.5,-207 2499.5,-219 2499.5,-219 2499.5,-225 2493.5,-231 2487.5,-231"/>
<text text-anchor="middle" x="2383" y="-209.3" font-family="Times-Roman" font-size="14.00">composer/xdebug&#45;handler: 2.0.2</text>
</g>
<!-- composer/composer&#45;&gt;composer/xdebug&#45;handler -->
<g id="edge18" class="edge">
<title>composer/composer&#45;&gt;composer/xdebug&#45;handler</title>
<path fill="none" stroke="black" stroke-dasharray="5,2" d="M2119.09,-404.03C2161.39,-399.8 2210.72,-390.78 2252,-372 2310.36,-345.45 2351.39,-278.18 2370.63,-240.53"/>
<polygon fill="black" stroke="black" points="2373.95,-241.72 2375.26,-231.2 2367.68,-238.6 2373.95,-241.72"/>
<text text-anchor="middle" x="2344.5" y="-317.3" font-family="Times-Roman" font-size="14.00">^2.0</text>
</g>
<!-- justinrainbow/json&#45;schema -->
<g id="node17" class="node">
<title>justinrainbow/json&#45;schema</title>
<path fill="#eeeeee" stroke="black" d="M2371,-177C2371,-177 2151,-177 2151,-177 2145,-177 2139,-171 2139,-165 2139,-165 2139,-153 2139,-153 2139,-147 2145,-141 2151,-141 2151,-141 2371,-141 2371,-141 2377,-141 2383,-147 2383,-153 2383,-153 2383,-165 2383,-165 2383,-171 2377,-177 2371,-177"/>
<text text-anchor="middle" x="2261" y="-155.3" font-family="Times-Roman" font-size="14.00">justinrainbow/json&#45;schema: 5.2.11</text>
</g>
<!-- composer/composer&#45;&gt;justinrainbow/json&#45;schema -->
<g id="edge19" class="edge">
<title>composer/composer&#45;&gt;justinrainbow/json&#45;schema</title>
<path fill="none" stroke="black" stroke-dasharray="5,2" d="M2071.34,-389.89C2117.33,-371.16 2185.12,-336.71 2224,-285 2245.85,-255.94 2254.85,-214.12 2258.52,-187"/>
<polygon fill="black" stroke="black" points="2262,-187.39 2259.72,-177.04 2255.05,-186.55 2262,-187.39"/>
<text text-anchor="middle" x="2231.5" y="-317.3" font-family="Times-Roman" font-size="14.00">^5.2.11</text>
</g>
<!-- psr/log -->
<g id="node18" class="node">
<title>psr/log</title>
<path fill="#eeeeee" stroke="black" d="M2569.5,-123C2569.5,-123 2490.5,-123 2490.5,-123 2484.5,-123 2478.5,-117 2478.5,-111 2478.5,-111 2478.5,-99 2478.5,-99 2478.5,-93 2484.5,-87 2490.5,-87 2490.5,-87 2569.5,-87 2569.5,-87 2575.5,-87 2581.5,-93 2581.5,-99 2581.5,-99 2581.5,-111 2581.5,-111 2581.5,-117 2575.5,-123 2569.5,-123"/>
<text text-anchor="middle" x="2530" y="-101.3" font-family="Times-Roman" font-size="14.00">psr/log: 1.1.4</text>
</g>
<!-- composer/composer&#45;&gt;psr/log -->
<g id="edge21" class="edge">
<title>composer/composer&#45;&gt;psr/log</title>
<path fill="none" stroke="black" stroke-dasharray="5,2" d="M2119.14,-403.14C2190.28,-396.76 2287.52,-380.39 2363,-339 2433.77,-300.19 2461.59,-296.32 2509,-231 2529.77,-202.39 2532.74,-160.45 2532.07,-133.19"/>
<polygon fill="black" stroke="black" points="2535.57,-133.01 2531.65,-123.17 2528.57,-133.31 2535.57,-133.01"/>
<text text-anchor="middle" x="2508.5" y="-263.3" font-family="Times-Roman" font-size="14.00">^1.0</text>
</g>
<!-- react/promise -->
<g id="node19" class="node">
<title>react/promise</title>
<path fill="#eeeeee" stroke="black" d="M3085.5,-285C3085.5,-285 2954.5,-285 2954.5,-285 2948.5,-285 2942.5,-279 2942.5,-273 2942.5,-273 2942.5,-261 2942.5,-261 2942.5,-255 2948.5,-249 2954.5,-249 2954.5,-249 3085.5,-249 3085.5,-249 3091.5,-249 3097.5,-255 3097.5,-261 3097.5,-261 3097.5,-273 3097.5,-273 3097.5,-279 3091.5,-285 3085.5,-285"/>
<text text-anchor="middle" x="3020" y="-263.3" font-family="Times-Roman" font-size="14.00">react/promise: v2.8.0</text>
</g>
<!-- composer/composer&#45;&gt;react/promise -->
<g id="edge22" class="edge">
<title>composer/composer&#45;&gt;react/promise</title>
<path fill="none" stroke="black" stroke-dasharray="5,2" d="M2119.34,-406.21C2327.88,-404.06 2808.06,-396.47 2878,-372 2925.25,-355.47 2970.18,-317.5 2996.41,-292.31"/>
<polygon fill="black" stroke="black" points="2998.92,-294.75 3003.61,-285.25 2994.02,-289.75 2998.92,-294.75"/>
<text text-anchor="middle" x="2949" y="-360.8" font-family="Times-Roman" font-size="14.00">^1.2 || ^2.7</text>
</g>
<!-- seld/jsonlint -->
<g id="node20" class="node">
<title>seld/jsonlint</title>
<path fill="#eeeeee" stroke="black" d="M3244,-177C3244,-177 3130,-177 3130,-177 3124,-177 3118,-171 3118,-165 3118,-165 3118,-153 3118,-153 3118,-147 3124,-141 3130,-141 3130,-141 3244,-141 3244,-141 3250,-141 3256,-147 3256,-153 3256,-153 3256,-165 3256,-165 3256,-171 3250,-177 3244,-177"/>
<text text-anchor="middle" x="3187" y="-155.3" font-family="Times-Roman" font-size="14.00">seld/jsonlint: 1.8.3</text>
</g>
<!-- composer/composer&#45;&gt;seld/jsonlint -->
<g id="edge23" class="edge">
<title>composer/composer&#45;&gt;seld/jsonlint</title>
<path fill="none" stroke="black" stroke-dasharray="5,2" d="M2119.31,-406.83C2348.34,-405.96 2912.39,-400.88 2993,-372 3083.71,-339.51 3147.96,-235.39 3174.06,-186.2"/>
<polygon fill="black" stroke="black" points="3177.26,-187.62 3178.76,-177.14 3171.05,-184.4 3177.26,-187.62"/>
<text text-anchor="middle" x="3104.5" y="-317.3" font-family="Times-Roman" font-size="14.00">^1.4</text>
</g>
<!-- seld/phar&#45;utils -->
<g id="node21" class="node">
<title>seld/phar&#45;utils</title>
<path fill="#eeeeee" stroke="black" d="M3300,-285C3300,-285 3172,-285 3172,-285 3166,-285 3160,-279 3160,-273 3160,-273 3160,-261 3160,-261 3160,-255 3166,-249 3172,-249 3172,-249 3300,-249 3300,-249 3306,-249 3312,-255 3312,-261 3312,-261 3312,-273 3312,-273 3312,-279 3306,-285 3300,-285"/>
<text text-anchor="middle" x="3236" y="-263.3" font-family="Times-Roman" font-size="14.00">seld/phar&#45;utils: 1.1.2</text>
</g>
<!-- composer/composer&#45;&gt;seld/phar&#45;utils -->
<g id="edge24" class="edge">
<title>composer/composer&#45;&gt;seld/phar&#45;utils</title>
<path fill="none" stroke="black" stroke-dasharray="5,2" d="M2119.33,-406.08C2382.84,-403.28 3099.05,-393.72 3145,-372 3179.77,-355.56 3206.68,-318.93 3221.94,-293.84"/>
<polygon fill="black" stroke="black" points="3224.98,-295.57 3227.02,-285.18 3218.94,-292.03 3224.98,-295.57"/>
<text text-anchor="middle" x="3181.5" y="-360.8" font-family="Times-Roman" font-size="14.00">^1.0</text>
</g>
<!-- symfony/console -->
<g id="node22" class="node">
<title>symfony/console</title>
<path fill="#eeeeee" stroke="black" d="M2784,-339C2784,-339 2624,-339 2624,-339 2618,-339 2612,-333 2612,-327 2612,-327 2612,-315 2612,-315 2612,-309 2618,-303 2624,-303 2624,-303 2784,-303 2784,-303 2790,-303 2796,-309 2796,-315 2796,-315 2796,-327 2796,-327 2796,-333 2790,-339 2784,-339"/>
<text text-anchor="middle" x="2704" y="-317.3" font-family="Times-Roman" font-size="14.00">symfony/console: v3.4.47</text>
</g>
<!-- composer/composer&#45;&gt;symfony/console -->
<g id="edge25" class="edge">
<title>composer/composer&#45;&gt;symfony/console</title>
<path fill="none" stroke="black" stroke-dasharray="5,2" d="M2119.01,-407.16C2223.81,-405.79 2396.15,-399.04 2542,-372 2578.3,-365.27 2617.92,-353.13 2648.89,-342.5"/>
<polygon fill="black" stroke="black" points="2650.33,-345.7 2658.62,-339.11 2648.03,-339.09 2650.33,-345.7"/>
<text text-anchor="middle" x="2737" y="-360.8" font-family="Times-Roman" font-size="14.00">^2.8.52 || ^3.4.35 || ^4.4 || ^5.0 || ^6.0</text>
</g>
<!-- symfony/filesystem -->
<g id="node23" class="node">
<title>symfony/filesystem</title>
<path fill="#eeeeee" stroke="black" d="M1067,-231C1067,-231 891,-231 891,-231 885,-231 879,-225 879,-219 879,-219 879,-207 879,-207 879,-201 885,-195 891,-195 891,-195 1067,-195 1067,-195 1073,-195 1079,-201 1079,-207 1079,-207 1079,-219 1079,-219 1079,-225 1073,-231 1067,-231"/>
<text text-anchor="middle" x="979" y="-209.3" font-family="Times-Roman" font-size="14.00">symfony/filesystem: v3.4.47</text>
</g>
<!-- composer/composer&#45;&gt;symfony/filesystem -->
<g id="edge26" class="edge">
<title>composer/composer&#45;&gt;symfony/filesystem</title>
<path fill="none" stroke="black" stroke-dasharray="5,2" d="M1926.6,-407.72C1683.09,-408.57 1057.98,-404.3 993,-339 967.87,-313.74 969.09,-269.91 973.27,-241.43"/>
<polygon fill="black" stroke="black" points="976.76,-241.79 974.97,-231.34 969.86,-240.62 976.76,-241.79"/>
<text text-anchor="middle" x="1130" y="-317.3" font-family="Times-Roman" font-size="14.00">^2.8.52 || ^3.4.35 || ^4.4 || ^5.0 || ^6.0</text>
</g>
<!-- symfony/finder -->
<g id="node24" class="node">
<title>symfony/finder</title>
<path fill="#eeeeee" stroke="black" d="M1290.5,-177C1290.5,-177 1141.5,-177 1141.5,-177 1135.5,-177 1129.5,-171 1129.5,-165 1129.5,-165 1129.5,-153 1129.5,-153 1129.5,-147 1135.5,-141 1141.5,-141 1141.5,-141 1290.5,-141 1290.5,-141 1296.5,-141 1302.5,-147 1302.5,-153 1302.5,-153 1302.5,-165 1302.5,-165 1302.5,-171 1296.5,-177 1290.5,-177"/>
<text text-anchor="middle" x="1216" y="-155.3" font-family="Times-Roman" font-size="14.00">symfony/finder: v3.4.47</text>
</g>
<!-- composer/composer&#45;&gt;symfony/finder -->
<g id="edge27" class="edge">
<title>composer/composer&#45;&gt;symfony/finder</title>
<path fill="none" stroke="black" stroke-dasharray="5,2" d="M1926.91,-403.25C1742.5,-395.28 1352.72,-374.43 1303,-339 1251.73,-302.46 1229.37,-227.25 1220.74,-186.93"/>
<polygon fill="black" stroke="black" points="1224.15,-186.12 1218.74,-177.01 1217.28,-187.5 1224.15,-186.12"/>
<text text-anchor="middle" x="1440" y="-317.3" font-family="Times-Roman" font-size="14.00">^2.8.52 || ^3.4.35 || ^4.4 || ^5.0 || ^6.0</text>
</g>
<!-- symfony/process -->
<g id="node25" class="node">
<title>symfony/process</title>
<path fill="#eeeeee" stroke="black" d="M1478.5,-123C1478.5,-123 1319.5,-123 1319.5,-123 1313.5,-123 1307.5,-117 1307.5,-111 1307.5,-111 1307.5,-99 1307.5,-99 1307.5,-93 1313.5,-87 1319.5,-87 1319.5,-87 1478.5,-87 1478.5,-87 1484.5,-87 1490.5,-93 1490.5,-99 1490.5,-99 1490.5,-111 1490.5,-111 1490.5,-117 1484.5,-123 1478.5,-123"/>
<text text-anchor="middle" x="1399" y="-101.3" font-family="Times-Roman" font-size="14.00">symfony/process: v3.4.47</text>
</g>
<!-- composer/composer&#45;&gt;symfony/process -->
<g id="edge28" class="edge">
<title>composer/composer&#45;&gt;symfony/process</title>
<path fill="none" stroke="black" stroke-dasharray="5,2" d="M1926.85,-403.49C1814.47,-398.65 1640.52,-388.59 1615,-372 1585.65,-352.92 1606.44,-321.94 1577,-303 1532.77,-274.54 1376.75,-323.58 1341,-285 1300.54,-241.34 1347.06,-169.14 1377.24,-131.15"/>
<polygon fill="black" stroke="black" points="1380.16,-133.11 1383.76,-123.15 1374.73,-128.69 1380.16,-133.11"/>
<text text-anchor="middle" x="1478" y="-263.3" font-family="Times-Roman" font-size="14.00">^2.8.52 || ^3.4.35 || ^4.4 || ^5.0 || ^6.0</text>
</g>
<!-- dealerdirect/phpcodesniffer&#45;composer&#45;installer&#45;&gt;php -->
<g id="edge35" class="edge">
<title>dealerdirect/phpcodesniffer&#45;composer&#45;installer&#45;&gt;php</title>
<path fill="none" stroke="black" stroke-dasharray="5,2" d="M291.17,-389.9C286.79,-372.85 281,-345.83 281,-322 281,-322 281,-322 281,-104 281,-38.16 1344.65,-22 1558.73,-19.41"/>
<polygon fill="black" stroke="black" points="1558.88,-22.91 1568.84,-19.29 1558.8,-15.91 1558.88,-22.91"/>
<text text-anchor="middle" x="299.5" y="-209.3" font-family="Times-Roman" font-size="14.00">&gt;=5.3</text>
</g>
<!-- dealerdirect/phpcodesniffer&#45;composer&#45;installer&#45;&gt;composer&#45;plugin&#45;api -->
<g id="edge34" class="edge">
<title>dealerdirect/phpcodesniffer&#45;composer&#45;installer&#45;&gt;composer&#45;plugin&#45;api</title>
<path fill="none" stroke="black" stroke-dasharray="5,2" d="M425.88,-389.96C453.84,-385.12 483.08,-379.17 510,-372 528.35,-367.11 531.53,-361.41 550,-357 626.81,-338.66 716.42,-329.89 780.74,-325.72"/>
<polygon fill="black" stroke="black" points="781.07,-329.21 790.83,-325.09 780.64,-322.22 781.07,-329.21"/>
<text text-anchor="middle" x="590" y="-360.8" font-family="Times-Roman" font-size="14.00">^1.0 || ^2.0</text>
</g>
<!-- dealerdirect/phpcodesniffer&#45;composer&#45;installer&#45;&gt;squizlabs/php_codesniffer -->
<g id="edge36" class="edge">
<title>dealerdirect/phpcodesniffer&#45;composer&#45;installer&#45;&gt;squizlabs/php_codesniffer</title>
<path fill="none" stroke="black" stroke-dasharray="5,2" d="M318.74,-389.78C333.96,-378.98 354.82,-365.54 375,-357 388.99,-351.08 404.18,-346.03 419.28,-341.77"/>
<polygon fill="black" stroke="black" points="420.45,-345.08 429.18,-339.08 418.62,-338.33 420.45,-345.08"/>
<text text-anchor="middle" x="440.5" y="-360.8" font-family="Times-Roman" font-size="14.00">^2.0 || ^3.0 || ^4.0</text>
</g>
<!-- phpcompatibility/php&#45;compatibility&#45;&gt;php -->
<g id="edge38" class="edge">
<title>phpcompatibility/php&#45;compatibility&#45;&gt;php</title>
<path fill="none" stroke="black" stroke-dasharray="5,2" d="M729.1,-389.82C736.61,-384.99 743.75,-379.08 749,-372 838.98,-250.66 725.41,-100.91 869,-54 934.7,-32.54 1419.16,-22.2 1558.57,-19.64"/>
<polygon fill="black" stroke="black" points="1558.81,-23.14 1568.75,-19.46 1558.69,-16.14 1558.81,-23.14"/>
<text text-anchor="middle" x="806.5" y="-209.3" font-family="Times-Roman" font-size="14.00">&gt;=5.3</text>
</g>
<!-- phpcompatibility/php&#45;compatibility&#45;&gt;squizlabs/php_codesniffer -->
<g id="edge39" class="edge">
<title>phpcompatibility/php&#45;compatibility&#45;&gt;squizlabs/php_codesniffer</title>
<path fill="none" stroke="black" stroke-dasharray="5,2" d="M674.33,-389.6C663.84,-378.87 649.21,-365.58 634,-357 624.03,-351.38 613.04,-346.55 601.95,-342.44"/>
<polygon fill="black" stroke="black" points="602.79,-339.02 592.2,-339.01 600.47,-345.63 602.79,-339.02"/>
<text text-anchor="middle" x="700" y="-360.8" font-family="Times-Roman" font-size="14.00">^2.3 || ^3.0.2</text>
</g>
<!-- squizlabs/php_codesniffer&#45;&gt;php -->
<g id="edge47" class="edge">
<title>squizlabs/php_codesniffer&#45;&gt;php</title>
<path fill="none" stroke="black" stroke-dasharray="5,2" d="M590.62,-302.95C629.07,-289.85 673.82,-267.6 699,-231 721.98,-197.59 700.51,-179.24 714,-141 728.76,-99.15 725.17,-77.19 763,-54 797.31,-32.97 1400.64,-22.07 1558.47,-19.56"/>
<polygon fill="black" stroke="black" points="1558.69,-23.06 1568.63,-19.4 1558.58,-16.06 1558.69,-23.06"/>
<text text-anchor="middle" x="738.5" y="-155.3" font-family="Times-Roman" font-size="14.00">&gt;=5.4.0</text>
</g>
<!-- ext&#45;simplexml -->
<g id="node26" class="node">
<title>ext&#45;simplexml</title>
<path fill="#eeeeff" stroke="black" d="M432,-231C432,-231 348,-231 348,-231 342,-231 336,-225 336,-219 336,-219 336,-207 336,-207 336,-201 342,-195 348,-195 348,-195 432,-195 432,-195 438,-195 444,-201 444,-207 444,-207 444,-219 444,-219 444,-225 438,-231 432,-231"/>
<text text-anchor="middle" x="390" y="-209.3" font-family="Times-Roman" font-size="14.00">ext&#45;simplexml</text>
</g>
<!-- squizlabs/php_codesniffer&#45;&gt;ext&#45;simplexml -->
<g id="edge44" class="edge">
<title>squizlabs/php_codesniffer&#45;&gt;ext&#45;simplexml</title>
<path fill="none" stroke="black" stroke-dasharray="5,2" d="M499.11,-302.97C477.45,-285.3 443.4,-257.54 419.1,-237.73"/>
<polygon fill="black" stroke="black" points="421.23,-234.95 411.27,-231.34 416.81,-240.37 421.23,-234.95"/>
<text text-anchor="middle" x="478" y="-263.3" font-family="Times-Roman" font-size="14.00">*</text>
</g>
<!-- ext&#45;tokenizer -->
<g id="node27" class="node">
<title>ext&#45;tokenizer</title>
<path fill="#eeeeff" stroke="black" d="M554,-231C554,-231 474,-231 474,-231 468,-231 462,-225 462,-219 462,-219 462,-207 462,-207 462,-201 468,-195 474,-195 474,-195 554,-195 554,-195 560,-195 566,-201 566,-207 566,-207 566,-219 566,-219 566,-225 560,-231 554,-231"/>
<text text-anchor="middle" x="514" y="-209.3" font-family="Times-Roman" font-size="14.00">ext&#45;tokenizer</text>
</g>
<!-- squizlabs/php_codesniffer&#45;&gt;ext&#45;tokenizer -->
<g id="edge45" class="edge">
<title>squizlabs/php_codesniffer&#45;&gt;ext&#45;tokenizer</title>
<path fill="none" stroke="black" stroke-dasharray="5,2" d="M519.04,-302.97C518.1,-286.38 516.65,-260.88 515.55,-241.43"/>
<polygon fill="black" stroke="black" points="519.04,-241.13 514.98,-231.34 512.05,-241.52 519.04,-241.13"/>
<text text-anchor="middle" x="521" y="-263.3" font-family="Times-Roman" font-size="14.00">*</text>
</g>
<!-- ext&#45;xmlwriter -->
<g id="node28" class="node">
<title>ext&#45;xmlwriter</title>
<path fill="#eeeeff" stroke="black" d="M678,-231C678,-231 596,-231 596,-231 590,-231 584,-225 584,-219 584,-219 584,-207 584,-207 584,-201 590,-195 596,-195 596,-195 678,-195 678,-195 684,-195 690,-201 690,-207 690,-207 690,-219 690,-219 690,-225 684,-231 678,-231"/>
<text text-anchor="middle" x="637" y="-209.3" font-family="Times-Roman" font-size="14.00">ext&#45;xmlwriter</text>
</g>
<!-- squizlabs/php_codesniffer&#45;&gt;ext&#45;xmlwriter -->
<g id="edge46" class="edge">
<title>squizlabs/php_codesniffer&#45;&gt;ext&#45;xmlwriter</title>
<path fill="none" stroke="black" stroke-dasharray="5,2" d="M538.8,-302.97C558.13,-285.46 588.41,-258.02 610.24,-238.25"/>
<polygon fill="black" stroke="black" points="612.8,-240.65 617.86,-231.34 608.1,-235.46 612.8,-240.65"/>
<text text-anchor="middle" x="599" y="-263.3" font-family="Times-Roman" font-size="14.00">*</text>
</g>
<!-- clue/graph&#45;&gt;php -->
<g id="edge8" class="edge">
<title>clue/graph&#45;&gt;php</title>
<path fill="none" stroke="black" d="M195.88,-86.73C203.55,-75.17 215.34,-60.86 230,-54 291.81,-25.1 1346.23,-19.88 1558.82,-19.11"/>
<polygon fill="black" stroke="black" points="1558.87,-22.61 1568.86,-19.08 1558.85,-15.61 1558.87,-22.61"/>
<text text-anchor="middle" x="248.5" y="-57.8" font-family="Times-Roman" font-size="14.00">&gt;=5.3</text>
</g>
<!-- composer/ca&#45;bundle&#45;&gt;php -->
<g id="edge13" class="edge">
<title>composer/ca&#45;bundle&#45;&gt;php</title>
<path fill="none" stroke="black" stroke-dasharray="5,2" d="M1740.19,-302.82C1736.05,-297.53 1732.18,-291.39 1730,-285 1724.84,-269.86 1727.05,-264.73 1730,-249 1731.58,-240.56 1735.42,-239.44 1737,-231 1739.95,-215.27 1747.91,-206.7 1737,-195 1697.64,-152.81 1517.36,-219.19 1478,-177 1467.09,-165.3 1468.61,-153.95 1478,-141 1493.1,-120.18 1512.86,-139 1533,-123 1558.46,-102.78 1576.08,-69.25 1586.09,-45.74"/>
<polygon fill="black" stroke="black" points="1589.38,-46.93 1589.91,-36.35 1582.9,-44.29 1589.38,-46.93"/>
<text text-anchor="middle" x="1549.5" y="-155.3" font-family="Times-Roman" font-size="14.00">^5.3.2 || ^7.0 || ^8.0</text>
</g>
<!-- ext&#45;openssl -->
<g id="node11" class="node">
<title>ext&#45;openssl</title>
<path fill="#eeeeff" stroke="black" d="M1628,-231C1628,-231 1560,-231 1560,-231 1554,-231 1548,-225 1548,-219 1548,-219 1548,-207 1548,-207 1548,-201 1554,-195 1560,-195 1560,-195 1628,-195 1628,-195 1634,-195 1640,-201 1640,-207 1640,-207 1640,-219 1640,-219 1640,-225 1634,-231 1628,-231"/>
<text text-anchor="middle" x="1594" y="-209.3" font-family="Times-Roman" font-size="14.00">ext&#45;openssl</text>
</g>
<!-- composer/ca&#45;bundle&#45;&gt;ext&#45;openssl -->
<g id="edge11" class="edge">
<title>composer/ca&#45;bundle&#45;&gt;ext&#45;openssl</title>
<path fill="none" stroke="black" stroke-dasharray="5,2" d="M1708.07,-302.87C1696.75,-297.9 1685.08,-291.92 1675,-285 1656.6,-272.37 1656.7,-263.8 1640,-249 1635.57,-245.08 1630.75,-241.11 1625.94,-237.32"/>
<polygon fill="black" stroke="black" points="1628,-234.48 1617.94,-231.15 1623.72,-240.03 1628,-234.48"/>
<text text-anchor="middle" x="1679" y="-263.3" font-family="Times-Roman" font-size="14.00">*</text>
</g>
<!-- ext&#45;pcre -->
<g id="node12" class="node">
<title>ext&#45;pcre</title>
<path fill="#eeeeff" stroke="black" d="M1716,-231C1716,-231 1670,-231 1670,-231 1664,-231 1658,-225 1658,-219 1658,-219 1658,-207 1658,-207 1658,-201 1664,-195 1670,-195 1670,-195 1716,-195 1716,-195 1722,-195 1728,-201 1728,-207 1728,-207 1728,-219 1728,-219 1728,-225 1722,-231 1716,-231"/>
<text text-anchor="middle" x="1693" y="-209.3" font-family="Times-Roman" font-size="14.00">ext&#45;pcre</text>
</g>
<!-- composer/ca&#45;bundle&#45;&gt;ext&#45;pcre -->
<g id="edge12" class="edge">
<title>composer/ca&#45;bundle&#45;&gt;ext&#45;pcre</title>
<path fill="none" stroke="black" stroke-dasharray="5,2" d="M1713.13,-302.95C1705.94,-298.21 1699.4,-292.3 1695,-285 1687.19,-272.04 1686.41,-255.19 1687.71,-241.16"/>
<polygon fill="black" stroke="black" points="1691.2,-241.46 1689.03,-231.09 1684.26,-240.55 1691.2,-241.46"/>
<text text-anchor="middle" x="1699" y="-263.3" font-family="Times-Roman" font-size="14.00">*</text>
</g>
<!-- composer/metadata&#45;minifier&#45;&gt;php -->
<g id="edge29" class="edge">
<title>composer/metadata&#45;minifier&#45;&gt;php</title>
<path fill="none" stroke="black" stroke-dasharray="5,2" d="M1839.19,-248.79C1823.74,-232.07 1797.9,-207.45 1770,-195 1716.73,-171.23 1683.91,-215.39 1640,-177 1630.02,-168.28 1611.29,-88.7 1601.81,-45.92"/>
<polygon fill="black" stroke="black" points="1605.23,-45.17 1599.67,-36.15 1598.39,-46.67 1605.23,-45.17"/>
<text text-anchor="middle" x="1711.5" y="-155.3" font-family="Times-Roman" font-size="14.00">^5.3.2 || ^7.0 || ^8.0</text>
</g>
<!-- composer/semver&#45;&gt;php -->
<g id="edge30" class="edge">
<title>composer/semver&#45;&gt;php</title>
<path fill="none" stroke="black" stroke-dasharray="5,2" d="M1845.18,-140.96C1790.99,-114.43 1687.02,-63.55 1632.08,-36.66"/>
<polygon fill="black" stroke="black" points="1633.57,-33.49 1623.05,-32.24 1630.5,-39.78 1633.57,-33.49"/>
<text text-anchor="middle" x="1879.5" y="-101.3" font-family="Times-Roman" font-size="14.00">^5.3.2 || ^7.0 || ^8.0</text>
</g>
<!-- composer/spdx&#45;licenses&#45;&gt;php -->
<g id="edge31" class="edge">
<title>composer/spdx&#45;licenses&#45;&gt;php</title>
<path fill="none" stroke="black" stroke-dasharray="5,2" d="M2079.15,-248.99C2050.56,-233.77 2011.4,-208.94 1987,-177 1961.23,-143.27 1987.24,-114.61 1955,-87 1906.87,-45.78 1715.23,-27.48 1633.37,-21.43"/>
<polygon fill="black" stroke="black" points="1633.26,-17.92 1623.04,-20.69 1632.76,-24.9 1633.26,-17.92"/>
<text text-anchor="middle" x="2058.5" y="-155.3" font-family="Times-Roman" font-size="14.00">^5.3.2 || ^7.0 || ^8.0</text>
</g>
<!-- composer/xdebug&#45;handler&#45;&gt;php -->
<g id="edge32" class="edge">
<title>composer/xdebug&#45;handler&#45;&gt;php</title>
<path fill="none" stroke="black" stroke-dasharray="5,2" d="M2388.62,-194.76C2392.55,-179.19 2395.3,-156.41 2384,-141 2368.3,-119.57 2351.91,-132.24 2327,-123 2288.92,-108.87 2281.98,-98.4 2243,-87 2018.65,-21.37 1734.19,-17.41 1633.43,-18.3"/>
<polygon fill="black" stroke="black" points="1633.12,-14.81 1623.16,-18.42 1633.2,-21.81 1633.12,-14.81"/>
<text text-anchor="middle" x="2398.5" y="-101.3" font-family="Times-Roman" font-size="14.00">^5.3.2 || ^7.0 || ^8.0</text>
</g>
<!-- composer/xdebug&#45;handler&#45;&gt;psr/log -->
<g id="edge33" class="edge">
<title>composer/xdebug&#45;handler&#45;&gt;psr/log</title>
<path fill="none" stroke="black" stroke-dasharray="5,2" d="M2396.21,-194.73C2400.38,-189.13 2404.96,-182.86 2409,-177 2419.78,-161.37 2417.15,-152.83 2432,-141 2438.44,-135.87 2452.7,-129.96 2468.41,-124.48"/>
<polygon fill="black" stroke="black" points="2469.96,-127.64 2478.32,-121.13 2467.72,-121.01 2469.96,-127.64"/>
<text text-anchor="middle" x="2479.5" y="-155.3" font-family="Times-Roman" font-size="14.00">^1 || ^2 || ^3</text>
</g>
<!-- justinrainbow/json&#45;schema&#45;&gt;php -->
<g id="edge37" class="edge">
<title>justinrainbow/json&#45;schema&#45;&gt;php</title>
<path fill="none" stroke="black" stroke-dasharray="5,2" d="M2228.11,-140.87C2180.39,-116.91 2088.5,-74.05 2005,-54 1870.92,-21.81 1705.88,-18.29 1633.27,-18.48"/>
<polygon fill="black" stroke="black" points="1633.23,-14.98 1623.24,-18.54 1633.26,-21.98 1633.23,-14.98"/>
<text text-anchor="middle" x="2214.5" y="-101.3" font-family="Times-Roman" font-size="14.00">&gt;=5.3.3</text>
</g>
<!-- psr/log&#45;&gt;php -->
<g id="edge40" class="edge">
<title>psr/log&#45;&gt;php</title>
<path fill="none" stroke="black" stroke-dasharray="5,2" d="M2478.2,-87.93C2438.38,-76.32 2381.76,-61.43 2331,-54 2194.22,-33.97 1763.43,-22.79 1633.47,-19.82"/>
<polygon fill="black" stroke="black" points="1633.32,-16.31 1623.24,-19.58 1633.16,-23.31 1633.32,-16.31"/>
<text text-anchor="middle" x="2426.5" y="-57.8" font-family="Times-Roman" font-size="14.00">&gt;=5.3.0</text>
</g>
<!-- react/promise&#45;&gt;php -->
<g id="edge41" class="edge">
<title>react/promise&#45;&gt;php</title>
<path fill="none" stroke="black" stroke-dasharray="5,2" d="M3030.04,-248.79C3043.47,-223.26 3063.27,-174.74 3042,-141 2978.36,-40.06 2906.33,-69.43 2788,-54 2556.64,-23.84 1808.65,-19.66 1633.11,-19.09"/>
<polygon fill="black" stroke="black" points="1633.09,-15.59 1623.08,-19.06 1633.07,-22.59 1633.09,-15.59"/>
<text text-anchor="middle" x="3075.5" y="-155.3" font-family="Times-Roman" font-size="14.00">&gt;=5.4.0</text>
</g>
<!-- seld/jsonlint&#45;&gt;php -->
<g id="edge42" class="edge">
<title>seld/jsonlint&#45;&gt;php</title>
<path fill="none" stroke="black" stroke-dasharray="5,2" d="M3157.77,-140.98C3149.7,-135.69 3141.19,-129.52 3134,-123 3104.74,-96.48 3113.45,-71.4 3078,-54 3011.26,-21.24 1857.39,-19.1 1633.47,-19"/>
<polygon fill="black" stroke="black" points="1633.23,-15.5 1623.22,-19 1633.22,-22.5 1633.23,-15.5"/>
<text text-anchor="middle" x="3199.5" y="-101.3" font-family="Times-Roman" font-size="14.00">^5.3 || ^7.0 || ^8.0</text>
</g>
<!-- seld/phar&#45;utils&#45;&gt;php -->
<g id="edge43" class="edge">
<title>seld/phar&#45;utils&#45;&gt;php</title>
<path fill="none" stroke="black" stroke-dasharray="5,2" d="M3246.47,-248.98C3266.32,-214.31 3304.09,-134.74 3265,-87 3217.9,-29.47 3174.89,-62.23 3101,-54 2803.87,-20.91 1835.83,-19.01 1633.35,-18.98"/>
<polygon fill="black" stroke="black" points="1633.22,-15.48 1623.22,-18.98 1633.22,-22.48 1633.22,-15.48"/>
<text text-anchor="middle" x="3299.5" y="-155.3" font-family="Times-Roman" font-size="14.00">&gt;=5.3</text>
</g>
<!-- symfony/console&#45;&gt;php -->
<g id="edge48" class="edge">
<title>symfony/console&#45;&gt;php</title>
<path fill="none" stroke="black" stroke-dasharray="5,2" d="M2731.69,-302.87C2737.47,-297.87 2742.78,-291.88 2746,-285 2752.04,-272.11 2741.96,-196.26 2741,-195 2727.49,-177.18 2706.68,-195.43 2694,-177 2684.93,-163.82 2686.71,-155.24 2694,-141 2700.24,-128.81 2712.76,-135.19 2719,-123 2726.29,-108.76 2729.33,-99.22 2719,-87 2661.96,-19.55 2610.88,-63.02 2523,-54 2178.57,-18.65 1758.88,-17.99 1633.24,-18.69"/>
<polygon fill="black" stroke="black" points="1632.99,-15.19 1623.01,-18.75 1633.03,-22.19 1632.99,-15.19"/>
<text text-anchor="middle" x="2742.5" y="-155.3" font-family="Times-Roman" font-size="14.00">^5.5.9|&gt;=7.0.8</text>
</g>
<!-- symfony/debug -->
<g id="node29" class="node">
<title>symfony/debug</title>
<path fill="#eeeeee" stroke="black" d="M2719.5,-231C2719.5,-231 2568.5,-231 2568.5,-231 2562.5,-231 2556.5,-225 2556.5,-219 2556.5,-219 2556.5,-207 2556.5,-207 2556.5,-201 2562.5,-195 2568.5,-195 2568.5,-195 2719.5,-195 2719.5,-195 2725.5,-195 2731.5,-201 2731.5,-207 2731.5,-207 2731.5,-219 2731.5,-219 2731.5,-225 2725.5,-231 2719.5,-231"/>
<text text-anchor="middle" x="2644" y="-209.3" font-family="Times-Roman" font-size="14.00">symfony/debug: v3.4.47</text>
</g>
<!-- symfony/console&#45;&gt;symfony/debug -->
<g id="edge49" class="edge">
<title>symfony/console&#45;&gt;symfony/debug</title>
<path fill="none" stroke="black" stroke-dasharray="5,2" d="M2662.44,-302.85C2655.48,-298.1 2649.18,-292.22 2645,-285 2637.42,-271.91 2636.88,-255.05 2638.37,-241.05"/>
<polygon fill="black" stroke="black" points="2641.85,-241.41 2639.82,-231.01 2634.92,-240.4 2641.85,-241.41"/>
<text text-anchor="middle" x="2695.5" y="-263.3" font-family="Times-Roman" font-size="14.00">~2.8|~3.0|~4.0</text>
</g>
<!-- symfony/polyfill&#45;mbstring -->
<g id="node30" class="node">
<title>symfony/polyfill&#45;mbstring</title>
<path fill="#eeeeee" stroke="black" d="M3028.5,-177C3028.5,-177 2811.5,-177 2811.5,-177 2805.5,-177 2799.5,-171 2799.5,-165 2799.5,-165 2799.5,-153 2799.5,-153 2799.5,-147 2805.5,-141 2811.5,-141 2811.5,-141 3028.5,-141 3028.5,-141 3034.5,-141 3040.5,-147 3040.5,-153 3040.5,-153 3040.5,-165 3040.5,-165 3040.5,-171 3034.5,-177 3028.5,-177"/>
<text text-anchor="middle" x="2920" y="-155.3" font-family="Times-Roman" font-size="14.00">symfony/polyfill&#45;mbstring: v1.19.0</text>
</g>
<!-- symfony/console&#45;&gt;symfony/polyfill&#45;mbstring -->
<g id="edge50" class="edge">
<title>symfony/console&#45;&gt;symfony/polyfill&#45;mbstring</title>
<path fill="none" stroke="black" stroke-dasharray="5,2" d="M2742.36,-302.92C2752.91,-297.67 2764.15,-291.54 2774,-285 2820,-254.48 2867.52,-211.2 2895.39,-184.4"/>
<polygon fill="black" stroke="black" points="2897.96,-186.78 2902.71,-177.3 2893.09,-181.75 2897.96,-186.78"/>
<text text-anchor="middle" x="2836.5" y="-263.3" font-family="Times-Roman" font-size="14.00">~1.0</text>
</g>
<!-- symfony/filesystem&#45;&gt;php -->
<g id="edge53" class="edge">
<title>symfony/filesystem&#45;&gt;php</title>
<path fill="none" stroke="black" stroke-dasharray="5,2" d="M931.36,-194.96C875.39,-172.41 794.73,-130.44 833,-87 881.41,-32.06 1411.24,-21.32 1558.33,-19.39"/>
<polygon fill="black" stroke="black" points="1558.68,-22.89 1568.64,-19.27 1558.59,-15.89 1558.68,-22.89"/>
<text text-anchor="middle" x="881.5" y="-101.3" font-family="Times-Roman" font-size="14.00">^5.5.9|&gt;=7.0.8</text>
</g>
<!-- symfony/polyfill&#45;ctype -->
<g id="node31" class="node">
<title>symfony/polyfill&#45;ctype</title>
<path fill="#eeeeee" stroke="black" d="M1143.5,-123C1143.5,-123 950.5,-123 950.5,-123 944.5,-123 938.5,-117 938.5,-111 938.5,-111 938.5,-99 938.5,-99 938.5,-93 944.5,-87 950.5,-87 950.5,-87 1143.5,-87 1143.5,-87 1149.5,-87 1155.5,-93 1155.5,-99 1155.5,-99 1155.5,-111 1155.5,-111 1155.5,-117 1149.5,-123 1143.5,-123"/>
<text text-anchor="middle" x="1047" y="-101.3" font-family="Times-Roman" font-size="14.00">symfony/polyfill&#45;ctype: v1.19.0</text>
</g>
<!-- symfony/filesystem&#45;&gt;symfony/polyfill&#45;ctype -->
<g id="edge54" class="edge">
<title>symfony/filesystem&#45;&gt;symfony/polyfill&#45;ctype</title>
<path fill="none" stroke="black" stroke-dasharray="5,2" d="M989.93,-194.97C1000.86,-177.92 1017.84,-151.46 1030.43,-131.82"/>
<polygon fill="black" stroke="black" points="1033.42,-133.65 1035.88,-123.34 1027.53,-129.87 1033.42,-133.65"/>
<text text-anchor="middle" x="1037.5" y="-155.3" font-family="Times-Roman" font-size="14.00">~1.8</text>
</g>
<!-- symfony/finder&#45;&gt;php -->
<g id="edge55" class="edge">
<title>symfony/finder&#45;&gt;php</title>
<path fill="none" stroke="black" stroke-dasharray="5,2" d="M1205.48,-140.83C1197.34,-125.08 1189.37,-101.99 1202,-87 1247.49,-32.98 1469.58,-21.88 1558.8,-19.59"/>
<polygon fill="black" stroke="black" points="1559.08,-23.09 1569,-19.35 1558.92,-16.09 1559.08,-23.09"/>
<text text-anchor="middle" x="1250.5" y="-101.3" font-family="Times-Roman" font-size="14.00">^5.5.9|&gt;=7.0.8</text>
</g>
<!-- symfony/process&#45;&gt;php -->
<g id="edge58" class="edge">
<title>symfony/process&#45;&gt;php</title>
<path fill="none" stroke="black" stroke-dasharray="5,2" d="M1397.5,-86.95C1397.53,-76.09 1399.54,-62.51 1408,-54 1428.61,-33.27 1509.81,-24.5 1558.5,-21.04"/>
<polygon fill="black" stroke="black" points="1558.91,-24.52 1568.65,-20.36 1558.44,-17.54 1558.91,-24.52"/>
<text text-anchor="middle" x="1456.5" y="-57.8" font-family="Times-Roman" font-size="14.00">^5.5.9|&gt;=7.0.8</text>
</g>
<!-- symfony/debug&#45;&gt;php -->
<g id="edge51" class="edge">
<title>symfony/debug&#45;&gt;php</title>
<path fill="none" stroke="black" stroke-dasharray="5,2" d="M2641.63,-194.56C2636.98,-167.36 2624.06,-115.07 2591,-87 2543.59,-46.75 2516.6,-62.64 2455,-54 2292.78,-31.24 1777.2,-21.78 1633.5,-19.54"/>
<polygon fill="black" stroke="black" points="1633.48,-16.04 1623.42,-19.39 1633.37,-23.04 1633.48,-16.04"/>
<text text-anchor="middle" x="2666.5" y="-101.3" font-family="Times-Roman" font-size="14.00">^5.5.9|&gt;=7.0.8</text>
</g>
<!-- symfony/debug&#45;&gt;psr/log -->
<g id="edge52" class="edge">
<title>symfony/debug&#45;&gt;psr/log</title>
<path fill="none" stroke="black" stroke-dasharray="5,2" d="M2601.56,-194.99C2592.19,-190.05 2582.75,-184.05 2575,-177 2574.49,-176.54 2558.81,-151.73 2546.1,-131.57"/>
<polygon fill="black" stroke="black" points="2549,-129.62 2540.71,-123.02 2543.08,-133.35 2549,-129.62"/>
<text text-anchor="middle" x="2589.5" y="-155.3" font-family="Times-Roman" font-size="14.00">~1.0</text>
</g>
<!-- symfony/polyfill&#45;mbstring&#45;&gt;php -->
<g id="edge57" class="edge">
<title>symfony/polyfill&#45;mbstring&#45;&gt;php</title>
<path fill="none" stroke="black" stroke-dasharray="5,2" d="M2900.7,-140.65C2871.87,-115.98 2814.74,-71.8 2757,-54 2647.65,-20.29 1819.59,-18.84 1633.19,-18.95"/>
<polygon fill="black" stroke="black" points="1633.06,-15.45 1623.07,-18.96 1633.07,-22.45 1633.06,-15.45"/>
<text text-anchor="middle" x="2900.5" y="-101.3" font-family="Times-Roman" font-size="14.00">&gt;=5.3.3</text>
</g>
<!-- symfony/polyfill&#45;ctype&#45;&gt;php -->
<g id="edge56" class="edge">
<title>symfony/polyfill&#45;ctype&#45;&gt;php</title>
<path fill="none" stroke="black" stroke-dasharray="5,2" d="M1068.56,-86.91C1084.34,-75.43 1106.78,-61.15 1129,-54 1208.73,-28.36 1462.6,-21.32 1558.68,-19.55"/>
<polygon fill="black" stroke="black" points="1558.86,-23.05 1568.8,-19.37 1558.74,-16.05 1558.86,-23.05"/>
<text text-anchor="middle" x="1153.5" y="-57.8" font-family="Times-Roman" font-size="14.00">&gt;=5.3.3</text>
</g>
</g>
</svg>
