<?xml version="1.0" encoding="UTF-8" standalone="no"?>
<!DOCTYPE svg PUBLIC "-//W3C//DTD SVG 1.1//EN"
 "http://www.w3.org/Graphics/SVG/1.1/DTD/svg11.dtd">
<!-- Generated by graphviz version 2.40.1 (20161225.0304)
 -->
<!-- Title: G Pages: 1 -->
<svg width="2276pt" height="521pt"
 viewBox="0.00 0.00 2275.69 521.00" xmlns="http://www.w3.org/2000/svg" xmlns:xlink="http://www.w3.org/1999/xlink">
<g id="graph0" class="graph" transform="scale(1 1) rotate(0) translate(4 517)">
<title>G</title>
<polygon fill="#ffffff" stroke="transparent" points="-4,4 -4,-517 2271.6909,-517 2271.6909,4 -4,4"/>
<!-- sandfoxme/composer&#45;viz -->
<g id="node1" class="node">
<title>sandfoxme/composer&#45;viz</title>
<ellipse fill="none" stroke="#000000" cx="1422.6909" cy="-495" rx="144.8743" ry="18"/>
<text text-anchor="middle" x="1422.6909" y="-491.3" font-family="Times,serif" font-size="14.00" fill="#000000">sandfoxme/composer&#45;viz: dev&#45;master</text>
</g>
<!-- graphp/graphviz -->
<g id="node2" class="node">
<title>graphp/graphviz</title>
<ellipse fill="none" stroke="#000000" cx="304.6909" cy="-321" rx="95.5831" ry="18"/>
<text text-anchor="middle" x="304.6909" y="-317.3" font-family="Times,serif" font-size="14.00" fill="#000000">graphp/graphviz: v0.2.1</text>
</g>
<!-- sandfoxme/composer&#45;viz&#45;&gt;graphp/graphviz -->
<g id="edge2" class="edge">
<title>sandfoxme/composer&#45;viz&#45;&gt;graphp/graphviz</title>
<path fill="none" stroke="#000000" d="M1292.6848,-486.934C1105.3173,-473.4128 749.3803,-440.6168 453.6909,-372 419.9514,-364.1705 383.1179,-351.6014 354.5142,-340.9007"/>
<polygon fill="#000000" stroke="#000000" points="355.7371,-337.6213 345.1457,-337.3529 353.258,-344.1676 355.7371,-337.6213"/>
<text text-anchor="middle" x="750.6909" y="-404.3" font-family="Times,serif" font-size="14.00" fill="#000000">~0.2.0</text>
</g>
<!-- composer/composer -->
<g id="node3" class="node">
<title>composer/composer</title>
<ellipse fill="none" stroke="#000000" cx="1266.6909" cy="-408" rx="105.0817" ry="18"/>
<text text-anchor="middle" x="1266.6909" y="-404.3" font-family="Times,serif" font-size="14.00" fill="#000000">composer/composer: 1.5.2</text>
</g>
<!-- sandfoxme/composer&#45;viz&#45;&gt;composer/composer -->
<g id="edge4" class="edge">
<title>sandfoxme/composer&#45;viz&#45;&gt;composer/composer</title>
<path fill="none" stroke="#000000" stroke-dasharray="5,2" d="M1391.122,-477.3943C1366.7519,-463.8033 1332.8744,-444.91 1306.6207,-430.2686"/>
<polygon fill="#000000" stroke="#000000" points="1308.1189,-427.0966 1297.6805,-425.2827 1304.7094,-433.2102 1308.1189,-427.0966"/>
<text text-anchor="middle" x="1367.1909" y="-447.8" font-family="Times,serif" font-size="14.00" fill="#000000">~1.5</text>
</g>
<!-- composer&#45;plugin&#45;api -->
<g id="node20" class="node">
<title>composer&#45;plugin&#45;api</title>
<ellipse fill="none" stroke="#000000" cx="1474.6909" cy="-408" rx="84.485" ry="18"/>
<text text-anchor="middle" x="1474.6909" y="-404.3" font-family="Times,serif" font-size="14.00" fill="#000000">composer&#45;plugin&#45;api</text>
</g>
<!-- sandfoxme/composer&#45;viz&#45;&gt;composer&#45;plugin&#45;api -->
<g id="edge1" class="edge">
<title>sandfoxme/composer&#45;viz&#45;&gt;composer&#45;plugin&#45;api</title>
<path fill="none" stroke="#000000" d="M1433.4653,-476.9735C1440.7165,-464.8418 1450.4071,-448.6287 1458.571,-434.9698"/>
<polygon fill="#000000" stroke="#000000" points="1461.804,-436.3827 1463.9303,-426.0034 1455.7955,-432.7913 1461.804,-436.3827"/>
<text text-anchor="middle" x="1464.1909" y="-447.8" font-family="Times,serif" font-size="14.00" fill="#000000">^1.1</text>
</g>
<!-- php -->
<g id="node21" class="node">
<title>php</title>
<ellipse fill="none" stroke="#000000" cx="1154.6909" cy="-18" rx="27" ry="18"/>
<text text-anchor="middle" x="1154.6909" y="-14.3" font-family="Times,serif" font-size="14.00" fill="#000000">php</text>
</g>
<!-- sandfoxme/composer&#45;viz&#45;&gt;php -->
<g id="edge3" class="edge">
<title>sandfoxme/composer&#45;viz&#45;&gt;php</title>
<path fill="none" stroke="#000000" d="M1553.6387,-487.1928C1778.873,-472.8841 2215.6909,-440.8937 2215.6909,-408 2215.6909,-408 2215.6909,-408 2215.6909,-105 2215.6909,26.7424 2054.6392,-68.4424 1923.6909,-54 1779.3098,-38.0761 1325.7142,-23.2399 1192.0863,-19.1244"/>
<polygon fill="#000000" stroke="#000000" points="1192.0489,-15.6217 1181.9464,-18.8138 1191.8345,-22.6184 1192.0489,-15.6217"/>
<text text-anchor="middle" x="2241.6909" y="-263.3" font-family="Times,serif" font-size="14.00" fill="#000000">^5.5|^7.0</text>
</g>
<!-- clue/graph -->
<g id="node4" class="node">
<title>clue/graph</title>
<ellipse fill="none" stroke="#000000" cx="240.6909" cy="-105" rx="75.2868" ry="18"/>
<text text-anchor="middle" x="240.6909" y="-101.3" font-family="Times,serif" font-size="14.00" fill="#000000">clue/graph: v0.9.0</text>
</g>
<!-- graphp/graphviz&#45;&gt;clue/graph -->
<g id="edge8" class="edge">
<title>graphp/graphviz&#45;&gt;clue/graph</title>
<path fill="none" stroke="#000000" d="M292.1799,-302.9711C280.6804,-285.4334 264.1725,-257.6125 255.6909,-231 245.3892,-198.6765 242.0536,-159.6457 241.0309,-133.6744"/>
<polygon fill="#000000" stroke="#000000" points="244.521,-133.2908 240.7207,-123.401 237.5242,-133.5022 244.521,-133.2908"/>
<text text-anchor="middle" x="292.6909" y="-209.3" font-family="Times,serif" font-size="14.00" fill="#000000">~0.9.0|~0.8.0</text>
</g>
<!-- graphp/algorithms -->
<g id="node5" class="node">
<title>graphp/algorithms</title>
<ellipse fill="none" stroke="#000000" cx="102.6909" cy="-213" rx="102.8821" ry="18"/>
<text text-anchor="middle" x="102.6909" y="-209.3" font-family="Times,serif" font-size="14.00" fill="#000000">graphp/algorithms: v0.8.1</text>
</g>
<!-- graphp/graphviz&#45;&gt;graphp/algorithms -->
<g id="edge9" class="edge">
<title>graphp/graphviz&#45;&gt;graphp/algorithms</title>
<path fill="none" stroke="#000000" d="M245.8048,-306.7606C227.8593,-301.2416 208.4565,-294.0355 191.6909,-285 168.3864,-272.4404 145.238,-253.4578 128.3928,-238.1367"/>
<polygon fill="#000000" stroke="#000000" points="130.3663,-235.193 120.6565,-230.9537 125.6033,-240.3228 130.3663,-235.193"/>
<text text-anchor="middle" x="209.6909" y="-263.3" font-family="Times,serif" font-size="14.00" fill="#000000">~0.8.0</text>
</g>
<!-- graphp/graphviz&#45;&gt;php -->
<g id="edge10" class="edge">
<title>graphp/graphviz&#45;&gt;php</title>
<path fill="none" stroke="#000000" d="M310.6325,-302.9321C316.3413,-284.9033 324.801,-256.3165 329.6909,-231 337.3234,-191.4842 314.6148,-172.4793 339.6909,-141 412.7313,-49.3086 473.7964,-77.2697 588.6909,-54 690.3727,-33.4062 1008.1815,-22.3228 1117.3957,-19.0471"/>
<polygon fill="#000000" stroke="#000000" points="1117.7042,-22.5396 1127.5965,-18.7457 1117.4974,-15.5426 1117.7042,-22.5396"/>
<text text-anchor="middle" x="362.1909" y="-155.3" font-family="Times,serif" font-size="14.00" fill="#000000">&gt;=5.3.0</text>
</g>
<!-- composer/ca&#45;bundle -->
<g id="node6" class="node">
<title>composer/ca&#45;bundle</title>
<ellipse fill="none" stroke="#000000" cx="1927.6909" cy="-321" rx="105.0817" ry="18"/>
<text text-anchor="middle" x="1927.6909" y="-317.3" font-family="Times,serif" font-size="14.00" fill="#000000">composer/ca&#45;bundle: 1.0.8</text>
</g>
<!-- composer/composer&#45;&gt;composer/ca&#45;bundle -->
<g id="edge14" class="edge">
<title>composer/composer&#45;&gt;composer/ca&#45;bundle</title>
<path fill="none" stroke="#000000" stroke-dasharray="5,2" d="M1340.7702,-395.1704C1354.348,-393.1708 1368.4199,-391.3301 1381.6909,-390 1560.5286,-372.0756 1609.352,-406.7675 1785.6909,-372 1818.4506,-365.541 1853.7931,-352.8695 1881.0239,-341.7738"/>
<polygon fill="#000000" stroke="#000000" points="1882.4031,-344.9909 1890.3,-337.9276 1879.722,-338.5247 1882.4031,-344.9909"/>
<text text-anchor="middle" x="1849.1909" y="-360.8" font-family="Times,serif" font-size="14.00" fill="#000000">^1.0</text>
</g>
<!-- composer/semver -->
<g id="node7" class="node">
<title>composer/semver</title>
<ellipse fill="none" stroke="#000000" cx="2095.6909" cy="-267" rx="96.6831" ry="18"/>
<text text-anchor="middle" x="2095.6909" y="-263.3" font-family="Times,serif" font-size="14.00" fill="#000000">composer/semver: 1.4.2</text>
</g>
<!-- composer/composer&#45;&gt;composer/semver -->
<g id="edge15" class="edge">
<title>composer/composer&#45;&gt;composer/semver</title>
<path fill="none" stroke="#000000" stroke-dasharray="5,2" d="M1340.4538,-395.135C1354.1275,-393.1259 1368.3145,-391.291 1381.6909,-390 1595.9551,-369.3202 1651.762,-395.9005 1865.6909,-372 1944.7842,-363.1636 1974.1068,-381.0263 2041.6909,-339 2059.1052,-328.1712 2072.8566,-309.522 2082.124,-293.9171"/>
<polygon fill="#000000" stroke="#000000" points="2085.1967,-295.5935 2087.056,-285.163 2079.098,-292.1574 2085.1967,-295.5935"/>
<text text-anchor="middle" x="2017.1909" y="-360.8" font-family="Times,serif" font-size="14.00" fill="#000000">^1.0</text>
</g>
<!-- composer/spdx&#45;licenses -->
<g id="node8" class="node">
<title>composer/spdx&#45;licenses</title>
<ellipse fill="none" stroke="#000000" cx="511.6909" cy="-159" rx="118.0794" ry="18"/>
<text text-anchor="middle" x="511.6909" y="-155.3" font-family="Times,serif" font-size="14.00" fill="#000000">composer/spdx&#45;licenses: 1.1.6</text>
</g>
<!-- composer/composer&#45;&gt;composer/spdx&#45;licenses -->
<g id="edge16" class="edge">
<title>composer/composer&#45;&gt;composer/spdx&#45;licenses</title>
<path fill="none" stroke="#000000" stroke-dasharray="5,2" d="M1164.0959,-403.7613C1033.669,-397.8976 815.9199,-386.3877 736.6909,-372 618.8699,-350.6042 550.0103,-383.3464 481.6909,-285 460.9437,-255.1343 478.381,-212.7199 494.0388,-185.5294"/>
<polygon fill="#000000" stroke="#000000" points="497.0564,-187.303 499.2229,-176.9321 491.0618,-183.6884 497.0564,-187.303"/>
<text text-anchor="middle" x="550.1909" y="-317.3" font-family="Times,serif" font-size="14.00" fill="#000000">^1.0</text>
</g>
<!-- justinrainbow/json&#45;schema -->
<g id="node9" class="node">
<title>justinrainbow/json&#45;schema</title>
<ellipse fill="none" stroke="#000000" cx="611.6909" cy="-267" rx="128.8774" ry="18"/>
<text text-anchor="middle" x="611.6909" y="-263.3" font-family="Times,serif" font-size="14.00" fill="#000000">justinrainbow/json&#45;schema: 5.2.4</text>
</g>
<!-- composer/composer&#45;&gt;justinrainbow/json&#45;schema -->
<g id="edge17" class="edge">
<title>composer/composer&#45;&gt;justinrainbow/json&#45;schema</title>
<path fill="none" stroke="#000000" stroke-dasharray="5,2" d="M1161.6099,-406.3761C1038.8978,-403.4208 843.8849,-395.1341 774.6909,-372 722.5264,-354.5595 670.5471,-316.6062 639.7681,-291.4309"/>
<polygon fill="#000000" stroke="#000000" points="641.9685,-288.7086 632.0396,-285.0116 637.4959,-294.0934 641.9685,-288.7086"/>
<text text-anchor="middle" x="824.6909" y="-360.8" font-family="Times,serif" font-size="14.00" fill="#000000">^3.0 || ^4.0 || ^5.0</text>
</g>
<!-- psr/log -->
<g id="node10" class="node">
<title>psr/log</title>
<ellipse fill="none" stroke="#000000" cx="1060.6909" cy="-105" rx="57.6901" ry="18"/>
<text text-anchor="middle" x="1060.6909" y="-101.3" font-family="Times,serif" font-size="14.00" fill="#000000">psr/log: 1.0.2</text>
</g>
<!-- composer/composer&#45;&gt;psr/log -->
<g id="edge19" class="edge">
<title>composer/composer&#45;&gt;psr/log</title>
<path fill="none" stroke="#000000" stroke-dasharray="5,2" d="M1225.0937,-391.4081C1169.0144,-366.3799 1072.0053,-312.9978 1035.6909,-231 1030.0081,-218.1684 1040.2722,-142.355 1040.6909,-141 1041.6619,-137.8577 1042.9297,-134.6824 1044.3563,-131.5872"/>
<polygon fill="#000000" stroke="#000000" points="1047.4903,-133.1464 1048.9744,-122.656 1041.2724,-129.9312 1047.4903,-133.1464"/>
<text text-anchor="middle" x="1082.1909" y="-263.3" font-family="Times,serif" font-size="14.00" fill="#000000">^1.0</text>
</g>
<!-- seld/cli&#45;prompt -->
<g id="node11" class="node">
<title>seld/cli&#45;prompt</title>
<ellipse fill="none" stroke="#000000" cx="832.6909" cy="-267" rx="87.9851" ry="18"/>
<text text-anchor="middle" x="832.6909" y="-263.3" font-family="Times,serif" font-size="14.00" fill="#000000">seld/cli&#45;prompt: 1.0.3</text>
</g>
<!-- composer/composer&#45;&gt;seld/cli&#45;prompt -->
<g id="edge20" class="edge">
<title>composer/composer&#45;&gt;seld/cli&#45;prompt</title>
<path fill="none" stroke="#000000" stroke-dasharray="5,2" d="M1165.4337,-402.7865C1063.7646,-396.8142 919.0391,-386.0174 896.6909,-372 868.5561,-354.3531 850.9816,-319.3796 841.5223,-294.6541"/>
<polygon fill="#000000" stroke="#000000" points="844.7569,-293.3065 838.0682,-285.09 838.1731,-295.6843 844.7569,-293.3065"/>
<text text-anchor="middle" x="909.1909" y="-360.8" font-family="Times,serif" font-size="14.00" fill="#000000">^1.0</text>
</g>
<!-- seld/jsonlint -->
<g id="node12" class="node">
<title>seld/jsonlint</title>
<ellipse fill="none" stroke="#000000" cx="861.6909" cy="-159" rx="76.8869" ry="18"/>
<text text-anchor="middle" x="861.6909" y="-155.3" font-family="Times,serif" font-size="14.00" fill="#000000">seld/jsonlint: 1.6.1</text>
</g>
<!-- composer/composer&#45;&gt;seld/jsonlint -->
<g id="edge21" class="edge">
<title>composer/composer&#45;&gt;seld/jsonlint</title>
<path fill="none" stroke="#000000" stroke-dasharray="5,2" d="M1163.9904,-403.7569C1093.1305,-399.261 1006.2271,-390.1641 974.6909,-372 923.1094,-342.2904 947.304,-302.7334 921.6909,-249 910.8879,-226.3365 895.004,-202.7981 882.2927,-185.4799"/>
<polygon fill="#000000" stroke="#000000" points="884.7674,-182.9446 875.9783,-177.0282 879.1596,-187.1342 884.7674,-182.9446"/>
<text text-anchor="middle" x="956.1909" y="-317.3" font-family="Times,serif" font-size="14.00" fill="#000000">^1.4</text>
</g>
<!-- seld/phar&#45;utils -->
<g id="node13" class="node">
<title>seld/phar&#45;utils</title>
<ellipse fill="none" stroke="#000000" cx="900.6909" cy="-105" rx="83.6854" ry="18"/>
<text text-anchor="middle" x="900.6909" y="-101.3" font-family="Times,serif" font-size="14.00" fill="#000000">seld/phar&#45;utils: 1.0.1</text>
</g>
<!-- composer/composer&#45;&gt;seld/phar&#45;utils -->
<g id="edge22" class="edge">
<title>composer/composer&#45;&gt;seld/phar&#45;utils</title>
<path fill="none" stroke="#000000" stroke-dasharray="5,2" d="M1210.4814,-392.6365C1173.1948,-381.0465 1124.0659,-363.0249 1084.6909,-339 1051.7466,-318.8989 1040.7544,-315.1717 1016.6909,-285 972.4404,-229.5172 992.4254,-196.0933 947.6909,-141 944.1275,-136.6115 939.9258,-132.4469 935.5246,-128.6127"/>
<polygon fill="#000000" stroke="#000000" points="937.4535,-125.6707 927.4817,-122.0909 933.0446,-131.1078 937.4535,-125.6707"/>
<text text-anchor="middle" x="1029.1909" y="-263.3" font-family="Times,serif" font-size="14.00" fill="#000000">^1.0</text>
</g>
<!-- symfony/console -->
<g id="node14" class="node">
<title>symfony/console</title>
<ellipse fill="none" stroke="#000000" cx="1266.6909" cy="-321" rx="102.8821" ry="18"/>
<text text-anchor="middle" x="1266.6909" y="-317.3" font-family="Times,serif" font-size="14.00" fill="#000000">symfony/console: v3.3.10</text>
</g>
<!-- composer/composer&#45;&gt;symfony/console -->
<g id="edge23" class="edge">
<title>composer/composer&#45;&gt;symfony/console</title>
<path fill="none" stroke="#000000" stroke-dasharray="5,2" d="M1266.6909,-389.9735C1266.6909,-378.1918 1266.6909,-362.5607 1266.6909,-349.1581"/>
<polygon fill="#000000" stroke="#000000" points="1270.191,-349.0033 1266.6909,-339.0034 1263.191,-349.0034 1270.191,-349.0033"/>
<text text-anchor="middle" x="1297.6909" y="-360.8" font-family="Times,serif" font-size="14.00" fill="#000000">^2.7 || ^3.0</text>
</g>
<!-- symfony/filesystem -->
<g id="node15" class="node">
<title>symfony/filesystem</title>
<ellipse fill="none" stroke="#000000" cx="1468.6909" cy="-267" rx="112.3801" ry="18"/>
<text text-anchor="middle" x="1468.6909" y="-263.3" font-family="Times,serif" font-size="14.00" fill="#000000">symfony/filesystem: v3.3.10</text>
</g>
<!-- composer/composer&#45;&gt;symfony/filesystem -->
<g id="edge24" class="edge">
<title>composer/composer&#45;&gt;symfony/filesystem</title>
<path fill="none" stroke="#000000" stroke-dasharray="5,2" d="M1300.0486,-390.8364C1310.6431,-385.1128 1322.3014,-378.5257 1332.6909,-372 1371.8359,-347.413 1413.4248,-314.1167 1440.1543,-291.6651"/>
<polygon fill="#000000" stroke="#000000" points="1442.5794,-294.1979 1447.9534,-285.0671 1438.0583,-288.8537 1442.5794,-294.1979"/>
<text text-anchor="middle" x="1386.6909" y="-360.8" font-family="Times,serif" font-size="14.00" fill="#000000">^2.7 || ^3.0</text>
</g>
<!-- symfony/finder -->
<g id="node16" class="node">
<title>symfony/finder</title>
<ellipse fill="none" stroke="#000000" cx="1680.6909" cy="-159" rx="96.6831" ry="18"/>
<text text-anchor="middle" x="1680.6909" y="-155.3" font-family="Times,serif" font-size="14.00" fill="#000000">symfony/finder: v3.3.10</text>
</g>
<!-- composer/composer&#45;&gt;symfony/finder -->
<g id="edge25" class="edge">
<title>composer/composer&#45;&gt;symfony/finder</title>
<path fill="none" stroke="#000000" stroke-dasharray="5,2" d="M1340.4177,-395.0446C1366.5351,-389.3705 1395.8409,-381.7455 1421.6909,-372 1498.1627,-343.17 1521.3828,-337.8849 1583.6909,-285 1617.7281,-256.1104 1647.4708,-213.4388 1664.7618,-185.9266"/>
<polygon fill="#000000" stroke="#000000" points="1667.8622,-187.5672 1670.1366,-177.2193 1661.9056,-183.8903 1667.8622,-187.5672"/>
<text text-anchor="middle" x="1591.6909" y="-317.3" font-family="Times,serif" font-size="14.00" fill="#000000">^2.7 || ^3.0</text>
</g>
<!-- symfony/process -->
<g id="node17" class="node">
<title>symfony/process</title>
<ellipse fill="none" stroke="#000000" cx="1686.6909" cy="-105" rx="102.8821" ry="18"/>
<text text-anchor="middle" x="1686.6909" y="-101.3" font-family="Times,serif" font-size="14.00" fill="#000000">symfony/process: v3.3.10</text>
</g>
<!-- composer/composer&#45;&gt;symfony/process -->
<g id="edge26" class="edge">
<title>composer/composer&#45;&gt;symfony/process</title>
<path fill="none" stroke="#000000" stroke-dasharray="5,2" d="M1341.0908,-395.1329C1442.9176,-377.3205 1614.5583,-346.491 1626.6909,-339 1669.5777,-312.5205 1662.4659,-286.9018 1695.6909,-249 1718.0645,-223.4771 1723.0965,-216.0888 1749.6909,-195 1761.5771,-185.5745 1771.3164,-190.2567 1778.6909,-177 1786.4689,-163.0178 1787.7107,-154.2153 1778.6909,-141 1774.645,-135.0723 1763.4127,-129.1729 1750.1248,-123.9169"/>
<polygon fill="#000000" stroke="#000000" points="1751.2528,-120.6022 1740.6601,-120.3885 1748.8076,-127.1612 1751.2528,-120.6022"/>
<text text-anchor="middle" x="1726.6909" y="-263.3" font-family="Times,serif" font-size="14.00" fill="#000000">^2.7 || ^3.0</text>
</g>
<!-- composer/composer&#45;&gt;php -->
<g id="edge18" class="edge">
<title>composer/composer&#45;&gt;php</title>
<path fill="none" stroke="#000000" stroke-dasharray="5,2" d="M1343.6593,-395.635C1356.3555,-393.6867 1369.3855,-391.7426 1381.6909,-390 1553.4817,-365.6726 1644.9908,-416.9188 1757.6909,-285 1786.8774,-250.8363 1826.8924,-121.9812 1798.6909,-87 1760.3788,-39.4776 1323.7129,-22.9301 1192.0451,-19.0018"/>
<polygon fill="#000000" stroke="#000000" points="1191.7771,-15.4926 1181.6794,-18.7 1191.5733,-22.4896 1191.7771,-15.4926"/>
<text text-anchor="middle" x="1833.1909" y="-209.3" font-family="Times,serif" font-size="14.00" fill="#000000">^5.3.2 || ^7.0</text>
</g>
<!-- clue/graph&#45;&gt;php -->
<g id="edge5" class="edge">
<title>clue/graph&#45;&gt;php</title>
<path fill="none" stroke="#000000" d="M250.8567,-86.9577C258.5101,-75.293 270.1608,-61.0216 284.6909,-54 322.6529,-35.6551 955.3313,-21.941 1117.2082,-18.721"/>
<polygon fill="#000000" stroke="#000000" points="1117.679,-22.2125 1127.608,-18.5158 1117.5408,-15.2139 1117.679,-22.2125"/>
<text text-anchor="middle" x="307.1909" y="-57.8" font-family="Times,serif" font-size="14.00" fill="#000000">&gt;=5.3.0</text>
</g>
<!-- graphp/algorithms&#45;&gt;clue/graph -->
<g id="edge6" class="edge">
<title>graphp/algorithms&#45;&gt;clue/graph</title>
<path fill="none" stroke="#000000" d="M111.746,-194.8247C120.5407,-178.779 135.2508,-155.7122 153.6909,-141 162.6842,-133.8248 173.3086,-127.8738 183.9873,-123.0163"/>
<polygon fill="#000000" stroke="#000000" points="185.5202,-126.1676 193.3461,-119.0257 182.7746,-119.7286 185.5202,-126.1676"/>
<text text-anchor="middle" x="190.6909" y="-155.3" font-family="Times,serif" font-size="14.00" fill="#000000">~0.9.0|~0.8.0</text>
</g>
<!-- graphp/algorithms&#45;&gt;php -->
<g id="edge7" class="edge">
<title>graphp/algorithms&#45;&gt;php</title>
<path fill="none" stroke="#000000" d="M99.8625,-194.9069C96.7248,-167.7623 95.2617,-116.54 122.6909,-87 166.1896,-40.1537 199.353,-62.6618 262.6909,-54 431.7877,-30.875 970.1282,-20.8946 1117.2334,-18.5575"/>
<polygon fill="#000000" stroke="#000000" points="1117.5865,-22.0525 1127.5304,-18.3963 1117.4768,-15.0533 1117.5865,-22.0525"/>
<text text-anchor="middle" x="139.6909" y="-101.3" font-family="Times,serif" font-size="14.00" fill="#000000">&gt;=5.3</text>
</g>
<!-- composer/ca&#45;bundle&#45;&gt;php -->
<g id="edge13" class="edge">
<title>composer/ca&#45;bundle&#45;&gt;php</title>
<path fill="none" stroke="#000000" stroke-dasharray="5,2" d="M1920.0936,-302.8395C1912.601,-284.7404 1900.9581,-256.1015 1891.6909,-231 1862.9227,-153.0773 1897.8894,-104.1729 1831.6909,-54 1806.0358,-34.5556 1329.6935,-22.0513 1191.7975,-18.8278"/>
<polygon fill="#000000" stroke="#000000" points="1191.8014,-15.3271 1181.7232,-18.5948 1191.6395,-22.3252 1191.8014,-15.3271"/>
<text text-anchor="middle" x="1915.1909" y="-155.3" font-family="Times,serif" font-size="14.00" fill="#000000">^5.3.2 || ^7.0</text>
</g>
<!-- ext&#45;openssl -->
<g id="node22" class="node">
<title>ext&#45;openssl</title>
<ellipse fill="none" stroke="#000000" cx="1951.6909" cy="-213" rx="50.8918" ry="18"/>
<text text-anchor="middle" x="1951.6909" y="-209.3" font-family="Times,serif" font-size="14.00" fill="#000000">ext&#45;openssl</text>
</g>
<!-- composer/ca&#45;bundle&#45;&gt;ext&#45;openssl -->
<g id="edge11" class="edge">
<title>composer/ca&#45;bundle&#45;&gt;ext&#45;openssl</title>
<path fill="none" stroke="#000000" stroke-dasharray="5,2" d="M1931.7622,-302.6793C1935.5258,-285.7429 1941.1729,-260.3311 1945.4958,-240.8777"/>
<polygon fill="#000000" stroke="#000000" points="1948.927,-241.5713 1947.6797,-231.0502 1942.0937,-240.0528 1948.927,-241.5713"/>
<text text-anchor="middle" x="1946.1909" y="-263.3" font-family="Times,serif" font-size="14.00" fill="#000000">*</text>
</g>
<!-- ext&#45;pcre -->
<g id="node23" class="node">
<title>ext&#45;pcre</title>
<ellipse fill="none" stroke="#000000" cx="2059.6909" cy="-213" rx="39.7935" ry="18"/>
<text text-anchor="middle" x="2059.6909" y="-209.3" font-family="Times,serif" font-size="14.00" fill="#000000">ext&#45;pcre</text>
</g>
<!-- composer/ca&#45;bundle&#45;&gt;ext&#45;pcre -->
<g id="edge12" class="edge">
<title>composer/ca&#45;bundle&#45;&gt;ext&#45;pcre</title>
<path fill="none" stroke="#000000" stroke-dasharray="5,2" d="M1940.0977,-302.9996C1951.594,-287.2889 1969.8684,-264.6223 1989.6909,-249 1999.0715,-241.6071 2010.2058,-235.0661 2020.803,-229.657"/>
<polygon fill="#000000" stroke="#000000" points="2022.4719,-232.7371 2029.9199,-225.202 2019.3986,-226.4478 2022.4719,-232.7371"/>
<text text-anchor="middle" x="1993.1909" y="-263.3" font-family="Times,serif" font-size="14.00" fill="#000000">*</text>
</g>
<!-- composer/semver&#45;&gt;php -->
<g id="edge27" class="edge">
<title>composer/semver&#45;&gt;php</title>
<path fill="none" stroke="#000000" stroke-dasharray="5,2" d="M2105.1196,-249.0822C2111.7452,-233.8389 2117.9279,-211.8094 2108.6909,-195 2052.3997,-92.5621 1998.0938,-89.3783 1886.6909,-54 1820.2831,-32.9108 1331.6076,-21.5549 1191.8997,-18.7156"/>
<polygon fill="#000000" stroke="#000000" points="1191.7731,-15.2125 1181.7048,-18.511 1191.6326,-22.2111 1191.7731,-15.2125"/>
<text text-anchor="middle" x="2134.1909" y="-155.3" font-family="Times,serif" font-size="14.00" fill="#000000">^5.3.2 || ^7.0</text>
</g>
<!-- composer/spdx&#45;licenses&#45;&gt;php -->
<g id="edge28" class="edge">
<title>composer/spdx&#45;licenses&#45;&gt;php</title>
<path fill="none" stroke="#000000" stroke-dasharray="5,2" d="M521.6373,-140.9875C531.1907,-125.0514 546.9191,-102.054 565.6909,-87 593.4677,-64.7244 604.1669,-62.7091 638.6909,-54 729.4107,-31.1147 1014.3169,-21.6336 1117.1808,-18.8981"/>
<polygon fill="#000000" stroke="#000000" points="1117.4953,-22.3912 1127.401,-18.6327 1117.3135,-15.3935 1117.4953,-22.3912"/>
<text text-anchor="middle" x="602.1909" y="-101.3" font-family="Times,serif" font-size="14.00" fill="#000000">^5.3.2 || ^7.0</text>
</g>
<!-- justinrainbow/json&#45;schema&#45;&gt;php -->
<g id="edge29" class="edge">
<title>justinrainbow/json&#45;schema&#45;&gt;php</title>
<path fill="none" stroke="#000000" stroke-dasharray="5,2" d="M616.5521,-248.7349C629.2734,-205.1408 668.1288,-95.5553 746.6909,-54 778.9957,-36.9124 1022.5222,-24.0535 1117.2009,-19.6509"/>
<polygon fill="#000000" stroke="#000000" points="1117.6347,-23.1348 1127.4637,-19.1799 1117.3137,-16.1422 1117.6347,-23.1348"/>
<text text-anchor="middle" x="685.1909" y="-155.3" font-family="Times,serif" font-size="14.00" fill="#000000">&gt;=5.3.3</text>
</g>
<!-- psr/log&#45;&gt;php -->
<g id="edge30" class="edge">
<title>psr/log&#45;&gt;php</title>
<path fill="none" stroke="#000000" stroke-dasharray="5,2" d="M1070.4171,-87.0768C1076.6913,-76.6049 1085.5586,-63.6034 1095.6909,-54 1103.9407,-46.1809 1114.1634,-39.2192 1123.7695,-33.5511"/>
<polygon fill="#000000" stroke="#000000" points="1125.7041,-36.4787 1132.7059,-28.5272 1122.2738,-30.3768 1125.7041,-36.4787"/>
<text text-anchor="middle" x="1118.1909" y="-57.8" font-family="Times,serif" font-size="14.00" fill="#000000">&gt;=5.3.0</text>
</g>
<!-- seld/cli&#45;prompt&#45;&gt;php -->
<g id="edge31" class="edge">
<title>seld/cli&#45;prompt&#45;&gt;php</title>
<path fill="none" stroke="#000000" stroke-dasharray="5,2" d="M807.2604,-249.4927C785.9527,-233.3189 756.6826,-207.2651 741.6909,-177 723.8823,-141.0482 714.7854,-121.8346 734.6909,-87 749.0238,-61.9174 763.2283,-62.9651 790.6909,-54 850.7754,-34.3854 1037.508,-23.5078 1117.5989,-19.6395"/>
<polygon fill="#000000" stroke="#000000" points="1117.8972,-23.1294 1127.7207,-19.1607 1117.5664,-16.1372 1117.8972,-23.1294"/>
<text text-anchor="middle" x="758.6909" y="-155.3" font-family="Times,serif" font-size="14.00" fill="#000000">&gt;=5.3</text>
</g>
<!-- seld/jsonlint&#45;&gt;php -->
<g id="edge32" class="edge">
<title>seld/jsonlint&#45;&gt;php</title>
<path fill="none" stroke="#000000" stroke-dasharray="5,2" d="M802.7038,-147.4692C777.866,-141.3045 753.0074,-132.9315 745.6909,-123 736.2008,-110.1183 735.361,-99.2186 745.6909,-87 769.721,-58.5764 1021.7041,-31.0587 1117.7701,-21.5228"/>
<polygon fill="#000000" stroke="#000000" points="1118.2868,-24.989 1127.8963,-20.5271 1117.6018,-18.0225 1118.2868,-24.989"/>
<text text-anchor="middle" x="776.6909" y="-101.3" font-family="Times,serif" font-size="14.00" fill="#000000">^5.3 || ^7.0</text>
</g>
<!-- seld/phar&#45;utils&#45;&gt;php -->
<g id="edge33" class="edge">
<title>seld/phar&#45;utils&#45;&gt;php</title>
<path fill="none" stroke="#000000" stroke-dasharray="5,2" d="M944.078,-89.4949C972.8498,-79.2733 1011.467,-65.6691 1045.6909,-54 1070.768,-45.4496 1099.1954,-36.0711 1120.7303,-29.0305"/>
<polygon fill="#000000" stroke="#000000" points="1121.9819,-32.3038 1130.4026,-25.874 1119.8101,-25.6492 1121.9819,-32.3038"/>
<text text-anchor="middle" x="1062.6909" y="-57.8" font-family="Times,serif" font-size="14.00" fill="#000000">&gt;=5.3</text>
</g>
<!-- symfony/debug -->
<g id="node18" class="node">
<title>symfony/debug</title>
<ellipse fill="none" stroke="#000000" cx="1141.6909" cy="-213" rx="97.4827" ry="18"/>
<text text-anchor="middle" x="1141.6909" y="-209.3" font-family="Times,serif" font-size="14.00" fill="#000000">symfony/debug: v3.3.10</text>
</g>
<!-- symfony/console&#45;&gt;symfony/debug -->
<g id="edge35" class="edge">
<title>symfony/console&#45;&gt;symfony/debug</title>
<path fill="none" stroke="#000000" stroke-dasharray="5,2" d="M1229.2022,-304.2411C1219.0994,-298.8462 1208.5301,-292.338 1199.6909,-285 1183.8952,-271.887 1169.4057,-253.9052 1158.8598,-239.1925"/>
<polygon fill="#000000" stroke="#000000" points="1161.7167,-237.1704 1153.1263,-230.9692 1155.9746,-241.174 1161.7167,-237.1704"/>
<text text-anchor="middle" x="1226.1909" y="-263.3" font-family="Times,serif" font-size="14.00" fill="#000000">~2.8|~3.0</text>
</g>
<!-- symfony/polyfill&#45;mbstring -->
<g id="node19" class="node">
<title>symfony/polyfill&#45;mbstring</title>
<ellipse fill="none" stroke="#000000" cx="1341.6909" cy="-159" rx="131.8766" ry="18"/>
<text text-anchor="middle" x="1341.6909" y="-155.3" font-family="Times,serif" font-size="14.00" fill="#000000">symfony/polyfill&#45;mbstring: v1.5.0</text>
</g>
<!-- symfony/console&#45;&gt;symfony/polyfill&#45;mbstring -->
<g id="edge36" class="edge">
<title>symfony/console&#45;&gt;symfony/polyfill&#45;mbstring</title>
<path fill="none" stroke="#000000" stroke-dasharray="5,2" d="M1275.0038,-303.0442C1288.1251,-274.7022 1313.7231,-219.4104 1329.1058,-186.1837"/>
<polygon fill="#000000" stroke="#000000" points="1332.3156,-187.5814 1333.3408,-177.0362 1325.9634,-184.6405 1332.3156,-187.5814"/>
<text text-anchor="middle" x="1312.1909" y="-263.3" font-family="Times,serif" font-size="14.00" fill="#000000">~1.0</text>
</g>
<!-- symfony/console&#45;&gt;php -->
<g id="edge34" class="edge">
<title>symfony/console&#45;&gt;php</title>
<path fill="none" stroke="#000000" stroke-dasharray="5,2" d="M1270.0218,-302.5992C1273.8438,-275.0527 1276.3174,-223.3126 1247.6909,-195 1206.5323,-154.2927 1156.6909,-220.6705 1118.6909,-177 1108.188,-164.9298 1108.3135,-153.1783 1118.6909,-141 1151.3902,-102.6258 1197.9915,-161.3742 1230.6909,-123 1255.5051,-93.8794 1213.8393,-57.1268 1183.0509,-35.7234"/>
<polygon fill="#000000" stroke="#000000" points="1184.9692,-32.7956 1174.7197,-30.1126 1181.059,-38.6017 1184.9692,-32.7956"/>
<text text-anchor="middle" x="1159.6909" y="-155.3" font-family="Times,serif" font-size="14.00" fill="#000000">^5.5.9|&gt;=7.0.8</text>
</g>
<!-- symfony/filesystem&#45;&gt;php -->
<g id="edge39" class="edge">
<title>symfony/filesystem&#45;&gt;php</title>
<path fill="none" stroke="#000000" stroke-dasharray="5,2" d="M1475.3843,-248.832C1483.7074,-222.9318 1494.5558,-174.7946 1474.6909,-141 1430.8766,-66.4624 1382.6722,-81.4704 1300.6909,-54 1263.8229,-41.6462 1220.4353,-31.4817 1190.5935,-25.1406"/>
<polygon fill="#000000" stroke="#000000" points="1191.1404,-21.6794 1180.6359,-23.0598 1189.7085,-28.5314 1191.1404,-21.6794"/>
<text text-anchor="middle" x="1525.6909" y="-155.3" font-family="Times,serif" font-size="14.00" fill="#000000">^5.5.9|&gt;=7.0.8</text>
</g>
<!-- symfony/finder&#45;&gt;php -->
<g id="edge40" class="edge">
<title>symfony/finder&#45;&gt;php</title>
<path fill="none" stroke="#000000" stroke-dasharray="5,2" d="M1611.2077,-146.3702C1558.7079,-136.7214 1495.2283,-124.7807 1492.6909,-123 1463.4918,-102.5084 1481.5753,-73.4786 1451.6909,-54 1430.3322,-40.0785 1267.0292,-26.335 1192.0793,-20.6857"/>
<polygon fill="#000000" stroke="#000000" points="1191.922,-17.1644 1181.6897,-19.9119 1191.4021,-24.1451 1191.922,-17.1644"/>
<text text-anchor="middle" x="1533.6909" y="-101.3" font-family="Times,serif" font-size="14.00" fill="#000000">^5.5.9|&gt;=7.0.8</text>
</g>
<!-- symfony/process&#45;&gt;php -->
<g id="edge42" class="edge">
<title>symfony/process&#45;&gt;php</title>
<path fill="none" stroke="#000000" stroke-dasharray="5,2" d="M1636.654,-89.1614C1598.844,-77.7663 1545.47,-62.8953 1497.6909,-54 1387.7918,-33.5394 1255.7589,-23.7751 1192.3283,-19.9879"/>
<polygon fill="#000000" stroke="#000000" points="1192.2121,-16.4754 1182.0261,-19.3898 1191.8063,-23.4636 1192.2121,-16.4754"/>
<text text-anchor="middle" x="1601.6909" y="-57.8" font-family="Times,serif" font-size="14.00" fill="#000000">^5.5.9|&gt;=7.0.8</text>
</g>
<!-- symfony/debug&#45;&gt;psr/log -->
<g id="edge38" class="edge">
<title>symfony/debug&#45;&gt;psr/log</title>
<path fill="none" stroke="#000000" stroke-dasharray="5,2" d="M1077.9705,-199.1792C1067.2107,-193.9839 1057.3771,-186.8355 1050.6909,-177 1041.871,-164.0258 1043.9749,-146.6742 1048.4733,-132.2559"/>
<polygon fill="#000000" stroke="#000000" points="1051.7716,-133.4268 1051.8653,-122.8324 1045.1853,-131.056 1051.7716,-133.4268"/>
<text text-anchor="middle" x="1063.1909" y="-155.3" font-family="Times,serif" font-size="14.00" fill="#000000">~1.0</text>
</g>
<!-- symfony/debug&#45;&gt;php -->
<g id="edge37" class="edge">
<title>symfony/debug&#45;&gt;php</title>
<path fill="none" stroke="#000000" stroke-dasharray="5,2" d="M1116.9704,-195.2019C1111.5923,-189.9992 1106.6354,-183.8455 1103.6909,-177 1097.3688,-162.302 1096.5355,-155.3108 1103.6909,-141 1109.6537,-129.0743 1120.2784,-134.083 1127.6909,-123 1143.0681,-100.0085 1149.6881,-68.8136 1152.5378,-46.4095"/>
<polygon fill="#000000" stroke="#000000" points="1156.0472,-46.5131 1153.6557,-36.1917 1149.0888,-45.7517 1156.0472,-46.5131"/>
<text text-anchor="middle" x="1185.6909" y="-101.3" font-family="Times,serif" font-size="14.00" fill="#000000">^5.5.9|&gt;=7.0.8</text>
</g>
<!-- symfony/polyfill&#45;mbstring&#45;&gt;php -->
<g id="edge41" class="edge">
<title>symfony/polyfill&#45;mbstring&#45;&gt;php</title>
<path fill="none" stroke="#000000" stroke-dasharray="5,2" d="M1335.6118,-140.9358C1326.78,-117.4349 1308.1612,-76.7056 1278.6909,-54 1253.5301,-34.6147 1218.2349,-25.6599 1191.7316,-21.5279"/>
<polygon fill="#000000" stroke="#000000" points="1192.0744,-18.0419 1181.6862,-20.1243 1191.1056,-24.9746 1192.0744,-18.0419"/>
<text text-anchor="middle" x="1351.1909" y="-101.3" font-family="Times,serif" font-size="14.00" fill="#000000">&gt;=5.3.3</text>
</g>
</g>
</svg>
