<svg xmlns="http://www.w3.org/2000/svg" xmlns:xlink="http://www.w3.org/1999/xlink" width="7064" height="722.667"
viewBox="0 0 5297.51 542" xmlns:v="https://vecta.io/nano">
<style>
<![CDATA[.B{text-anchor:middle}.C{font-family:Times,serif}.D{font-size:14px}.E{stroke:#000}.F{fill:#000}.G{fill:none}.H{fill:#777}.I{stroke:#777}.J{fill:#fff}.K{fill:#c77}.L{stroke:#c77}.M{fill:#fee}.N{fill:#eef}.O{fill:#eee}]]></style>
<g transform="matrix(1 0 0 1 4 538)">
<path stroke="transparent" d="M-4 4v-542h5297.51V4H-4z" class="J"/>
<path fill="#efe" d="M3049.01-534h-137c-6 0-12 6-12 12v12c0 6 6 12 12 12h137c6 0 12-6 12-12v-12c0-6-6-12-12-12"
class="E"/>
<text x="2980.51" y="-512.3" class="B C D F">__root__: dev-master</text>
<path d="M91.01-393h-61c-6 0-12 6-12 12v12c0 6 6 12 12 12h61c6 0 12-6 12-12v-12c0-6-6-12-12-12" class="E N"/>
<text x="60.51" y="-371.3" class="B C D F">php-64bit</text>
<g class="E">
<path d="M2899.71-515.27c-413.91-1.2-2287.13-4.39-2543.2 35.27-92.86 14.38-194.99 56.61-251.72 82.62"
class="G"/>
<path d="M105.95-394.06l-10.54 1.03 7.6-7.38 2.94 6.35z"/>
</g>
<text x="360.01" y="-468.8" class="B C D F">*</text>
<path d="M316.01-447h-47c-6 0-12 6-12 12v12c0 6 6 12 12 12h47c6 0 12-6 12-12v-12c0-6-6-12-12-12" class="E N"/>
<text x="292.51" y="-425.3" class="B C D F">ext-curl</text>
<g class="E">
<path d="M2899.67-514.73L416.51-480c-28.4 5.71-58.58 17.74-82.06 28.56" class="G"/>
<path d="M335.69-448.15l-10.53 1.1 7.55-7.43 2.98 6.33z"/>
</g>
<text x="420.01" y="-468.8" class="B C D F">*</text>
<path d="M401.01-447h-43c-6 0-12 6-12 12v12c0 6 6 12 12 12h43c6 0 12-6 12-12v-12c0-6-6-12-12-12" class="E N"/>
<text x="379.51" y="-425.3" class="B C D F">lib-curl</text>
<g class="E">
<path d="M2899.9-515.1c-417.65-.37-2320.81-.09-2440.39 35.1-18.65 5.49-37.2 16.64-51.74 27.02" class="G"/>
<path d="M409.82-450.15l-10.12 3.14 5.95-8.76 4.17 5.62z"/>
</g>
<text x="481.51" y="-468.8" class="B C D F">^7.76</text>
<path d="M447.51-339h-240c-6 0-12 6-12 12v12c0 6 6 12 12 12h240c6 0 12-6 12-12v-12c0-6-6-12-12-12" class="E J"/>
<text x="327.51" y="-317.3" class="B C D F">arokettu/composer-viz: dev-master</text>
<g class="E">
<path d="M2899.83-514.59L517.51-473.5m0 2c-6.14 3.06-7.76 3.65-14 6.5-17.73 8.1-23.72 7.27-40 18-12.04 7.94-74.31 66.45-110.28 100.53"
class="G"/>
<path d="M355.22-343.53l-9.66 4.34 4.84-9.42 4.82 5.08z"/>
</g>
<text x="483.51" y="-425.3" class="B C D F">@dev</text>
<path d="M3607.51-447h-220c-6 0-12 6-12 12v12c0 6 6 12 12 12h220c6 0 12-6 12-12v-12c0-6-6-12-12-12"
class="E M"/>
<text x="3497.51" y="-425.3" class="B C D F">psr/http-factory-implementation</text>
<g class="E">
<path d="M3061.29-501.72l322.47 53.02" class="G"/>
<path d="M3384.37-452.15l9.3 5.08-10.44 1.83 1.14-6.91z"/>
</g>
<text x="3288.01" y="-468.8" class="B C D F">^1.0</text>
<path d="M973.51-123h-170c-6 0-12 6-12 12v12c0 6 6 12 12 12h170c6 0 12-6 12-12v-12c0-6-6-12-12-12" class="E J"/>
<text x="888.51" y="-101.3" class="B C D F">symfony/polyfill: v1.23.1</text>
<g class="E">
<path d="M517.51-471.5c-32 18.17-3.58 304.04 22 330.5 16.69 17.25 145.21 26.53 241.47 31.11" class="G"/>
<path d="M781.25-113.38l9.83 3.96-10.16 3.03.33-6.99z"/>
</g>
<text x="529.51" y="-317.3" class="B C D F">^1.23</text>
<path d="M2153.51-447h-172c-6 0-12 6-12 12v12c0 6 6 12 12 12h172c6 0 12-6 12-12v-12c0-6-6-12-12-12"
class="E J"/>
<text x="2067.51" y="-425.3" class="B C D F">symfony/symfony: v5.3.9</text>
<g class="E">
<path d="M2899.89-507.49l-724.01 67.4" class="G"/>
<path d="M2176.12-436.6l-10.28-2.55 9.63-4.42.65 6.97z"/>
</g>
<text x="2597.01" y="-468.8" class="B C D F">^5.3</text>
<path d="M4128.01-285h-55c-6 0-12 6-12 12v12c0 6 6 12 12 12h55c6 0 12-6 12-12v-12c0-6-6-12-12-12" class="I N"/>
<text x="4100.51" y="-263.3" class="B C D H">php-ipv6</text>
<g class="I">
<path d="M3061.28-513.73c216.34 3.65 798.27 15.09 883.23 33.73 37.17 8.15 51.95 6.24 79 33 43.08 42.63 63.58 113.26 72 151.82"
class="G"/>
<path d="M4098.97-295.71l-1.4 10.51-5.45-9.09 6.85-1.42z" class="H"/>
</g>
<text x="4054.01" y="-425.3" class="B C D H">*</text>
<path d="M4002.51-447h-48c-6 0-12 6-12 12v12c0 6 6 12 12 12h48c6 0 12-6 12-12v-12c0-6-6-12-12-12" class="I N"/>
<text x="3978.51" y="-425.3" class="B C D H">ext-json</text>
<g class="I">
<path d="M3061.09-514.45c210.06 1.8 763.56 8.93 842.42 34.45 17.39 5.63 34.52 16.52 48.01 26.71" class="G"/>
<path d="M3953.71-456.02l5.7 8.93-10.02-3.42 4.32-5.51z" class="H"/>
</g>
<text x="3937.01" y="-468.8" class="B C D H">*</text>
<path d="M4650.51-447h-216c-6 0-12 6-12 12v12c0 6 6 12 12 12h216c6 0 12-6 12-12v-12c0-6-6-12-12-12"
class="I O"/>
<text x="4542.51" y="-425.3" class="B C D H">laminas/laminas-barcode: 2.9.0</text>
<g class="I">
<path d="M3061.2-514.51c181.81 1.56 637.27 8.01 1017.31 34.51 112.88 7.87 240.7 22.03 333.56 33.28"
class="G"/>
<path d="M4412.57-450.18l9.5 4.68-10.35 2.27.85-6.95z" class="H"/>
</g>
<text x="4262.01" y="-468.8" class="B C D H">^2.5</text>
<path d="M3947.51-339h-224c-6 0-12 6-12 12v12c0 6 6 12 12 12h224c6 0 12-6 12-12v-12c0-6-6-12-12-12"
class="I O"/>
<text x="3835.51" y="-317.3" class="B C D H">laminas/laminas-diactoros: 2.8.0</text>
<g class="I">
<path d="M3061.05-514.71c124.03 2.27 368.29 13.94 567.46 67.71 56.46 15.24 70.25 23.25 120 54 22.09 13.65 44.75 32.32 61.4 47.09"
class="G"/>
<path d="M3812.48-348.31l5.09 9.3-9.77-4.09 4.68-5.21z" class="H"/>
</g>
<text x="3737.01" y="-425.3" class="B C D H">^2.8</text>
<path d="M2975.51-36h-30c-6 0-12 6-12 12v12c0 6 6 12 12 12h30c6 0 12-6 12-12v-12c0-6-6-12-12-12" class="E N"/>
<text x="2960.51" y="-14.3" class="B C D F">php</text>
<path d="M51.98-356.95C25.32-301.14-48.91-124.03 49.51-62.5m0 2c61.73 43.29 2538.34 41.93 2873.59 41.55"
class="G L"/>
<path d="M2923.25-22.45l10 3.49-9.99 3.51-.01-7z" class="K L"/>
<path d="M181.01-231h-137c-6 0-12 6-12 12v12c0 6 6 12 12 12h137c6 0 12-6 12-12v-12c0-6-6-12-12-12" class="E N"/>
<text x="112.51" y="-209.3" class="B C D F">composer-plugin-api</text>
<g class="E">
<path d="M271.89-302.93c-14.69 5.15-30.35 11.24-44.38 17.93-28.98 13.82-59.84 33.15-82.28 48.15" class="G"/>
<path d="M147-233.82l-10.24 2.69 6.32-8.49 3.92 5.8z"/>
</g>
<text x="268.51" y="-263.3" class="B C D F">^1.1 | ^2.0</text>
<path d="M388.01-231h-165c-6 0-12 6-12 12v12c0 6 6 12 12 12h165c6 0 12-6 12-12v-12c0-6-6-12-12-12" class="E J"/>
<text x="305.51" y="-209.3" class="B C D F">graphp/graphviz: v0.2.2</text>
<g class="E">
<path d="M323.98-302.97l-12.83 61.81" class="G"/>
<path d="M314.57-240.42l-5.46 9.08-1.39-10.5 6.85 1.42z"/>
</g>
<text x="345.01" y="-263.3" class="B C D F">~0.2.0</text>
<g class="E">
<path d="M353.18-302.93c7.01 5.3 14.33 11.45 20.33 17.93 19.45 20.97 23.81 27.68 35 54 16.08 37.8-7.43 60.36 21 90 40.23 41.95 100.82-17.38 126 35m0 2c26.7 55.81 2064.31 81.13 2367.46 84.59"
class="G"/>
<path d="M2923.45-22.91l9.96 3.61-10.04 3.39.08-7z"/>
</g>
<text x="469.01" y="-155.3" class="B C D F">&gt;= 5.5 &lt; 9</text>
<g class="L">
<path d="M3552.2-410.93l57.31 17.93 161.99 50.86" class="G"/>
<path d="M3772.69-345.43l8.49 6.34-10.59.33 2.1-6.67z" class="K"/>
</g>
<text x="3733.01" y="-371.3" class="B C D K">1.0</text>
<g class="E">
<path d="M985.67-100.01L2923.2-20.53" class="G"/>
<path d="M2923.63-24.02l9.85 3.91-10.13 3.09.28-7z"/>
</g>
<text x="2072.51" y="-57.8" class="B C D F">&gt;=7.1</text>
<g class="E">
<path d="M2165.58-419.64c67.31 11.13 141.85 37.1 125.93 97.64m0 2c-1.02 11.62-10.88 9.72-20 17-10.42 8.32-13.99 9.19-24 18-16.75 14.74-14.77 26.58-35 36-50.29 23.42-211.21-22.62-249 18-39.14 42.07-8.32 85.08 33 125m0 2c8.38 7.63 8.77 12.14 19 17 63 29.92 87.28 7.84 155 24.5m0 2c145.27 35.74 615.39 40.7 752.28 41.39"
class="G"/>
<path d="M2923.18-22.61l9.98 3.55-10.01 3.45.03-7z"/>
</g>
<text x="1993.01" y="-209.3" class="B C D F">&gt;=7.2.5</text>
<path d="M2646.01-123h-107c-6 0-12 6-12 12v12c0 6 6 12 12 12h107c6 0 12-6 12-12v-12c0-6-6-12-12-12"
class="E J"/>
<text x="2592.51" y="-101.3" class="B C D F">psr/cache: 2.0.0</text>
<g class="E">
<path d="M2291.51-320c-3.81 15.14-2.33 19.4-3 35-.68 15.99-5.91 21.13 0 36 4.07 10.23 12.44 7.99 17 18 13.15 28.85-5.42 41.83 7 71m0 2c4.33 8.78 5.39 12.35 14 17 32.85 17.72 130.03 12.84 167 18l23.38 3.51"
class="G"/>
<path d="M2517.52-122.93l9.31 5.06-10.43 1.85 1.12-6.91z"/>
</g>
<text x="2325.01" y="-263.3" class="B C D F">^1.0|^2.0</text>
<path d="M2878.01-231h-209c-6 0-12 6-12 12v12c0 6 6 12 12 12h209c6 0 12-6 12-12v-12c0-6-6-12-12-12"
class="E J"/>
<text x="2773.51" y="-209.3" class="B C D F">doctrine/event-manager: 1.1.1</text>
<g class="E">
<path d="M2165.54-423.4c71.48 4.59 170.39 13.5 255.97 30.4 163.88 32.37 260.29-26.02 360 108 9.24 12.41 7.57 29.58 3.44 43.93"
class="G"/>
<path d="M2788.14-239.58l-6.52 8.35-.11-10.6 6.63 2.25z"/>
</g>
<text x="2783.01" y="-317.3" class="B C D F">~1.0</text>
<path d="M2559.51-339h-184c-6 0-12 6-12 12v12c0 6 6 12 12 12h184c6 0 12-6 12-12v-12c0-6-6-12-12-12"
class="E J"/>
<text x="2467.51" y="-317.3" class="B C D F">doctrine/persistence: 2.2.2</text>
<g class="E">
<path d="M2165.74-419.52c43.41 5.26 94.71 13.59 139.77 26.52 42.71 12.26 88.9 33.35 120.99 49.36"
class="G"/>
<path d="M2428.23-346.69l7.34 7.64-10.5-1.39 3.16-6.25z"/>
</g>
<text x="2406.51" y="-371.3" class="B C D F">^2</text>
<path d="M3261.51-339h-272c-6 0-12 6-12 12v12c0 6 6 12 12 12h272c6 0 12-6 12-12v-12c0-6-6-12-12-12"
class="E J"/>
<text x="3125.51" y="-317.3" class="B C D F">friendsofphp/proxy-manager-lts: v1.0.5</text>
<g class="E">
<path d="M2165.6-426.79c185.98 2.8 583.41 11.28 718.91 33.79 65.21 10.84 137.68 33.73 185.96 50.6"
class="G"/>
<path d="M3071.82-345.63l8.27 6.63-10.6-.03 2.33-6.6z"/>
</g>
<text x="3048.01" y="-371.3" class="B C D F">^1.0.2</text>
<path d="M4259.51-123h-134c-6 0-12 6-12 12v12c0 6 6 12 12 12h134c6 0 12-6 12-12v-12c0-6-6-12-12-12"
class="E J"/>
<text x="4192.51" y="-101.3" class="B C D F">psr/container: 1.1.1</text>
<g class="E">
<path d="M2165.78-427.21L3748.51-393c99.82 13.13 140.25-7.45 220 54 36.08 27.8 15.9 58.71 49 90 13.58 12.84 21.81 8.67 38 18 3.01 1.74 101.05 68.13 103 71m0 2l17.04 26.09"
class="G"/>
<path d="M4178.63-133.61l2.54 10.28-8.4-6.45 5.86-3.83z"/>
</g>
<text x="4035.01" y="-263.3" class="B C D F">^1.0</text>
<path d="M3746.01-123h-185c-6 0-12 6-12 12v12c0 6 6 12 12 12h185c6 0 12-6 12-12v-12c0-6-6-12-12-12"
class="E J"/>
<text x="3653.51" y="-101.3" class="B C D F">psr/event-dispatcher: 1.0.0</text>
<g class="E">
<path d="M3595.51-374c7.58 6.19 6.38 10.86 14 17 13.62 10.98 21.99 6.31 35 18 42.73 38.4 50.05 54.51 71 108 8.88 22.65 6.99 29.75 9 54 1.32 15.95 8.45 22.41 0 36-2.79 4.48-6.33 8.4-10.35 11.84"
class="G"/>
<path d="M3716.07-126.22l-10.14 3.07 6.01-8.73 4.13 5.66z"/>
</g>
<text x="3726.01" y="-263.3" class="B C D F">^1.0</text>
<path d="M3456.01-285h-93c-6 0-12 6-12 12v12c0 6 6 12 12 12h93c6 0 12-6 12-12v-12c0-6-6-12-12-12" class="E J"/>
<text x="3409.51" y="-263.3" class="B C D F">psr/link: 1.1.1</text>
<g class="E">
<path d="M2165.52-427.36c217.98 1.86 737.35 8.91 910.99 34.36 93.65 13.72 118.21 18.62 206 54 32.55 13.12 67.18 32.91 92.04 48.27"
class="G"/>
<path d="M3376.62-293.56l6.63 8.26-10.34-2.33 3.71-5.93z"/>
</g>
<text x="3251.01" y="-371.3" class="B C D F">^1.0</text>
<path d="M3570.01-177h-89c-6 0-12 6-12 12v12c0 6 6 12 12 12h89c6 0 12-6 12-12v-12c0-6-6-12-12-12" class="E J"/>
<text x="3525.51" y="-155.3" class="B C D F">psr/log: 2.0.0</text>
<g class="E">
<path d="M2165.68-428.49c330.08-1.16 1381.9-.65 1429.83 52.49m0 2c15.38 17.05-23.73 17.01-38 35-34.25 43.2-46.98 54.68-61 108-4.07 15.47-5.42 20.95 0 36 1.19 3.29 2.83 6.49 4.74 9.54"
class="G"/>
<path d="M3504.1-187.5l3.08 10.14-8.73-6.01 5.65-4.13z"/>
</g>
<text x="3580.51" y="-317.3" class="B C D F">^1|^2</text>
<path d="M3695.01-231h-177c-6 0-12 6-12 12v12c0 6 6 12 12 12h177c6 0 12-6 12-12v-12c0-6-6-12-12-12"
class="E J"/>
<text x="3606.51" y="-209.3" class="B C D F">symfony/contracts: v2.4.0</text>
<g class="E">
<path d="M3595.51-374c16.18 19.55 14.89 92.38 12.81 132.71" class="G"/>
<path d="M3611.81-240.87l-4.07 9.78-2.92-10.18 6.99.4z"/>
</g>
<text x="3627.01" y="-317.3" class="B C D F">^2.1</text>
<path d="M708.01-339h-45c-6 0-12 6-12 12v12c0 6 6 12 12 12h45c6 0 12-6 12-12v-12c0-6-6-12-12-12" class="E N"/>
<text x="685.51" y="-317.3" class="B C D F">ext-xml</text>
<g class="E">
<path d="M1969.41-426.91c-290.58 3.44-1130.09 14.97-1185.9 33.91-28.2 9.57-55.22 30.31-73.72 46.92"
class="G"/>
<path d="M712.13-343.48l-9.72 4.22 4.97-9.36 4.75 5.14z"/>
</g>
<text x="787.01" y="-371.3" class="B C D F">*</text>
<path d="M963.51-231h-150c-6 0-12 6-12 12v12c0 6 6 12 12 12h150c6 0 12-6 12-12v-12c0-6-6-12-12-12" class="E M"/>
<text x="888.51" y="-209.3" class="B C D F">symfony/polyfill-ctype</text>
<g class="E">
<path d="M1969.21-426.98c-205.81 2.59-676.1 10.89-834.7 33.98-95.36 13.89-124.79 8.98-210 54-21.44 11.33-19.05 25.69-41 36-46.03 21.63-79.99-20.69-113 18-10.38 12.17-9.57 23.18 0 36 4.1 5.49 13.56 10.43 25.42 14.75"
class="G"/>
<path d="M797.06-237.57l8.37 6.49-10.59.15 2.22-6.64z"/>
</g>
<text x="942.01" y="-317.3" class="B C D F">~1.8</text>
<path d="M1990.51-285h-212c-6 0-12 6-12 12v12c0 6 6 12 12 12h212c6 0 12-6 12-12v-12c0-6-6-12-12-12"
class="E M"/>
<text x="1884.51" y="-263.3" class="B C D F">symfony/polyfill-intl-grapheme</text>
<g class="E">
<path d="M2047.44-410.97L2026.51-393l-115.25 101.24" class="G"/>
<path d="M1913.53-289.09l-9.81 4.01 5.16-9.25 4.65 5.24z"/>
</g>
<text x="2044.01" y="-371.3" class="B C D F">~1.0</text>
<path d="M1749.01-285h-161c-6 0-12 6-12 12v12c0 6 6 12 12 12h161c6 0 12-6 12-12v-12c0-6-6-12-12-12"
class="E M"/>
<text x="1668.51" y="-263.3" class="B C D F">symfony/polyfill-intl-icu</text>
<g class="E">
<path d="M2003.69-410.94c-18 5.28-37.5 11.43-55.18 17.94-85.71 31.57-182.3 76.97-236.69 103.48" class="G"/>
<path d="M1713.33-286.36l-10.52 1.25 7.45-7.54 3.07 6.29z"/>
</g>
<text x="1966.01" y="-371.3" class="B C D F">~1.0</text>
<path d="M2181.51-285h-162c-6 0-12 6-12 12v12c0 6 6 12 12 12h162c6 0 12-6 12-12v-12c0-6-6-12-12-12"
class="E M"/>
<text x="2100.51" y="-263.3" class="B C D F">symfony/polyfill-intl-idn</text>
<g class="E">
<path d="M2065.91-410.94c-.98 14.47-1.51 35.71 1.6 53.94 4.28 25.08 10.05 30.18 19 54l3.26 8.48" class="G"/>
<path d="M2093.1-295.62l.43 10.59-6.94-8.01 6.51-2.58z"/>
</g>
<text x="2089.51" y="-371.3" class="B C D F">^1.10</text>
<path d="M1187.01-285h-217c-6 0-12 6-12 12v12c0 6 6 12 12 12h217c6 0 12-6 12-12v-12c0-6-6-12-12-12"
class="E M"/>
<text x="1078.51" y="-263.3" class="B C D F">symfony/polyfill-intl-normalizer</text>
<g class="E">
<path d="M1969.38-424.94c-141.23 4.88-394.7 15.6-484.87 31.94-129.96 23.56-276.78 75.33-353.27 104.31"
class="G"/>
<path d="M1132.41-285.39l-10.6.29 8.1-6.83 2.5 6.54z"/>
</g>
<text x="1502.01" y="-371.3" class="B C D F">~1.0</text>
<path d="M771.51-231h-176c-6 0-12 6-12 12v12c0 6 6 12 12 12h176c6 0 12-6 12-12v-12c0-6-6-12-12-12" class="E M"/>
<text x="683.51" y="-209.3" class="B C D F">symfony/polyfill-mbstring</text>
<g class="E">
<path d="M1969.26-427.77c-289.69 1-1127.65 6.33-1247.75 34.77-54.94 13.01-84.72 6.34-115 54-22.33 35.16 15.22 76.36 45.3 101.57"
class="G"/>
<path d="M654.09-240.09l5.56 9.01-9.97-3.58 4.41-5.43z"/>
</g>
<text x="624.01" y="-317.3" class="B C D F">~1.0</text>
<use xlink:href="#B" class="E M"/>
<text x="862.51" y="-263.3" class="B C D F">symfony/polyfill-php73</text>
<g class="E">
<path d="M1969.16-426.48c-178.74 3.24-550.18 12.35-677.65 33.48-137.71 22.83-293.77 75.32-374.36 104.5"
class="G"/>
<path d="M918.3-285.19l-10.59.13 8.2-6.71 2.39 6.58z"/>
</g>
<text x="1313.51" y="-371.3" class="B C D F">^1.11</text>
<use xlink:href="#B" x="432" class="E M"/>
<text x="1294.51" y="-263.3" class="B C D F">symfony/polyfill-php80</text>
<g class="E">
<path d="M1969.41-426.71c-84.95 2.76-210.69 10.82-317.9 33.71-114 24.34-241.56 75.03-309.06 103.82"
class="G"/>
<path d="M1343.51-285.82l-10.57.73 7.81-7.16 2.76 6.43z"/>
</g>
<text x="1673.51" y="-371.3" class="B C D F">^1.16</text>
<use xlink:href="#B" x="618" class="E M"/>
<text x="1480.51" y="-263.3" class="B C D F">symfony/polyfill-php81</text>
<g class="E">
<path d="M1969.27-419.8c-48.05 5.33-106.45 13.78-157.76 26.8-104.77 26.58-221.9 75.68-284.89 103.78"
class="G"/>
<path d="M1527.91-285.96l-10.56.9 7.69-7.29 2.87 6.39z"/>
</g>
<text x="1833.51" y="-371.3" class="B C D F">^1.22</text>
<path d="M2251.01-339h-143c-6 0-12 6-12 12v12c0 6 6 12 12 12h143c6 0 12-6 12-12v-12c0-6-6-12-12-12"
class="E M"/>
<text x="2179.51" y="-317.3" class="B C D F">symfony/polyfill-uuid</text>
<g class="E">
<path d="M2093.19-410.78c7.45 5.39 15.43 11.57 22.32 17.78 15.66 14.12 31.54 31.71 43.57 45.85" class="G"/>
<path d="M2161.94-349.18l3.74 9.91-9.11-5.41 5.37-4.5z"/>
</g>
<text x="2172.51" y="-371.3" class="B C D F">^1.15</text>
<path d="M863.01-339h-113c-6 0-12 6-12 12v12c0 6 6 12 12 12h113c6 0 12-6 12-12v-12c0-6-6-12-12-12" class="E J"/>
<text x="806.51" y="-317.3" class="B C D F">twig/twig: v3.3.3</text>
<g class="E">
<path d="M1969.27-427.1C1675.5-424.16 822.79-413.85 802.51-393c-11.05 11.36-10.01 29.18-6.23 44.13"
class="G"/>
<path d="M799.69-349.69l-.47 10.59-6.23-8.57 6.7-2.02z"/>
</g>
<text x="850.01" y="-371.3" class="B C D F">^2.13|^3.0.4</text>
<path d="M4105.75-249c6.14 16.8 18.08 41.72 37.76 54 38.05 23.74 159.16 1.86 201 18 48.85 18.84 50.35 42.09 94 71m0 2c45.21 29.29 66.63 9.72 120 17 20.76 2.83 195.51 5.35 187 24.5m0 2c-18.4 41.41-1493.17 41.79-1747.77 41.55"
class="G L"/>
<path d="M2997.53-15.45l-10-3.51 10.01-3.49-.01 7z" class="K L"/>
<path d="M5000.51-374c14.85 22.26 29.73 16.43 49 35 74.94 72.22 188.68 115.68 125 198-58.44 75.55-114.07 36.69-208 54-24.3 4.48-211.11 1.86-221 24.5"
class="G I"/>
<text x="5240.51" y="-209.3" class="B C D H">^7.3 || ~8.0.0</text>
<path d="M4544.51-339h-282c-6 0-12 6-12 12v12c0 6 6 12 12 12h282c6 0 12-6 12-12v-12c0-6-6-12-12-12"
class="I O"/>
<text x="4403.51" y="-317.3" class="B C D H">laminas/laminas-servicemanager: 3.10.0</text>
<g class="I">
<path d="M4520.18-410.97l-85.89 65.5" class="G"/>
<path d="M4436.32-342.62l-10.07 3.28 5.83-8.85 4.24 5.57z" class="H"/>
</g>
<text x="4518.01" y="-371.3" class="B C D H">^3.6.0</text>
<path d="M4791.01-231h-199c-6 0-12 6-12 12v12c0 6 6 12 12 12h199c6 0 12-6 12-12v-12c0-6-6-12-12-12"
class="I O"/>
<text x="4691.51" y="-209.3" class="B C D H">laminas/laminas-stdlib: 3.6.0</text>
<path d="M4662.61-424.09c130.03 5.7 321.23 18.99 337.9 48.09m0 2c27.61 48.21-71.3 8.26-120 35-21.25 11.67-21.42 21.69-41 36-34.55 25.25-76.58 50.01-107.01 66.98"
class="G I"/>
<path d="M4733.89-232.8l-10.44 1.78 7.05-7.9 3.39 6.12z" class="H I"/>
<text x="4929.51" y="-317.3" class="B C D H">^2.7.7 || ^3.1</text>
<path d="M4818.01-339h-231c-6 0-12 6-12 12v12c0 6 6 12 12 12h231c6 0 12-6 12-12v-12c0-6-6-12-12-12"
class="I O"/>
<text x="4702.51" y="-317.3" class="B C D H">laminas/laminas-validator: 2.15.0</text>
<g class="I">
<path d="M4568.22-410.97l99.91 66.19" class="G"/>
<path d="M4670.2-347.6l6.4 8.44-10.27-2.61 3.87-5.83z" class="H"/>
</g>
<text x="4674.51" y="-371.3" class="B C D H">^2.10.1</text>
<path d="M5161.01-177h-321c-6 0-12 6-12 12v12c0 6 6 12 12 12h321c6 0 12-6 12-12v-12c0-6-6-12-12-12"
class="I O"/>
<text x="5000.51" y="-155.3" class="B C D H">laminas/laminas-zendframework-bridge: 1.4.0</text>
<g class="I">
<path d="M5000.51-374c18.91 30.33 9.4 135.93 3.5 186.54" class="G"/>
<path d="M5007.46-186.77l-4.67 9.51-2.28-10.34 6.95.83z" class="H"/>
</g>
<text x="5029.01" y="-317.3" class="B C D H">^1.0</text>
<g class="E">
<path d="M3830.23-302.65L3819.51-268m0 2c-13.55 43.07-37.03 45.46-49 89-2.65 9.65 3.83 82.69-3 90-53.15 56.86-618.15 66.23-769.74 67.73"
class="G"/>
<path d="M2997.61-15.77l-10.03-3.41 9.96-3.59.07 7z"/>
</g>
<text x="3851.01" y="-155.3" class="B C D F">^7.3 || ~8.0.0 || ~8.1.0</text>
<path d="M4034.01-231h-149c-6 0-12 6-12 12v12c0 6 6 12 12 12h149c6 0 12-6 12-12v-12c0-6-6-12-12-12"
class="E J"/>
<text x="3959.51" y="-209.3" class="B C D F">psr/http-factory: 1.0.1</text>
<g class="E">
<path d="M3855.43-302.97l76.02 64.98" class="G"/>
<path d="M3933.9-240.5l5.33 9.16-9.88-3.84 4.55-5.32z"/>
</g>
<text x="3933.01" y="-263.3" class="B C D F">^1.0</text>
<path d="M3988.51-123h-162c-6 0-12 6-12 12v12c0 6 6 12 12 12h162c6 0 12-6 12-12v-12c0-6-6-12-12-12"
class="E J"/>
<text x="3907.51" y="-101.3" class="B C D F">psr/http-message: 1.0.1</text>
<g class="E">
<path d="M3819.51-266c-10.79 29.99-12.21 48.15 10 71 33.31 34.26 75.17-18.51 106 18 10.32 12.22 5.3 20.9 0 36-1.17 3.33-2.8 6.58-4.7 9.68"
class="G"/>
<path d="M3933.59-129.19l-8.66 6.1 2.96-10.17 5.7 4.07z"/>
</g>
<text x="3847.01" y="-209.3" class="B C D F">^1.0</text>
<path d="M236.99-194.92C136.34-167.56-31.24-111.97 49.51-62.5" class="E G"/>
<text x="81.01" y="-101.3" class="B C D F">&gt;=5.3.0</text>
<path d="M441.01-123h-123c-6 0-12 6-12 12v12c0 6 6 12 12 12h123c6 0 12-6 12-12v-12c0-6-6-12-12-12" class="E J"/>
<text x="379.51" y="-101.3" class="B C D F">clue/graph: v0.9.2</text>
<g class="E">
<path d="M300.99-194.79c-2.99 15.35-4.71 37.8 5.52 53.79 2.86 4.47 6.47 8.39 10.54 11.81" class="G"/>
<path d="M319.3-131.87l6.07 8.68-10.16-3.01 4.09-5.67z"/>
</g>
<text x="356.51" y="-155.3" class="B C D F">~0.9.0|~0.8.0</text>
<g class="E">
<path d="M409.92-86.96C432.7-75.18 465.06-60.51 495.51-54c123.9 26.48 2128.1 33.92 2427.66 34.89"
class="G"/>
<path d="M2923.5-22.61l9.99 3.53-10.01 3.47.02-7z"/>
</g>
<text x="518.51" y="-57.8" class="B C D F">&gt;=5.3</text>
<path d="M2284.51-231h-194c-6 0-12 6-12 12v12c0 6 6 12 12 12h194c6 0 12-6 12-12v-12c0-6-6-12-12-12"
class="E J"/>
<text x="2187.51" y="-209.3" class="B C D F">doctrine/annotations: 1.13.2</text>
<path d="M2164.45-194.97c-5.23 5.14-10.09 11.23-12.94 17.97-10.04 23.76-5.93 107.89 19 114.5" class="E G"/>
<text x="2196.01" y="-101.3" class="B C D F">^7.1 || ^8.0</text>
<path d="M2472.51-123h-138c-6 0-12 6-12 12v12c0 6 6 12 12 12h138c6 0 12-6 12-12v-12c0-6-6-12-12-12"
class="E J"/>
<text x="2403.51" y="-101.3" class="B C D F">doctrine/lexer: 1.2.1</text>
<g class="E">
<path d="M2171.97-194.78c-12.12 15.56-24.84 38.33-11.46 53.78 2.59 2.99 83.82 14.27 151.65 23.23"
class="G"/>
<path d="M2313.03-121.19l9.46 4.78-10.37 2.16.91-6.94z"/>
</g>
<text x="2171.01" y="-155.3" class="B C D F">1.*</text>
<path d="M2122.01-123h-85c-6 0-12 6-12 12v12c0 6 6 12 12 12h85c6 0 12-6 12-12v-12c0-6-6-12-12-12" class="E N"/>
<text x="2079.51" y="-101.3" class="B C D F">ext-tokenizer</text>
<g class="E">
<path d="M2132.61-194.9c-9.21 4.7-18.05 10.59-25.1 17.9-11.54 11.98-18.5 29.28-22.59 43.8" class="G"/>
<path d="M2088.25-132.07l-5.83 8.85-.96-10.56 6.79 1.71z"/>
</g>
<text x="2111.01" y="-155.3" class="B C D F">*</text>
<g class="E">
<path d="M2186.34-194.73c-.08 16.51 2.74 40.76 18.17 53.73 24.63 20.7 257.04 14.27 289 18 7.61.89 15.53 1.97 23.42 3.16"
class="G"/>
<path d="M2517.55-123.29l9.34 5-10.42 1.92 1.08-6.92z"/>
</g>
<text x="2251.51" y="-155.3" class="B C D F">^1 || ^2 || ^3</text>
<g class="E">
<path d="M2484.69-86.98c51.62 10.45 119.96 23.57 180.82 32.98 92.18 14.25 201.34 25.83 257.49 31.4"
class="G"/>
<path d="M2923.57-26.06l9.6 4.47-10.29 2.5.69-6.97z"/>
</g>
<text x="2708.01" y="-57.8" class="B C D F">^7.2 || ^8.0</text>
<g class="E">
<path d="M2658.3-88.8l265.12 61.23" class="G"/>
<path d="M2924.22-30.98l8.95 5.67-10.53 1.16 1.58-6.83z"/>
</g>
<text x="2829.01" y="-57.8" class="B C D F">&gt;=8.0.0</text>
<path d="M2921.01-177h-143c-6 0-12 6-12 12v12c0 6 6 12 12 12h143c6 0 12-6 12-12v-12c0-6-6-12-12-12"
class="E J"/>
<text x="2849.51" y="-155.3" class="B C D F">doctrine/cache: 2.1.1</text>
<path d="M2894.67-140.91c11.95 5.17 24.65 11.26 35.84 17.91 22.32 13.26 22.14 25.77 46 36 34.48 14.77 183.99-8.94 167 24.5"
class="E G"/>
<text x="3019.01" y="-101.3" class="B C D F">~7.1 || ^8.0</text>
<path d="M2517.01-177h-177c-6 0-12 6-12 12v12c0 6 6 12 12 12h177c6 0 12-6 12-12v-12c0-6-6-12-12-12"
class="E J"/>
<text x="2428.51" y="-155.3" class="B C D F">doctrine/collections: 1.6.8</text>
<g class="E">
<path d="M2529.24-141.49l3.27.49c59.44 8.85 77.87-3.45 134 18 26.6 10.17 26.04 26.85 53 36 44.69 15.17 444.82-17.85 424 24.5m0 2c-12.78 26-96.12 35.9-145.82 39.53"
class="G"/>
<path d="M2997.85-17.48l-10.22-2.81 9.74-4.17.48 6.98z"/>
</g>
<text x="2768.51" y="-101.3" class="B C D F">^7.1.3 || ^8.0</text>
<path d="M2748.51-177h-202c-6 0-12 6-12 12v12c0 6 6 12 12 12h202c6 0 12-6 12-12v-12c0-6-6-12-12-12"
class="E J"/>
<text x="2647.51" y="-155.3" class="B C D F">doctrine/deprecations: v0.5.3</text>
<path d="M2760.59-140.93c26.02 5.22 49.43 11.33 60.92 17.93 18.56 10.66 12.86 26.42 32 36 28.92 14.48 304.26-4.52 290 24.5"
class="E G"/>
<text x="2890.01" y="-101.3" class="B C D F">^7.1|^8.0</text>
<path d="M2890.37-196.79c15.53 4.9 30.71 11.33 44.14 19.79 17.15 10.8 10.67 25.5 28 36 38.25 23.18 62.12-7.29 99 18 15.47 10.6 7.72 23.85 22 36 21.94 18.67 73.14-1.13 60 24.5"
class="E G"/>
<text x="3126.01" y="-101.3" class="B C D F">^7.1 || ^8.0</text>
<path d="M2363.28-308.07c-37.68 5.73-74.87 13.46-90.77 23.07-17.35 10.49-10.27 26.17-28 36-68.38 37.9-102.98-12.43-175 18-22.96 9.7-22.92 21.23-43 36-11.92 8.77-20.73 5.12-28 18-15.51 27.49-24.89 49.26-2 71"
class="E G"/>
<text x="2041.01" y="-155.3" class="B C D F">^7.1 || ^8.0</text>
<g class="E">
<path d="M2416.85-302.85c-10.04 4.8-20.03 10.71-28.34 17.85-14.4 12.37-7.31 25.31-23 36-10.79 7.35-33.26 13.61-58.71 18.72"
class="G"/>
<path d="M2307.4-226.83l-10.48-1.55 9.15-5.33 1.33 6.88z"/>
</g>
<text x="2406.01" y="-263.3" class="B C D F">^1.0</text>
<path d="M2460.86-302.71c-7.02 16.05-19.53 39.54-37.35 53.71-19.47 15.48-32.56 3.82-53 18-2.09 1.45-59 68.66-58 71"
class="E G"/>
<text x="2425.51" y="-209.3" class="B C D F">^1.0|^2.0|^3.0</text>
<g class="E">
<path d="M2571.64-304.95c12.62 4.93 24.65 11.42 34.87 19.95 33.76 28.15 6.01 63.4 41 90 38.2 29.04 60.48 11.74 107.98 17.25"
class="G"/>
<path d="M2756.29-181.17l9.39 4.91-10.4 2.02 1.01-6.93z"/>
</g>
<text x="2672.51" y="-263.3" class="B C D F">^1.11 || ^2.0</text>
<g class="E">
<path d="M2476.17-302.61c11.28 25.34 27.45 73.13 8.34 107.61-2.37 4.29-5.52 8.12-9.11 11.53" class="G"/>
<path d="M2477.48-180.65l-9.97 3.59 5.56-9.03 4.41 5.44z"/>
</g>
<text x="2510.01" y="-263.3" class="B C D F">^1.0</text>
<g class="E">
<path d="M2505.23-302.99c9.13 5.06 18.49 11.12 26.28 17.99 14.8 13.06 13.16 21.01 26 36 19.89 23.22 44.74 47.49 63.29 64.81"
class="G"/>
<path d="M2623.37-186.58l4.96 9.36-9.72-4.23 4.76-5.13z"/>
</g>
<text x="2582.01" y="-263.3" class="B C D F">^0.5.3</text>
<g class="E">
<path d="M2571.62-314.58c59.41 4.79 126.9 13.6 151.89 29.58 16 10.23 12.08 20.47 23 36a402.54 402.54 0 0 0 6.97 9.57"
class="G"/>
<path d="M2756.46-241.29l3.28 10.07-8.85-5.83 5.57-4.24z"/>
</g>
<text x="2764.01" y="-263.3" class="B C D F">^1.0</text>
<path d="M3174.42-302.83c11.32 4.96 22.99 10.93 33.09 17.83 55.55 37.92 73.43 49.16 106 108 7.86 14.19 30.31 61.72 17 71m0 2c-18.64 13.56-26.69 11.19-49 17-30.14 7.85-123.48-3.06-138 24.5"
class="E G"/>
<text x="3352.51" y="-155.3" class="B C D F">&gt;=7.1</text>
<path d="M3167.51-177h-192c-6 0-12 6-12 12v12c0 6 6 12 12 12h192c6 0 12-6 12-12v-12c0-6-6-12-12-12"
class="E J"/>
<text x="3071.51" y="-155.3" class="B C D F">laminas/laminas-code: 4.4.3</text>
<g class="E">
<path d="M3121.52-302.91c-3.53 14.48-9.02 35.73-15.01 53.91-6.99 21.22-16.3 44.73-23.56 62.25" class="G"/>
<path d="M3086.03-185.05l-7.09 7.87.64-10.58 6.45 2.71z"/>
</g>
<text x="3160.51" y="-263.3" class="B C D F">~3.4.1|^4.0</text>
<path d="M3051.01-231h-131c-6 0-12 6-12 12v12c0 6 6 12 12 12h131c6 0 12-6 12-12v-12c0-6-6-12-12-12"
class="E M"/>
<text x="2985.51" y="-209.3" class="B C D F">symfony/filesystem</text>
<g class="E">
<path d="M3010-302.96c-16.95 4.74-30.67 10.65-36.49 17.96-9.87 12.4-7.02 29.92-1.63 44.46" class="G"/>
<path d="M2975.22-241.63l.67 10.58-7.12-7.85 6.45-2.73z"/>
</g>
<text x="3040.01" y="-263.3" class="B C D F">^4.4.17|^5.0|^6.0</text>
<path d="M3152.48-140.89c7.8 4.63 14.76 10.48 20.03 17.89 9.28 13.04 6.74 21.49 0 36-7.1 15.3-21.1 9.59-29 24.5"
class="E G"/>
<text x="3228.51" y="-101.3" class="B C D F">^7.4 || ~8.0.0</text>
<g class="L">
<path d="M2966.11-231.12c-31.61-26.99-97.19-79.31-161.6-107.88-95.98-42.58-126.17-38.33-230-54-136.57-20.61-295.69-29.1-398.72-32.59"
class="G"/>
<path d="M2175.57-422.09l-9.88-3.83 10.11-3.17-.23 7z" class="K"/>
</g>
<text x="2911.01" y="-317.3" class="B C D K">self.version</text>
<g class="E">
<path d="M3989.89-194.75c6.16 4.93 11.89 10.87 15.62 17.75 19.1 35.19 27.65 57.69 4 90-28.64 39.13-56.22 24.69-104 33-179.08 31.14-755.4 34.59-907.76 34.96"
class="G"/>
<path d="M2997.53-15.54l-10.01-3.48 9.99-3.52.02 7z"/>
</g>
<text x="4053.01" y="-101.3" class="B C D F">&gt;=7.0.0</text>
<g class="E">
<path d="M3964.21-194.83c3.13 15.1 5.24 37.22-3.7 53.83-2.29 4.27-5.36 8.1-8.87 11.52" class="G"/>
<path d="M3953.84-126.76l-9.92 3.74 5.43-9.1 4.49 5.36z"/>
</g>
<text x="3984.01" y="-155.3" class="B C D F">^1.0</text>
<g class="E">
<path d="M3879.14-86.95c-20.94 11.62-50.54 26.09-78.63 32.95-155.3 37.9-659.82 36.57-802.25 35.39"
class="G"/>
<path d="M2997.85-15.11l-9.97-3.59 10.03-3.41-.06 7z"/>
</g>
<text x="3872.01" y="-57.8" class="B C D F">&gt;=5.3.0</text>
<g class="E">
<path d="M4154.22-86.91c-28.09 11.64-67.49 26.12-103.71 32.91-208.27 39.05-885.64 36.57-1052.57 35.33"
class="G"/>
<path d="M2997.67-15.17l-9.97-3.58 10.02-3.42-.05 7z"/>
</g>
<text x="4135.01" y="-57.8" class="B C D F">&gt;=7.2.0</text>
<g class="E">
<path d="M3548.73-88.89L3534.51-87l-536.63 63.89" class="G"/>
<path d="M2998.05-19.61l-10.32-2.38 9.55-4.58.77 6.96z"/>
</g>
<text x="3407.01" y="-57.8" class="B C D F">&gt;=7.2.0</text>
<path d="M3407.67-248.65c-3.53 30.27-12.05 91.13-25.16 107.65-11.61 14.64-23.26 6.51-38 18-7.72 6.02-5.83 11.6-14 17"
class="E G"/>
<text x="3426.01" y="-155.3" class="B C D F">&gt;=8.0.0</text>
<path d="M3468.71-142.1l-4.2 1.1c-32.75 8.54-43.54 3.24-74 18-23.36 11.32-22.01 26.07-46 36-41.57 17.22-181.15-15.88-201 24.5"
class="E G"/>
<text x="3420.01" y="-101.3" class="B C D F">&gt;=8.0.0</text>
<path d="M3605.81-194.96c-1.64 16.33-6.75 40.45-22.3 53.96-35.08 30.48-62.59-4.95-103 18-18.36 10.43-12.17 26.44-31 36-30.41 15.44-290.44-5.85-306 24.5"
class="E G"/>
<text x="3510.01" y="-101.3" class="B C D F">&gt;=7.2.5</text>
<g class="E">
<path d="M3505.83-207.88c-110.92 5.27-277.05 15.58-302.32 30.88-16.24 9.83-6.52 26.57-23 36-46.61 26.67-429.56 12.7-483 18-9.48.94-19.4 2.19-29.2 3.59"
class="G"/>
<path d="M2668.57-115.91l-10.41-1.99 9.38-4.93 1.03 6.92z"/>
</g>
<text x="3258.51" y="-155.3" class="B C D F">^1.0|^2.0|^3.0</text>
<g class="E">
<path d="M3637.07-194.93c9.55 5.53 20.04 11.82 29.44 17.93 22.97 14.92 24.14 26.98 50 36 80.46 28.05 298.35 8.32 383 18l3.88.46"
class="G"/>
<path d="M4104.02-125.99l9.45 4.8-10.37 2.14.92-6.94z"/>
</g>
<text x="3734.01" y="-155.3" class="B C D F">^1.1</text>
<g class="E">
<path d="M3611.35-194.93c4.42 14.65 11.58 36.16 20.16 53.93 1.47 3.04 3.14 6.14 4.89 9.18" class="G"/>
<path d="M3639.55-133.37l2.21 10.36-8.19-6.72 5.98-3.64z"/>
</g>
<text x="3649.01" y="-155.3" class="B C D F">^1.0</text>
<g class="L">
<path d="M888.51-194.97v61.54" class="G"/>
<path d="M892.01-133.34l-3.5 10-3.5-10h7z" class="K"/>
</g>
<text x="930.01" y="-155.3" class="B C D K">self.version</text>
<path d="M1766.35-249.51l-3.84.51c-63.06 8.39-84.88-10-142 18-20.32 9.96-16.17 25.1-36 36-62.66 34.42-104.71-13.76-157 35"
class="G L"/>
<text x="1662.01" y="-209.3" class="B C D K">self.version</text>
<path d="M1576.36-248.98c-34.68 6.84-67.55 14.03-74.85 17.98-19.9 10.77-19.67 20.33-36 36-16.56 15.9-21.46 19.08-38 35"
class="G L"/>
<text x="1543.01" y="-209.3" class="B C D K">self.version</text>
<path d="M2007.35-249.48l-3.84.48c-58.37 7.09-210.47-6.34-264 18-20.6 9.37-15.68 26.04-36 36-111.03 54.42-184.26-47.9-276 35"
class="G L"/>
<text x="1781.01" y="-209.3" class="B C D K">self.version</text>
<path d="M1093.39-248.8c17.42 19.95 44.71 50.53 51.12 53.8 56.43 28.84 326.49-11.09 283 35" class="G L"/>
<text x="1186.01" y="-209.3" class="B C D K">self.version</text>
<g class="L">
<path d="M709.09-194.99c23.46 15.22 59.46 37.58 92.42 53.99 9.93 4.95 20.74 9.74 31.25 14.11" class="G"/>
<path d="M834.36-130.02l7.94 7.02-10.58-.54 2.64-6.48z" class="K"/>
</g>
<text x="843.01" y="-155.3" class="B C D K">self.version</text>
<path d="M941.34-248.92c14.81 4.73 29.83 10.63 43.17 17.92 21.28 11.63 18.7 26.47 41 36 82.46 35.22 462.47-31.21 402 35m0 2c-28.99 30.73-282.99 43.94-431.73 49.09"
class="G L"/>
<path d="M995.81-105.41l-10.12-3.16 9.88-3.84.24 7z" class="K L"/>
<text x="1067.01" y="-209.3" class="B C D K">self.version</text>
<path d="M1274.93-248.83c-4.63 5.21-8.94 11.3-11.42 17.83-5.67 14.96-10.06 23.56 0 36 46.88 57.94 216.01-18.38 164 35"
class="G L"/>
<text x="1305.01" y="-209.3" class="B C D K">self.version</text>
<path d="M1402.37-248.83c-7.75 4.61-14.66 10.45-19.86 17.83-9.22 13.08-7.03 21.63 0 36 11.13 22.76 62.97 17.14 45 35"
class="G L"/>
<text x="1424.01" y="-209.3" class="B C D K">self.version</text>
<path d="M2190.61-302.8c8.78 15.99 17.51 39.44 3.9 53.8-25.72 27.13-301.85 2.77-336 18-20.66 9.22-15.5 26.43-36 36-79.84 37.29-328.71-23.07-395 35"
class="G L"/>
<text x="1900.01" y="-209.3" class="B C D K">self.version</text>
<path d="M737.79-304.99L652.51-285c-38.59 16.98-55.67 18.23-78 54-29.76 47.67-42.58 73.99-19 125" class="E G"/>
<text x="577.01" y="-155.3" class="B C D F">&gt;=7.2.5</text>
<g class="E">
<path d="M740.29-302.94c-15.15 5.28-28.17 11.43-32.78 17.94-9.24 13.06-10.18 23.66 0 36 1.54 1.86 41.8 9.74 83.96 17.55"
class="G"/>
<path d="M792.14-234.89l9.19 5.26-10.46 1.62 1.27-6.88z"/>
</g>
<text x="725.01" y="-263.3" class="B C D F">^1.8</text>
<g class="E">
<path d="M737.92-304.4c-36.87 8.54-75.09 17.73-76.41 19.4-10.25 13.01-4.69 30.83 3.41 45.36" class="G"/>
<path d="M667.91-241.45l2.25 10.35-8.21-6.69 5.96-3.66z"/>
</g>
<text x="679.01" y="-263.3" class="B C D F">^1.3</text>
<path d="M4511.51-231h-288c-6 0-12 6-12 12v12c0 6 6 12 12 12h288c6 0 12-6 12-12v-12c0-6-6-12-12-12"
class="I O"/>
<text x="4367.51" y="-209.3" class="B C D H">container-interop/container-interop: 1.2.0</text>
<g class="I">
<path d="M4339.39-194.97l-109.69 66.44" class="G"/>
<path d="M4231.21-125.35l-10.36 2.19 6.74-8.18 3.62 5.99z" class="H"/>
</g>
<text x="4323.01" y="-155.3" class="B C D H">^1.0</text>
<path d="M4447.1-302.97c29.99 14.29 67.52 37.88 85.41 71.97 7.44 14.17 10.23 23.7 0 36-28.03 33.71-68.96-15.71-97 18-20.19 24.29-23.51 53.83 3 71"
class="G I"/>
<text x="4523.01" y="-155.3" class="B C D H">~7.4.0 || ~8.0.0 || ~8.1.0</text>
<path d="M4326.26-302.94c-89.33 23.48-218.06 71.19-167.75 142.94" class="G I"/>
<text x="4181.01" y="-209.3" class="B C D H">^1.0</text>
<g class="I">
<path d="M4397.73-302.97l-21.09 62.08" class="G"/>
<path d="M4379.93-239.68l-6.53 8.34-.1-10.59 6.63 2.25z" class="H"/>
</g>
<text x="4408.01" y="-263.3" class="B C D H">^1.2</text>
<g class="I">
<path d="M4527.84-302.86c12.31 4.65 24.13 10.5 34.67 17.86 15.57 10.87 8.01 24.35 23 36 6.95 5.4 14.77 9.99 22.93 13.88"
class="G"/>
<path d="M4610.03-238.25l7.74 7.23-10.56-.82 2.82-6.41z" class="H"/>
</g>
<text x="4610.01" y="-263.3" class="B C D H">^3.2.1</text>
<path d="M4664.73-194.98c-7.54 5.34-15.51 11.54-22.22 17.98-14.62 14.04-11.85 23.75-28 36-16.83 12.77-32.22.46-44 18-8.92 13.28-10.5 23.93 0 36 25.77 29.63 190.3-11.67 175 24.5"
class="G I"/>
<text x="4651.01" y="-101.3" class="B C D H">^7.3 || ~8.0.0 || ~8.1.0</text>
<path d="M4736.45-302.96c43.73 24.1 110.27 69.52 76.06 107.96-45.81 51.48-108.19-33.48-154 18-57.49 64.6 65.81 46.7 73 54 19.38 19.66 25.21 35.28 14 60.5"
class="G I"/>
<text x="4739.01" y="-155.3" class="B C D H">^7.3 || ~8.0.0 || ~8.1.0</text>
<g class="I">
<path d="M4675.57-302.83c-7.01 5.22-14.23 11.31-20.06 17.83-12.34 13.81-5.57 25.75-21 36-9.7 6.45-52.29 13.18-100.71 18.99"
class="G"/>
<path d="M4534.07-226.51l-10.35-2.31 9.53-4.65.82 6.96z" class="H"/>
</g>
<text x="4673.01" y="-263.3" class="B C D H">^1.1</text>
<g class="I">
<path d="M4700.74-302.97l-6.38 61.54" class="G"/>
<path d="M4697.82-240.93l-4.51 9.59-2.45-10.31 6.96.72z" class="H"/>
</g>
<text x="4716.01" y="-263.3" class="B C D H">^3.6</text>
<path d="M4850.92-140.99c-15.8 4.66-31.25 10.55-45.41 17.99-16.76 8.8-52.92 42.94-60 60.5" class="G I"/>
<text x="4886.01" y="-101.3" class="B C D H">^7.3 || ~8.0.0 || ~8.1.0</text>
</g>
<defs>
<path id="B" d="M941.01-285h-157c-6 0-12 6-12 12v12c0 6 6 12 12 12h157c6 0 12-6 12-12v-12c0-6-6-12-12-12"/>
</defs>
</svg>
