<?xml version="1.0" encoding="UTF-8" standalone="no"?>
<!DOCTYPE svg PUBLIC "-//W3C//DTD SVG 1.1//EN"
 "http://www.w3.org/Graphics/SVG/1.1/DTD/svg11.dtd">
<!-- Generated by graphviz version 2.40.1 (20161225.0304)
 -->
<!-- Title: G Pages: 1 -->
<svg width="1136pt" height="434pt"
 viewBox="0.00 0.00 1135.56 434.00" xmlns="http://www.w3.org/2000/svg" xmlns:xlink="http://www.w3.org/1999/xlink">
<g id="graph0" class="graph" transform="scale(1 1) rotate(0) translate(4 430)">
<title>G</title>
<polygon fill="#ffffff" stroke="transparent" points="-4,4 -4,-430 1131.5571,-430 1131.5571,4 -4,4"/>
<!-- graphp/graphviz -->
<g id="node1" class="node">
<title>graphp/graphviz</title>
<ellipse fill="none" stroke="#000000" cx="280.6188" cy="-321" rx="95.5831" ry="18"/>
<text text-anchor="middle" x="280.6188" y="-317.3" font-family="Times,serif" font-size="14.00" fill="#000000">graphp/graphviz: v0.2.1</text>
</g>
<!-- clue/graph -->
<g id="node5" class="node">
<title>clue/graph</title>
<ellipse fill="none" stroke="#000000" cx="152.6188" cy="-105" rx="75.2868" ry="18"/>
<text text-anchor="middle" x="152.6188" y="-101.3" font-family="Times,serif" font-size="14.00" fill="#000000">clue/graph: v0.9.0</text>
</g>
<!-- graphp/graphviz&#45;&gt;clue/graph -->
<g id="edge8" class="edge">
<title>graphp/graphviz&#45;&gt;clue/graph</title>
<path fill="none" stroke="#000000" d="M213.6706,-308.1373C141.2804,-292.7084 32.9407,-264.6665 8.6188,-231 -23.8633,-186.0381 47.288,-146.1252 100.7028,-123.8028"/>
<polygon fill="#000000" stroke="#000000" points="102.1636,-126.9871 110.106,-119.9749 99.5243,-120.5037 102.1636,-126.9871"/>
<text text-anchor="middle" x="45.6188" y="-209.3" font-family="Times,serif" font-size="14.00" fill="#000000">~0.9.0|~0.8.0</text>
</g>
<!-- graphp/algorithms -->
<g id="node6" class="node">
<title>graphp/algorithms</title>
<ellipse fill="none" stroke="#000000" cx="194.6188" cy="-213" rx="102.8821" ry="18"/>
<text text-anchor="middle" x="194.6188" y="-209.3" font-family="Times,serif" font-size="14.00" fill="#000000">graphp/algorithms: v0.8.1</text>
</g>
<!-- graphp/graphviz&#45;&gt;graphp/algorithms -->
<g id="edge9" class="edge">
<title>graphp/graphviz&#45;&gt;graphp/algorithms</title>
<path fill="none" stroke="#000000" d="M266.4177,-303.166C252.475,-285.6567 231.0563,-258.7587 215.2389,-238.895"/>
<polygon fill="#000000" stroke="#000000" points="217.8083,-236.5031 208.8411,-230.8605 212.3324,-240.8636 217.8083,-236.5031"/>
<text text-anchor="middle" x="267.6188" y="-263.3" font-family="Times,serif" font-size="14.00" fill="#000000">~0.8.0</text>
</g>
<!-- php -->
<g id="node11" class="node">
<title>php</title>
<ellipse fill="none" stroke="#000000" cx="505.6188" cy="-18" rx="27" ry="18"/>
<text text-anchor="middle" x="505.6188" y="-14.3" font-family="Times,serif" font-size="14.00" fill="#000000">php</text>
</g>
<!-- graphp/graphviz&#45;&gt;php -->
<g id="edge10" class="edge">
<title>graphp/graphviz&#45;&gt;php</title>
<path fill="none" stroke="#000000" d="M286.0217,-302.7637C291.3692,-284.607 299.7307,-255.9254 306.6188,-231 324.2497,-167.2004 301.3752,-137.1122 344.6188,-87 376.7622,-49.7511 432.582,-32.0247 469.3134,-24.0224"/>
<polygon fill="#000000" stroke="#000000" points="470.0356,-27.4472 479.1318,-22.015 468.6334,-20.5891 470.0356,-27.4472"/>
<text text-anchor="middle" x="339.1188" y="-155.3" font-family="Times,serif" font-size="14.00" fill="#000000">&gt;=5.3.0</text>
</g>
<!-- symfony/console -->
<g id="node2" class="node">
<title>symfony/console</title>
<ellipse fill="none" stroke="#000000" cx="605.6188" cy="-321" rx="98.5829" ry="18"/>
<text text-anchor="middle" x="605.6188" y="-317.3" font-family="Times,serif" font-size="14.00" fill="#000000">symfony/console: v3.3.6</text>
</g>
<!-- symfony/debug -->
<g id="node8" class="node">
<title>symfony/debug</title>
<ellipse fill="none" stroke="#000000" cx="448.6188" cy="-213" rx="92.8835" ry="18"/>
<text text-anchor="middle" x="448.6188" y="-209.3" font-family="Times,serif" font-size="14.00" fill="#000000">symfony/debug: v3.3.6</text>
</g>
<!-- symfony/console&#45;&gt;symfony/debug -->
<g id="edge13" class="edge">
<title>symfony/console&#45;&gt;symfony/debug</title>
<path fill="none" stroke="#000000" d="M562.3082,-304.6178C550.0092,-299.1515 536.9021,-292.5117 525.6188,-285 505.6401,-271.6996 485.9241,-253.1318 471.4444,-238.1835"/>
<polygon fill="#000000" stroke="#000000" points="473.8012,-235.5827 464.3761,-230.7435 468.7263,-240.4041 473.8012,-235.5827"/>
<text text-anchor="middle" x="552.1188" y="-263.3" font-family="Times,serif" font-size="14.00" fill="#000000">~2.8|~3.0</text>
</g>
<!-- symfony/polyfill&#45;mbstring -->
<g id="node9" class="node">
<title>symfony/polyfill&#45;mbstring</title>
<ellipse fill="none" stroke="#000000" cx="595.6188" cy="-159" rx="131.8766" ry="18"/>
<text text-anchor="middle" x="595.6188" y="-155.3" font-family="Times,serif" font-size="14.00" fill="#000000">symfony/polyfill&#45;mbstring: v1.4.0</text>
</g>
<!-- symfony/console&#45;&gt;symfony/polyfill&#45;mbstring -->
<g id="edge14" class="edge">
<title>symfony/console&#45;&gt;symfony/polyfill&#45;mbstring</title>
<path fill="none" stroke="#000000" d="M604.4911,-302.7314C602.7581,-274.6565 599.4259,-220.6749 597.3749,-187.4494"/>
<polygon fill="#000000" stroke="#000000" points="600.8673,-187.2157 596.7577,-177.4503 593.8806,-187.647 600.8673,-187.2157"/>
<text text-anchor="middle" x="615.1188" y="-263.3" font-family="Times,serif" font-size="14.00" fill="#000000">~1.0</text>
</g>
<!-- symfony/console&#45;&gt;php -->
<g id="edge12" class="edge">
<title>symfony/console&#45;&gt;php</title>
<path fill="none" stroke="#000000" d="M633.2207,-303.6245C679.7184,-272.0814 765.1827,-202.9245 728.6188,-141 687.9436,-72.1126 593.3666,-39.1583 541.4012,-25.7555"/>
<polygon fill="#000000" stroke="#000000" points="542.1529,-22.336 531.6049,-23.3308 540.471,-29.1309 542.1529,-22.336"/>
<text text-anchor="middle" x="759.1188" y="-155.3" font-family="Times,serif" font-size="14.00" fill="#000000">&gt;=5.5.9</text>
</g>
<!-- indeyets/pake -->
<g id="node3" class="node">
<title>indeyets/pake</title>
<ellipse fill="none" stroke="#000000" cx="818.6188" cy="-321" rx="86.3847" ry="18"/>
<text text-anchor="middle" x="818.6188" y="-317.3" font-family="Times,serif" font-size="14.00" fill="#000000">indeyets/pake: 1.99.3</text>
</g>
<!-- indeyets/pake&#45;&gt;php -->
<g id="edge19" class="edge">
<title>indeyets/pake&#45;&gt;php</title>
<path fill="none" stroke="#000000" stroke-dasharray="5,2" d="M819.57,-302.8096C820.4985,-268.4188 818.315,-192.6853 785.6188,-141 732.2219,-56.5914 606.1064,-29.8178 542.9775,-21.5539"/>
<polygon fill="#000000" stroke="#000000" points="543.0302,-18.0344 532.68,-20.2979 542.1826,-24.9829 543.0302,-18.0344"/>
<text text-anchor="middle" x="825.1188" y="-155.3" font-family="Times,serif" font-size="14.00" fill="#000000">&gt;=5.2.1</text>
</g>
<!-- ext&#45;mbstring -->
<g id="node12" class="node">
<title>ext&#45;mbstring</title>
<ellipse fill="none" stroke="#000000" cx="902.6188" cy="-213" rx="55.7903" ry="18"/>
<text text-anchor="middle" x="902.6188" y="-209.3" font-family="Times,serif" font-size="14.00" fill="#000000">ext&#45;mbstring</text>
</g>
<!-- indeyets/pake&#45;&gt;ext&#45;mbstring -->
<g id="edge18" class="edge">
<title>indeyets/pake&#45;&gt;ext&#45;mbstring</title>
<path fill="none" stroke="#000000" stroke-dasharray="5,2" d="M824.9953,-302.7755C831.0019,-287.3405 841.0972,-265.2018 854.6188,-249 858.7361,-244.0666 863.6563,-239.4204 868.7533,-235.2095"/>
<polygon fill="#000000" stroke="#000000" points="871.0494,-237.8584 876.8185,-228.9719 866.7669,-232.3211 871.0494,-237.8584"/>
<text text-anchor="middle" x="858.1188" y="-263.3" font-family="Times,serif" font-size="14.00" fill="#000000">*</text>
</g>
<!-- secondtruth/phar&#45;compiler -->
<g id="node4" class="node">
<title>secondtruth/phar&#45;compiler</title>
<ellipse fill="none" stroke="#000000" cx="995.6188" cy="-267" rx="131.8766" ry="18"/>
<text text-anchor="middle" x="995.6188" y="-263.3" font-family="Times,serif" font-size="14.00" fill="#000000">secondtruth/phar&#45;compiler: v1.1.0</text>
</g>
<!-- secondtruth/phar&#45;compiler&#45;&gt;php -->
<g id="edge20" class="edge">
<title>secondtruth/phar&#45;compiler&#45;&gt;php</title>
<path fill="none" stroke="#000000" stroke-dasharray="5,2" d="M990.7527,-248.9166C986.184,-233.7699 978.4289,-211.9668 967.6188,-195 921,-121.8304 910.4212,-92.3914 832.6188,-54 782.4595,-29.249 617.6329,-21.2983 542.9669,-18.9289"/>
<polygon fill="#000000" stroke="#000000" points="542.7298,-15.4202 532.6292,-18.6184 542.5196,-22.4171 542.7298,-15.4202"/>
<text text-anchor="middle" x="972.6188" y="-155.3" font-family="Times,serif" font-size="14.00" fill="#000000">&gt;=5.4</text>
</g>
<!-- clue/graph&#45;&gt;php -->
<g id="edge5" class="edge">
<title>clue/graph&#45;&gt;php</title>
<path fill="none" stroke="#000000" d="M165.964,-86.7914C175.4072,-75.3679 189.1139,-61.4393 204.6188,-54 250.4291,-32.0199 398.3712,-22.7166 468.3183,-19.4715"/>
<polygon fill="#000000" stroke="#000000" points="468.6157,-22.9618 478.4494,-19.0188 468.3031,-15.9688 468.6157,-22.9618"/>
<text text-anchor="middle" x="227.1188" y="-57.8" font-family="Times,serif" font-size="14.00" fill="#000000">&gt;=5.3.0</text>
</g>
<!-- graphp/algorithms&#45;&gt;clue/graph -->
<g id="edge6" class="edge">
<title>graphp/algorithms&#45;&gt;clue/graph</title>
<path fill="none" stroke="#000000" d="M184.3148,-194.9875C181.2968,-189.3305 178.1352,-182.995 175.6188,-177 169.6291,-162.73 164.2767,-146.327 160.2457,-132.785"/>
<polygon fill="#000000" stroke="#000000" points="163.5758,-131.7014 157.4321,-123.0697 156.8521,-133.6487 163.5758,-131.7014"/>
<text text-anchor="middle" x="212.6188" y="-155.3" font-family="Times,serif" font-size="14.00" fill="#000000">~0.9.0|~0.8.0</text>
</g>
<!-- graphp/algorithms&#45;&gt;php -->
<g id="edge7" class="edge">
<title>graphp/algorithms&#45;&gt;php</title>
<path fill="none" stroke="#000000" d="M228.7789,-195.8759C236.5002,-190.6923 244.0509,-184.3789 249.6188,-177 274.8514,-143.5608 255.6882,-122.6919 277.6188,-87 288.6432,-69.0579 292.9108,-63.6678 311.6188,-54 338.4822,-40.1177 420.5589,-28.2614 468.9191,-22.2391"/>
<polygon fill="#000000" stroke="#000000" points="469.483,-25.6963 478.9847,-21.0091 468.6339,-18.748 469.483,-25.6963"/>
<text text-anchor="middle" x="294.6188" y="-101.3" font-family="Times,serif" font-size="14.00" fill="#000000">&gt;=5.3</text>
</g>
<!-- psr/log -->
<g id="node7" class="node">
<title>psr/log</title>
<ellipse fill="none" stroke="#000000" cx="411.6188" cy="-105" rx="57.6901" ry="18"/>
<text text-anchor="middle" x="411.6188" y="-101.3" font-family="Times,serif" font-size="14.00" fill="#000000">psr/log: 1.0.2</text>
</g>
<!-- psr/log&#45;&gt;php -->
<g id="edge11" class="edge">
<title>psr/log&#45;&gt;php</title>
<path fill="none" stroke="#000000" d="M421.3451,-87.0768C427.6192,-76.6049 436.4865,-63.6034 446.6188,-54 454.8686,-46.1809 465.0913,-39.2192 474.6974,-33.5511"/>
<polygon fill="#000000" stroke="#000000" points="476.632,-36.4787 483.6338,-28.5272 473.2017,-30.3768 476.632,-36.4787"/>
<text text-anchor="middle" x="469.1188" y="-57.8" font-family="Times,serif" font-size="14.00" fill="#000000">&gt;=5.3.0</text>
</g>
<!-- symfony/debug&#45;&gt;psr/log -->
<g id="edge16" class="edge">
<title>symfony/debug&#45;&gt;psr/log</title>
<path fill="none" stroke="#000000" d="M423.2596,-195.3073C417.7397,-190.1026 412.6493,-183.9215 409.6188,-177 403.6239,-163.3077 403.6633,-146.7048 405.4089,-132.8945"/>
<polygon fill="#000000" stroke="#000000" points="408.8723,-133.4014 407.0047,-122.9724 401.9611,-132.2898 408.8723,-133.4014"/>
<text text-anchor="middle" x="422.1188" y="-155.3" font-family="Times,serif" font-size="14.00" fill="#000000">~1.0</text>
</g>
<!-- symfony/debug&#45;&gt;php -->
<g id="edge15" class="edge">
<title>symfony/debug&#45;&gt;php</title>
<path fill="none" stroke="#000000" d="M449.4761,-194.996C450.7991,-179.8977 454.1501,-158.1212 462.6188,-141 467.3644,-131.4059 473.5893,-132.4484 478.6188,-123 491.5399,-98.7268 498.5066,-67.9622 502.1069,-46.0204"/>
<polygon fill="#000000" stroke="#000000" points="505.5839,-46.4351 503.6153,-36.0248 498.6623,-45.3905 505.5839,-46.4351"/>
<text text-anchor="middle" x="515.1188" y="-101.3" font-family="Times,serif" font-size="14.00" fill="#000000">&gt;=5.5.9</text>
</g>
<!-- symfony/polyfill&#45;mbstring&#45;&gt;php -->
<g id="edge17" class="edge">
<title>symfony/polyfill&#45;mbstring&#45;&gt;php</title>
<path fill="none" stroke="#000000" d="M585.9952,-140.9536C577.9788,-126.2108 566.0637,-104.9512 554.6188,-87 544.9925,-71.9012 533.4262,-55.54 523.9488,-42.5406"/>
<polygon fill="#000000" stroke="#000000" points="526.5133,-40.1199 517.7708,-34.1349 520.8729,-44.2655 526.5133,-40.1199"/>
<text text-anchor="middle" x="597.1188" y="-101.3" font-family="Times,serif" font-size="14.00" fill="#000000">&gt;=5.3.3</text>
</g>
<!-- sandfoxme/composer&#45;viz -->
<g id="node10" class="node">
<title>sandfoxme/composer&#45;viz</title>
<ellipse fill="none" stroke="#000000" cx="673.6188" cy="-408" rx="100.9827" ry="18"/>
<text text-anchor="middle" x="673.6188" y="-404.3" font-family="Times,serif" font-size="14.00" fill="#000000">sandfoxme/composer&#45;viz</text>
</g>
<!-- sandfoxme/composer&#45;viz&#45;&gt;graphp/graphviz -->
<g id="edge1" class="edge">
<title>sandfoxme/composer&#45;viz&#45;&gt;graphp/graphviz</title>
<path fill="none" stroke="#000000" d="M610.0398,-393.9253C539.7033,-378.3546 426.5925,-353.3148 352.932,-337.0083"/>
<polygon fill="#000000" stroke="#000000" points="353.3288,-333.5114 342.8086,-334.7672 351.8157,-340.346 353.3288,-333.5114"/>
<text text-anchor="middle" x="518.6188" y="-360.8" font-family="Times,serif" font-size="14.00" fill="#000000">~0.2.0</text>
</g>
<!-- sandfoxme/composer&#45;viz&#45;&gt;symfony/console -->
<g id="edge2" class="edge">
<title>sandfoxme/composer&#45;viz&#45;&gt;symfony/console</title>
<path fill="none" stroke="#000000" d="M659.5292,-389.9735C649.8645,-377.6085 636.886,-361.0036 626.085,-347.1847"/>
<polygon fill="#000000" stroke="#000000" points="628.6062,-344.7269 619.6904,-339.0034 623.091,-349.0376 628.6062,-344.7269"/>
<text text-anchor="middle" x="656.1188" y="-360.8" font-family="Times,serif" font-size="14.00" fill="#000000">^3.2</text>
</g>
<!-- sandfoxme/composer&#45;viz&#45;&gt;indeyets/pake -->
<g id="edge3" class="edge">
<title>sandfoxme/composer&#45;viz&#45;&gt;indeyets/pake</title>
<path fill="none" stroke="#000000" stroke-dasharray="5,2" d="M702.6132,-390.6033C725.284,-377.0009 756.9612,-357.9945 781.4866,-343.2793"/>
<polygon fill="#000000" stroke="#000000" points="783.3946,-346.2163 790.1688,-338.07 779.7931,-340.2138 783.3946,-346.2163"/>
<text text-anchor="middle" x="770.6188" y="-360.8" font-family="Times,serif" font-size="14.00" fill="#000000">~1.99</text>
</g>
<!-- sandfoxme/composer&#45;viz&#45;&gt;secondtruth/phar&#45;compiler -->
<g id="edge4" class="edge">
<title>sandfoxme/composer&#45;viz&#45;&gt;secondtruth/phar&#45;compiler</title>
<path fill="none" stroke="#000000" stroke-dasharray="5,2" d="M747.1989,-395.6003C796.4318,-385.2469 861.5014,-367.4889 913.6188,-339 935.9048,-326.8178 957.3372,-307.6493 972.6982,-292.1526"/>
<polygon fill="#000000" stroke="#000000" points="975.2901,-294.5072 979.7284,-284.8868 970.2595,-289.6397 975.2901,-294.5072"/>
<text text-anchor="middle" x="886.1188" y="-360.8" font-family="Times,serif" font-size="14.00" fill="#000000">~1.1</text>
</g>
</g>
</svg>
